<?xml version="1.0" encoding="utf-8"?>
<svg width="60" height="20" viewBox="-1077.855 -806.965 2625.934 1812.605" fill="none" xmlns="http://www.w3.org/2000/svg" xmlns:bx="https://boxy-svg.com" preserveAspectRatio="none"><rect x="-995.18" y="330.393" width="193.49" height="46.298" rx="0.3" fill="#454C5E" stroke="black" stroke-width="0.4" style=""/><path d="M 1351.74 403.917 L 1251.28 403.917 C 1250.55 298.364 1164.65 213.193 1059.1 213.193 C 953.553 213.193 868.378 298.364 867.65 403.917 L -388.8 403.917 C -388.8 402.461 -388.8 400.277 -388.8 398.821 C -388.8 292.54 -475.43 206.642 -580.98 206.642 C -687.26 206.642 -773.16 292.54 -773.16 398.821 C -773.16 400.277 -773.16 402.461 -773.16 403.917 L -835.04 403.917 C -899.09 403.917 -950.78 352.232 -950.78 288.172 L -950.78 93.809 C -950.78 39.94 -913.65 -6.649 -861.24 -19.024 L -704 -54.694 C -690.9 -58.333 -677.8 -64.157 -666.88 -72.892 C -639.21 -94.003 -576.61 -142.05 -509.64 -187.91 C -441.94 -233.77 -371.33 -277.44 -327.65 -290.55 C -211.91 -326.22 -118 -349.51 -8.805 -357.52 C 100.388 -366.25 225.596 -360.43 403.944 -337.87 C 494.211 -326.95 599.764 -275.99 694.398 -219.21 C 789.032 -162.43 871.29 -99.83 914.239 -65.613 C 936.806 -48.142 963.743 -37.223 992.133 -34.311 L 1367.02 -4.465 C 1423.8 -0.097 1467.48 47.22 1467.48 104.728 L 1467.48 288.172 C 1467.48 352.232 1415.8 403.917 1351.74 403.917 Z" fill="url(#paint0_radial_516_199)" stroke="black" stroke-width="0.5" style=""/><path d="M -77.96 -14.656 L -88.88 -14.656 L -77.96 -14.656 Z M -77.96 -14.656 L -67.769 -14.656 L -77.96 -14.656 Z M 797.767 -25.575 L -67.769 -25.575 L -67.769 -277.44 C -66.313 -277.44 -65.585 -278.17 -64.129 -278.17 C -55.394 -279.63 -43.747 -281.09 -29.188 -283.27 C 0.658 -286.91 41.424 -292 88.013 -294.92 C 181.919 -301.47 296.207 -301.47 381.378 -276.72 C 481.835 -246.87 591.028 -179.9 675.471 -119.48 C 717.692 -89.635 754.09 -61.245 778.84 -40.862 C 786.12 -35.039 792.671 -29.943 797.767 -25.575 Z" fill="url(#paint1_linear_516_199)" stroke="black" stroke-width="0.5" style=""/><path d="M -172.6 -25.575 L -172.6 -253.42 C -175.51 -251.97 -178.42 -251.24 -182.06 -250.51 C -194.44 -246.14 -209.72 -241.05 -221.37 -236.68 C -277.42 -212.66 -334.2 -156.61 -377.15 -104.92 C -398.26 -79.444 -416.46 -55.421 -428.84 -37.951 C -431.75 -32.855 -434.66 -29.215 -437.57 -25.575 L -172.6 -25.575 Z" fill="url(#paint2_linear_516_199)" stroke="black" stroke-width="0.5" style=""/><rect x="12.308" y="75.609" width="71.485" height="29.409" fill="#59443D" stroke="black" stroke-width="0.3" style=""/><path d="M -10.261 -91.819 L -27.732 -120.21 L -8.077 -120.21 L 47.975 -147.87 L 20.313 -91.819 L -10.261 -67.797 L -8.077 -35.767 L -36.467 -67.797 L -10.261 -91.819 Z" fill="#324955" style=""/><path d="M 579.381 -96.915 L 576.469 -171.16 L 612.867 -134.77 L 607.043 -120.21 L 721.332 -99.1 L 612.867 -99.1 L 556.815 -75.076 L 504.402 -134.77 L 556.815 -90.363 L 579.381 -96.915 Z" fill="#324955" style=""/><path d="M -212.64 -79.444 L -183.52 -92.547 L -183.52 -53.966 L -211.91 -53.966 L -238.11 -79.444 L -288.34 -97.643 L -238.11 -98.371 L -212.64 -79.444 Z" fill="#324955" style=""/><path d="M -940.59 46.492 C -938.4 43.58 -936.22 39.94 -934.76 37.757 L -852.51 37.757 L -883.81 101.088 L -952.23 101.088 C -952.23 99.633 -952.23 97.449 -952.23 95.993 C -952.96 87.257 -952.96 77.794 -951.51 71.97 C -950.05 63.963 -944.95 55.227 -940.59 46.492 Z" fill="#3D271D" stroke="black" stroke-width="0.5" style=""/><path d="M 1321.89 143.31 L 1289.86 79.978 L 1466.02 79.978 C 1466.75 82.162 1466.75 84.345 1467.48 86.529 C 1469.67 94.537 1471.12 104.728 1472.58 112.736 C 1472.58 119.287 1472.58 128.751 1471.12 136.758 C 1471.12 138.942 1470.39 141.126 1470.39 143.31 L 1321.89 143.31 Z" fill="#3D271D" stroke="black" stroke-width="0.5" style=""/><path d="M -696.72 208.098 C -752.78 208.098 -732.39 184.075 -701.82 162.236 C -661.78 133.846 -612.28 125.111 -564.96 138.214 C -532.93 123.655 -490.71 176.068 -490.71 186.987 C -490.71 210.281 -572.24 165.876 -595.54 165.876 C -618.83 165.876 -633.39 208.098 -696.72 208.098 Z" fill="#45312A" style=""/><path d="M 1404.15 323.114 C 1444.19 323.114 1439.82 335.489 1423.08 347.864 C 1390.32 372.615 1347.37 376.983 1308.06 365.335 C 1281.13 377.711 1263.65 350.776 1263.65 341.313 C 1263.65 321.658 1314.61 341.313 1333.54 341.313 C 1353.19 341.313 1351.01 323.114 1404.15 323.114 Z" fill="#45312A" style=""/><path d="M 255.442 274.341 L 248.162 282.349 C 245.251 285.988 240.883 288.9 235.787 290.356 C 208.125 296.908 213.221 338.401 242.339 338.401 L 305.671 338.401 C 307.855 338.401 309.311 338.401 311.494 339.129 L 446.894 361.696 C 455.629 363.151 465.092 363.151 473.828 361.696 L 605.587 339.857 C 609.955 339.129 614.323 339.129 618.691 339.857 L 622.33 340.585 C 653.632 347.864 675.471 311.467 654.36 286.716 C 643.441 273.613 623.058 271.429 609.227 282.349 L 588.844 298.364 C 576.469 307.827 559.726 312.195 544.439 310.011 L 390.113 290.356 C 379.194 288.9 369.003 285.261 358.811 279.437 L 328.237 261.966 C 304.215 248.135 273.641 253.231 255.442 274.341 Z" fill="#45312A" stroke="#45312A" style=""/><path d="M -329.83 353.688 L -136.93 353.688 C -136.2 353.688 -134.74 353.688 -134.01 352.96 C -122.37 349.32 -126.73 331.85 -139.11 334.033 L -203.17 344.953 C -203.9 344.953 -205.36 344.953 -206.81 344.953 L -329.11 336.945 C -330.56 336.945 -331.29 336.945 -332.75 337.673 C -341.48 340.585 -339.3 353.688 -329.83 353.688 Z" fill="#45312A" stroke="#45312A" stroke-linejoin="round" style=""/><path d="M 988.493 113.464 C 975.383 106.912 949.909 113.464 917.879 165.876 C 902.592 191.355 922.975 221.201 951.363 209.553 C 961.553 205.186 972.473 199.362 982.663 192.81 C 999.413 181.163 1027.07 182.619 1036.53 201.546 L 997.223 123.655 C 995.773 119.287 992.863 115.647 988.493 113.464 Z" fill="#45312A" stroke="#45312A" stroke-linejoin="round" style=""/><path d="M -77.96 27.565 L -77.96 363.879" stroke="black" stroke-width="0.2" stroke-linecap="round" stroke-linejoin="round" style=""/><path d="M 805.046 27.565 L 805.046 363.879" stroke="black" stroke-width="0.2" stroke-linecap="round" stroke-linejoin="round" style=""/><defs><radialGradient id="paint0_radial_516_199" cx="0" cy="0" r="1" gradientUnits="userSpaceOnUse" gradientTransform="matrix(1219.832275, 0, 0, 396.061371, 258.292671, 18.260304)"><stop stop-color="#969696"/><stop offset="1" stop-color="#59443D"/></radialGradient><linearGradient id="paint1_linear_516_199" x1="33" y1="2.98378" x2="38.2354" y2="17.7855" gradientUnits="userSpaceOnUse" gradientTransform="matrix(42.063164, 0, 0, 42.063164, -1003.602123, -372.03029)"><stop stop-color="#B6D1E1"/><stop offset="1" stop-color="#444C51"/></linearGradient><linearGradient id="paint2_linear_516_199" x1="16.5" y1="4.41245" x2="17.2193" y2="17.6005" gradientUnits="userSpaceOnUse" gradientTransform="matrix(42.063164, 0, 0, 42.063164, -1003.602123, -372.03029)"><stop stop-color="#B3CEDD"/><stop offset="1" stop-color="#444C51"/></linearGradient><bx:export><bx:file format="png" excluded="true"/><bx:file format="png" path="Untitled 2.png" excluded="true"/><bx:file format="png" path="Untitled 3.png"/><bx:file format="svg" path="Untitled 3.svg"/><bx:file format="jpeg" path="Untitled 2.jpeg" excluded="true"/><bx:file format="svg" path="Untitled 2.svg" excluded="true"/><bx:file format="jpeg" excluded="true"/><bx:file format="svg" excluded="true"/></bx:export></defs></svg>