<?xml version="1.0" encoding="UTF-8"?>
<svg xmlns="http://www.w3.org/2000/svg" xmlns:xlink="http://www.w3.org/1999/xlink" width="5000" height="3000" viewBox="0 0 5000 3000">
<rect x="-500" y="-300" width="6000" height="3600" fill="rgb(100%, 100%, 100%)" fill-opacity="1"/>
<path fill-rule="evenodd" fill="rgb(0%, 0%, 0%)" fill-opacity="1" d="M 529.011719 2475.710938 L 588.417969 2475.710938 C 596.699219 2475.710938 603.417969 2468.988281 603.417969 2460.710938 C 603.417969 2452.433594 596.699219 2445.710938 588.417969 2445.710938 L 529.011719 2445.710938 C 520.734375 2445.710938 514.011719 2452.433594 514.011719 2460.710938 C 514.011719 2468.988281 520.734375 2475.710938 529.011719 2475.710938 Z M 506.058594 2231.269531 C 507.21875 2231.507812 508.414062 2231.605469 509.621094 2231.558594 L 509.65625 2231.554688 C 510.078125 2231.539062 510.496094 2231.503906 510.914062 2231.449219 C 512.3125 2231.394531 513.726562 2231.144531 515.117188 2230.671875 L 556.617188 2216.667969 C 590 2319.808594 667 2403.421875 765.832031 2445.710938 L 635 2445.710938 C 626.722656 2445.710938 620 2452.433594 620 2460.710938 C 620 2468.988281 626.722656 2475.710938 635 2475.710938 L 1392.96875 2475.710938 C 1401.25 2475.710938 1407.96875 2468.988281 1407.96875 2460.710938 C 1407.96875 2452.433594 1401.25 2445.710938 1392.96875 2445.710938 L 1059.761719 2445.710938 C 1156.53125 2404.300781 1232.371094 2323.273438 1266.828125 2223.078125 L 1310.75 2228.796875 L 1325.648438 2241.625 C 1328.398438 2243.992188 1331.910156 2245.28125 1335.539062 2245.257812 L 3320.199219 2231.566406 C 3324.828125 2231.535156 3329.191406 2229.363281 3332 2225.6875 C 3333.949219 2223.152344 3335.011719 2220.089844 3335.089844 2216.964844 L 3400.101562 2209.628906 C 3432.21875 2316.011719 3510.449219 2402.46875 3611.511719 2445.710938 L 3382.621094 2445.710938 C 3374.339844 2445.710938 3367.621094 2452.433594 3367.621094 2460.710938 C 3367.621094 2468.988281 3374.339844 2475.710938 3382.621094 2475.710938 L 4140.589844 2475.710938 C 4148.871094 2475.710938 4155.589844 2468.988281 4155.589844 2460.710938 C 4155.589844 2452.433594 4148.871094 2445.710938 4140.589844 2445.710938 L 3905.441406 2445.710938 C 4018.011719 2397.539062 4102.269531 2295.746094 4125.988281 2172.542969 L 4190.578125 2174.359375 C 4190.5 2174.832031 4190.421875 2175.300781 4190.339844 2175.773438 C 4190.148438 2176.800781 4190.058594 2177.859375 4190.089844 2178.929688 C 4190.121094 2180.40625 4190.378906 2181.847656 4190.820312 2183.210938 C 4191.621094 2185.640625 4192.988281 2187.753906 4194.75 2189.421875 C 4196.5 2191.097656 4198.679688 2192.359375 4201.148438 2193.027344 C 4202.53125 2193.40625 4203.980469 2193.589844 4205.460938 2193.550781 C 4206.539062 2193.523438 4207.589844 2193.382812 4208.609375 2193.132812 L 4646.851562 2094.882812 C 4652.25 2093.675781 4656.539062 2089.59375 4658.019531 2084.265625 L 4665.640625 2056.847656 L 4701.398438 2030.855469 C 4702.601562 2029.980469 4703.511719 2028.773438 4704.03125 2027.382812 L 4729.339844 1958.679688 C 4730.039062 1956.769531 4729.941406 1954.660156 4729.058594 1952.828125 L 4712.800781 1919.019531 L 4734.390625 1905.589844 C 4736.769531 1904.109375 4738.128906 1901.421875 4737.910156 1898.621094 L 4731.621094 1819.570312 L 4736.761719 1801.089844 C 4738.171875 1796.011719 4736.808594 1790.558594 4733.179688 1786.738281 L 4696.640625 1748.269531 L 4704.761719 1630.808594 C 4705.140625 1625.25 4702.410156 1619.929688 4697.671875 1617.011719 C 4657.800781 1592.398438 4636.761719 1558.550781 4640.21875 1512.691406 L 4668.558594 1485.921875 C 4673.480469 1481.269531 4674.679688 1473.890625 4671.46875 1467.921875 L 4660.96875 1448.359375 L 4679.050781 1359.21875 C 4679.929688 1354.910156 4678.859375 1350.441406 4676.140625 1346.96875 C 4561.761719 1201.398438 4401.628906 1057.710938 4261.769531 974.339844 C 4260.160156 973.378906 4258.390625 972.730469 4256.550781 972.429688 C 3586.828125 860.988281 2900.578125 842.519531 2200.261719 903.261719 C 2174.671875 905.480469 2120.171875 927.730469 2050.761719 962.839844 C 1895.210938 1041.519531 1661.121094 1183.949219 1510.941406 1290.539062 C 1010.308594 1308 559.328125 1354.578125 289.0625 1504.371094 C 284.5 1506.898438 281.578125 1511.621094 281.347656 1516.828125 L 267.269531 1833.039062 C 267.210938 1834.328125 267.320312 1835.621094 267.59375 1836.878906 C 267.59375 1836.878906 286.605469 1924.691406 290.539062 1942.859375 C 285.355469 1965.46875 254.949219 2098.078125 254.949219 2098.078125 C 253.789062 2103.136719 255.324219 2108.429688 259.007812 2112.082031 C 323.632812 2176.152344 408.371094 2212.65625 506.058594 2231.269531 Z M 3276.628906 2475.710938 L 3336.03125 2475.710938 C 3344.308594 2475.710938 3351.03125 2468.988281 3351.03125 2460.710938 C 3351.03125 2452.433594 3344.308594 2445.710938 3336.03125 2445.710938 L 3276.628906 2445.710938 C 3268.351562 2445.710938 3261.628906 2452.433594 3261.628906 2460.710938 C 3261.628906 2468.988281 3268.351562 2475.710938 3276.628906 2475.710938 Z M 912.792969 2445.710938 C 722.777344 2445.710938 568.511719 2291.445312 568.511719 2101.429688 C 568.511719 1911.421875 722.777344 1757.148438 912.792969 1757.148438 C 1102.808594 1757.148438 1257.070312 1911.421875 1257.070312 2101.429688 C 1257.070312 2291.445312 1102.808594 2445.710938 912.792969 2445.710938 Z M 3758.46875 2445.710938 C 3568.460938 2445.710938 3414.191406 2291.445312 3414.191406 2101.429688 C 3414.191406 1911.421875 3568.460938 1757.148438 3758.46875 1757.148438 C 3948.488281 1757.148438 4102.75 1911.421875 4102.75 2101.429688 C 4102.75 2291.445312 3948.488281 2445.710938 3758.46875 2445.710938 Z M 816.730469 1825.46875 C 664.425781 1878.488281 583.816406 2045.1875 636.835938 2197.492188 C 689.851562 2349.796875 856.546875 2430.40625 1008.851562 2377.390625 C 1161.160156 2324.371094 1241.769531 2157.675781 1188.75 2005.371094 C 1135.730469 1853.058594 969.039062 1772.460938 816.730469 1825.46875 Z M 3889.710938 1840.359375 C 3745.621094 1767.929688 3569.828125 1826.109375 3497.398438 1970.199219 C 3424.96875 2114.289062 3483.148438 2290.074219 3627.238281 2362.503906 C 3771.328125 2434.933594 3947.109375 2376.753906 4019.539062 2232.664062 C 4091.980469 2088.574219 4033.800781 1912.789062 3889.710938 1840.359375 Z M 889.144531 2193.105469 L 875.625 2231.550781 C 875.097656 2233.050781 874.105469 2234.34375 872.796875 2235.242188 L 831.398438 2263.703125 C 831.320312 2263.761719 831.242188 2263.816406 831.160156 2263.867188 L 806.464844 2280.847656 L 781.726562 2328.46875 C 831.925781 2357.414062 891.4375 2369.699219 951.023438 2360.867188 L 945.554688 2307.398438 L 928.851562 2282.515625 C 928.796875 2282.4375 928.742188 2282.359375 928.6875 2282.277344 L 900.683594 2240.566406 C 899.800781 2239.246094 899.355469 2237.679688 899.417969 2236.09375 L 901.007812 2195.382812 C 896.996094 2194.875 893.035156 2194.113281 889.144531 2193.105469 Z M 3769.960938 2195.40625 C 3765.980469 2195.898438 3761.949219 2196.136719 3757.898438 2196.117188 L 3754.171875 2236.6875 C 3754.019531 2238.269531 3753.378906 2239.765625 3752.328125 2240.957031 L 3719.121094 2278.65625 C 3719.058594 2278.730469 3719 2278.804688 3718.941406 2278.871094 L 3699.128906 2301.367188 L 3686.730469 2353.667969 C 3744.660156 2370.191406 3805.261719 2365.769531 3858.808594 2343.625 L 3840.488281 2293.183594 L 3818.21875 2273.128906 C 3818.148438 2273.0625 3818.078125 2273 3818.011719 2272.933594 L 3780.671875 2239.316406 C 3779.488281 2238.253906 3778.679688 2236.84375 3778.351562 2235.285156 Z M 1030.679688 2335.664062 C 1020.550781 2340.746094 1009.980469 2345.234375 998.992188 2349.058594 C 988.003906 2352.882812 976.929688 2355.933594 965.832031 2358.238281 L 960.890625 2309.90625 L 1004.539062 2294.710938 Z M 3672.390625 2349.125 C 3661.691406 2345.394531 3651.109375 2340.925781 3640.710938 2335.699219 C 3630.320312 2330.472656 3620.421875 2324.648438 3611.039062 2318.285156 L 3642.289062 2281.09375 L 3683.589844 2301.851562 Z M 3929.949219 2299.839844 C 3912.429688 2314.957031 3893.089844 2327.570312 3872.539062 2337.480469 L 3855.980469 2291.875 L 3894.601562 2266.488281 Z M 988.253906 2158.605469 C 985.832031 2161.808594 983.199219 2164.867188 980.371094 2167.757812 L 1006.890625 2198.679688 C 1007.929688 2199.886719 1008.558594 2201.390625 1008.679688 2202.972656 L 1012.628906 2253.058594 C 1012.640625 2253.152344 1012.648438 2253.25 1012.648438 2253.34375 L 1015.011719 2283.222656 L 1043.929688 2328.53125 C 1096.121094 2298.445312 1135.128906 2251.867188 1156.511719 2198.007812 L 1107.550781 2176.039062 L 1077.640625 2178.066406 C 1077.550781 2178.074219 1077.449219 2178.082031 1077.359375 2178.085938 L 1027.230469 2181.484375 C 1025.648438 2181.59375 1024.070312 2181.191406 1022.730469 2180.34375 Z M 768.914062 2320.589844 C 749.828125 2308.085938 732.300781 2293.054688 716.898438 2275.777344 L 756.296875 2247.324219 L 791.285156 2277.53125 Z M 3676.199219 2148.273438 L 3639.191406 2165.332031 C 3637.738281 2165.996094 3636.128906 2166.1875 3634.570312 2165.875 L 3585.308594 2155.96875 C 3585.21875 2155.949219 3585.128906 2155.933594 3585.03125 2155.910156 L 3555.648438 2150.003906 L 3504.238281 2165.394531 C 3518.410156 2221.582031 3551.019531 2272.859375 3598.839844 2309.488281 L 3633.421875 2268.339844 L 3639.648438 2239.019531 C 3639.671875 2238.925781 3639.691406 2238.835938 3639.710938 2238.742188 L 3650.160156 2189.601562 C 3650.488281 2188.046875 3651.308594 2186.636719 3652.488281 2185.574219 L 3682.820312 2158.378906 C 3680.390625 2155.144531 3678.179688 2151.769531 3676.199219 2148.273438 Z M 998.449219 2264.066406 L 946.640625 2282.101562 L 955.828125 2295.785156 L 999.746094 2280.5 Z M 4018.480469 2135.652344 L 3965.539062 2126.277344 L 3937.039062 2135.535156 C 3936.949219 2135.566406 3936.859375 2135.597656 3936.769531 2135.625 L 3888.988281 2151.148438 C 3887.46875 2151.640625 3885.839844 2151.636719 3884.339844 2151.144531 L 3845.609375 2138.472656 C 3844.820312 2140.316406 3843.980469 2142.144531 3843.070312 2143.953125 C 3842.160156 2145.765625 3841.191406 2147.535156 3840.179688 2149.265625 L 3873.460938 2172.785156 C 3874.75 2173.703125 3875.730469 2175.007812 3876.230469 2176.515625 L 3892.28125 2224.121094 C 3892.308594 2224.210938 3892.339844 2224.300781 3892.371094 2224.394531 L 3901.949219 2252.796875 L 3941.050781 2289.6875 C 3961.589844 2269.777344 3979.179688 2246.160156 3992.738281 2219.191406 C 4006.300781 2192.21875 4014.761719 2164.011719 4018.480469 2135.652344 Z M 3652.328125 2251.503906 L 3648.910156 2267.628906 C 3661.070312 2273.738281 3690.460938 2288.511719 3690.460938 2288.511719 L 3701.351562 2276.144531 Z M 3881.21875 2238.257812 L 3835.371094 2268.386719 L 3847.621094 2279.417969 C 3856.921875 2273.304688 3877.191406 2259.988281 3886.480469 2253.875 Z M 969.054688 2177.605469 C 961.574219 2183.132812 953.152344 2187.636719 943.917969 2190.847656 C 934.683594 2194.0625 925.289062 2195.761719 915.992188 2196.074219 L 914.503906 2234.234375 L 937.996094 2269.226562 L 997.230469 2248.609375 L 993.917969 2206.589844 Z M 773.25 2221.078125 L 765.992188 2235.878906 L 801.191406 2266.269531 L 814.777344 2256.929688 Z M 3664.320312 2195.109375 L 3655.558594 2236.335938 L 3711.601562 2264.507812 L 3739.460938 2232.878906 L 3742.960938 2194.851562 C 3733.78125 2193.324219 3724.691406 2190.414062 3715.949219 2186.023438 C 3707.210938 2181.632812 3699.449219 2176.070312 3692.761719 2169.617188 Z M 731.300781 2111.953125 L 704.25 2099.054688 L 650.542969 2101.445312 C 650.535156 2130.050781 655.242188 2159.121094 665.167969 2187.628906 C 675.089844 2216.136719 689.453125 2241.847656 707.21875 2264.265625 L 750.800781 2232.789062 L 763.996094 2205.878906 C 764.039062 2205.792969 764.078125 2205.707031 764.125 2205.621094 L 786.246094 2160.511719 C 786.945312 2159.085938 788.078125 2157.917969 789.484375 2157.179688 L 825.539062 2138.199219 C 824.765625 2136.351562 824.042969 2134.472656 823.375 2132.558594 C 822.710938 2130.640625 822.105469 2128.722656 821.570312 2126.789062 L 781.523438 2134.300781 C 779.960938 2134.59375 778.34375 2134.382812 776.910156 2133.699219 L 731.5625 2112.078125 C 731.476562 2112.039062 731.386719 2111.996094 731.300781 2111.953125 Z M 3831.609375 2161.578125 C 3819.25 2176.632812 3802.75 2187.1875 3784.660156 2192.398438 L 3792.53125 2229.804688 L 3823.851562 2258.011719 L 3876.261719 2223.5625 L 3862.800781 2183.621094 Z M 798.636719 2169.3125 L 780.078125 2207.15625 L 827.554688 2248.144531 L 862.285156 2224.269531 L 874.96875 2188.207031 C 857.714844 2180.679688 842.726562 2168.0625 832.429688 2151.523438 Z M 4667.351562 1938.710938 L 4317.03125 1990.699219 C 4314.679688 1991.039062 4312.300781 1990.261719 4310.621094 1988.578125 C 4308.941406 1986.890625 4308.160156 1984.519531 4308.511719 1982.160156 C 4315.609375 1934.851562 4305.878906 1870.960938 4290.089844 1821.121094 C 4279.859375 1788.820312 4267.300781 1762.421875 4254.761719 1751.109375 C 4225.511719 1724.71875 4195.078125 1700.128906 4163.449219 1677.308594 C 4163.390625 1677.269531 4163.339844 1677.230469 4163.28125 1677.179688 C 4098.371094 1630.371094 4028.421875 1591 3953.21875 1558.808594 C 3935.101562 1551.050781 3893.941406 1549.570312 3840.601562 1552.570312 C 3781.558594 1555.890625 3707.929688 1565.039062 3633.699219 1578.71875 L 3633.339844 1578.789062 L 3394.691406 1642.699219 C 3387.859375 1645.410156 3381.128906 1651.171875 3374.359375 1659.179688 C 3363.160156 1672.449219 3352.21875 1691.699219 3341.820312 1714.941406 C 3300.410156 1807.460938 3268.140625 1962.300781 3267.960938 2063.671875 C 3267.949219 2067.75 3264.691406 2071.074219 3260.609375 2071.15625 L 1436.800781 2108.929688 C 1433.011719 2109.007812 1429.75 2106.238281 1429.21875 2102.480469 C 1421.570312 2048.304688 1417.578125 1979.710938 1409.339844 1924.851562 C 1404.070312 1889.761719 1397.328125 1860.429688 1386.191406 1845.058594 C 1305.988281 1734.421875 1208.488281 1642.089844 1085.371094 1576.890625 C 1070.429688 1568.988281 1043.75 1564.898438 1010.148438 1563.488281 C 957.941406 1561.320312 889.484375 1566.058594 821.308594 1575.679688 C 753.140625 1585.289062 685.246094 1599.769531 634.164062 1617.140625 C 601.160156 1628.359375 575.289062 1640.601562 561.507812 1653.710938 C 524.480469 1688.929688 500.21875 1742.878906 484.882812 1805.5 C 462.027344 1898.839844 459.1875 2011.371094 465.320312 2111.664062 C 469.585938 2111.554688 473.851562 2111.421875 478.128906 2111.257812 C 478.054688 2107.988281 478.019531 2104.714844 478.019531 2101.429688 C 478.019531 1861.46875 672.835938 1666.660156 912.792969 1666.660156 C 1152.75 1666.660156 1347.570312 1861.46875 1347.570312 2101.429688 C 1347.570312 2138.652344 1342.878906 2174.789062 1334.058594 2209.277344 L 1340.960938 2215.21875 C 1449.859375 2214.46875 3105.210938 2203.050781 3301.101562 2201.699219 C 3294.039062 2169.390625 3290.308594 2135.84375 3290.308594 2101.429688 C 3290.308594 1843.050781 3500.089844 1633.269531 3758.46875 1633.269531 C 4016.859375 1633.269531 4226.628906 1843.050781 4226.628906 2101.429688 C 4226.628906 2120.96875 4225.429688 2140.230469 4223.101562 2159.140625 L 4631.519531 2067.574219 Z M 1305.980469 2197.921875 C 1313.550781 2166.996094 1317.570312 2134.679688 1317.570312 2101.429688 C 1317.570312 1878.03125 1136.191406 1696.660156 912.792969 1696.660156 C 689.390625 1696.660156 508.019531 1878.03125 508.019531 2101.429688 C 508.019531 2134.535156 512 2166.71875 519.511719 2197.527344 L 548.527344 2187.734375 C 541.976562 2160.015625 538.511719 2131.125 538.511719 2101.429688 C 538.511719 1894.859375 706.222656 1727.148438 912.792969 1727.148438 C 1119.359375 1727.148438 1287.070312 1894.859375 1287.070312 2101.429688 C 1287.070312 2133.363281 1283.058594 2164.367188 1275.53125 2193.957031 Z M 309.789062 2116.945312 C 360.089844 2156.417969 420.742188 2181.617188 488.574219 2196.992188 C 483.417969 2174.039062 480.078125 2150.402344 478.714844 2126.246094 C 471.964844 2126.503906 465.222656 2126.691406 458.503906 2126.816406 C 458.445312 2126.816406 458.390625 2126.820312 458.335938 2126.820312 C 413.644531 2127.632812 369.597656 2125.480469 326.402344 2119.460938 C 326.289062 2119.445312 326.171875 2119.429688 326.058594 2119.410156 C 320.621094 2118.652344 315.199219 2117.832031 309.789062 2116.945312 Z M 4194.539062 2144.457031 C 4195.921875 2130.304688 4196.628906 2115.949219 4196.628906 2101.429688 C 4196.628906 1859.609375 4000.300781 1663.269531 3758.46875 1663.269531 C 3516.648438 1663.269531 3320.308594 1859.609375 3320.308594 2101.429688 C 3320.308594 2130.882812 3323.230469 2159.660156 3328.78125 2187.488281 L 3392.53125 2180.292969 C 3387.070312 2154.871094 3384.191406 2128.484375 3384.191406 2101.429688 C 3384.191406 1894.859375 3551.898438 1727.148438 3758.46875 1727.148438 C 3965.039062 1727.148438 4132.75 1894.859375 4132.75 2101.429688 C 4132.75 2115.359375 4131.988281 2129.109375 4130.5 2142.65625 Z M 1174.601562 2116.449219 C 1173.261719 2139.554688 1168.851562 2162.21875 1161.660156 2183.875 L 1117.390625 2164.015625 L 1126.050781 2118.609375 Z M 1006.890625 2090.796875 C 1009.089844 2110.148438 1005.179688 2129.347656 996.324219 2145.960938 L 1028.660156 2166.351562 L 1070.710938 2163.503906 L 1082.46875 2101.894531 L 1044.429688 2083.753906 Z M 891.527344 2040.347656 C 925.242188 2028.609375 962.140625 2046.453125 973.878906 2080.167969 C 985.613281 2113.882812 967.769531 2150.78125 934.054688 2162.515625 C 900.34375 2174.253906 863.441406 2156.40625 851.707031 2122.695312 C 839.972656 2088.980469 857.816406 2052.082031 891.527344 2040.347656 Z M 3787.519531 2043.640625 C 3819.421875 2059.675781 3832.289062 2098.585938 3816.261719 2130.480469 C 3800.230469 2162.375 3761.320312 2175.253906 3729.421875 2159.222656 C 3697.53125 2143.1875 3684.648438 2104.277344 3700.679688 2072.382812 C 3716.71875 2040.488281 3755.628906 2027.609375 3787.519531 2043.640625 Z M 1096.46875 2108.566406 L 1086.179688 2162.453125 L 1102.628906 2161.339844 L 1111.351562 2115.660156 Z M 894.941406 2050.148438 C 866.636719 2060.003906 851.660156 2090.980469 861.511719 2119.28125 C 871.363281 2147.585938 902.339844 2162.566406 930.644531 2152.714844 C 958.945312 2142.859375 973.925781 2111.882812 964.074219 2083.578125 C 954.222656 2055.277344 923.246094 2040.296875 894.941406 2050.148438 Z M 3782.859375 2052.914062 C 3756.078125 2039.457031 3723.421875 2050.269531 3709.960938 2077.042969 C 3696.5 2103.820312 3707.308594 2136.488281 3734.089844 2149.945312 C 3760.859375 2163.40625 3793.53125 2152.59375 3806.988281 2125.820312 C 3820.449219 2099.042969 3809.640625 2066.375 3782.859375 2052.914062 Z M 3496.941406 2082.175781 L 3544.789062 2090.648438 L 3547.460938 2136.796875 L 3500.980469 2150.710938 C 3496.671875 2128.308594 3495.261719 2105.261719 3496.941406 2082.175781 Z M 3590.179688 2079.757812 L 3593.808594 2142.375 L 3635.128906 2150.6875 L 3669.839844 2134.6875 C 3663.238281 2117.058594 3661.859375 2097.515625 3666.570312 2078.613281 L 3630.269531 2066.734375 Z M 899.871094 2064.316406 C 920.359375 2057.183594 942.777344 2068.027344 949.90625 2088.511719 C 957.039062 2108.996094 946.195312 2131.414062 925.714844 2138.546875 C 905.226562 2145.679688 882.808594 2134.835938 875.675781 2114.351562 C 868.546875 2093.867188 879.386719 2071.445312 899.871094 2064.316406 Z M 3776.121094 2066.316406 C 3795.5 2076.058594 3803.328125 2099.703125 3793.589844 2119.082031 C 3783.839844 2138.460938 3760.199219 2146.285156 3740.820312 2136.546875 C 3721.441406 2126.804688 3713.621094 2103.160156 3723.359375 2083.78125 C 3733.101562 2064.402344 3756.738281 2056.574219 3776.121094 2066.316406 Z M 3575.441406 2084.550781 L 3559.761719 2089.640625 L 3562.449219 2136.070312 L 3578.609375 2139.320312 Z M 3847.101562 2068.175781 C 3853.710938 2085.804688 3855.078125 2105.347656 3850.378906 2124.25 L 3886.679688 2136.125 L 3926.761719 2123.105469 L 3923.140625 2060.488281 L 3881.820312 2052.175781 Z M 4015.960938 2052.152344 C 4020.28125 2074.554688 4021.691406 2097.601562 4020.011719 2120.6875 L 3972.148438 2112.214844 L 3969.480469 2066.066406 Z M 754.875 2039.359375 L 743.113281 2100.96875 L 781.160156 2119.109375 L 818.695312 2112.066406 C 816.496094 2092.714844 820.40625 2073.515625 829.257812 2056.898438 L 796.925781 2036.507812 Z M 3938.339844 2063.542969 L 3941.511719 2118.3125 L 3957.191406 2113.222656 C 3956.398438 2099.632812 3954.5 2066.792969 3954.5 2066.792969 Z M 1466.53125 1776.339844 C 1398.078125 1701.820312 1306.058594 1597.371094 1231.570312 1538.339844 C 1200.640625 1513.828125 1173.078125 1497.089844 1151.660156 1494.71875 C 985.097656 1476.28125 818.539062 1490.289062 651.980469 1534.640625 L 651.710938 1534.710938 C 651.632812 1534.730469 651.558594 1534.738281 651.484375 1534.761719 C 524.902344 1561.179688 418.355469 1609.410156 368.351562 1719.691406 C 364.789062 1809.75 370.5 1899.808594 380.402344 1989.871094 C 380.53125 1991.050781 380.382812 1992.230469 379.964844 1993.339844 L 337.609375 2105.816406 C 374.601562 2110.488281 412.214844 2112.328125 450.308594 2111.933594 C 444.144531 2010.324219 447.175781 1896.441406 470.3125 1801.929688 C 486.40625 1736.210938 512.304688 1679.808594 551.171875 1642.839844 C 566.039062 1628.691406 593.726562 1615.039062 629.335938 1602.941406 C 681.167969 1585.308594 750.046875 1570.578125 819.214844 1560.828125 C 888.371094 1551.070312 957.816406 1546.300781 1010.769531 1548.511719 C 1047.28125 1550.03125 1076.160156 1555.050781 1092.390625 1563.640625 C 1217.578125 1629.929688 1316.78125 1723.75 1398.339844 1836.261719 C 1410.429688 1852.929688 1418.460938 1884.550781 1424.179688 1922.628906 C 1432.089844 1975.320312 1436.089844 2040.683594 1443.171875 2093.796875 L 1500.011719 2092.617188 C 1483.171875 1987.609375 1471.941406 1882.191406 1466.53125 1776.339844 Z M 1118.371094 1938.601562 L 1074.78125 1970.070312 L 1061.589844 1996.980469 C 1061.550781 1997.070312 1061.511719 1997.160156 1061.460938 1997.238281 L 1039.339844 2042.347656 C 1038.640625 2043.777344 1037.511719 2044.945312 1036.101562 2045.683594 L 1000.039062 2064.664062 C 1000.820312 2066.511719 1001.539062 2068.390625 1002.210938 2070.304688 C 1002.878906 2072.21875 1003.480469 2074.140625 1004.019531 2076.074219 L 1044.058594 2068.5625 C 1045.628906 2068.269531 1047.238281 2068.476562 1048.679688 2069.160156 L 1094.019531 2090.785156 C 1094.109375 2090.824219 1094.199219 2090.863281 1094.28125 2090.90625 L 1121.339844 2103.804688 L 1175.039062 2101.417969 C 1175.050781 2072.8125 1170.339844 2043.742188 1160.421875 2015.234375 C 1150.488281 1986.71875 1136.128906 1961.011719 1118.371094 1938.601562 Z M 287.171875 2097.5625 C 298.835938 2099.929688 310.570312 2101.976562 322.367188 2103.726562 C 331.289062 2080.03125 365.296875 1989.730469 365.296875 1989.730469 C 359.96875 1940.988281 355.871094 1892.25 353.796875 1843.5 C 339.121094 1867.351562 327.457031 1895.839844 317.964844 1927.75 L 320.566406 1939.78125 C 321.03125 1941.929688 321.019531 1944.160156 320.527344 1946.308594 C 320.527344 1946.308594 293.542969 2064 286.082031 2096.535156 C 286.445312 2096.882812 286.8125 2097.222656 287.171875 2097.5625 Z M 739.40625 2040.40625 L 722.960938 2041.523438 C 720.871094 2052.449219 716.324219 2076.273438 714.238281 2087.203125 L 729.117188 2094.296875 Z M 2534.351562 1442.230469 L 1480.519531 1505.871094 L 1480.511719 1506.21875 C 1478.890625 1543.269531 1477.988281 1580.359375 1477.820312 1617.460938 C 1477.550781 1677.71875 1479.210938 1737.988281 1482.761719 1798.160156 C 1486.351562 1859.070312 1491.878906 1919.871094 1499.300781 1980.441406 C 1503.839844 2017.578125 1509.101562 2054.628906 1515.03125 2091.570312 L 1515.148438 2092.304688 L 2493.828125 2072.035156 L 2493.828125 2071.558594 C 2493.621094 2037.992188 2493.738281 2004.425781 2494.230469 1970.859375 C 2495.300781 1895.96875 2498.160156 1821.101562 2503 1746.351562 C 2507.410156 1678.269531 2513.46875 1610.300781 2521.339844 1542.539062 C 2525.210938 1509.210938 2529.519531 1475.941406 2534.28125 1442.738281 Z M 663.929688 2018.988281 L 708.199219 2038.847656 L 699.53125 2084.25 L 650.980469 2086.410156 C 652.324219 2063.308594 656.730469 2040.644531 663.929688 2018.988281 Z M 3575.890625 1913.179688 C 3555.359375 1933.078125 3537.761719 1956.699219 3524.210938 1983.671875 C 3510.648438 2010.644531 3502.191406 2038.851562 3498.46875 2067.210938 L 3551.398438 2076.585938 L 3579.910156 2067.324219 C 3580 2067.292969 3580.089844 2067.265625 3580.179688 2067.238281 L 3627.960938 2051.714844 C 3629.46875 2051.222656 3631.101562 2051.226562 3632.609375 2051.71875 L 3671.339844 2064.390625 C 3672.121094 2062.546875 3672.96875 2060.71875 3673.878906 2058.90625 C 3674.789062 2057.097656 3675.75 2055.328125 3676.761719 2053.597656 L 3643.488281 2030.078125 C 3642.191406 2029.160156 3641.21875 2027.855469 3640.710938 2026.347656 L 3624.660156 1978.738281 C 3624.628906 1978.648438 3624.601562 1978.558594 3624.570312 1978.46875 L 3615 1950.070312 Z M 3236.488281 1399.839844 L 2549.640625 1441.308594 C 2520.148438 1645.351562 2507.449219 1855.828125 2508.828125 2071.726562 L 3253.019531 2056.3125 C 3254.691406 1953.148438 3286.980469 1800.738281 3328.128906 1708.808594 C 3339.210938 1684.058594 3350.96875 1663.628906 3362.898438 1649.5 C 3371.558594 1639.25 3380.429688 1632.210938 3389.171875 1628.75 C 3454.039062 1603.070312 3539.050781 1581.300781 3623.820312 1565.339844 L 3621.691406 1484.179688 C 3602.351562 1432.019531 3580.941406 1382.570312 3556.761719 1336.71875 Z M 3918.109375 1893.378906 L 3883.53125 1934.519531 L 3877.289062 1963.839844 C 3877.269531 1963.941406 3877.25 1964.03125 3877.230469 1964.121094 L 3866.78125 2013.261719 C 3866.449219 2014.816406 3865.640625 2016.226562 3864.460938 2017.285156 L 3834.121094 2044.484375 C 3836.550781 2047.71875 3838.761719 2051.09375 3840.75 2054.589844 L 3877.761719 2037.53125 C 3879.199219 2036.863281 3880.820312 2036.675781 3882.378906 2036.988281 L 3931.628906 2046.894531 C 3931.71875 2046.910156 3931.820312 2046.929688 3931.910156 2046.949219 L 3961.289062 2052.859375 L 4012.699219 2037.46875 C 3998.53125 1981.28125 3965.929688 1930.011719 3918.109375 1893.378906 Z M 963.300781 1978.589844 L 950.617188 2014.65625 C 967.871094 2022.183594 982.859375 2034.800781 993.15625 2051.339844 L 1026.949219 2033.550781 L 1045.511719 1995.710938 L 998.03125 1954.71875 Z M 781.660156 1874.328125 C 729.46875 1904.421875 690.457031 1951 669.074219 2004.855469 L 718.039062 2026.820312 L 747.941406 2024.796875 C 748.035156 2024.785156 748.132812 2024.78125 748.226562 2024.773438 L 798.351562 2021.378906 C 799.9375 2021.269531 801.515625 2021.671875 802.859375 2022.515625 L 837.332031 2044.257812 C 839.753906 2041.054688 842.386719 2037.996094 845.214844 2035.105469 L 818.691406 2004.183594 C 817.65625 2002.976562 817.03125 2001.472656 816.90625 1999.890625 L 812.957031 1949.808594 C 812.945312 1949.710938 812.941406 1949.609375 812.933594 1949.519531 L 810.578125 1919.640625 Z M 3693.101562 1944.851562 L 3640.679688 1979.300781 L 3654.140625 2019.238281 L 3685.328125 2041.285156 C 3697.691406 2026.230469 3714.199219 2015.675781 3732.289062 2010.464844 L 3724.421875 1973.058594 Z M 4701.109375 1929.308594 L 4672.109375 2033.605469 L 4690.738281 2020.058594 C 4694.410156 2010.085938 4709.890625 1968.078125 4714.171875 1956.46875 Z M 3777.488281 1969.980469 L 3773.988281 2008.011719 C 3783.160156 2009.535156 3792.261719 2012.445312 3801 2016.839844 C 3809.730469 2021.230469 3817.488281 2026.792969 3824.191406 2033.246094 L 3852.621094 2007.753906 L 3861.390625 1966.519531 L 3805.351562 1938.359375 Z M 887.589844 1933.628906 L 828.355469 1954.261719 L 831.667969 1996.269531 L 856.53125 2025.257812 C 864.011719 2019.730469 872.433594 2015.226562 881.667969 2012.015625 C 890.898438 2008.800781 900.296875 2007.101562 909.59375 2006.785156 L 911.085938 1968.628906 Z M 1043.859375 1874.390625 C 993.660156 1845.449219 934.148438 1833.160156 874.5625 1841.988281 L 880.03125 1895.460938 L 896.734375 1920.351562 C 896.789062 1920.421875 896.84375 1920.511719 896.894531 1920.589844 L 924.898438 1962.300781 C 925.785156 1963.621094 926.230469 1965.179688 926.167969 1966.769531 L 924.578125 2007.480469 C 928.589844 2007.988281 932.550781 2008.75 936.441406 2009.757812 L 949.960938 1971.308594 C 950.488281 1969.808594 951.476562 1968.519531 952.789062 1967.621094 L 994.1875 1939.160156 C 994.265625 1939.101562 994.34375 1939.050781 994.425781 1938.988281 L 1019.121094 1922.011719 Z M 3830.21875 1849.199219 C 3772.28125 1832.671875 3711.691406 1837.089844 3658.140625 1859.238281 L 3676.449219 1909.679688 L 3698.730469 1929.738281 C 3698.800781 1929.800781 3698.871094 1929.859375 3698.941406 1929.929688 L 3736.269531 1963.550781 C 3737.449219 1964.609375 3738.269531 1966.019531 3738.589844 1967.570312 L 3746.980469 2007.457031 C 3750.96875 2006.964844 3755 2006.726562 3759.039062 2006.746094 L 3762.78125 1966.179688 C 3762.921875 1964.589844 3763.570312 1963.101562 3764.621094 1961.910156 L 3797.820312 1924.199219 C 3797.878906 1924.128906 3797.949219 1924.058594 3798.011719 1923.988281 L 3817.820312 1901.5 Z M 1010.808594 1945.929688 L 1052.339844 1981.78125 L 1059.589844 1966.980469 C 1051.171875 1959.710938 1032.808594 1943.859375 1024.390625 1936.589844 Z M 4610.070312 1513.769531 C 4580.351562 1513.441406 4549.058594 1505.378906 4517.089844 1495.191406 C 4480.429688 1483.511719 4442.839844 1469.058594 4405.710938 1461.238281 C 4382.648438 1456.390625 4338.289062 1457.570312 4312.011719 1460.480469 C 4307.640625 1460.96875 4303.28125 1461.71875 4299.988281 1462.371094 C 4314.660156 1498.371094 4329.460938 1534.398438 4341.101562 1569.640625 C 4341.171875 1569.808594 4341.21875 1569.980469 4341.28125 1570.160156 C 4346.179688 1585.03125 4350.519531 1599.769531 4354.050781 1614.300781 C 4354.738281 1617.140625 4353.71875 1620.109375 4351.441406 1621.941406 C 4349.148438 1623.75 4346.019531 1624.078125 4343.410156 1622.78125 C 4325.140625 1613.640625 4304.160156 1602.710938 4281.890625 1590.710938 L 4180.171875 1670.929688 C 4209.398438 1692.429688 4237.609375 1715.429688 4264.808594 1739.96875 C 4278.601562 1752.410156 4293.140625 1781.070312 4304.390625 1816.589844 C 4319.761719 1865.078125 4329.410156 1926.371094 4324.589844 1974.410156 L 4671.75 1922.890625 L 4705.578125 1801.238281 L 4670.339844 1764.148438 C 4667.449219 1761.101562 4665.960938 1756.980469 4666.25 1752.78125 C 4666.25 1752.78125 4672.261719 1665.910156 4674.21875 1637.558594 C 4629.898438 1607.550781 4606.980469 1567.039062 4610.070312 1513.769531 Z M 3681.578125 1934.480469 L 3669.328125 1923.449219 L 3630.460938 1948.988281 L 3635.730469 1964.609375 Z M 1056.671875 1882.269531 C 1075.761719 1894.78125 1093.289062 1909.808594 1108.691406 1927.089844 L 1069.289062 1955.539062 L 1034.300781 1925.328125 Z M 3815.589844 1926.71875 L 3864.609375 1951.359375 L 3868.039062 1935.230469 L 3826.488281 1914.351562 Z M 878.945312 1920.761719 L 869.757812 1907.078125 L 825.839844 1922.359375 L 827.136719 1938.800781 Z M 3644.410156 1865.378906 L 3660.96875 1910.988281 L 3622.339844 1936.371094 L 3586.988281 1903.019531 C 3604.511719 1887.910156 3623.851562 1875.289062 3644.410156 1865.378906 Z M 3844.550781 1853.738281 C 3855.261719 1857.46875 3865.839844 1861.941406 3876.230469 1867.160156 C 3886.628906 1872.390625 3896.53125 1878.210938 3905.910156 1884.578125 L 3874.648438 1921.769531 L 3833.351562 1901.011719 Z M 859.753906 1844.628906 L 864.695312 1892.960938 L 821.039062 1908.148438 L 794.902344 1867.199219 C 805.035156 1862.109375 815.605469 1857.628906 826.59375 1853.808594 C 837.582031 1849.980469 848.65625 1846.929688 859.753906 1844.628906 Z M 4719.921875 1861.648438 L 4708.058594 1904.308594 L 4722.589844 1895.261719 Z M 297.324219 1832.429688 L 311.664062 1898.660156 C 322.707031 1867.609375 336.214844 1840.378906 352.902344 1818.140625 C 352.011719 1786.109375 352.054688 1754.078125 353.25 1722.050781 L 303.589844 1691.71875 Z M 4224.75 997.601562 C 3566.050781 890.511719 2891.28125 873.441406 2202.851562 933.140625 C 2179.058594 935.210938 2128.828125 956.96875 2064.300781 989.609375 C 1908.589844 1068.371094 1673.609375 1211.488281 1524.671875 1317.601562 C 1522.269531 1319.308594 1519.421875 1320.269531 1516.480469 1320.371094 C 1024.179688 1337.351562 579.773438 1381.25 310.941406 1526.601562 L 309.722656 1553.988281 L 339.253906 1551.03125 C 339.34375 1551.019531 339.433594 1551.011719 339.527344 1551 L 648.652344 1520.011719 L 648.070312 1520.160156 C 816.480469 1475.308594 984.894531 1461.171875 1153.308594 1479.808594 C 1176.671875 1482.390625 1207.160156 1499.851562 1240.878906 1526.578125 C 1311.578125 1582.609375 1398.03125 1679.191406 1465.429688 1752.941406 C 1461.921875 1671.128906 1461.898438 1589.078125 1465.46875 1506.78125 L 1325.578125 1515.230469 L 1283.421875 1486.511719 L 1468.121094 1475.359375 C 1468.480469 1474.851562 1468.898438 1474.378906 1469.371094 1473.960938 L 1596.691406 1363.511719 L 1596.75 1363.460938 C 1766.460938 1219.050781 1963.25 1087.578125 2191.671875 971.238281 C 2192.621094 970.75 2193.671875 970.480469 2194.75 970.429688 C 2335.5 964.320312 2475.648438 960.449219 2615.160156 959.199219 C 2615.261719 959.191406 2615.371094 959.191406 2615.46875 959.191406 C 2630.378906 959.058594 2645.28125 958.960938 2660.140625 958.878906 C 2660.25 958.878906 2660.359375 958.878906 2660.480469 958.878906 C 2881.371094 957.800781 3100.488281 963.410156 3317.480469 977.230469 L 3317.511719 977.230469 C 3471.71875 987.050781 3624.808594 1001.019531 3776.648438 1019.691406 C 3778.101562 1019.871094 3779.460938 1020.46875 3780.578125 1021.410156 L 3955.300781 1169.398438 C 3955.609375 1169.660156 3955.890625 1169.941406 3956.140625 1170.238281 L 3956.148438 1170.230469 L 4035.898438 1242.300781 L 3572.109375 1333.699219 C 3595.910156 1379.339844 3617.058594 1428.429688 3636.191406 1480.128906 C 3636.46875 1480.910156 3636.628906 1481.71875 3636.648438 1482.539062 L 3638.75 1562.589844 C 3711.011719 1549.550781 3782.230469 1540.828125 3839.75 1537.589844 C 3896.308594 1534.410156 3939.910156 1536.789062 3959.121094 1545.011719 C 4033.621094 1576.910156 4103.039062 1615.761719 4167.539062 1661.78125 L 4267.539062 1582.929688 C 4200.050781 1546.089844 4123.871094 1501.238281 4076.089844 1467.578125 C 4075.800781 1467.398438 4075.53125 1467.210938 4075.269531 1467 C 4064.621094 1459.480469 4055.421875 1452.519531 4048.070312 1446.351562 C 4037.660156 1437.609375 4030.808594 1430.109375 4028.101562 1424.699219 C 4025.949219 1420.410156 4025.820312 1416.691406 4026.78125 1413.769531 C 4027.519531 1411.5 4029.699219 1408.5 4034.398438 1406.160156 C 4039.859375 1403.449219 4050.390625 1400.558594 4064.898438 1397.828125 C 4142.78125 1383.191406 4341.769531 1369.878906 4458.761719 1376.28125 C 4494.429688 1378.230469 4566.691406 1418.03125 4616.871094 1446.050781 C 4619.71875 1447.640625 4623.421875 1447.320312 4627.289062 1446.789062 C 4628.449219 1446.628906 4629.621094 1446.429688 4630.800781 1446.210938 L 4647.5 1363.839844 L 4614.039062 1364.019531 C 4611.96875 1364.03125 4609.988281 1363.191406 4608.558594 1361.691406 C 4487 1233.730469 4359.121094 1115.539062 4222.289062 1011.171875 C 4220.359375 1009.699219 4219.261719 1007.378906 4219.339844 1004.949219 C 4219.421875 1002.519531 4220.679688 1000.28125 4222.710938 998.949219 Z M 346.890625 1565.339844 L 332.121094 1691.570312 L 357.652344 1707.160156 C 398.011719 1623.441406 470.238281 1574.539062 559.230469 1544.050781 Z M 309.050781 1569.128906 L 304.351562 1674.609375 L 318.027344 1682.960938 L 331.609375 1566.871094 Z M 3632.359375 1578.96875 C 3632.691406 1578.929688 3633.019531 1578.871094 3633.339844 1578.789062 L 3632.761719 1578.898438 L 3632.359375 1578.96875 C 3614.269531 1582.320312 3596.140625 1585.941406 3578.191406 1589.808594 L 3577.488281 1589.960938 L 3576.359375 1590.210938 L 3575.941406 1590.300781 C 3546.171875 1596.75 3516.898438 1603.890625 3489.058594 1611.640625 L 3488.578125 1611.769531 L 3487.699219 1612.011719 L 3487.179688 1612.160156 C 3484.089844 1613.019531 3481.019531 1613.898438 3477.960938 1614.78125 L 3477.328125 1614.960938 L 3475.609375 1615.460938 L 3474.761719 1615.699219 L 3473.898438 1615.949219 L 3473.050781 1616.199219 L 3472.199219 1616.449219 L 3471.53125 1616.648438 C 3469.949219 1617.109375 3468.371094 1617.578125 3466.789062 1618.050781 L 3466.121094 1618.25 L 3465.238281 1618.511719 L 3465.148438 1618.539062 L 3465.121094 1618.550781 L 3464.949219 1618.601562 L 3464.359375 1618.78125 L 3464.25 1618.808594 L 3464.191406 1618.828125 L 3463.96875 1618.898438 L 3463.488281 1619.039062 L 3463.359375 1619.078125 L 3463.289062 1619.101562 L 3463.019531 1619.179688 L 3462.609375 1619.308594 L 3462.488281 1619.339844 L 3462.390625 1619.371094 L 3462.171875 1619.441406 L 3461.730469 1619.570312 L 3461.511719 1619.640625 L 3461.210938 1619.730469 L 3460.371094 1619.988281 L 3459.53125 1620.238281 L 3458.699219 1620.5 L 3457.859375 1620.761719 L 3457.140625 1620.980469 C 3456.839844 1621.070312 3456.550781 1621.160156 3456.25 1621.25 L 3455.371094 1621.53125 L 3454.5 1621.800781 L 3453.621094 1622.070312 L 3452.71875 1622.351562 L 3451.839844 1622.628906 L 3450.960938 1622.910156 L 3450.078125 1623.191406 L 3449.199219 1623.460938 L 3448.320312 1623.738281 L 3448.210938 1623.78125 L 3448.191406 1623.78125 L 3447.328125 1624.058594 L 3447.28125 1624.070312 L 3447.128906 1624.121094 L 3446.308594 1624.378906 L 3445.488281 1624.648438 L 3444.679688 1624.910156 L 3443.929688 1625.148438 C 3443.679688 1625.230469 3443.429688 1625.308594 3443.171875 1625.390625 L 3443.089844 1625.421875 L 3442.949219 1625.46875 L 3442.648438 1625.558594 L 3442.351562 1625.660156 L 3442.21875 1625.699219 L 3442.140625 1625.730469 L 3442.011719 1625.769531 L 3441.371094 1625.980469 L 3440.488281 1626.269531 L 3439.628906 1626.550781 L 3438.769531 1626.828125 L 3437.910156 1627.109375 L 3437.050781 1627.398438 L 3436.199219 1627.679688 L 3435.339844 1627.96875 L 3435.21875 1628.011719 L 3435.199219 1628.011719 L 3434.371094 1628.289062 L 3434.328125 1628.308594 L 3434.199219 1628.351562 L 3433.398438 1628.621094 L 3432.609375 1628.878906 L 3431.808594 1629.148438 L 3431.058594 1629.398438 L 3430.238281 1629.679688 L 3430.238281 1629.691406 L 3429.410156 1629.96875 L 3428.558594 1630.261719 L 3427.71875 1630.550781 L 3426.878906 1630.828125 L 3426.039062 1631.121094 L 3425.199219 1631.410156 L 3424.371094 1631.699219 L 3423.53125 1631.988281 L 3422.699219 1632.28125 L 3422.589844 1632.328125 L 3422.558594 1632.328125 L 3421.761719 1632.621094 L 3421.730469 1632.628906 L 3421.621094 1632.671875 L 3420.839844 1632.941406 L 3419.300781 1633.480469 L 3418.550781 1633.75 L 3417.75 1634.039062 L 3416.929688 1634.328125 L 3416.109375 1634.621094 L 3415.300781 1634.921875 L 3414.480469 1635.210938 L 3413.671875 1635.511719 L 3412.859375 1635.800781 L 3412.050781 1636.101562 L 3411.238281 1636.390625 L 3410.441406 1636.691406 L 3410.320312 1636.730469 L 3410.300781 1636.738281 L 3409.519531 1637.03125 L 3409.5 1637.039062 L 3409.398438 1637.070312 L 3408.648438 1637.351562 L 3407.898438 1637.628906 L 3407.160156 1637.910156 L 3406.421875 1638.179688 L 3405.640625 1638.480469 L 3404.839844 1638.78125 L 3404.050781 1639.078125 L 3403.261719 1639.378906 L 3402.46875 1639.679688 L 3401.691406 1639.980469 L 3400.898438 1640.28125 L 3400.121094 1640.578125 L 3398.558594 1641.179688 L 3398.460938 1641.21875 L 3398.441406 1641.230469 L 3397.691406 1641.519531 L 3397.671875 1641.53125 L 3397.578125 1641.558594 L 3396.859375 1641.851562 L 3396.140625 1642.128906 L 3395.441406 1642.410156 L 3396.191406 1642.109375 L 3396.941406 1641.820312 L 3397.671875 1641.53125 L 3398.460938 1641.21875 L 3399.199219 1640.941406 L 3399.960938 1640.640625 L 3400.71875 1640.351562 L 3401.480469 1640.058594 L 3401.820312 1639.929688 L 3402.578125 1639.628906 L 3403.351562 1639.339844 L 3404.109375 1639.050781 L 3404.878906 1638.761719 L 3405.648438 1638.46875 L 3406.421875 1638.179688 L 3407.191406 1637.890625 L 3407.96875 1637.609375 L 3408.75 1637.320312 L 3409.5 1637.039062 L 3410.320312 1636.730469 L 3411.089844 1636.449219 L 3411.871094 1636.160156 L 3412.660156 1635.871094 L 3413.449219 1635.589844 L 3413.789062 1635.460938 L 3414.578125 1635.171875 L 3415.371094 1634.890625 L 3416.160156 1634.609375 L 3416.960938 1634.320312 L 3417.710938 1634.050781 L 3418.550781 1633.75 L 3419.351562 1633.46875 L 3420.148438 1633.179688 L 3420.949219 1632.898438 L 3421.730469 1632.628906 L 3422.589844 1632.328125 L 3423.371094 1632.050781 L 3424.179688 1631.769531 L 3425 1631.480469 L 3425.808594 1631.199219 L 3426.148438 1631.078125 L 3426.96875 1630.808594 L 3427.78125 1630.519531 L 3428.589844 1630.25 L 3429.410156 1629.96875 L 3430.238281 1629.679688 L 3431.058594 1629.398438 L 3431.890625 1629.128906 L 3432.710938 1628.851562 L 3433.539062 1628.570312 L 3434.328125 1628.308594 L 3435.21875 1628.011719 L 3436.03125 1627.738281 L 3436.871094 1627.460938 L 3437.710938 1627.179688 L 3438.558594 1626.898438 L 3438.859375 1626.800781 L 3439.699219 1626.53125 L 3440.539062 1626.25 L 3441.371094 1625.980469 L 3442.140625 1625.730469 L 3442.351562 1625.660156 L 3442.949219 1625.46875 L 3443.171875 1625.390625 L 3443.929688 1625.148438 L 3444.78125 1624.871094 L 3445.628906 1624.601562 L 3446.480469 1624.328125 L 3447.28125 1624.070312 L 3448.210938 1623.78125 L 3449.050781 1623.511719 L 3449.910156 1623.238281 L 3450.78125 1622.960938 L 3451.898438 1622.609375 L 3452.761719 1622.339844 L 3453.621094 1622.070312 L 3454.488281 1621.800781 L 3455.371094 1621.53125 L 3456.25 1621.25 L 3457.140625 1620.980469 L 3458.171875 1620.660156 L 3459.070312 1620.390625 L 3459.960938 1620.109375 L 3460.851562 1619.839844 L 3462.171875 1619.441406 L 3462.488281 1619.339844 L 3463.019531 1619.179688 L 3463.359375 1619.078125 L 3463.96875 1618.898438 L 3464.25 1618.808594 L 3464.949219 1618.601562 L 3465.148438 1618.539062 L 3466.121094 1618.25 L 3466.789062 1618.050781 C 3468.371094 1617.578125 3469.949219 1617.109375 3471.53125 1616.648438 L 3472.539062 1616.351562 L 3473.449219 1616.078125 L 3474.359375 1615.820312 L 3475.261719 1615.558594 L 3476.160156 1615.300781 L 3477.058594 1615.039062 L 3477.960938 1614.78125 C 3481.019531 1613.898438 3484.089844 1613.019531 3487.179688 1612.160156 L 3488.128906 1611.890625 L 3489.058594 1611.640625 C 3516.898438 1603.890625 3546.171875 1596.75 3575.941406 1590.300781 L 3576.359375 1590.210938 L 3577.488281 1589.960938 L 3578.191406 1589.808594 C 3596.140625 1585.941406 3614.269531 1582.320312 3632.359375 1578.96875 Z M 4110.378906 1472.761719 C 4159.460938 1504.96875 4225.960938 1543.441406 4284.371094 1575.019531 C 4284.578125 1575.121094 4284.789062 1575.230469 4285 1575.359375 C 4302.769531 1584.960938 4319.769531 1593.921875 4335.300781 1601.859375 C 4333.019531 1593.71875 4330.519531 1585.519531 4327.839844 1577.269531 L 4162.601562 1479.679688 Z M 4633.648438 1460.910156 C 4630.890625 1461.441406 4628.140625 1461.871094 4625.5 1462.050781 C 4619.558594 1462.460938 4614.058594 1461.660156 4609.558594 1459.148438 C 4580.21875 1442.769531 4543.210938 1422.089844 4510.769531 1407.769531 C 4490.03125 1398.609375 4471.289062 1391.988281 4457.941406 1391.261719 C 4342.019531 1384.921875 4144.839844 1398.058594 4067.671875 1412.570312 C 4057.148438 1414.550781 4046.878906 1417.828125 4042.398438 1419.351562 C 4042.789062 1419.988281 4043.238281 1420.679688 4043.710938 1421.261719 C 4046.738281 1425.101562 4051.53125 1429.671875 4057.71875 1434.871094 C 4064.558594 1440.609375 4073.019531 1447.039062 4082.78125 1453.96875 L 4166.089844 1465.011719 C 4167.089844 1465.140625 4168.050781 1465.46875 4168.921875 1465.980469 L 4320.371094 1555.441406 C 4309.171875 1524.078125 4295.921875 1492.191406 4282.980469 1460.378906 C 4281.871094 1457.640625 4282.46875 1454.488281 4284.519531 1452.359375 C 4285.339844 1451.5 4286.730469 1450.449219 4288.871094 1449.609375 C 4291.089844 1448.730469 4294.808594 1447.808594 4299.671875 1447.011719 C 4324.101562 1442.988281 4381.078125 1440.730469 4408.800781 1446.558594 C 4446.421875 1454.480469 4484.511719 1469.070312 4521.648438 1480.898438 C 4552.929688 1490.871094 4583.5 1498.929688 4612.480469 1498.789062 C 4613.25 1497.289062 4614.28125 1495.921875 4615.519531 1494.75 L 4639.609375 1472 Z M 2482.429688 1331.730469 L 1604.570312 1376.539062 L 1492.339844 1473.890625 L 2540.398438 1410.628906 L 2560.71875 1327.730469 L 2482.679688 1331.71875 C 2482.601562 1331.71875 2482.511719 1331.730469 2482.429688 1331.730469 Z M 3719.390625 1344.578125 C 3716.089844 1345.660156 3713.28125 1348.328125 3712.441406 1353.351562 C 3711.71875 1357.648438 3712.921875 1365.570312 3716.039062 1375.101562 C 3722.390625 1394.539062 3736.140625 1421.96875 3748.691406 1436.851562 C 3755.628906 1445.078125 3762.890625 1449.46875 3768.441406 1449.640625 C 3811.359375 1450.910156 3854.289062 1443.398438 3897.210938 1428.710938 C 3903.539062 1426.539062 3911.269531 1418.460938 3918.179688 1406.640625 C 3932.199219 1382.628906 3944.820312 1343.328125 3944.539062 1324.578125 C 3944.351562 1312.421875 3938.398438 1306.78125 3931.160156 1307.058594 C 3858.621094 1309.828125 3787.980469 1322.070312 3719.390625 1344.578125 Z M 3929.28125 1322.148438 C 3929.398438 1322.851562 3929.511719 1323.691406 3929.53125 1324.429688 C 3929.609375 1327.320312 3929.28125 1330.820312 3928.648438 1334.75 C 3925.429688 1354.710938 3914.519531 1384.558594 3903.210938 1402.390625 C 3900.980469 1405.910156 3898.761719 1408.929688 3896.558594 1411.230469 C 3895.070312 1412.800781 3893.730469 1414.039062 3892.351562 1414.511719 C 3851.191406 1428.609375 3810.039062 1435.871094 3768.878906 1434.648438 C 3768.070312 1434.621094 3767.300781 1433.960938 3766.351562 1433.269531 C 3764.359375 1431.808594 3762.289062 1429.710938 3760.148438 1427.171875 C 3748.628906 1413.519531 3736.128906 1388.28125 3730.289062 1370.441406 C 3728.808594 1365.890625 3727.898438 1360.511719 3727.488281 1357.71875 C 3792.910156 1336.601562 3860.21875 1324.988281 3929.28125 1322.148438 Z M 3501.511719 1245.75 L 3461.398438 1251.390625 C 3461.308594 1251.398438 3461.21875 1251.410156 3461.128906 1251.421875 L 3121.949219 1299.058594 C 3121.730469 1299.089844 3121.511719 1299.109375 3121.289062 1299.121094 L 2576.359375 1326.941406 L 2556.078125 1409.679688 L 3227.011719 1369.179688 L 3539.078125 1304.699219 C 3527.210938 1284.199219 3514.710938 1264.519531 3501.511719 1245.75 Z M 1732.070312 1274.21875 C 1707.589844 1292.710938 1683.398438 1311.589844 1659.539062 1330.871094 C 1651.351562 1337.5 1643.191406 1344.171875 1635.070312 1350.878906 C 1632.488281 1353.03125 1629.898438 1355.171875 1627.320312 1357.320312 C 1626.351562 1358.128906 1625.390625 1358.941406 1624.421875 1359.738281 C 1624.101562 1360.011719 1623.128906 1360.808594 1623.460938 1360.550781 L 1649.949219 1359.199219 L 1687.761719 1319.070312 C 1688.980469 1317.769531 1690.628906 1316.949219 1692.410156 1316.761719 L 1732.671875 1312.371094 C 1731.261719 1298.738281 1731.609375 1286.109375 1732.828125 1273.640625 Z M 1890.710938 1268.988281 L 1861.089844 1269.320312 C 1849.851562 1277.789062 1794.269531 1319.671875 1794.269531 1319.671875 C 1793.191406 1320.480469 1791.910156 1320.988281 1790.570312 1321.128906 L 1696.78125 1331.371094 L 1671.601562 1358.089844 L 1889.328125 1346.980469 C 1890.230469 1323.980469 1891.429688 1294.550781 1890.710938 1268.988281 Z M 4246.558594 1001.179688 L 4239.769531 1005.660156 C 4373.230469 1108.28125 4498.230469 1223.980469 4617.199219 1349 L 4639.28125 1348.878906 C 4528.921875 1212.761719 4380.019531 1080.289062 4248.820312 1001.558594 C 4248.089844 1001.441406 4247.359375 1001.308594 4246.558594 1001.179688 Z M 2593.238281 1004.628906 C 2466.679688 1004.808594 2339.988281 1006.828125 2213.199219 1010.148438 C 2105.539062 1070.101562 1999.5 1135.980469 1896.019531 1211.269531 C 1896.261719 1211.648438 1896.488281 1212.039062 1896.710938 1212.449219 C 1899.410156 1217.390625 1901.519531 1224.75 1902.941406 1233.820312 C 1904.160156 1241.558594 1904.921875 1250.671875 1905.371094 1260.519531 C 1905.398438 1260.78125 1905.421875 1261.050781 1905.421875 1261.328125 C 1905.421875 1261.441406 1905.421875 1261.539062 1905.410156 1261.648438 C 1906.558594 1288.671875 1905.339844 1321.039062 1904.359375 1346.210938 L 2476.871094 1316.988281 Z M 2650.691406 973.929688 C 2640.671875 973.988281 2630.648438 974.058594 2620.609375 974.148438 L 2611.121094 999.609375 C 2611.089844 999.691406 2611.058594 999.78125 2611.019531 999.871094 L 2493.191406 1316.160156 L 2564.5 1312.519531 Z M 2693.398438 973.769531 C 2685.121094 973.789062 2676.839844 973.808594 2668.558594 973.839844 L 2666.191406 973.859375 L 2580.191406 1311.71875 L 2665.039062 1307.390625 L 2696.101562 973.761719 Z M 1890.019531 1254 C 1889.578125 1247.519531 1888.960938 1241.5 1888.121094 1236.140625 C 1887.191406 1230.191406 1886 1225.140625 1884.378906 1221.378906 C 1883.890625 1220.238281 1883.378906 1219.25 1882.800781 1218.441406 C 1882.511719 1218.050781 1882.339844 1217.640625 1881.980469 1217.511719 C 1862.300781 1210.648438 1842.039062 1208.210938 1821.269531 1209.519531 C 1796.871094 1226.519531 1772.929688 1243.75 1749.460938 1261.191406 C 1747.171875 1277.308594 1745.78125 1293.128906 1747.578125 1310.738281 L 1786.890625 1306.449219 L 1854.03125 1255.859375 C 1855.308594 1254.898438 1856.859375 1254.371094 1858.460938 1254.351562 Z M 2708.261719 1004.988281 L 2680.179688 1306.621094 L 3120.191406 1284.160156 L 3448.378906 1238.070312 L 3332.699219 1028.621094 C 3125.101562 1013.691406 2916.890625 1006.621094 2708.261719 1004.988281 Z M 3853.410156 1196.328125 L 3518.160156 1243.410156 C 3530.910156 1261.949219 3543.019531 1281.339844 3554.539062 1301.5 L 3908.628906 1228.339844 Z M 3330.199219 993.078125 C 3337.140625 993.53125 3344.109375 993.988281 3351.078125 994.46875 L 3493.179688 1231.769531 L 3464.28125 1235.828125 Z M 3369.320312 995.71875 C 3374.289062 996.070312 3379.269531 996.429688 3384.261719 996.78125 L 3526.859375 1227.039062 L 3509.308594 1229.511719 Z M 3426.109375 1035.878906 L 3543.101562 1224.761719 L 3841.371094 1182.871094 L 3718 1066 C 3620.851562 1053.980469 3523.539062 1044.019531 3426.109375 1035.878906 Z M 2604.539062 974.300781 C 2469.328125 975.640625 2333.449219 979.441406 2197.019531 985.351562 C 2069.351562 1050.449219 1951.621094 1120.300781 1843.011719 1194.519531 C 1856.609375 1195.378906 1870 1197.851562 1883.148438 1202.078125 C 1988.929688 1124.820312 2097.378906 1057.410156 2207.511719 996.140625 C 2208.570312 995.558594 2209.75 995.230469 2210.960938 995.199219 C 2340.371094 991.800781 2469.660156 989.75 2598.828125 989.628906 Z M 3402.738281 998.128906 L 3416.28125 1020.011719 C 3518.460938 1028.410156 3620.460938 1038.78125 3722.300781 1051.421875 C 3723.890625 1051.609375 3725.371094 1052.308594 3726.53125 1053.421875 L 3860.359375 1180.199219 L 3932.828125 1170.03125 C 3879.421875 1124.789062 3826.179688 1079.339844 3772.589844 1034.308594 C 3772.210938 1033.980469 3771.589844 1034.179688 3771.089844 1034.121094 C 3769.089844 1033.878906 3767.078125 1033.628906 3765.078125 1033.390625 C 3759.070312 1032.660156 3753.050781 1031.929688 3747.039062 1031.21875 C 3723.460938 1028.410156 3699.871094 1025.71875 3676.269531 1023.140625 C 3615.851562 1016.53125 3555.339844 1010.660156 3494.789062 1005.480469 C 3464.421875 1002.878906 3434.03125 1000.460938 3403.628906 998.199219 Z M 2711.171875 973.75 L 2709.648438 990 C 2914.910156 991.621094 3119.769531 998.519531 3324.050781 1012.960938 L 3312.441406 991.941406 L 3312.21875 991.921875 C 3275.550781 989.609375 3238.871094 987.53125 3202.179688 985.671875 C 3125.421875 981.800781 3048.621094 978.929688 2971.789062 976.980469 C 2914.140625 975.511719 2856.46875 974.558594 2798.800781 974.089844 C 2769.878906 973.859375 2740.949219 973.75 2712.019531 973.75 Z M 4416.238281 246.441406 C 4264.550781 246.441406 4141.398438 369.589844 4141.398438 521.28125 C 4141.398438 672.96875 4264.550781 796.121094 4416.238281 796.121094 C 4567.929688 796.121094 4691.078125 672.96875 4691.078125 521.28125 C 4691.078125 369.589844 4567.929688 246.441406 4416.238281 246.441406 Z M 4416.238281 272.441406 C 4553.578125 272.441406 4665.078125 383.941406 4665.078125 521.28125 C 4665.078125 658.621094 4553.578125 770.121094 4416.238281 770.121094 C 4278.898438 770.121094 4167.398438 658.621094 4167.398438 521.28125 C 4167.398438 383.941406 4278.898438 272.441406 4416.238281 272.441406 Z M 4295.128906 432.660156 C 4311.941406 432.660156 4325.078125 438.660156 4334.550781 450.660156 C 4345.839844 464.871094 4351.480469 488.429688 4351.480469 521.339844 C 4351.480469 554.171875 4345.800781 577.769531 4334.429688 592.140625 C 4325.039062 603.980469 4311.941406 609.898438 4295.128906 609.898438 C 4278.230469 609.898438 4264.621094 603.398438 4254.28125 590.421875 C 4243.941406 577.441406 4238.769531 554.289062 4238.769531 520.980469 C 4238.769531 488.308594 4244.449219 464.789062 4255.820312 450.421875 C 4265.210938 438.578125 4278.308594 432.660156 4295.128906 432.660156 Z M 4429.96875 432.660156 C 4446.789062 432.660156 4459.929688 438.660156 4469.398438 450.660156 C 4480.679688 464.871094 4486.328125 488.429688 4486.328125 521.339844 C 4486.328125 554.171875 4480.640625 577.769531 4469.28125 592.140625 C 4459.890625 603.980469 4446.789062 609.898438 4429.96875 609.898438 C 4413.078125 609.898438 4399.46875 603.398438 4389.128906 590.421875 C 4378.789062 577.441406 4373.621094 554.289062 4373.621094 520.980469 C 4373.621094 488.308594 4379.300781 464.789062 4390.671875 450.421875 C 4400.058594 438.578125 4413.160156 432.660156 4429.96875 432.660156 Z M 4508.589844 466.640625 L 4508.589844 435.738281 L 4622.359375 435.738281 L 4622.359375 459.890625 C 4612.96875 469.128906 4603.421875 482.390625 4593.710938 499.671875 C 4584 516.960938 4576.601562 535.328125 4571.511719 554.78125 C 4566.421875 574.238281 4563.910156 591.621094 4563.988281 606.941406 L 4531.910156 606.941406 C 4532.460938 582.941406 4537.410156 558.46875 4546.769531 533.53125 C 4556.121094 508.589844 4568.609375 486.289062 4584.238281 466.640625 Z M 4295.128906 460.25 C 4291.101562 460.25 4287.511719 461.53125 4284.351562 464.101562 C 4281.191406 466.660156 4278.75 471.261719 4277.011719 477.890625 C 4274.71875 486.488281 4273.578125 500.980469 4273.578125 521.339844 C 4273.578125 541.699219 4274.601562 555.691406 4276.660156 563.308594 C 4278.710938 570.921875 4281.289062 576 4284.410156 578.519531 C 4287.53125 581.050781 4291.101562 582.308594 4295.128906 582.308594 C 4299.148438 582.308594 4302.738281 581.03125 4305.898438 578.460938 C 4309.058594 575.898438 4311.5 571.300781 4313.238281 564.671875 C 4315.53125 556.148438 4316.671875 541.699219 4316.671875 521.339844 C 4316.671875 500.980469 4315.648438 486.988281 4313.601562 479.371094 C 4311.539062 471.75 4308.960938 466.660156 4305.839844 464.101562 C 4302.71875 461.53125 4299.148438 460.25 4295.128906 460.25 Z M 4429.96875 460.25 C 4425.949219 460.25 4422.359375 461.53125 4419.199219 464.101562 C 4416.039062 466.660156 4413.601562 471.261719 4411.859375 477.890625 C 4409.570312 486.488281 4408.429688 500.980469 4408.429688 521.339844 C 4408.429688 541.699219 4409.449219 555.691406 4411.5 563.308594 C 4413.558594 570.921875 4416.140625 576 4419.261719 578.519531 C 4422.378906 581.050781 4425.949219 582.308594 4429.96875 582.308594 C 4434 582.308594 4437.589844 581.03125 4440.75 578.460938 C 4443.898438 575.898438 4446.351562 571.300781 4448.089844 564.671875 C 4450.378906 556.148438 4451.519531 541.699219 4451.519531 521.339844 C 4451.519531 500.980469 4450.5 486.988281 4448.441406 479.371094 C 4446.390625 471.75 4443.808594 466.660156 4440.691406 464.101562 C 4437.570312 461.53125 4434 460.25 4429.96875 460.25 "/>
</svg>
