<?xml version="1.0" encoding="utf-8"?>
<svg xmlns="http://www.w3.org/2000/svg" width="3000" height="3000" viewBox="1043.464 239.335 3000 3000">
  <path fill-rule="nonzero" fill="rgb(0%, 0%, 0%)" fill-opacity="1" d="M 3400.59 1872.1 C 3299.3 2354.49 2825.91 2663.45 2343.5 2562.08 C 1861.1 2460.66 1552.01 1987.39 1653.42 1505.1 C 1754.91 1022.44 2228.19 713.589 2710.6 814.882 C 3193.13 916.046 3502.1 1389.57 3400.59 1872.1 M 3317.33 1854.53 C 3408.99 1418.08 3129.64 989.794 2693.18 898.01 C 2256.59 806.354 1828.31 1085.94 1736.66 1522.41 C 1645 1958.98 1924.59 2387.16 2361.05 2478.83 C 2797.51 2570.34 3225.66 2291.13 3317.33 1854.53 Z M 3317.33 1854.53" style=""/>
  <path fill-rule="nonzero" fill="rgb(0%, 0%, 0%)" fill-opacity="1" d="M 3226.42 1833.21 C 3144.88 2220.43 2765.2 2468.46 2377.76 2387.05 C 1990.53 2305.51 1742.5 1925.85 1823.92 1538.62 C 1905.22 1151.27 2285.12 903.257 2672.33 984.798 C 3059.55 1066.2 3307.82 1445.86 3226.42 1833.21 M 3143.05 1815.79 C 3214.7 1474.51 2996.3 1139.71 2654.8 1067.8 C 2313.52 996.37 1978.82 1214.65 1907.06 1555.92 C 1835.39 1897.2 2054.01 2232.01 2395.29 2303.93 C 2736.57 2375.34 3071.51 2157.03 3143.05 1815.79 Z M 3143.05 1815.79" style=""/>
  <path fill-rule="nonzero" fill="rgb(0%, 0%, 0%)" fill-opacity="1" d="M 1925.08 1732.05 L 1887.19 1689.76 C 1978.1 1699.62 2079.87 1710.1 2162.99 1751.91 C 2248.32 1794.94 2314.26 1870.26 2337.65 1972.15 C 2359.96 2070.15 2341.42 2190.57 2325.46 2299.16 C 2321.93 2322.56 2300.35 2338.4 2277.2 2335.23 C 2253.9 2331.72 2237.83 2310.02 2241.37 2286.84 C 2258.17 2172.78 2272.69 2070.15 2254.66 1991.03 C 2237.59 1915.98 2189.57 1860.38 2124.83 1827.97 C 2058.05 1794.21 1973.22 1784.44 1878.04 1774.35 C 1856.45 1772.03 1840.01 1753.74 1840.01 1732.05 C 1840.01 1708.51 1859.03 1689.65 1882.66 1689.65 C 1906.19 1689.65 1925.08 1708.51 1925.08 1732.05 Z M 1925.08 1732.05" style=""/>
  <path fill-rule="nonzero" fill="rgb(0%, 0%, 0%)" fill-opacity="1" d="M 2425.03 2322.81 L 2344.23 2304.3 C 2390.17 2210.07 2440.04 2106.85 2511.58 2035.79 C 2576.05 1971.55 2658.8 1932.17 2746.94 1932.17 C 2758.4 1932.17 2770.09 1933.03 2781.8 1934.25 C 2878.82 1945.71 2974.72 2006.66 3059.32 2059.92 C 3079.3 2072.33 3085.39 2098.54 3072.72 2118.4 C 3060.29 2138.41 3034.19 2144.24 3014.1 2131.82 C 2924.28 2075.76 2845.77 2027.48 2771.67 2018.72 C 2763.5 2017.87 2755.11 2017.39 2746.94 2017.39 C 2684.77 2017.39 2622.6 2044.92 2571.55 2096.11 C 2512.05 2154.99 2468.45 2243.58 2420.65 2341.46 C 2412.12 2359.38 2392.24 2368.76 2373 2364.35 C 2353.61 2359.73 2339.96 2342.67 2339.96 2322.81 C 2339.96 2299.16 2358.99 2280.39 2382.62 2280.39 C 2406.05 2280.39 2425.03 2299.16 2425.03 2322.81 Z M 2425.03 2322.81" style=""/>
  <path fill-rule="nonzero" fill="rgb(0%, 0%, 0%)" fill-opacity="1" d="M 3128.92 2002.62 C 3128.92 2019.34 3118.9 2034.57 3103.44 2041.63 C 3087.72 2048.33 3069.91 2045.29 3057.49 2033.71 L 3057.49 2033.59 L 3057.23 2033.59 C 2992.04 1973 2918.89 1905.72 2876.98 1820.29 C 2834.31 1733.63 2823.95 1629.06 2855.39 1532.4 C 2886.14 1437.33 2956.93 1352.03 3020.2 1274.99 C 3034.94 1256.96 3061.86 1254.27 3080.16 1269.27 C 3098.18 1284.13 3100.74 1311.19 3085.76 1329.21 C 3019.72 1409.41 2961.07 1482.06 2936.21 1558.38 C 2912.09 1633.32 2919.87 1714.62 2953.4 1782.87 C 2987.15 1851.74 3047.14 1908.16 3115.14 1971.32 L 3115.38 1971.43 L 3043.85 2002.62 C 3043.85 1978.87 3062.83 1959.97 3086.26 1959.97 C 3109.89 1959.97 3128.92 1978.87 3128.92 2002.62 Z M 3128.92 2002.62" style=""/>
  <path fill-rule="nonzero" fill="rgb(0%, 0%, 0%)" fill-opacity="1" d="M 3029.57 1216.99 C 3029.57 1229.66 3023.71 1241.85 3013.85 1250 L 3013.61 1250.26 C 2942.2 1308.16 2860.52 1375.43 2762.53 1396.74 C 2739.13 1401.98 2715.24 1404.43 2691.34 1404.43 C 2614.2 1404.43 2534.49 1378.58 2477.57 1328.38 C 2403.94 1263.16 2374.95 1161.16 2349.35 1075.47 C 2342.53 1052.92 2355.43 1029.03 2377.76 1022.44 C 2400.42 1015.86 2424.17 1028.53 2430.9 1051.21 C 2458.32 1143.36 2482.21 1218.81 2534 1264.63 C 2573 1299 2631.51 1319.35 2691.34 1319.35 C 2709.38 1319.35 2727.43 1317.54 2744.48 1313.62 C 2819.08 1297.43 2884.66 1245.13 2960.21 1183.96 L 2960.21 1183.82 L 2944.5 1216.99 C 2944.5 1193.34 2963.52 1174.43 2986.92 1174.43 C 3010.56 1174.43 3029.57 1193.34 3029.57 1216.99 Z M 3029.57 1216.99" style=""/>
  <path fill-rule="nonzero" fill="rgb(0%, 0%, 0%)" fill-opacity="1" d="M 1920.7 1603.34 L 1879.86 1560.82 L 1880.61 1560.82 L 1881.32 1560.82 C 1912.39 1562.03 1942.27 1563.24 1971.51 1563.24 C 2038.06 1563.24 2094.87 1556.91 2140.33 1534.84 C 2205.89 1503.15 2254.66 1435.14 2265.01 1361.15 C 2275.49 1286.09 2247.47 1202.1 2213.7 1104.97 C 2205.89 1082.9 2217.84 1058.53 2239.91 1050.98 C 2262.21 1043.3 2286.34 1054.99 2294.03 1076.93 C 2325.97 1168.6 2363.24 1273.53 2349.35 1372.86 C 2335.09 1473.91 2269.38 1566.91 2177.38 1611.64 C 2113.75 1642.23 2041.11 1648.31 1971.51 1648.31 C 1940.33 1648.31 1908.51 1646.98 1877.8 1645.75 L 1877.3 1645.75 L 1876.58 1645.75 C 1853.65 1644.78 1835.62 1626 1835.62 1603.34 C 1835.62 1579.7 1854.75 1560.82 1878.28 1560.82 C 1901.66 1560.82 1920.7 1579.7 1920.7 1603.34 Z M 1920.7 1603.34" style=""/>
  <path fill-rule="nonzero" fill="rgb(0%, 0%, 0%)" fill-opacity="1" d="M 2728.66 1702.43 C 2714.27 1811.9 2613.97 1889.27 2504.49 1874.9 C 2395.05 1860.38 2317.89 1760.08 2332.06 1650.64 C 2346.54 1541.29 2446.87 1464.14 2556.29 1478.54 C 2665.76 1492.9 2742.9 1593.12 2728.66 1702.43 M 2644.18 1691.7 C 2652.49 1628.69 2608.09 1570.92 2545.34 1562.86 C 2482.45 1554.71 2424.8 1598.84 2416.38 1661.85 C 2408.24 1724.72 2452.71 1782.38 2515.6 1790.55 C 2578.36 1798.72 2636.02 1754.49 2644.18 1691.7 Z M 2644.18 1691.7" style=""/>
  <path fill-rule="nonzero" fill="rgb(22.363281%, 14.892578%, 14.892578%)" fill-opacity="1" d="M 2526.09 799.892 C 2586.77 799.892 2647.96 806.108 2709.62 819.147 C 3189.85 920.056 3497.34 1391.03 3396.32 1871.23 C 3308.44 2289.65 2939.27 2576.92 2527.92 2576.92 C 2467.45 2576.92 2406.05 2570.6 2344.48 2557.78 C 1864.39 2456.88 1556.87 1985.8 1657.68 1505.96 C 1745.56 1087.29 2114.73 799.892 2526.09 799.892 Z M 2526.34 553.075 C 1976.27 553.075 1486.56 927.005 1371.97 1472.08 C 1239.98 2099.64 1655.11 2719.66 2301.09 2855.43 C 2386.18 2873.34 2470.73 2881.64 2554.24 2881.64 C 3104.29 2881.64 3594.01 2507.94 3708.56 1962.9 C 3840.32 1335.31 3425.44 715.186 2779.22 579.539 C 2694.4 561.605 2609.58 553.075 2526.34 553.075 Z M 2526.34 553.075" style=""/>
  <path fill-rule="nonzero" fill="rgb(27.830505%, 27.830505%, 27.830505%)" fill-opacity="1" d="M 2524.25 970.163 C 2573 970.163 2622.6 975.164 2672.09 985.528 C 3059.07 1066.83 3306.85 1446.22 3225.55 1832.95 C 3154.76 2170.21 2857.24 2401.67 2525.86 2401.67 C 2477.09 2401.67 2427.61 2396.56 2377.99 2386.19 C 1991.26 2304.9 1743.48 1925.58 1824.78 1538.87 C 1895.57 1201.49 2192.98 970.163 2524.25 970.163 Z M 2526.34 879.734 C 2151.78 879.734 1815.88 1141.29 1735.92 1522.17 C 1644.15 1959.36 1923.98 2387.78 2360.82 2479.66 C 2416.88 2491.37 2472.72 2497.1 2527.92 2497.1 C 2902.34 2497.1 3238.12 2235.43 3318.3 1854.53 C 3409.96 1417.83 3130.13 988.929 2693.18 897.159 C 2637.24 885.338 2581.17 879.734 2526.34 879.734 Z M 2526.34 879.734" style=""/>
  <path fill-rule="nonzero" fill="rgb(27.830505%, 27.830505%, 27.830505%)" fill-opacity="1" d="M 2530.11 1477.68 C 2538.76 1477.68 2547.4 1478.18 2556.06 1479.4 C 2665.03 1493.65 2741.93 1593.61 2727.69 1702.43 C 2714.51 1802.73 2628.95 1875.61 2530.6 1875.61 C 2522.07 1875.61 2513.4 1875.13 2504.49 1874.04 C 2395.52 1859.91 2318.64 1759.84 2332.89 1650.87 C 2346.05 1550.68 2431.61 1477.68 2530.11 1477.68 Z M 2350.33 1078.16 L 2350.08 1078.16 C 2333.15 1083.03 2316.58 1088.74 2300.12 1094.85 C 2299.64 1095.1 2299.64 1095.44 2299.64 1095.83 C 2299.64 1096.08 2299.87 1096.08 2299.87 1096.31 C 2329.84 1183.46 2361.3 1280.48 2348.38 1372.86 C 2334.35 1473.41 2268.79 1566.29 2176.9 1610.55 C 2115.21 1640.52 2044.9 1646.98 1977.12 1647.35 C 1975.3 1647.35 1973.35 1647.35 1971.51 1647.35 C 1946.16 1647.35 1920.22 1646.61 1895.09 1645.63 L 1894.86 1645.63 C 1894.59 1645.63 1894.37 1645.75 1894.11 1645.75 C 1894 1646 1894 1646.11 1894 1646.38 C 1893.02 1661.22 1892.54 1675.99 1892.54 1690.47 C 1892.54 1690.85 1892.8 1691.11 1892.8 1691.22 C 1893.02 1691.46 1893.29 1691.46 1893.52 1691.46 C 1982.97 1700.96 2081.47 1711.83 2162.51 1752.77 L 2162.75 1752.77 C 2247.82 1795.44 2313.52 1870.75 2336.68 1972.4 C 2358.02 2066.13 2342.04 2180.34 2326.67 2285.64 C 2326.45 2285.88 2326.67 2286.01 2326.79 2286.25 C 2327.06 2286.49 2327.29 2286.49 2327.54 2286.49 L 2327.29 2286.49 C 2334.86 2289.05 2342.29 2291.25 2349.59 2293.31 C 2349.83 2293.31 2349.83 2293.31 2349.83 2293.31 C 2350.08 2293.31 2350.33 2293.31 2350.57 2293.06 C 2350.57 2293.06 2350.81 2293.06 2350.81 2292.94 C 2395.05 2201.9 2443.57 2104.38 2512.05 2036.38 C 2576.05 1972.63 2658.09 1933.52 2745.48 1933.14 C 2745.97 1933.14 2746.46 1933.14 2746.94 1933.14 C 2758.4 1933.14 2769.83 1933.77 2781.54 1935.23 C 2871.85 1945.71 2961.07 1999.58 3041.51 2049.55 C 3041.51 2049.78 3041.74 2049.78 3042.01 2049.78 C 3042.01 2049.78 3042.24 2049.78 3042.49 2049.55 C 3042.49 2049.55 3042.72 2049.55 3042.72 2049.3 C 3046.87 2043.45 3050.9 2037.59 3054.69 2031.52 C 3054.94 2031.52 3055.05 2031.27 3055.05 2031.04 C 3055.28 2030.66 3055.28 2030.55 3054.94 2030.29 C 2990.45 1970.09 2918.89 1904.14 2877.72 1819.81 C 2835.3 1733.27 2824.96 1629.29 2856.14 1532.77 C 2885.64 1441.85 2951.69 1359.95 3012.87 1285.23 L 3012.87 1285.34 C 3013.13 1285.23 3013.37 1284.98 3013.37 1284.74 C 3013.61 1284.49 3013.37 1284.13 3013.37 1284.01 C 3007.75 1277.31 3002.14 1270.73 2996.3 1264.26 L 2995.81 1263.9 L 2995.57 1263.9 L 2995.07 1264.26 C 2927.8 1318.26 2851.88 1376.4 2762.53 1395.9 C 2739.62 1400.79 2716.21 1403.33 2692.94 1403.33 C 2692.44 1403.33 2691.85 1403.33 2691.34 1403.33 C 2614.45 1403.33 2534.97 1377.99 2478.07 1327.63 C 2406.52 1264.39 2377.01 1165.3 2351.91 1081.08 L 2351.16 1078.89 L 2350.33 1078.16 Z M 2350.33 1078.16" style=""/>
  <path fill-rule="nonzero" fill="rgb(0%, 0%, 0%)" fill-opacity="1" d="M 3787.56 1979.47 C 3646.16 2652.5 2972.41 3078.84 2284.64 2934.41 C 1596.72 2789.75 1151.62 2128.43 1292.98 1455.39 C 1434.28 782.21 2108.16 355.877 2795.93 500.422 C 3483.81 644.851 3928.95 1306.31 3787.56 1979.47 M 3704.31 1962.04 C 3835.57 1336.78 3422.16 719.08 2778.51 583.668 C 2134.45 448.509 1507.38 847.79 1376.12 1472.93 C 1244.98 2097.95 1658.16 2715.88 2302.06 2850.93 C 2945.85 2986.46 3573.05 2587.17 3704.31 1962.04 Z M 3704.31 1962.04" style=""/>
</svg>