<?xml version="1.0" encoding="utf-8"?>
<svg xmlns="http://www.w3.org/2000/svg" width="3000" height="3000" viewBox="1043.464 239.335 3000 3000" xmlns:bx="https://boxy-svg.com">
  <defs>
    <linearGradient id="color-0" bx:pinned="true" gradientUnits="userSpaceOnUse" gradientTransform="matrix(1.981327, 0, 0, 1.981327, -2678.513085, -1752.560303)">
      <stop style="stop-color: rgb(0, 0, 0);"/>
    </linearGradient>
  </defs>
  <path fill-rule="nonzero" fill="rgb(0%, 0%, 0%)" fill-opacity="1" d="M 1912.99 2081.94 L 1905.97 2075.03 L 3112.6 2060.75 C 3116.43 2060.71 3119.54 2063.77 3119.58 2067.59 C 3119.61 2071.41 3116.57 2074.53 3112.75 2074.57 L 1906.14 2088.83 C 1904.31 2088.88 1902.54 2088.17 1901.22 2086.86 C 1899.89 2085.57 1899.15 2083.82 1899.15 2081.94 C 1899.15 2078.11 1902.25 2075.03 1906.09 2075.03 C 1909.89 2075.03 1912.99 2078.11 1912.99 2081.94 Z M 1912.99 2081.94" style=""/>
  <path fill-rule="nonzero" fill="rgb(0%, 0%, 0%)" fill-opacity="1" d="M 3121.3 2067.39 L 3107.51 2066.6 L 3107.59 2066.19 C 3112.99 2018.26 3118.54 1968.11 3146.44 1927.75 C 3174.38 1887.24 3224.1 1857.39 3274.16 1842.83 C 3298.36 1835.78 3322.83 1832.31 3346.71 1832.31 C 3372.47 1832.31 3397.57 1836.35 3421.01 1844.47 C 3466.1 1860.03 3504.8 1890.46 3527.76 1927.11 C 3550.68 1963.72 3557.52 2006.11 3564.21 2046.82 L 3557.81 2041.07 C 3643.34 2046.42 3728.46 2051.74 3776.65 2051.86 C 3777.07 2051.86 3777.46 2051.86 3777.88 2051.86 C 3825.66 2051.86 3833.92 2046.42 3838.46 2041.54 C 3843.86 2035.65 3845.84 2027.81 3848.21 2017.79 L 3855.26 2026.27 L 3855.1 2026.27 C 3838.38 2027.12 3821.41 2027.98 3806.55 2027.98 C 3792.35 2027.98 3779.36 2027.24 3769.95 2024.55 C 3748.15 2018.37 3746.45 2002.52 3745.95 1991.02 L 3745.95 1990.69 L 3745.95 1991.02 C 3745.45 1979.8 3745.87 1969.25 3746.25 1958.95 L 3746.25 1958.9 C 3746.41 1955.24 3749.42 1952.32 3753.06 1952.26 L 3853.21 1950.63 L 3846.42 1956.86 C 3848.36 1937.75 3849.93 1920.96 3847.04 1911.19 C 3844.6 1902.93 3838.79 1899.69 3829.96 1895.2 C 3829.3 1894.84 3828.67 1894.41 3828.13 1893.85 C 3785.87 1850.33 3744.34 1807.59 3667.45 1775.55 C 3590 1743.23 3476.53 1721.68 3384.89 1706.42 C 3293.48 1691.22 3224.75 1682.51 3155.89 1673.75 L 3160.1 1673 C 3134.21 1687.01 3106.2 1702.43 3078.92 1702.43 C 3075.65 1702.43 3072.35 1702.17 3069.04 1701.71 C 3046.27 1698.42 3024.89 1682.96 2996.19 1662.45 C 2986.19 1655.36 2975.22 1647.49 2962.72 1639.05 C 2913.48 1605.72 2840.94 1562.98 2771.55 1528.58 C 2747.66 1516.73 2724.09 1505.89 2702.66 1496.01 C 2684.95 1487.84 2668.64 1480.31 2654.88 1473.49 C 2637.37 1464.81 2623.03 1456.8 2615.37 1449.72 C 2606.77 1441.72 2604.43 1432.13 2612.02 1423.98 C 2620.52 1414.83 2641.73 1409.26 2659.07 1404.52 L 2658.91 1417.78 C 2617.01 1405.3 2575.32 1392.88 2488.88 1385.24 C 2428.13 1379.87 2345.23 1376.87 2251.83 1376.87 C 2211.99 1376.87 2170.26 1377.41 2127.54 1378.52 C 1984.62 1382.35 1830.58 1392.8 1734.74 1401.71 C 1639.11 1410.6 1601.67 1417.97 1564.14 1425.37 L 1569.55 1416.93 C 1573.15 1431.6 1576.36 1446.46 1560.81 1484.74 C 1545.61 1522.09 1512.01 1583.14 1483.41 1616.59 C 1454.01 1650.94 1429.42 1656.51 1404.8 1658.71 C 1394.33 1659.62 1383.83 1659.93 1373.31 1659.93 C 1359.89 1659.93 1346.4 1659.38 1333.08 1658.87 L 1334.26 1658.83 C 1324.57 1660.13 1314.87 1659.75 1309.99 1690.63 C 1304.76 1724.08 1306.33 1790.03 1307.97 1857.16 C 1308.05 1860.39 1305.91 1863.22 1302.82 1864.02 C 1287.3 1868.18 1274.91 1871.71 1267.64 1881.2 C 1260.21 1890.84 1257.09 1908.14 1258.09 1928.53 C 1259.06 1948.64 1263.93 1969.52 1273.29 1984.72 C 1282.55 1999.68 1296.66 2009.82 1312.61 2017.76 C 1328.27 2025.54 1345.26 2030.97 1377.24 2035.32 C 1409.43 2039.68 1456.41 2042.83 1503.76 2046.04 C 1507.59 2046.27 1510.45 2049.59 1510.19 2053.41 C 1509.95 2057.2 1506.63 2060.1 1502.85 2059.8 C 1455.67 2056.64 1408.16 2053.45 1375.36 2049.01 C 1342.36 2044.55 1323.86 2038.79 1306.44 2030.16 C 1289.29 2021.61 1272.68 2010.01 1261.54 1991.98 C 1250.5 1974.12 1245.31 1950.68 1244.24 1929.22 C 1243.21 1908.01 1246.14 1886.5 1256.67 1872.77 C 1267.35 1858.88 1284.9 1854.48 1299.26 1850.63 L 1294.14 1857.52 C 1292.49 1791.12 1290.85 1723.52 1296.34 1688.49 C 1302.24 1650.9 1317.33 1647.14 1332.41 1645.12 C 1332.83 1645.06 1333.23 1645.01 1333.6 1645.06 C 1346.98 1645.57 1360.2 1646.07 1373.31 1646.07 C 1383.56 1646.07 1393.66 1645.81 1403.61 1644.92 C 1425.5 1643.02 1446.35 1638.58 1472.92 1607.57 C 1500.26 1575.62 1533.18 1515.98 1547.96 1479.55 C 1562.41 1444.05 1559.06 1432.2 1556.12 1420.19 C 1555.66 1418.39 1555.97 1416.45 1557 1414.84 C 1557.99 1413.24 1559.63 1412.16 1561.5 1411.78 C 1599.36 1404.33 1637.26 1396.88 1733.45 1387.92 C 1829.55 1379.01 1983.93 1368.55 2127.17 1364.73 C 2170.02 1363.59 2211.86 1363.03 2251.83 1363.03 C 2345.45 1363.03 2428.78 1366.04 2490.09 1371.46 C 2577.8 1379.2 2620.48 1391.89 2662.88 1404.56 C 2665.85 1405.41 2667.83 1408.17 2667.83 1411.24 C 2667.79 1414.3 2665.71 1417.02 2662.73 1417.82 C 2643.03 1423.27 2627.21 1427.92 2622.17 1433.39 C 2621.63 1433.96 2619.57 1434.69 2624.77 1439.57 C 2630.72 1445.11 2643.18 1452.26 2661.01 1461.11 C 2674.55 1467.8 2690.7 1475.24 2708.45 1483.45 C 2729.86 1493.33 2753.6 1504.29 2777.69 1516.21 C 2847.59 1550.82 2920.73 1593.94 2970.48 1627.59 C 2983.15 1636.15 2994.26 1644.09 3004.24 1651.22 C 3034.04 1672.5 3052.34 1685.33 3071.03 1688.01 C 3073.62 1688.41 3076.26 1688.58 3078.92 1688.58 C 3101.98 1688.58 3126.63 1675.37 3153.49 1660.81 C 3154.74 1660.13 3156.23 1659.86 3157.62 1660.02 C 3226.49 1668.77 3295.46 1677.55 3387.13 1692.77 C 3478.59 1707.97 3593.61 1729.78 3672.76 1762.79 C 3752.48 1796.03 3795.63 1840.55 3838.09 1884.23 L 3836.25 1882.88 C 3844.64 1887.18 3855.99 1892.69 3860.29 1907.29 C 3864.14 1920.32 3862 1940.48 3860.17 1958.21 C 3859.84 1961.71 3856.95 1964.41 3853.44 1964.45 L 3753.29 1966.09 L 3760.08 1959.49 C 3759.71 1969.83 3759.32 1979.84 3759.78 1990.41 L 3759.78 1990.69 L 3759.78 1990.41 C 3760.23 2000.67 3761.19 2007.66 3773.72 2011.26 C 3781.12 2013.36 3792.47 2014.18 3806.55 2014.18 C 3821.01 2014.18 3837.55 2013.33 3854.36 2012.46 L 3854.57 2012.46 C 3856.76 2012.33 3858.85 2013.22 3860.21 2014.92 C 3861.61 2016.56 3862.15 2018.79 3861.65 2020.91 C 3859.51 2030.28 3856.95 2041.88 3848.6 2050.93 C 3839.45 2060.8 3824.97 2065.68 3777.88 2065.68 C 3777.46 2065.68 3777.07 2065.68 3776.65 2065.68 C 3727.92 2065.59 3642.22 2060.21 3556.95 2054.86 C 3553.73 2054.65 3551.09 2052.24 3550.56 2049.09 C 3543.78 2007.87 3537.21 1968.31 3516.04 1934.43 C 3494.85 1900.64 3458.8 1872.16 3416.51 1857.52 C 3394.59 1849.98 3371.03 1846.12 3346.71 1846.12 C 3324.14 1846.12 3300.99 1849.44 3278.01 1856.09 C 3229.99 1870.03 3183.43 1898.51 3157.8 1935.62 C 3132.27 1972.61 3126.79 2019.05 3121.3 2067.77 L 3121.26 2068.17 C 3120.85 2071.83 3117.67 2074.47 3113.98 2074.31 C 3110.32 2074.07 3107.47 2071.05 3107.47 2067.39 C 3107.47 2063.58 3110.57 2060.48 3114.4 2060.48 C 3118.21 2060.48 3121.3 2063.58 3121.3 2067.39 Z M 3121.3 2067.39" style=""/>
  <path fill-rule="nonzero" fill="rgb(0%, 0%, 0%)" fill-opacity="1" d="M 3162.13 1666.66 C 3162.13 1668.73 3161.18 1670.71 3159.56 1672.04 C 3157.92 1673.3 3155.78 1673.8 3153.71 1673.34 L 3153.76 1673.38 L 3153.71 1673.34 L 3153.53 1673.3 C 3129.1 1667.91 3104.26 1662.34 3062.62 1640.32 C 3034.63 1625.52 2999 1603.25 2961.8 1580.01 C 2944.02 1568.83 2925.68 1557.38 2907.65 1546.42 C 2851.92 1512.55 2798.14 1482.57 2756.77 1461.72 C 2715.45 1440.9 2686.51 1429.12 2657.39 1417.27 C 2653.87 1415.82 2652.14 1411.79 2653.59 1408.24 C 2655.04 1404.75 2659.07 1403.04 2662.61 1404.45 C 2691.81 1416.33 2721.15 1428.3 2762.98 1449.36 C 2804.74 1470.42 2858.84 1500.56 2914.86 1534.62 C 2932.95 1545.64 2951.31 1557.14 2969.11 1568.25 C 3006.5 1591.62 3041.63 1613.59 3069.09 1628.09 C 3109.17 1649.32 3132.69 1654.52 3156.5 1659.86 L 3156.54 1659.86 L 3156.73 1659.89 L 3156.69 1659.89 L 3148.3 1666.66 C 3148.3 1662.83 3151.4 1659.71 3155.24 1659.71 C 3159.07 1659.71 3162.13 1662.83 3162.13 1666.66 Z M 3162.13 1666.66" style=""/>
  <path fill-rule="nonzero" fill="rgb(0%, 0%, 0%)" fill-opacity="1" d="M 2987.32 1721.27 L 2982.4 1721.11 C 2693.75 1711.29 2405.47 1701.48 2182.23 1692.54 C 1957.97 1683.56 1798.8 1675.33 1719.39 1661.76 C 1640.05 1648.17 1635.88 1627.92 1634.16 1594.94 C 1634.12 1594.11 1634.08 1593.65 1634.04 1592.85 C 1633.81 1588.83 1633.55 1584.59 1633.29 1580.2 C 1633 1575.55 1632.67 1570.7 1632.41 1565.77 L 1632.41 1565.75 C 1631.11 1541.11 1630.47 1512.96 1637.15 1493.31 C 1647.04 1464.29 1671.96 1454.97 1702.02 1449.66 C 1730.62 1444.55 1766.82 1442.58 1856.71 1437.66 L 1856.67 1437.66 L 1872.4 1436.8 L 1885.45 1436.07 L 1899.77 1435.32 C 2002.07 1429.68 2150.34 1421.67 2263.67 1419.58 L 2263.72 1419.58 L 2263.67 1419.58 C 2283.52 1419.21 2302.32 1419.03 2320.1 1419.03 C 2413.55 1419.03 2480.75 1424.3 2536.22 1437.05 C 2599.71 1451.64 2647.44 1475.85 2702.96 1503.99 L 2709.97 1507.58 C 2719.01 1512.16 2728.17 1516.73 2737.58 1521.51 C 2747.29 1526.41 2756.86 1531.19 2766.69 1536.17 C 2809.28 1557.76 2852.02 1579.77 2883.84 1598.3 C 2930.09 1625.18 2953.76 1644.96 2968.54 1662.95 C 2983.39 1681.12 2988.89 1697.02 2994.12 1712.07 C 2994.83 1714.24 2994.5 1716.63 2993.12 1718.43 C 2991.78 1720.29 2989.62 1721.34 2987.32 1721.27 M 2987.82 1707.43 L 2981.05 1716.63 C 2975.9 1701.79 2971.05 1687.85 2957.84 1671.75 C 2944.59 1655.55 2922.48 1636.73 2876.9 1610.25 C 2845.44 1591.96 2803.05 1570.12 2760.46 1548.51 C 2750.75 1543.6 2740.92 1538.64 2731.34 1533.82 C 2721.79 1529 2712.9 1524.55 2703.7 1519.88 L 2696.67 1516.33 C 2641.08 1488.12 2594.75 1464.7 2533.14 1450.5 C 2479.15 1438.13 2413.15 1432.86 2320.1 1432.86 C 2302.39 1432.86 2283.74 1433.01 2263.96 1433.4 L 2263.92 1433.4 C 2150.86 1435.52 2002.87 1443.48 1900.53 1449.11 L 1886.21 1449.88 L 1873.15 1450.62 L 1857.47 1451.46 C 1767.09 1456.42 1732.01 1458.36 1704.46 1463.25 C 1675.1 1468.48 1657.47 1476.53 1650.24 1497.78 C 1644.55 1514.49 1644.87 1539.89 1646.23 1565.02 C 1646.5 1569.9 1646.77 1574.66 1647.07 1579.38 C 1647.37 1583.73 1647.61 1588 1647.84 1592.08 C 1647.87 1592.77 1647.9 1593.49 1647.94 1594.18 C 1649.29 1619.16 1647.04 1635.34 1721.76 1648.09 C 1800.05 1661.51 1958.09 1669.68 2182.8 1678.7 C 2405.96 1687.67 2694.21 1697.47 2982.86 1707.27 L 2987.82 1707.43 Z M 2987.82 1707.43" style=""/>
  <path fill-rule="nonzero" fill="rgb(0%, 0%, 0%)" fill-opacity="1" d="M 2216.7 1429.26 C 2216.7 1430.56 2216.32 1431.86 2215.63 1432.97 C 2209.6 1442.48 2202.95 1451.76 2210.01 1489.59 C 2217.28 1528.54 2238.84 1596.08 2253.35 1633.62 C 2267.67 1670.71 2274.7 1677.27 2281.38 1683.95 C 2284.06 1686.63 2284.06 1691.03 2281.38 1693.69 C 2278.66 1696.43 2274.28 1696.43 2271.61 1693.69 C 2263.27 1685.4 2255.3 1677.01 2240.44 1638.62 C 2225.78 1600.69 2203.9 1532.2 2196.43 1492.12 C 2188.74 1450.95 2196.01 1438.13 2203.94 1425.56 L 2202.87 1429.26 C 2202.87 1425.46 2205.97 1422.36 2209.77 1422.36 C 2213.61 1422.36 2216.7 1425.46 2216.7 1429.26 Z M 2216.7 1429.26" style=""/>
  <path fill-rule="nonzero" fill="rgb(0%, 0%, 0%)" fill-opacity="1" d="M 2146.64 1467.72 L 2145.17 1467.79 C 2037.59 1473.45 1929.91 1479.09 1848.63 1481.15 C 1836.66 1481.47 1825.19 1481.68 1814.42 1481.92 C 1804.67 1482.09 1795.41 1482.29 1786.64 1482.53 C 1737.95 1483.75 1706.56 1486.31 1690.17 1496.42 C 1669.4 1509.3 1671.75 1536.37 1674.81 1563.33 L 1674.81 1563.34 L 1674.94 1564.17 L 1675.01 1564.83 L 1675.09 1565.54 C 1677.82 1589.72 1679.57 1603.8 1708.41 1614.3 C 1740.54 1626.03 1804.21 1632.24 1889.93 1637.23 C 1975.22 1642.18 2080.98 1645.95 2186.87 1649.74 L 2180.39 1659.62 C 2166.19 1629.66 2151.56 1598.89 2144.61 1565.27 C 2137.73 1531.75 2138.57 1495.74 2139.35 1460.67 L 2146.64 1467.72 M 2145.91 1453.9 C 2147.85 1453.81 2149.71 1454.51 2151.1 1455.86 C 2152.47 1457.21 2153.23 1459.06 2153.19 1461 C 2152.39 1496.4 2151.62 1530.76 2158.17 1562.53 C 2164.69 1594.18 2178.56 1623.51 2192.89 1653.68 C 2193.91 1655.86 2193.72 1658.4 2192.4 1660.44 C 2191.06 1662.41 2188.81 1663.64 2186.41 1663.54 C 2080.52 1659.79 1974.57 1656.01 1889.13 1651.03 C 1804.13 1646.07 1738.13 1639.9 1703.66 1627.29 C 1667.08 1613.92 1664.25 1592.61 1661.36 1567.09 L 1661.24 1566.4 L 1661.18 1565.7 L 1661.09 1564.87 C 1658.35 1540.92 1653.31 1503 1682.89 1484.64 C 1703.21 1472.1 1739.13 1469.87 1786.25 1468.67 C 1795.1 1468.46 1804.43 1468.26 1814.15 1468.09 C 1824.93 1467.84 1836.38 1467.64 1848.26 1467.31 C 1929.33 1465.27 2036.77 1459.66 2144.46 1453.97 L 2145.91 1453.9 Z M 2145.91 1453.9" style=""/>
  <path fill-rule="nonzero" fill="rgb(0%, 0%, 0%)" fill-opacity="1" d="M 1934.82 1941.13 C 1932.09 1937.75 1926.93 1931.81 1926.64 1924.77 C 1926.31 1917.86 1930.67 1911.11 1933.07 1907.09 L 1933.11 1907.03 C 1934.37 1905 1936.58 1903.73 1938.99 1903.73 L 3092.72 1896.29 C 3093.86 1896.29 3095 1896.59 3096.04 1897.12 L 3096.15 1897.2 C 3100.61 1899.61 3108.21 1903.42 3111.35 1908.78 C 3112.22 1910.19 3112.92 1911.98 3113.06 1913.98 C 3113.17 1915.74 3112.88 1917.35 3112.42 1918.75 C 3110.39 1924.82 3103.28 1930.47 3099.08 1933.97 C 3097.86 1935.05 3096.29 1935.62 3094.71 1935.62 L 1940.27 1943.68 C 1938.16 1943.7 1936.15 1942.76 1934.82 1941.13 M 1945.55 1932.41 L 1940.15 1929.83 L 3094.58 1921.8 L 3090.21 1923.39 C 3096 1918.51 3098.85 1915.8 3099.31 1914.39 C 3099.31 1914.39 3099.22 1914.58 3099.27 1915.01 C 3099.31 1915.46 3099.47 1915.79 3099.47 1915.79 C 3098.78 1914.58 3095.8 1912.71 3089.65 1909.36 L 3089.65 1909.4 L 3089.47 1909.33 L 3092.78 1910.12 L 1939.06 1917.55 L 1944.88 1914.28 L 1944.93 1914.22 C 1941.71 1919.58 1940.35 1922.31 1940.43 1924.13 C 1940.5 1925.75 1941.88 1927.83 1945.55 1932.41 Z M 1945.55 1932.41" style=""/>
  <path fill-rule="nonzero" fill="rgb(0%, 0%, 0%)" fill-opacity="1" d="M 2246.76 2076.29 C 2246.76 2079.53 2244.53 2082.33 2241.35 2083.02 C 2238.19 2083.76 2234.99 2082.18 2233.58 2079.26 L 2233.54 2079.16 L 2233.54 2079.12 L 2233.58 2079.24 L 2233.33 2078.69 C 2221.65 2053.99 2209.73 2028.7 2202.41 2005.13 C 2195.03 1981.29 2192.44 1959.36 2189.88 1938.07 C 2189.42 1934.28 2192.1 1930.82 2195.9 1930.37 C 2199.71 1929.89 2203.14 1932.64 2203.61 1936.41 C 2206.15 1957.81 2208.66 1978.55 2215.63 2001.07 C 2222.61 2023.49 2234.04 2047.82 2245.84 2072.78 L 2246.09 2073.32 L 2246.13 2073.46 L 2232.93 2076.29 C 2232.93 2072.47 2236.02 2069.4 2239.83 2069.4 C 2243.65 2069.4 2246.76 2072.47 2246.76 2076.29 Z M 2246.76 2076.29" style=""/>
  <path fill-rule="nonzero" fill="rgb(0%, 0%, 0%)" fill-opacity="1" d="M 2202.38 1905.56 C 2202.38 1909.08 2199.67 1912.07 2196.18 1912.44 C 2192.63 1912.83 2189.42 1910.46 2188.67 1906.98 L 2188.7 1907.03 L 2188.67 1906.94 C 2182.83 1878.66 2176.74 1849.44 2177.98 1817.93 C 2178.86 1795.53 2183.44 1772.2 2187.19 1753.04 C 2188.7 1745.25 2190.08 1738.21 2191.06 1732.1 C 2194.41 1711.07 2193.21 1700.63 2191.93 1689.9 C 2191.48 1686.07 2194.21 1682.65 2198 1682.2 C 2201.8 1681.77 2205.23 1684.49 2205.69 1688.26 C 2207 1699.76 2208.37 1711.53 2204.71 1734.28 C 2203.67 1740.68 2202.26 1747.99 2200.73 1755.71 C 2196.97 1775.03 2192.63 1797.35 2191.82 1818.44 C 2190.65 1847.99 2196.32 1875.64 2202.22 1904.13 L 2202.22 1904.07 L 2202.22 1904.12 L 2188.55 1905.56 C 2188.55 1901.74 2191.64 1898.63 2195.44 1898.63 C 2199.29 1898.63 2202.38 1901.74 2202.38 1905.56 Z M 2202.38 1905.56" style=""/>
  <path fill-rule="nonzero" fill="rgb(0%, 0%, 0%)" fill-opacity="1" d="M 3027.14 2068.01 L 3013.61 2065.99 C 3021.4 2040.36 3028.98 2015.31 3032.64 1993.28 C 3036.27 1971.42 3036.11 1952.39 3035.9 1932.79 C 3035.86 1928.94 3038.91 1925.81 3042.72 1925.78 C 3046.54 1925.75 3049.7 1928.82 3049.72 1932.65 C 3049.94 1952.16 3050.15 1972.33 3046.27 1995.56 C 3042.42 2018.59 3034.54 2044.59 3026.87 2069.99 L 3026.87 2070.02 L 3026.85 2070.02 C 3025.88 2073.31 3022.6 2075.37 3019.21 2074.87 C 3015.83 2074.35 3013.32 2071.44 3013.32 2068.01 C 3013.32 2064.18 3016.41 2061.09 3020.24 2061.09 C 3024.06 2061.09 3027.14 2064.18 3027.14 2068.01 Z M 3027.14 2068.01" style=""/>
  <path fill-rule="nonzero" fill="rgb(0%, 0%, 0%)" fill-opacity="1" d="M 3047.46 1901 L 3033.63 1900.59 C 3035.48 1870.79 3037.3 1841.64 3033.14 1808.91 C 3028.93 1776.1 3018.68 1739.47 3008.21 1702.21 C 3007.21 1698.51 3009.35 1694.69 3013.04 1693.66 C 3016.71 1692.62 3020.51 1694.8 3021.53 1698.5 C 3031.9 1735.49 3042.46 1773.15 3046.84 1807.17 C 3051.23 1841.35 3049.28 1871.71 3047.46 1901.45 C 3047.22 1905.16 3044.06 1908.04 3040.33 1907.94 C 3036.6 1907.82 3033.63 1904.76 3033.63 1901 C 3033.63 1897.18 3036.72 1894.11 3040.52 1894.11 C 3044.37 1894.11 3047.46 1897.18 3047.46 1901 Z M 3047.46 1901" style=""/>
  <path fill-rule="nonzero" fill="rgb(0%, 0%, 0%)" fill-opacity="1" d="M 2985.42 1707.92 L 2985.46 1707.92 L 2985.46 1707.9 C 2992.81 1703.54 3000.02 1699.25 3007.37 1694.43 C 3014.76 1689.6 3022.31 1684.26 3030 1678.8 C 3033.14 1676.62 3037.42 1677.36 3039.64 1680.51 C 3041.85 1683.6 3041.09 1687.93 3037.99 1690.1 C 3030.33 1695.53 3022.56 1701.03 3014.96 1706 C 3007.29 1710.96 2999.86 1715.42 2992.55 1719.8 C 2989.27 1721.78 2985 1720.7 2983.06 1717.4 C 2981.08 1714.15 2982.16 1709.89 2985.42 1707.92 Z M 2985.42 1707.92" style=""/>
  <path fill-rule="nonzero" fill="rgb(0%, 0%, 0%)" fill-opacity="1" d="M 3798.5 1896.47 C 3750.68 1898.51 3702.58 1900.55 3665.35 1900.55 C 3650.11 1900.55 3636.52 1900.17 3625.51 1899.35 C 3587.63 1896.45 3577.04 1887.33 3572.71 1873.46 C 3568.96 1861.46 3570.03 1847 3587.99 1836.77 C 3603.84 1827.78 3633.51 1821.91 3657.14 1819.38 C 3665.92 1818.44 3674.13 1817.93 3681.89 1817.93 C 3695.39 1817.93 3707.49 1819.47 3718.83 1823.17 C 3736.55 1828.85 3751.52 1839.44 3764.92 1850.35 C 3778.32 1861.28 3790.74 1872.96 3802.96 1884.53 C 3804.97 1886.43 3805.65 1889.35 3804.71 1891.97 C 3803.7 1894.57 3801.28 1896.33 3798.5 1896.47 M 3797.92 1882.66 L 3793.46 1894.57 C 3781.19 1883.01 3769.16 1871.63 3756.15 1861.05 C 3743.16 1850.48 3729.78 1841.2 3714.54 1836.27 C 3704.95 1833.22 3694.32 1831.76 3681.89 1831.76 C 3674.77 1831.76 3667.03 1832.23 3658.62 1833.14 C 3635.08 1835.66 3607.93 1841.31 3594.8 1848.8 C 3583.78 1855.08 3583.63 1862.03 3585.88 1869.34 C 3587.58 1874.76 3590.21 1882.78 3626.55 1885.57 C 3637.09 1886.34 3650.23 1886.72 3665.35 1886.72 C 3702.2 1886.72 3749.95 1884.69 3797.92 1882.66 Z M 3797.92 1882.66" style=""/>
  <path fill-rule="nonzero" fill="rgb(0%, 0%, 0%)" fill-opacity="1" d="M 3485.28 1880.34 L 3478.2 1873.42 L 3580.63 1871.02 C 3584.43 1870.95 3587.58 1873.96 3587.71 1877.81 C 3587.78 1881.63 3584.77 1884.76 3580.92 1884.87 L 3478.52 1887.24 C 3476.67 1887.29 3474.85 1886.59 3473.52 1885.25 C 3472.21 1884 3471.46 1882.23 3471.46 1880.34 C 3471.46 1876.52 3474.54 1873.42 3478.35 1873.42 C 3482.19 1873.42 3485.28 1876.52 3485.28 1880.34 Z M 3485.28 1880.34" style=""/>
  <path fill-rule="nonzero" fill="rgb(0%, 0%, 0%)" fill-opacity="1" d="M 3805.93 1889.65 L 3798.71 1882.71 L 3828.74 1881.39 C 3832.55 1881.24 3835.79 1884.2 3835.95 1888.01 C 3836.14 1891.79 3833.17 1895.07 3829.34 1895.2 L 3799.33 1896.55 C 3797.43 1896.63 3795.6 1895.95 3794.21 1894.65 C 3792.85 1893.31 3792.11 1891.53 3792.11 1889.65 C 3792.11 1885.8 3795.21 1882.71 3798.99 1882.71 C 3802.84 1882.71 3805.93 1885.8 3805.93 1889.65 Z M 3805.93 1889.65" style=""/>
  <path fill-rule="nonzero" fill="rgb(0%, 0%, 0%)" fill-opacity="1" d="M 3857.75 1959.53 L 3857.53 1957.74 L 3857.48 1957.55 C 3859.22 1963.46 3861.17 1969.87 3862.03 1978.63 C 3862.84 1987.17 3862.65 1997.79 3861.95 2004.73 C 3861.21 2012.06 3859.88 2015.58 3858.6 2018.9 C 3857.25 2022.44 3853.25 2024.24 3849.69 2022.86 C 3846.12 2021.46 3844.32 2017.48 3845.69 2013.94 C 3846.68 2011.37 3847.61 2009.08 3848.17 2003.33 C 3848.78 1997.18 3849.02 1987.47 3848.29 1979.96 C 3847.56 1972.69 3845.97 1967.38 3844.25 1961.52 L 3844.17 1961.33 L 3844.17 1961.31 C 3844.03 1960.89 3843.94 1960.18 3843.94 1959.53 C 3843.94 1955.69 3847.04 1952.6 3850.84 1952.6 C 3854.65 1952.6 3857.75 1955.69 3857.75 1959.53 Z M 3857.75 1959.53" style=""/>
  <path fill-rule="nonzero" fill="rgb(0%, 0%, 0%)" fill-opacity="1" d="M 3820.1 1959.31 L 3819.9 1957.58 C 3822.4 1967.31 3825.12 1977.78 3825.87 1988.27 C 3826.61 1998.74 3825.34 2009.08 3824.22 2018.55 C 3823.77 2022.36 3820.29 2025.08 3816.51 2024.62 C 3812.7 2024.18 3810.02 2020.73 3810.48 2016.91 C 3811.63 2007.17 3812.7 1998.19 3812.09 1989.22 C 3811.45 1980.24 3809.08 1970.98 3806.5 1961.02 C 3806.34 1960.48 3806.26 1959.9 3806.26 1959.31 C 3806.26 1955.49 3809.35 1952.4 3813.2 1952.4 C 3817.01 1952.4 3820.1 1955.49 3820.1 1959.31 Z M 3820.1 1959.31" style=""/>
  <path fill-rule="nonzero" fill="rgb(0%, 0%, 0%)" fill-opacity="1" d="M 3823.84 1988.73 C 3823.84 1992.55 3820.75 1995.61 3816.92 1995.61 L 3756.53 1995.72 C 3752.68 1995.72 3749.59 1992.64 3749.59 1988.82 C 3749.59 1984.99 3752.68 1981.9 3756.49 1981.9 L 3816.9 1981.79 L 3809.99 1988.73 C 3809.99 1984.88 3813.08 1981.79 3816.92 1981.79 C 3820.71 1981.79 3823.84 1984.88 3823.84 1988.73 Z M 3823.84 1988.73" style=""/>
  <path fill-rule="nonzero" fill="rgb(0%, 0%, 0%)" fill-opacity="1" d="M 1569.88 1419.07 C 1569.88 1421.02 1569.04 1422.9 1567.61 1424.18 C 1566.13 1425.52 1564.19 1426.14 1562.2 1425.94 C 1518.29 1421.16 1475.02 1416.51 1448.44 1416.51 C 1441.09 1416.51 1435.37 1416.85 1431.4 1417.58 C 1427.6 1418.26 1426.3 1419.12 1426.15 1419.26 C 1426.45 1419.03 1426.8 1418.15 1426.68 1417.52 C 1426.68 1417.48 1426.68 1417.48 1426.68 1417.48 C 1427.34 1420.08 1435 1427.03 1451.22 1435.83 C 1475.93 1449.19 1512.14 1462.62 1549.08 1476.29 C 1552.65 1477.61 1554.49 1481.58 1553.15 1485.16 C 1551.85 1488.77 1547.84 1490.58 1544.29 1489.27 C 1507.68 1475.7 1470.4 1461.9 1444.64 1447.95 C 1430.27 1440.19 1415.79 1430.56 1413.31 1420.97 C 1413.23 1420.64 1413.16 1420.3 1413.08 1419.98 C 1412.33 1415.82 1413.69 1411.89 1416.87 1409.04 C 1419.95 1406.24 1424.32 1404.8 1428.97 1403.95 C 1434.12 1403.04 1440.81 1402.69 1448.44 1402.69 C 1475.97 1402.69 1520.15 1407.46 1563.75 1412.2 L 1556.05 1419.07 C 1556.05 1415.22 1559.14 1412.16 1562.98 1412.16 C 1566.78 1412.16 1569.88 1415.22 1569.88 1419.07 Z M 1569.88 1419.07" style=""/>
  <path fill-rule="nonzero" fill="rgb(0%, 0%, 0%)" fill-opacity="1" d="M 1497.82 1464.1 C 1497.82 1466.22 1496.83 1468.25 1495.13 1469.56 C 1453.51 1501.7 1412.21 1533.49 1385.24 1557.61 C 1358.41 1581.62 1346.21 1597.61 1338.52 1612.62 C 1330.76 1627.74 1327.33 1642.3 1323.69 1657.72 C 1322.83 1661.42 1319.12 1663.74 1315.4 1662.85 C 1311.69 1661.99 1309.37 1658.3 1310.25 1654.52 C 1313.8 1639.27 1317.56 1623.13 1326.22 1606.28 C 1334.97 1589.29 1348.47 1572.01 1376.01 1547.32 C 1403.45 1522.79 1445.26 1490.55 1486.7 1458.64 L 1483.99 1464.1 C 1483.99 1460.27 1487.09 1457.19 1490.93 1457.19 C 1494.75 1457.19 1497.82 1460.27 1497.82 1464.1 Z M 1497.82 1464.1" style=""/>
  <path fill-rule="nonzero" fill="rgb(0%, 0%, 0%)" fill-opacity="1" d="M 1321.03 1715.26 C 1361.77 1715.34 1403.83 1715.35 1431.11 1721.69 C 1459.42 1728.21 1473.14 1741.71 1479.56 1759.41 C 1485.52 1775.78 1485.37 1796.53 1477.33 1808.88 C 1468.56 1822.38 1451.75 1823.44 1427.3 1824.15 C 1410.68 1824.61 1388.58 1824.72 1364.56 1824.72 C 1351.03 1824.72 1336.99 1824.7 1322.86 1824.66 C 1319.08 1824.65 1316.03 1821.64 1315.98 1817.86 L 1314.08 1722.29 C 1314.04 1720.44 1314.74 1718.66 1316.07 1717.33 C 1317.38 1715.99 1319.16 1715.26 1321.03 1715.26 M 1320.99 1729.1 L 1327.93 1722.05 L 1329.76 1817.59 L 1322.86 1810.84 C 1337.03 1810.86 1351.03 1810.9 1364.56 1810.9 C 1388.58 1810.9 1410.54 1810.77 1426.91 1810.3 C 1453.97 1809.53 1461.7 1807.55 1465.74 1801.33 C 1470.58 1793.89 1471.65 1778.11 1466.57 1764.15 C 1461.97 1751.51 1452.44 1740.8 1428.01 1735.15 C 1402.62 1729.28 1362.46 1729.16 1320.99 1729.1 Z M 1320.99 1729.1" style=""/>
  <path fill-rule="nonzero" fill="rgb(0%, 0%, 0%)" fill-opacity="1" d="M 1436.68 1732.68 C 1436.68 1732.79 1436.68 1732.93 1436.68 1733.03 L 1435.07 1769.33 C 1434.91 1773.01 1431.88 1775.92 1428.17 1775.92 L 1329.07 1775.92 C 1325.22 1775.92 1322.14 1772.85 1322.14 1769.03 C 1322.14 1765.22 1325.22 1762.12 1329.07 1762.12 L 1428.17 1762.09 L 1421.29 1768.73 L 1422.85 1732.44 L 1422.85 1732.68 C 1422.85 1728.86 1425.94 1725.8 1429.73 1725.8 C 1433.58 1725.8 1436.68 1728.86 1436.68 1732.68 Z M 1436.68 1732.68" style=""/>
  <path fill-rule="nonzero" fill="rgb(0%, 0%, 0%)" fill-opacity="1" d="M 1432.89 1819.71 L 1430.46 1814.46 C 1435.9 1819.14 1442.79 1824.86 1446.65 1832.09 C 1450.58 1839.44 1451.08 1847.75 1451.57 1854.22 L 1444.68 1847.8 C 1487.2 1847.92 1530.45 1847.98 1556.54 1851.26 C 1583.59 1854.64 1593.12 1861.54 1602.29 1868.41 C 1605.38 1870.74 1605.99 1875.05 1603.68 1878.12 C 1601.41 1881.17 1597.09 1881.78 1594.03 1879.49 C 1586.3 1873.74 1579 1867.97 1554.86 1864.94 C 1529.8 1861.85 1487.61 1861.74 1444.68 1861.62 C 1441.06 1861.62 1438.05 1858.84 1437.79 1855.24 C 1437.25 1848.16 1436.76 1842.94 1434.46 1838.6 C 1432.06 1834.13 1427.48 1830.12 1421.48 1824.97 C 1419.95 1823.68 1419.06 1821.75 1419.06 1819.71 C 1419.06 1815.89 1422.16 1812.81 1425.96 1812.81 C 1429.78 1812.81 1432.89 1815.89 1432.89 1819.71 Z M 1432.89 1819.71" style=""/>
  <path fill-rule="nonzero" fill="rgb(0%, 0%, 0%)" fill-opacity="1" d="M 2334.83 1779.99 L 2334.6 1779.99 C 2323.77 1780.41 2312.76 1780.83 2302.76 1780.83 C 2291.99 1780.83 2281.89 1780.34 2274.24 1778.6 C 2257.85 1774.79 2252.78 1765.18 2251.17 1754.78 C 2249.39 1743.43 2252.1 1730.28 2275.53 1725.2 C 2284.77 1723.17 2297.37 1722.29 2310.48 1722.29 C 2327.46 1722.29 2345.99 1723.75 2360.31 1726.49 C 2384.24 1731.03 2400.59 1739.97 2402.53 1751.89 C 2402.53 1752.07 2402.58 1752.31 2402.62 1752.5 C 2402.83 1754.48 2402.62 1756.41 2402.04 1758.25 C 2399.02 1767.42 2387.02 1771.92 2377.77 1774.34 C 2365.23 1777.61 2349.75 1778.79 2335.13 1779.98 C 2335.05 1779.99 2334.92 1779.99 2334.83 1779.99 M 2334.3 1766.2 L 2334.02 1766.21 C 2349 1764.98 2363.16 1763.84 2374.3 1760.93 C 2384.86 1758.23 2388.54 1754.96 2388.87 1753.98 C 2388.87 1753.98 2388.86 1754.03 2388.87 1754.05 C 2388.63 1752.64 2382.92 1744.84 2357.75 1740.07 C 2344.46 1737.55 2326.82 1736.14 2310.48 1736.14 C 2297.79 1736.14 2286.29 1736.99 2278.51 1738.7 C 2263.05 1742.04 2264.05 1747.64 2264.83 1752.64 C 2265.77 1758.56 2267.51 1762.84 2277.34 1765.14 C 2283.36 1766.51 2292.11 1767.01 2302.76 1767.01 C 2312.42 1767.01 2323.15 1766.63 2334.07 1766.2 L 2334.3 1766.2 Z M 2334.3 1766.2" style=""/>
  <path fill-rule="nonzero" fill="rgb(0%, 0%, 0%)" fill-opacity="1" d="M 2331.92 1730.71 C 2331.92 1731.68 2331.75 1732.6 2331.36 1733.44 C 2327.73 1741.98 2325.48 1747.85 2326.06 1752.07 C 2326.59 1755.92 2329.68 1759.44 2335.25 1765.14 C 2337.94 1767.87 2337.89 1772.23 2335.18 1774.89 C 2332.42 1777.58 2328.07 1777.54 2325.37 1774.79 C 2320.72 1770.1 2313.59 1763.21 2312.34 1753.94 C 2311.15 1745.08 2315.57 1735.2 2318.65 1728.04 L 2318.09 1730.71 C 2318.09 1726.88 2321.18 1723.81 2325.03 1723.81 C 2328.84 1723.81 2331.92 1726.88 2331.92 1730.71 Z M 2331.92 1730.71" style=""/>
  <path fill-rule="nonzero" fill="rgb(0%, 0%, 0%)" fill-opacity="1" d="M 1307.35 2023.89 C 1307.35 2024.25 1307.35 2024.58 1307.27 2024.94 L 1303.47 2048.76 C 1302.93 2052.01 1300.08 2054.45 1296.75 2054.36 C 1295.47 2054.3 1294.29 2054.3 1293.1 2054.3 C 1285.36 2054.3 1282.25 2055.43 1280.52 2059.29 C 1277.36 2066.37 1278.02 2082.54 1284.45 2092.13 C 1290.06 2100.46 1301.07 2104.74 1332.81 2106.65 C 1352.44 2107.8 1378.84 2108.05 1404.28 2108.05 C 1413.55 2108.05 1422.68 2108.03 1431.26 2107.99 C 1436.26 2107.98 1441.09 2107.95 1445.66 2107.95 C 1448.82 2107.94 1451.79 2107.94 1454.69 2107.94 C 1483.24 2107.94 1501.18 2108.22 1519.05 2108.55 C 1522.75 2108.59 1525.68 2111.61 1525.6 2115.32 C 1525.56 2118.99 1522.52 2121.92 1518.82 2121.87 C 1500.95 2121.53 1483.12 2121.26 1454.69 2121.26 C 1451.79 2121.26 1448.86 2121.26 1445.71 2121.26 C 1441.13 2121.3 1436.34 2121.31 1431.3 2121.34 C 1422.73 2121.35 1413.58 2121.38 1404.28 2121.38 C 1378.84 2121.38 1352.09 2121.12 1331.99 2119.94 C 1301.17 2118.1 1283.16 2114.05 1273.4 2099.57 C 1264.41 2086.3 1263.26 2065.21 1268.38 2053.85 C 1273.75 2041.77 1285.26 2040.97 1293.1 2040.97 C 1294.44 2040.97 1295.76 2041.03 1296.99 2041.05 L 1290.31 2046.63 L 1294.14 2022.86 L 1294.06 2023.89 C 1294.06 2020.22 1297.03 2017.25 1300.71 2017.25 C 1304.38 2017.25 1307.35 2020.22 1307.35 2023.89 Z M 1307.35 2023.89" style=""/>
  <path fill-rule="nonzero" fill="rgb(0%, 0%, 0%)" fill-opacity="1" d="M 1920.33 2084.35 C 1920.33 2084.62 1920.29 2084.87 1920.28 2085.18 C 1918.75 2097.6 1917.41 2109.02 1918.93 2120.38 C 1920.5 2131.87 1924.69 2141.35 1934.82 2145.78 C 1941.88 2148.87 1952.5 2149.9 1964.58 2149.9 C 1971.4 2149.9 1978.36 2149.61 1985 2149.25 C 2003.21 2148.27 2018.03 2147.19 2032.93 2146.05 C 2033.05 2146.05 2033.18 2146.04 2033.31 2146.04 L 3018.36 2125.05 L 3018.43 2125.05 C 3044.41 2124.7 3068.97 2124.34 3083.5 2120.43 C 3096.49 2117 3100.38 2111 3102.97 2102.71 C 3105.87 2093.47 3106.77 2081.94 3107.68 2069.37 L 3107.68 2069.28 C 3108.05 2065.59 3111.27 2062.9 3114.93 2063.22 C 3118.63 2063.55 3121.3 2066.8 3120.99 2070.45 L 3120.99 2070.35 C 3120.07 2082.5 3119.13 2095.72 3115.69 2106.71 C 3111.92 2118.7 3104.96 2128.52 3086.93 2133.36 C 3070.41 2137.76 3043.79 2138.01 3018.6 2138.37 L 3018.64 2138.37 L 2033.6 2159.35 L 2033.92 2159.31 C 2019.02 2160.46 2004.09 2161.59 1985.72 2162.58 C 1979.06 2162.93 1971.79 2163.24 1964.58 2163.24 C 1952.31 2163.24 1939.28 2162.28 1929.45 2158 C 1913.02 2150.79 1907.53 2135.39 1905.72 2122.16 C 1903.93 2108.78 1905.55 2095.67 1907.03 2083.53 L 1907 2084.35 C 1907 2080.68 1909.98 2077.68 1913.64 2077.68 C 1917.33 2077.68 1920.33 2080.68 1920.33 2084.35 Z M 1920.33 2084.35" style=""/>
  <path fill-rule="nonzero" fill="rgb(0%, 0%, 0%)" fill-opacity="1" d="M 3567.47 2050.05 C 3567.47 2050.58 3567.4 2051.09 3567.28 2051.59 L 3567.22 2051.92 C 3562.71 2070.95 3560.13 2084.62 3564.92 2091.45 C 3569.5 2098.03 3582.67 2100.76 3633.73 2103.54 C 3663.9 2105.12 3705.83 2106.87 3743.12 2106.87 C 3766.22 2106.87 3787.31 2106.18 3802.77 2104.48 C 3842.46 2100.07 3840.77 2089.66 3840.33 2085.27 C 3840.28 2085.01 3840.24 2084.81 3840.19 2084.51 C 3838.96 2075.6 3833.66 2067.63 3827.19 2058.11 L 3827.02 2057.81 C 3825.08 2054.65 3826.07 2050.58 3829.24 2048.66 C 3832.4 2046.73 3836.48 2047.73 3838.38 2050.86 L 3838.22 2050.6 C 3844.32 2059.6 3851.64 2070.15 3853.4 2082.7 C 3853.48 2083.09 3853.52 2083.37 3853.55 2083.82 C 3855.38 2100.38 3845.19 2113.17 3804.25 2117.71 C 3788.02 2119.53 3766.34 2120.18 3743.12 2120.18 C 3705.48 2120.18 3663.31 2118.46 3633.01 2116.84 C 3586.23 2114.33 3563.29 2112.45 3553.98 2099.08 C 3544.93 2086.13 3550.47 2064.87 3554.26 2048.81 L 3554.22 2048.85 L 3554.3 2048.53 L 3554.15 2050.05 C 3554.15 2046.34 3557.11 2043.37 3560.81 2043.37 C 3564.46 2043.37 3567.47 2046.34 3567.47 2050.05 Z M 3567.47 2050.05" style=""/>
  <path fill-rule="nonzero" fill="rgb(0%, 0%, 0%)" fill-opacity="1" d="M 2971.97 1674.34 C 2971.97 1676.32 2971.09 1678.19 2969.61 1679.45 C 2968.12 1680.67 2966.14 1681.24 2964.2 1680.94 L 2916.56 1672.89 C 2913.88 1672.43 2911.73 1670.37 2911.16 1667.76 C 2907.65 1651.46 2904.6 1638.58 2894.39 1630.99 C 2883.79 1623.06 2864.3 1619.85 2845.16 1619.85 C 2845.02 1619.85 2844.75 1619.85 2844.58 1619.85 C 2825.16 1619.89 2810.57 1623.28 2803.92 1629.77 C 2797.65 1635.94 2796.93 1646.54 2797.35 1660.27 C 2797.77 1673.99 2799.14 1682.17 2807.59 1686.36 C 2816.14 1690.59 2832.33 1691.47 2849.12 1691.47 C 2852.59 1691.47 2856.01 1691.46 2859.3 1691.42 C 2878.04 1691.22 2891.01 1691.03 2899.85 1689.92 C 2908.28 1688.85 2912.89 1686.92 2917.9 1684.83 C 2919.38 1684.18 2921.03 1684.13 2922.56 1684.64 L 2977.32 1702.71 C 2980.84 1703.86 2982.73 1707.6 2981.57 1711.14 C 2980.42 1714.62 2976.66 1716.48 2973.15 1715.35 L 2918.39 1697.32 L 2923.05 1697.12 C 2917.6 1699.38 2911.73 1701.83 2901.53 1703.12 C 2891.71 1704.35 2877.85 1704.52 2859.44 1704.76 C 2856.14 1704.8 2852.67 1704.84 2849.12 1704.84 C 2833.17 1704.84 2813.54 1704.2 2801.65 1698.3 C 2785.27 1690.15 2784.44 1673.25 2784.06 1660.7 C 2783.66 1648.09 2783.48 1631.15 2794.6 1620.26 C 2805.39 1609.73 2825.09 1606.59 2844.56 1606.52 C 2844.75 1606.52 2844.98 1606.52 2845.16 1606.52 C 2864.64 1606.52 2888.08 1609.64 2902.36 1620.3 C 2917.25 1631.45 2920.95 1649.87 2924.2 1664.89 L 2918.78 1659.75 L 2966.43 1667.78 L 2958.63 1674.34 C 2958.63 1670.68 2961.65 1667.69 2965.31 1667.69 C 2969 1667.69 2971.97 1670.68 2971.97 1674.34 Z M 2971.97 1674.34" style=""/>
  <path fill-rule="nonzero" fill="rgb(68.164062%, 93.359375%, 3.137207%)" fill-opacity="1" d="M 2251.83 1376.15 C 2244.57 1376.15 2237.13 1376.16 2229.79 1376.2 C 2196.69 1376.39 2162.45 1376.92 2127.5 1377.85 C 1984.59 1381.65 1830.5 1392.07 1734.7 1400.98 C 1644.93 1409.34 1606.41 1416.35 1570.99 1423.28 C 1570.63 1423.36 1570.4 1423.69 1570.45 1424.07 C 1570.45 1424.12 1570.45 1424.2 1570.49 1424.27 C 1572.96 1436.99 1573.15 1452.48 1560.13 1484.49 C 1545 1521.76 1511.43 1582.74 1482.89 1616.13 C 1453.59 1650.31 1429.25 1655.86 1404.73 1657.99 C 1395.1 1658.83 1385.45 1659.18 1375.74 1659.21 C 1374.98 1659.21 1374.1 1659.21 1373.31 1659.21 C 1360.12 1659.21 1346.86 1658.73 1333.77 1658.22 L 1333.73 1658.22 C 1333.73 1658.22 1333.69 1658.22 1333.65 1658.22 C 1333.65 1658.22 1333.6 1658.22 1333.56 1658.22 C 1333.31 1658.23 1332.99 1658.3 1332.7 1658.33 C 1332.41 1658.37 1332.16 1658.4 1331.84 1658.44 C 1322.55 1659.63 1313.8 1661.85 1309.3 1690.53 C 1304.04 1724.05 1305.63 1790.09 1307.27 1857.2 C 1307.31 1860.06 1305.41 1862.61 1302.66 1863.37 C 1287.16 1867.46 1274.55 1871.02 1267.08 1880.78 C 1259.5 1890.65 1256.38 1908.14 1257.36 1928.59 C 1258.36 1948.71 1263.23 1969.77 1272.72 1985.1 C 1282.05 2000.2 1296.25 2010.42 1312.27 2018.37 C 1328.04 2026.23 1345.08 2031.67 1377.12 2035.97 C 1407.9 2040.17 1452.19 2043.25 1497.33 2046.27 C 1497.33 2046.27 1497.36 2046.27 1497.36 2046.27 C 1497.56 2046.27 1497.72 2046.21 1497.86 2046.08 C 1498.01 2045.94 1498.09 2045.74 1498.05 2045.56 C 1497.77 2030.86 1499.12 2015.92 1502.27 2000.92 C 1513.49 1947.57 1545.37 1903.73 1588.05 1875.68 C 1588.24 1875.63 1588.41 1875.41 1588.46 1875.18 C 1588.51 1874.91 1588.41 1874.61 1588.13 1874.45 C 1581.65 1870.28 1572.85 1866.53 1554.94 1864.29 C 1529.92 1861.13 1487.92 1861.02 1445.17 1860.96 L 1445.12 1860.96 C 1445.12 1860.96 1445.09 1860.96 1445.09 1860.96 L 1444.68 1860.96 C 1441.42 1860.96 1438.74 1858.45 1438.5 1855.17 C 1437.96 1848.15 1437.47 1842.72 1435.07 1838.25 C 1432.63 1833.68 1427.91 1829.56 1421.94 1824.43 C 1421.69 1824.27 1421.49 1824.07 1421.33 1823.83 C 1421.2 1823.71 1421.04 1823.63 1420.87 1823.62 L 1420.75 1823.62 C 1411.29 1823.82 1400.44 1823.89 1388.71 1823.93 C 1381 1823.97 1372.94 1824.01 1364.56 1824.01 C 1351.11 1824.01 1336.99 1823.97 1322.9 1823.93 L 1322.86 1823.93 C 1319.46 1823.93 1316.72 1821.23 1316.64 1817.86 L 1314.79 1722.29 C 1314.74 1720.65 1315.4 1719.02 1316.57 1717.83 C 1317.71 1716.64 1319.32 1715.94 1320.99 1715.94 L 1322.66 1715.94 C 1362.95 1716.03 1404.14 1716.18 1430.99 1722.36 C 1459.05 1728.82 1472.55 1742.2 1478.9 1759.68 C 1484.8 1775.92 1484.6 1796.39 1476.75 1808.46 C 1469.82 1819.12 1457.81 1821.89 1440.39 1822.9 C 1440.35 1822.9 1440.35 1822.9 1440.32 1822.9 C 1439.93 1822.98 1439.69 1823.32 1439.69 1823.68 C 1439.73 1823.89 1439.82 1824.09 1439.98 1824.2 C 1442.34 1826.71 1444.43 1829.43 1446.04 1832.4 C 1448.68 1837.38 1449.78 1842.86 1450.35 1847.92 C 1450.35 1848.1 1450.43 1848.25 1450.58 1848.4 C 1450.72 1848.49 1450.88 1848.53 1451.04 1848.53 C 1451.04 1848.53 1451.04 1848.53 1451.08 1848.53 C 1491.5 1848.6 1531.74 1848.86 1556.46 1851.96 C 1581.78 1855.1 1591.59 1861.38 1600.25 1867.8 C 1600.38 1867.9 1600.56 1867.92 1600.67 1867.92 C 1600.8 1867.92 1600.88 1867.9 1601 1867.86 C 1601 1867.86 1601 1867.86 1601 1867.81 C 1631.22 1851.01 1665.93 1841.66 1702.13 1841.66 C 1716.49 1841.66 1731.12 1843.13 1745.77 1846.22 C 1853.5 1868.84 1924.45 1969.73 1908.41 2074.91 C 1908.4 2075.1 1908.45 2075.3 1908.56 2075.46 C 1908.68 2075.6 1908.9 2075.72 1909.1 2075.72 C 1909.1 2075.72 1909.1 2075.72 1909.1 2075.72 L 2229.79 2071.89 L 2229.87 2071.89 C 2230.07 2071.89 2230.29 2071.78 2230.41 2071.56 C 2230.53 2071.38 2230.53 2071.1 2230.45 2070.91 L 2230.41 2070.91 C 2219.95 2048.6 2209.64 2026.04 2203.11 2004.95 C 2196.18 1982.59 2193.47 1961.93 2191.03 1941.82 C 2190.99 1941.55 2190.73 1941.27 2190.36 1941.23 L 2190.29 1941.23 L 1940.27 1943 C 1940.22 1943 1940.22 1943 1940.18 1943 C 1938.34 1943 1936.54 1942.16 1935.35 1940.67 C 1935.28 1940.55 1935.02 1940.24 1934.89 1940.08 C 1934.66 1939.78 1934.56 1939.68 1934.33 1939.39 C 1931.47 1935.88 1927.59 1930.72 1927.35 1924.73 C 1927.05 1918.44 1930.74 1912.3 1933.26 1908.14 C 1933.37 1907.94 1933.57 1907.6 1933.67 1907.44 C 1934.82 1905.56 1936.81 1904.46 1938.99 1904.46 L 2187.67 1902.85 L 2187.76 1902.85 C 2187.94 1902.82 2188.13 1902.68 2188.25 1902.57 C 2188.36 1902.39 2188.4 1902.16 2188.36 1901.99 C 2182.83 1875.18 2177.52 1847.59 2178.67 1817.94 C 2179.55 1795.69 2184.09 1772.51 2187.82 1753.41 L 2187.86 1753.18 C 2189.38 1745.39 2190.74 1738.37 2191.74 1732.2 C 2194.79 1713.17 2194.09 1702.75 2193.01 1692.94 C 2193.01 1692.54 2192.71 1692.25 2192.35 1692.25 L 2182.26 1691.86 C 1957.97 1682.8 1798.89 1674.64 1719.51 1661.05 C 1640.43 1647.53 1636.54 1627.48 1634.85 1594.94 C 1634.85 1594.9 1634.85 1594.76 1634.85 1594.68 L 1634.81 1594.2 C 1634.77 1593.7 1634.77 1593.44 1634.73 1592.85 C 1634.73 1592.82 1634.73 1592.81 1634.73 1592.81 C 1634.73 1592.78 1634.73 1592.78 1634.73 1592.78 C 1634.53 1588.75 1634.24 1584.57 1633.99 1580.17 C 1633.7 1575.51 1633.41 1570.7 1633.13 1565.77 L 1633.13 1565.75 C 1631.8 1541.06 1631.19 1513.07 1637.83 1493.5 C 1647.57 1464.9 1672.13 1455.68 1702.13 1450.34 C 1730.58 1445.28 1766.56 1443.32 1855.72 1438.43 L 1856.75 1438.36 C 1856.75 1438.36 1856.75 1438.36 1856.75 1438.36 L 1872.4 1437.48 L 1885.48 1436.8 L 1899.81 1435.99 C 1899.81 1435.99 1899.81 1435.99 1899.85 1435.99 L 1899.81 1435.99 C 2002.14 1430.38 2150.37 1422.42 2263.67 1420.26 C 2278.82 1419.99 2293.33 1419.8 2307.27 1419.72 C 2311.61 1419.72 2315.93 1419.7 2320.1 1419.7 C 2413.55 1419.7 2480.67 1425.03 2536.07 1437.75 C 2599.38 1452.26 2646.99 1476.4 2702.36 1504.48 L 2702.63 1504.64 L 2709.64 1508.19 C 2709.68 1508.2 2709.72 1508.2 2709.75 1508.24 C 2718.63 1512.74 2727.48 1517.2 2736.72 1521.82 L 2737.53 1522.25 L 2737.83 1522.43 C 2747 1527.02 2757.03 1532.06 2766.36 1536.83 C 2808.96 1558.36 2851.69 1580.39 2883.5 1598.89 C 2929.69 1625.77 2953.3 1645.49 2968 1663.41 C 2980.29 1678.41 2986.11 1691.9 2990.75 1704.61 C 2990.83 1704.89 2991.11 1705.05 2991.4 1705.05 C 2991.44 1705.05 2991.48 1705.05 2991.52 1705.05 C 2991.6 1705 2991.68 1705 2991.74 1704.95 C 2997.09 1701.79 3002.38 1698.51 3007.75 1695.03 L 3007.79 1695.03 C 3013.5 1691.28 3019.29 1687.23 3025.2 1683.11 L 3025.17 1683.11 C 3025.38 1683.04 3025.54 1682.84 3025.62 1682.61 C 3025.7 1682.31 3025.58 1682.01 3025.32 1681.81 C 3016.83 1676.32 3007.86 1669.93 2998 1662.89 L 2996.59 1661.89 C 2986.61 1654.78 2975.63 1646.95 2963.12 1638.48 C 2913.88 1605.15 2841.27 1562.37 2771.85 1527.97 C 2747.94 1516.13 2724.38 1505.28 2702.96 1495.36 C 2702.96 1495.36 2702.92 1495.36 2702.92 1495.36 C 2702.92 1495.36 2702.92 1495.36 2702.86 1495.32 C 2685.17 1487.16 2668.9 1479.66 2655.19 1472.84 C 2637.62 1464.17 2623.42 1456.27 2615.87 1449.2 C 2607.4 1441.36 2605.28 1432.2 2612.51 1424.45 C 2617.31 1419.3 2626.26 1415.26 2636.45 1411.85 C 2636.75 1411.82 2637.02 1411.58 2637.03 1411.24 C 2637.09 1410.87 2636.87 1410.59 2636.54 1410.51 C 2600.91 1400.34 2560.04 1390.83 2488.94 1384.53 C 2428.13 1379.14 2345.23 1376.15 2251.83 1376.15 Z M 2251.83 1376.15" style=""/>
  <path fill-rule="nonzero" fill="rgb(68.164062%, 93.359375%, 3.137207%)" fill-opacity="1" d="M 2310.48 1722.85 C 2327.44 1722.85 2345.95 1724.27 2360.23 1727.02 C 2384.21 1731.54 2400.13 1740.46 2402 1751.95 C 2402.04 1752.14 2402.04 1752.39 2402.08 1752.56 C 2402.08 1752.6 2402.08 1752.68 2402.12 1752.74 L 2402.08 1752.74 C 2402.3 1754.55 2402.08 1756.38 2401.51 1758.06 C 2398.61 1766.92 2386.93 1771.39 2377.61 1773.81 C 2365.27 1777.03 2349.99 1778.23 2335.5 1779.38 L 2335.09 1779.42 C 2335.01 1779.46 2334.88 1779.46 2334.83 1779.46 L 2334.79 1779.46 L 2334.76 1779.49 L 2334.48 1779.49 C 2324.3 1779.84 2313.99 1780.28 2304.57 1780.3 C 2303.96 1780.3 2303.34 1780.3 2302.73 1780.3 C 2291.95 1780.3 2281.89 1779.8 2274.36 1778.11 C 2258.24 1774.37 2253.32 1764.89 2251.71 1754.68 C 2249.96 1743.56 2252.52 1730.71 2275.65 1725.7 C 2284.48 1723.77 2296.49 1722.89 2309.04 1722.85 C 2309.52 1722.85 2309.98 1722.85 2310.48 1722.85 Z M 2206.26 1692.96 C 2205.97 1692.96 2205.73 1693.2 2205.73 1693.5 C 2205.73 1693.56 2205.73 1693.62 2205.77 1693.69 L 2205.73 1693.69 C 2206.76 1703.65 2207.26 1715 2204.17 1734.18 C 2203.18 1740.59 2201.72 1747.85 2200.24 1755.51 L 2200.24 1755.58 C 2196.43 1774.89 2192.1 1797.26 2191.24 1818.44 C 2190.12 1847.34 2195.51 1874.36 2201.27 1902.14 C 2201.31 1902.4 2201.54 1902.57 2201.76 1902.57 C 2201.8 1902.57 2201.8 1902.57 2201.8 1902.57 L 3033.84 1897.2 L 3033.91 1897.2 C 3034.2 1897.2 3034.41 1896.98 3034.41 1896.7 C 3036.18 1868.26 3037.66 1840.18 3033.67 1808.88 C 3029.7 1778 3020.42 1743.83 3010.68 1708.96 C 3010.6 1708.74 3010.43 1708.56 3010.18 1708.56 L 3010.15 1708.56 C 3010.15 1708.56 3010.15 1708.56 3010.15 1708.56 C 3010.03 1708.56 3009.93 1708.56 3009.85 1708.66 C 3003.9 1712.39 2998.04 1715.88 2992.28 1719.32 L 2992.24 1719.32 C 2991.64 1719.7 2990.98 1719.96 2990.33 1720.11 C 2990.22 1720.15 2990.15 1720.19 2990.07 1720.21 C 2989.27 1720.57 2988.43 1720.75 2987.55 1720.75 C 2987.47 1720.75 2987.4 1720.75 2987.36 1720.75 L 2981.12 1720.51 C 2703.16 1711.07 2425.61 1701.62 2206.3 1692.96 L 2206.26 1692.96 C 2206.26 1692.96 2206.26 1692.96 2206.26 1692.96 Z M 2206.26 1692.96" style=""/>
  <path fill-rule="nonzero" fill="rgb(68.164062%, 93.359375%, 3.137207%)" fill-opacity="1" d="M 3035.9 1935.48 L 2204.29 1941.28 C 2204.29 1941.28 2204.25 1941.28 2204.25 1941.28 C 2204.25 1941.28 2204.21 1941.28 2204.21 1941.28 C 2203.9 1941.32 2203.67 1941.57 2203.71 1941.85 C 2203.71 1941.96 2203.71 1942.03 2203.75 1942.11 L 2203.75 1942.12 C 2206.11 1961.52 2208.75 1980.65 2215.14 2001.21 C 2221.96 2023.18 2233.04 2046.93 2244.53 2071.25 C 2244.61 2071.44 2244.82 2071.56 2245.03 2071.56 C 2245.03 2071.56 2245.03 2071.56 2245.06 2071.56 L 2245.03 2071.56 L 3014.85 2062.47 L 3014.89 2062.47 C 3015.11 2062.47 3015.3 2062.28 3015.38 2062.06 C 3022.68 2037.85 3029.67 2014.24 3033.17 1993.33 C 3036.6 1972.66 3036.63 1954.49 3036.44 1936.04 C 3036.44 1935.72 3036.22 1935.48 3035.94 1935.48 L 3035.9 1935.48 Z M 3035.9 1935.48" style=""/>
  <path fill-rule="nonzero" fill="rgb(68.164062%, 93.359375%, 3.137207%)" fill-opacity="1" d="M 3029.39 2061.74 L 3029.67 2061.87 L 3029.5 2061.98 C 3029.5 2061.93 3029.46 2061.87 3029.39 2061.74 Z M 3158.12 1673.63 C 3158.03 1673.63 3157.99 1673.65 3157.92 1673.65 C 3132.69 1687.35 3105.62 1701.86 3079.31 1701.98 C 3079.19 1701.98 3079.04 1701.98 3078.92 1701.98 C 3075.65 1701.98 3072.38 1701.79 3069.09 1701.32 C 3058.73 1699.8 3048.7 1695.78 3038.04 1689.9 C 3037.99 1689.87 3037.92 1689.84 3037.88 1689.84 L 3037.84 1689.84 C 3037.84 1689.84 3037.84 1689.84 3037.8 1689.84 C 3037.75 1689.84 3037.66 1689.87 3037.58 1689.92 C 3032.38 1693.54 3027.22 1697.2 3022.03 1700.77 C 3021.85 1700.9 3021.77 1701.05 3021.85 1701.25 C 3021.85 1701.33 3021.91 1701.39 3021.95 1701.43 L 3021.91 1701.43 C 3032.02 1737.53 3042.16 1774.1 3046.42 1807.24 C 3050.55 1839.53 3049.06 1868.38 3047.34 1896.59 C 3047.3 1896.68 3047.34 1896.79 3047.42 1896.91 C 3047.49 1896.98 3047.61 1897.02 3047.76 1897.02 L 3092.72 1896.7 C 3092.75 1896.7 3092.75 1896.7 3092.75 1896.7 C 3093.82 1896.7 3094.89 1896.98 3095.83 1897.52 C 3096.15 1897.67 3096.37 1897.78 3096.75 1898.02 C 3097.18 1898.2 3097.4 1898.32 3097.82 1898.58 C 3102.32 1901 3108.34 1904.47 3111.01 1908.97 C 3111.85 1910.4 3112.5 1912.07 3112.64 1914.02 C 3112.75 1915.7 3112.46 1917.26 3112.04 1918.58 C 3110.16 1924.17 3103.93 1929.37 3099.68 1932.94 C 3099.43 1933.15 3099.05 1933.48 3098.82 1933.68 C 3097.68 1934.63 3096.21 1935.17 3094.71 1935.17 L 3049.72 1935.52 C 3049.48 1935.52 3049.32 1935.68 3049.32 1935.92 C 3049.32 1936.01 3049.32 1936.08 3049.36 1936.16 L 3049.32 1936.16 C 3049.52 1954.59 3049.48 1973.68 3045.85 1995.5 C 3042.42 2016.03 3035.79 2038.87 3028.93 2061.59 C 3028.89 2061.74 3028.93 2061.91 3029.01 2061.98 C 3029.09 2062.09 3029.21 2062.15 3029.35 2062.15 L 3029.32 2062.15 C 3029.32 2062.15 3029.35 2062.15 3029.35 2062.15 C 3029.35 2062.15 3029.39 2062.15 3029.39 2062.15 L 3029.35 2062.15 L 3108.14 2061.24 L 3108.18 2061.24 C 3108.43 2061.2 3108.58 2061.08 3108.6 2060.87 C 3113.86 2014.54 3120.03 1966.77 3146.77 1927.99 C 3174.67 1887.61 3224.25 1857.77 3274.27 1843.25 C 3298.01 1836.31 3322.04 1832.85 3345.49 1832.75 C 3345.91 1832.73 3346.29 1832.73 3346.71 1832.73 C 3372.43 1832.73 3397.5 1836.77 3420.9 1844.87 C 3441.04 1851.84 3459.91 1861.78 3476.71 1873.9 C 3476.75 1873.96 3476.83 1873.99 3476.95 1873.99 C 3476.99 1873.99 3476.99 1873.96 3477.03 1873.96 C 3477.45 1873.9 3477.86 1873.84 3478.28 1873.84 L 3478.35 1873.84 L 3572.06 1871.67 L 3572.1 1871.67 C 3572.23 1871.67 3572.34 1871.62 3572.38 1871.48 C 3572.46 1871.39 3572.51 1871.29 3572.46 1871.15 C 3569.58 1859.78 3571.52 1846.62 3588.19 1837.14 C 3603.98 1828.2 3633.55 1822.34 3657.17 1819.81 C 3665.63 1818.92 3673.56 1818.39 3681.03 1818.36 C 3681.31 1818.36 3681.61 1818.36 3681.89 1818.36 C 3695.35 1818.36 3707.43 1819.92 3718.66 1823.54 C 3736.33 1829.21 3751.25 1839.78 3764.62 1850.63 C 3777.3 1860.97 3789.09 1872.02 3800.66 1882.92 C 3800.74 1883.04 3800.82 1883.07 3800.93 1883.07 C 3800.97 1883.07 3800.97 1883.07 3800.97 1883.07 L 3816.55 1882.34 C 3816.74 1882.34 3816.86 1882.27 3816.92 1882.1 C 3817.01 1881.93 3816.96 1881.77 3816.86 1881.63 C 3778.26 1842.26 3737.52 1804.35 3667.61 1775.17 C 3590.09 1742.83 3476.57 1721.23 3384.93 1706 C 3294.58 1690.98 3226.35 1682.27 3158.3 1673.65 L 3158.25 1673.65 C 3158.21 1673.63 3158.16 1673.63 3158.12 1673.63 Z M 3158.12 1673.63" style=""/>
  <path fill-rule="nonzero" fill="rgb(68.164062%, 93.359375%, 3.137207%)" fill-opacity="1" d="M 3579.1 1884.41 L 3579.06 1884.41 L 3493.55 1886.37 L 3493.51 1886.37 C 3493.51 1886.37 3493.48 1886.37 3493.48 1886.37 C 3493.17 1886.43 3492.98 1886.64 3492.98 1886.91 C 3492.98 1887.13 3493.13 1887.29 3493.33 1887.37 L 3493.3 1887.37 C 3506.7 1899.39 3518.24 1912.9 3527.32 1927.37 C 3549.15 1962.27 3556.38 2002.45 3562.82 2041.48 C 3562.86 2041.72 3563.06 2041.88 3563.31 2041.88 C 3563.31 2041.88 3563.31 2041.88 3563.31 2041.88 L 3563.35 2041.88 C 3646.97 2047.17 3729.49 2052.28 3776.65 2052.36 C 3777.04 2052.36 3777.49 2052.36 3777.88 2052.36 C 3778.9 2052.36 3779.93 2052.36 3780.92 2052.36 C 3826 2052.12 3834.24 2046.78 3838.79 2041.84 C 3842.59 2037.79 3844.69 2032.81 3846.42 2026.85 C 3846.46 2026.73 3846.42 2026.57 3846.34 2026.42 C 3846.26 2026.32 3846.12 2026.24 3845.97 2026.24 L 3845.89 2026.24 C 3832.94 2026.89 3820.13 2027.41 3808.5 2027.47 C 3807.83 2027.47 3807.17 2027.47 3806.52 2027.47 C 3792.31 2027.47 3779.39 2026.73 3770.06 2024.05 C 3748.64 2017.98 3746.94 2002.45 3746.45 1991 C 3745.99 1979.84 3746.37 1969.31 3746.75 1959.06 L 3746.75 1958.95 C 3746.9 1955.52 3749.67 1952.81 3753.06 1952.76 L 3847 1951.24 L 3847.08 1951.24 C 3847.29 1951.19 3847.49 1951.04 3847.52 1950.78 C 3849.16 1934.28 3850.11 1919.9 3847.52 1911.02 C 3845.01 1902.57 3839 1899.23 3830.2 1894.73 C 3830.2 1894.73 3830.2 1894.73 3830.2 1894.73 C 3830.16 1894.73 3830.16 1894.73 3830.12 1894.7 C 3830.04 1894.66 3830 1894.66 3829.92 1894.66 L 3829.8 1894.66 C 3829.66 1894.66 3829.51 1894.7 3829.34 1894.7 L 3799.29 1896.05 C 3799.21 1896.05 3799.09 1896.05 3798.99 1896.05 C 3798.71 1896.05 3798.38 1896.03 3798.1 1895.99 L 3797.96 1895.99 C 3752.53 1897.93 3707.01 1899.85 3670.74 1900.01 C 3668.93 1900.01 3667.11 1900.05 3665.35 1900.05 C 3650.07 1900.05 3636.56 1899.69 3625.55 1898.86 C 3599.37 1896.85 3586.38 1891.87 3579.48 1884.58 C 3579.4 1884.46 3579.24 1884.41 3579.1 1884.41 Z M 3579.1 1884.41" style=""/>
  <path fill-rule="nonzero" fill="rgb(50.976562%, 69.726562%, 62.693787%)" fill-opacity="1" d="M 1448.44 1416.29 C 1448.14 1416.29 1447.69 1416.29 1447.37 1416.29 C 1440.51 1416.33 1435.15 1416.7 1431.38 1417.4 C 1429.36 1417.73 1428.01 1418.15 1427.22 1418.51 C 1427.1 1418.55 1427.07 1418.62 1427.1 1418.7 C 1427.1 1418.77 1427.14 1418.8 1427.18 1418.83 C 1429.42 1422.09 1437.05 1428.38 1451.15 1435.96 C 1475.85 1449.34 1512.09 1462.77 1548.99 1476.49 C 1549.08 1476.5 1549.11 1476.53 1549.16 1476.54 C 1549.2 1476.54 1549.24 1476.57 1549.24 1476.57 C 1549.29 1476.57 1549.33 1476.54 1549.33 1476.53 C 1549.36 1476.5 1549.4 1476.46 1549.4 1476.43 C 1560.47 1448.29 1559.78 1435.72 1557.54 1425.41 C 1557.54 1425.29 1557.46 1425.22 1557.38 1425.22 L 1557.33 1425.19 C 1515.1 1420.64 1474.04 1416.29 1448.44 1416.29 Z M 1448.44 1416.29" style=""/>
  <path fill-rule="nonzero" fill="rgb(50.976562%, 69.726562%, 62.693787%)" fill-opacity="1" d="M 2145.99 1454.06 L 2145.91 1454.08 C 2146.03 1454.08 2146.17 1454.08 2146.28 1454.08 C 2148.04 1454.08 2149.71 1454.75 2150.99 1455.96 C 2152.31 1457.26 2153.08 1459.11 2153.04 1461 C 2152.24 1496.36 2151.48 1530.77 2158.04 1562.56 C 2164.54 1594.18 2178.36 1623.46 2192.63 1653.54 L 2192.72 1653.76 C 2193.75 1655.86 2193.59 1658.37 2192.27 1660.36 C 2191.03 1662.26 2188.89 1663.38 2186.65 1663.38 C 2186.56 1663.38 2186.45 1663.38 2186.41 1663.38 L 2186.29 1663.38 C 2080.49 1659.63 1974.52 1655.86 1889.13 1650.9 C 1804.13 1645.91 1738.17 1639.7 1703.7 1627.17 C 1667.22 1613.81 1664.4 1592.58 1661.47 1567.09 L 1661.39 1566.36 L 1661.36 1565.7 L 1661.24 1564.87 C 1661.18 1564.28 1661.14 1563.87 1661.05 1563.29 L 1660.86 1561.6 C 1658.12 1537.52 1654.79 1502.27 1682.97 1484.8 L 1682.97 1484.83 L 1682.97 1484.8 C 1703.24 1472.26 1739.13 1470.05 1786.25 1468.84 C 1795.01 1468.62 1804.46 1468.44 1814.15 1468.23 L 1814.29 1468.23 L 1815.19 1468.2 C 1825.73 1468.01 1836.66 1467.77 1848.26 1467.51 C 1929.68 1465.42 2037.73 1459.75 2145.87 1454.08 L 2145.91 1454.08 L 2145.99 1454.06 Z M 2198.5 1434.97 C 2097.98 1438.23 1984.09 1444.37 1900.57 1448.92 L 1900.53 1448.92 L 1886.21 1449.74 L 1873.15 1450.43 L 1857.47 1451.33 C 1857.47 1451.33 1857.47 1451.33 1857.47 1451.33 C 1767.09 1456.28 1732.01 1458.22 1704.42 1463.11 C 1675.09 1468.3 1657.39 1476.39 1650.12 1497.75 C 1644.4 1514.45 1644.71 1539.89 1646.08 1565.02 L 1646.08 1565.05 C 1646.31 1569.83 1646.62 1574.58 1646.91 1579.19 L 1646.91 1579.38 L 1646.96 1580.03 C 1647.23 1584.15 1647.49 1588.23 1647.69 1592.08 C 1647.73 1593.11 1647.73 1593 1647.76 1593.94 L 1647.8 1594.18 C 1647.87 1595.13 1647.9 1596.16 1647.94 1597.08 C 1647.98 1597.96 1648.03 1598.93 1648.07 1599.83 C 1649.22 1621.74 1652.72 1636.49 1721.72 1648.29 C 1800.05 1661.7 1958.09 1669.83 2182.76 1678.88 C 2208.2 1679.93 2234.31 1680.94 2261.32 1682 C 2261.36 1682 2261.4 1681.97 2261.45 1681.96 C 2261.49 1681.9 2261.49 1681.85 2261.49 1681.81 L 2261.45 1681.71 C 2255.95 1673.8 2249.5 1661.65 2240.6 1638.56 C 2225.91 1600.61 2204.06 1532.17 2196.6 1492.1 C 2190.74 1460.88 2193.55 1445.99 2198.65 1435.18 C 2198.67 1435.11 2198.67 1435.06 2198.65 1435.02 C 2198.61 1434.97 2198.57 1434.97 2198.5 1434.97 Z M 2198.5 1434.97" style=""/>
  <path fill-rule="nonzero" fill="rgb(50.976562%, 69.726562%, 62.693787%)" fill-opacity="1" d="M 2845.16 1619.65 C 2844.98 1619.65 2844.82 1619.65 2844.62 1619.65 C 2844.62 1619.65 2844.58 1619.65 2844.58 1619.65 C 2844.52 1619.65 2844.37 1619.65 2844.33 1619.65 C 2825.01 1619.73 2810.41 1623.13 2803.76 1629.64 C 2797.39 1635.88 2796.7 1646.56 2797.11 1660.27 C 2797.53 1673.98 2798.92 1682.31 2807.48 1686.56 C 2816.21 1690.9 2832.64 1691.71 2849.36 1691.71 C 2850.27 1691.71 2851.19 1691.71 2852.11 1691.71 C 2854.53 1691.68 2856.97 1691.68 2859.3 1691.64 C 2878.04 1691.47 2891.01 1691.26 2899.88 1690.14 C 2908.35 1689.08 2912.94 1687.12 2918.02 1685.03 C 2918.78 1684.7 2919.62 1684.55 2920.49 1684.55 C 2921.14 1684.55 2921.84 1684.64 2922.48 1684.88 L 2975.67 1702.43 C 2975.72 1702.43 2975.72 1702.43 2975.75 1702.43 C 2975.79 1702.43 2975.86 1702.43 2975.9 1702.37 C 2975.97 1702.32 2976.01 1702.25 2976.01 1702.16 L 2975.97 1702.08 C 2973.19 1695.18 2969.84 1688.26 2964.99 1681.02 C 2964.99 1680.86 2964.9 1680.74 2964.78 1680.74 C 2964.57 1680.74 2964.41 1680.71 2964.23 1680.67 L 2916.6 1672.65 C 2914.01 1672.23 2911.95 1670.26 2911.4 1667.68 L 2911.4 1667.64 C 2907.89 1651.43 2904.81 1638.48 2894.52 1630.75 C 2883.88 1622.82 2864.26 1619.65 2845.16 1619.65 Z M 2845.16 1619.65" style=""/>
  <path fill-rule="nonzero" fill="rgb(50.976562%, 69.726562%, 62.693787%)" fill-opacity="1" d="M 3091 1910.03 L 1942.99 1917.44 C 1942.91 1917.44 1942.87 1917.49 1942.87 1917.51 C 1941.08 1920.76 1940.27 1922.72 1940.35 1924.13 C 1940.43 1925.42 1941.27 1927 1943.49 1929.89 C 1943.49 1929.89 1943.52 1929.93 1943.56 1929.93 L 3092.07 1921.89 L 3092.15 1921.89 C 3095.83 1918.71 3098.01 1916.61 3098.97 1915.26 L 3098.93 1915.26 L 3099.01 1915.08 C 3097.86 1913.97 3095.39 1912.4 3091.09 1910.07 L 3091 1910.03 Z M 3091 1910.03" style=""/>
  <path fill-rule="nonzero" fill="rgb(100%, 14.892578%, 0%)" fill-opacity="1" d="M 1328.04 1728.96 C 1327.96 1728.96 1327.89 1729.03 1327.89 1729.13 L 1328.54 1762.15 C 1328.54 1762.23 1328.62 1762.31 1328.69 1762.31 C 1328.69 1762.31 1328.69 1762.31 1328.73 1762.31 L 1328.69 1762.31 C 1328.81 1762.29 1328.96 1762.29 1329.07 1762.29 L 1421.53 1762.29 C 1421.65 1762.29 1421.69 1762.22 1421.69 1762.12 L 1422.92 1734.09 L 1422.96 1734.09 C 1422.96 1734 1422.88 1733.94 1422.81 1733.92 C 1398.87 1729.4 1364.28 1729.05 1328.08 1728.96 C 1328.08 1728.96 1328.08 1728.96 1328.04 1728.96 Z M 1328.04 1728.96" style=""/>
  <path fill-rule="nonzero" fill="rgb(99.21875%, 100%, 0%)" fill-opacity="1" d="M 1436.48 1737.33 C 1436.39 1737.33 1436.3 1737.4 1436.3 1737.48 L 1434.91 1769.33 C 1434.77 1772.91 1431.8 1775.76 1428.17 1775.76 L 1329.07 1775.78 L 1329.04 1775.78 C 1329.04 1775.78 1329 1775.78 1329 1775.78 C 1329 1775.78 1329 1775.78 1328.96 1775.78 C 1328.91 1775.78 1328.87 1775.78 1328.87 1775.82 C 1328.81 1775.85 1328.81 1775.89 1328.81 1775.92 L 1329.49 1810.86 C 1329.49 1810.9 1329.53 1810.93 1329.53 1810.95 C 1329.57 1810.95 1329.61 1810.99 1329.65 1810.99 C 1329.65 1810.99 1329.65 1810.99 1329.69 1810.99 C 1341.53 1811.02 1353.21 1811.05 1364.56 1811.05 C 1372.9 1811.05 1380.96 1811.02 1388.66 1810.99 C 1403.11 1810.93 1416.17 1810.8 1426.84 1810.46 L 1426.91 1810.46 C 1453.93 1809.73 1461.77 1807.74 1465.89 1801.43 C 1470.78 1793.92 1471.81 1778.11 1466.74 1764.1 C 1462.68 1752.99 1454.85 1743.37 1436.52 1737.34 L 1436.48 1737.33 Z M 1436.48 1737.33" style=""/>
  <path fill-rule="nonzero" fill="rgb(99.21875%, 100%, 0%)" fill-opacity="1" d="M 3681.89 1831.4 C 3681.64 1831.4 3681.31 1831.4 3681.11 1831.4 C 3674.17 1831.46 3666.69 1831.94 3658.58 1832.81 C 3635.04 1835.32 3607.84 1841.01 3594.63 1848.49 C 3583.45 1854.88 3583.24 1862.03 3585.58 1869.44 C 3587.34 1875.05 3590.17 1883.11 3626.55 1885.89 C 3637.09 1886.72 3650.27 1887.05 3665.35 1887.05 C 3667.11 1887.05 3668.89 1887.05 3670.65 1887.04 C 3702.44 1886.88 3741.45 1885.34 3781.46 1883.66 L 3781.5 1883.66 C 3781.65 1883.66 3781.76 1883.58 3781.79 1883.46 C 3781.88 1883.31 3781.84 1883.16 3781.73 1883.09 C 3773.45 1875.41 3765.15 1867.92 3756.39 1860.82 C 3743.36 1850.18 3729.95 1840.92 3714.67 1836 C 3705.02 1832.85 3694.32 1831.4 3681.89 1831.4 Z M 3681.89 1831.4" style=""/>
  <path fill-rule="nonzero" fill="rgb(100%, 0%, 0%)" fill-opacity="1" d="M 3760.12 1995.69 L 3760.08 1995.72 L 3760.12 1995.75 L 3760.12 1995.69 Z M 3812.2 1995.56 L 3760.12 1995.65 L 3760.12 1995.69 L 3760.12 1995.77 L 3760.12 1995.75 L 3760.08 1995.77 C 3760.89 2003.17 3763.43 2008.43 3773.68 2011.33 C 3781.12 2013.44 3792.5 2014.24 3806.55 2014.24 C 3807.17 2014.24 3807.78 2014.24 3808.44 2014.24 C 3809.19 2014.24 3809.99 2014.24 3810.76 2014.22 L 3810.8 2014.22 L 3810.88 2014.14 C 3811.63 2007.74 3812.28 2001.63 3812.32 1995.65 L 3812.24 1995.56 L 3812.2 1995.56 Z M 3812.2 1995.56" style=""/>
  <path fill-rule="nonzero" fill="rgb(100%, 0%, 0%)" fill-opacity="1" d="M 3807.51 1965.1 L 3759.82 1965.93 L 3759.82 1966.03 L 3759.78 1965.99 C 3759.58 1971.28 3759.47 1976.58 3759.5 1981.89 L 3759.58 1981.94 L 3811.17 1981.89 L 3811.21 1981.89 L 3811.25 1981.79 C 3810.42 1976.44 3809.12 1970.93 3807.63 1965.2 L 3807.55 1965.1 L 3807.51 1965.1 Z M 3807.51 1965.1" style=""/>
  <path fill-rule="nonzero" fill="rgb(99.21875%, 100%, 0%)" fill-opacity="1" d="M 3821.82 1964.91 C 3821.86 1964.91 3821.86 1964.95 3821.86 1964.95 L 3821.82 1964.95 L 3821.82 1964.91 Z M 3845.09 1964.51 L 3821.78 1964.91 L 3821.74 1964.91 L 3821.78 1964.91 L 3821.7 1964.91 C 3821.66 1964.91 3821.63 1964.95 3821.66 1964.99 C 3821.66 1965.01 3821.7 1965.06 3821.74 1965.06 L 3821.7 1965.06 C 3823.56 1972.57 3825.2 1980.41 3825.78 1988.27 C 3826.41 1997.04 3825.62 2005.62 3824.67 2013.82 L 3824.67 2013.84 C 3824.67 2013.89 3824.71 2013.92 3824.79 2013.92 C 3831.69 2013.64 3838.84 2013.35 3846.08 2012.94 L 3846.08 2012.98 L 3846.12 2012.94 L 3846.19 2012.93 C 3847.04 2010.67 3847.79 2008.29 3848.29 2003.34 C 3848.9 1997.18 3849.09 1987.43 3848.36 1979.92 C 3847.79 1973.92 3846.62 1969.31 3845.23 1964.56 L 3845.15 1964.51 L 3845.09 1964.51 Z M 3845.09 1964.51" style=""/>
  <path fill-rule="nonzero" fill="rgb(50.976562%, 69.726562%, 62.693787%)" fill-opacity="1" d="M 3107.27 2074.47 L 1919.85 2088.54 C 1919.74 2088.54 1919.67 2088.63 1919.67 2088.71 C 1918.36 2099.78 1917.37 2110.12 1918.79 2120.42 C 1920.33 2131.91 1924.58 2141.47 1934.74 2145.9 C 1941.88 2149.07 1952.54 2150.09 1964.62 2150.09 C 1964.96 2150.09 1965.31 2150.09 1965.69 2150.09 C 1972.17 2150.06 1978.74 2149.75 1985.04 2149.4 C 2003.21 2148.41 2018.07 2147.32 2032.93 2146.2 C 2033.05 2146.2 2033.18 2146.2 2033.31 2146.2 L 3018.36 2125.24 L 3018.43 2125.24 C 3044.41 2124.87 3069 2124.48 3083.54 2120.59 C 3096.61 2117.13 3100.5 2111.07 3103.13 2102.76 C 3105.62 2094.78 3106.61 2085.19 3107.47 2074.67 L 3107.47 2074.65 C 3107.47 2074.53 3107.4 2074.47 3107.27 2074.47 Z M 3107.27 2074.47" style=""/>
  <path fill-rule="nonzero" fill="rgb(50.976562%, 69.726562%, 62.693787%)" fill-opacity="1" d="M 3566.4 2055.21 C 3566.29 2055.21 3566.18 2055.29 3566.18 2055.4 C 3562.22 2072.49 3560.15 2085.01 3564.69 2091.59 C 3569.38 2098.25 3582.75 2101.03 3633.69 2103.74 C 3663.9 2105.36 3705.83 2107.11 3743.12 2107.11 C 3745.04 2107.11 3746.94 2107.11 3748.84 2107.07 C 3769.69 2106.98 3788.64 2106.27 3802.79 2104.69 C 3841.52 2100.41 3841.1 2090.38 3840.56 2085.61 C 3840.56 2085.57 3840.56 2085.55 3840.56 2085.51 C 3840.56 2085.51 3840.56 2085.51 3840.56 2085.41 C 3840.56 2085.37 3840.52 2085.37 3840.52 2085.34 C 3840.52 2085.34 3840.52 2085.34 3840.52 2085.27 C 3840.52 2085.05 3840.49 2084.76 3840.45 2084.51 L 3840.45 2084.47 C 3839.32 2076.6 3835.12 2069.49 3829.7 2061.41 C 3829.66 2061.36 3829.58 2061.29 3829.51 2061.29 L 3829.42 2061.29 C 3819.19 2063.97 3804.25 2065.36 3781 2065.45 C 3779.97 2065.45 3778.94 2065.45 3777.88 2065.45 C 3777.46 2065.45 3777.04 2065.45 3776.65 2065.45 C 3729.75 2065.4 3648.59 2060.4 3566.45 2055.21 C 3566.45 2055.21 3566.45 2055.21 3566.4 2055.21 Z M 3566.4 2055.21" style=""/>
  <path fill-rule="nonzero" fill="rgb(50.976562%, 69.726562%, 62.693787%)" fill-opacity="1" d="M 1306.44 2029.77 C 1306.25 2029.77 1306.08 2029.89 1306.06 2030.07 L 1303.05 2048.7 C 1302.59 2051.73 1299.96 2053.99 1296.88 2053.99 C 1296.83 2053.99 1296.79 2053.99 1296.75 2053.96 L 1296.75 2053.99 C 1295.47 2053.95 1294.29 2053.92 1293.1 2053.92 C 1292.95 2053.92 1292.83 2053.92 1292.72 2053.92 C 1285.22 2053.96 1281.97 2055.1 1280.14 2059.11 L 1280.14 2059.15 C 1276.95 2066.39 1277.6 2082.7 1284.1 2092.34 C 1289.86 2100.86 1301.07 2105.16 1332.77 2107.03 C 1352.46 2108.2 1378.91 2108.45 1404.32 2108.45 C 1413.55 2108.45 1422.68 2108.41 1431.26 2108.4 C 1436.26 2108.36 1441.13 2108.33 1445.66 2108.33 C 1448.78 2108.29 1451.79 2108.29 1454.69 2108.29 C 1477.91 2108.29 1494.1 2108.53 1508.96 2108.74 C 1509.11 2108.74 1509.22 2108.68 1509.3 2108.59 C 1509.37 2108.49 1509.37 2108.4 1509.34 2108.26 L 1509.34 2108.22 C 1503.76 2092.64 1500.08 2076.28 1498.55 2059.52 C 1498.55 2059.25 1498.38 2059.11 1498.17 2059.1 C 1452.57 2056.05 1407.11 2052.92 1375.44 2048.61 C 1342.44 2044.15 1324 2038.41 1306.62 2029.79 L 1306.48 2029.77 L 1306.44 2029.77 Z M 1306.44 2029.77" style=""/>
  <path fill-rule="nonzero" fill="rgb(49.021912%, 49.021912%, 49.021912%)" fill-opacity="1" d="M 2310.52 1736.1 C 2310.02 1736.1 2309.61 1736.1 2309.11 1736.1 C 2296.91 1736.14 2285.97 1736.99 2278.47 1738.64 C 2263.13 1741.98 2264 1747.53 2264.74 1752.5 L 2264.79 1752.64 C 2265.7 1758.6 2267.47 1762.91 2277.34 1765.2 C 2283.37 1766.58 2292.15 1767.11 2302.81 1767.11 C 2303.38 1767.11 2303.87 1767.11 2304.5 1767.11 C 2308.83 1767.07 2313.41 1766.96 2318.09 1766.85 L 2318.13 1766.85 L 2318.16 1766.74 C 2315.44 1763.11 2313.1 1758.84 2312.42 1753.94 C 2311.61 1748.1 2313.26 1741.88 2315.36 1736.22 L 2315.32 1736.14 C 2313.72 1736.1 2312.11 1736.1 2310.52 1736.1 Z M 2310.52 1736.1" style=""/>
  <path fill-rule="nonzero" fill="rgb(49.021912%, 49.021912%, 49.021912%)" fill-opacity="1" d="M 2329.98 1736.69 L 2329.91 1736.72 C 2327.12 1743.52 2325.48 1748.42 2325.97 1752.07 C 2326.51 1755.96 2329.64 1759.49 2335.21 1765.18 C 2335.46 1765.44 2335.75 1765.79 2335.95 1766.08 L 2336.08 1766.02 L 2335.99 1766.12 C 2350.24 1764.95 2363.66 1763.8 2374.3 1761.02 C 2384.47 1758.38 2388.29 1755.29 2388.87 1754.09 L 2388.91 1754.03 C 2388.63 1752.49 2382.76 1744.71 2357.75 1740 C 2349.69 1738.48 2340 1737.33 2330.02 1736.69 L 2330.06 1736.72 L 2329.98 1736.69 Z M 2329.98 1736.69" style=""/>
  <path fill-rule="nonzero" fill="rgb(46.263123%, 46.263123%, 46.263123%)" fill-opacity="1" d="M 2913.98 1633.51 L 2913.9 1633.6 C 2918.78 1642.03 2921.22 1651.64 2923.17 1660.51 L 2923.25 1660.58 L 2952.27 1665.46 L 2952.34 1665.39 L 2952.34 1665.32 C 2943.65 1656.01 2931.7 1645.66 2914.05 1633.51 L 2913.98 1633.51 Z M 2913.98 1633.51" style=""/>
  <path fill-rule="nonzero" fill="rgb(46.263123%, 46.263123%, 46.263123%)" fill-opacity="1" d="M 2920.73 1698.02 L 2920.69 1698.02 C 2915.89 1699.99 2910.29 1701.97 2901.53 1703.08 C 2898.02 1703.54 2894.01 1703.84 2889.44 1704.07 L 2889.44 1704.11 L 2889.48 1704.15 L 2889.48 1704.11 L 2907.85 1704.77 L 2944.68 1706 L 2944.72 1705.95 L 2920.77 1698.02 L 2920.73 1698.02 Z M 2920.73 1698.02" style=""/>
  <path d="M 1906.38 2086.33 C 1906.31 2086.72 1906.22 2087.1 1906.14 2087.5 L 1905.82 2087.5 L 1905.82 2087.37 L 1903.69 2087.37 L 1906.33 2087.33 L 1917.63 2148.87 C 1910.5 2149.33 1892.65 2084.5 1892.85 2083.48 C 1914.2 1981.84 1847 1881.43 1742.35 1859.42 C 1637.66 1837.46 1535.72 1902.37 1514.39 2004 C 1505.84 2044.71 1511.52 2085.25 1528.12 2120.63 L 1512.93 2120.63 C 1497.19 2084.08 1492.12 2042.75 1500.87 2001.12 C 1523.82 1891.7 1633.38 1822.38 1745.18 1845.9 C 1857.01 1869.36 1929.37 1976.89 1906.38 2086.33 Z" style="fill: url(&quot;#color-0&quot;); stroke: rgb(0, 0, 0);"/>
</svg>