<?xml version="1.0" encoding="utf-8"?>
<svg xmlns="http://www.w3.org/2000/svg" width="3000" height="3000" viewBox="1043.464 239.335 3000 3000" xmlns:bx="https://boxy-svg.com">
  <defs>
    <linearGradient id="color-0" bx:pinned="true" gradientUnits="userSpaceOnUse" gradientTransform="matrix(1.981327, 0, 0, 1.981327, -2678.513085, -1752.560303)">
      <stop style="stop-color: rgb(0, 0, 0);"/>
    </linearGradient>
  </defs>
  <path fill-rule="nonzero" fill="rgb(0%, 0%, 0%)" fill-opacity="1" d="M 1875.64 2071.71 C 1852.13 2183.64 1740.08 2254.55 1625.68 2230.53 C 1511.25 2206.46 1437.23 2096.47 1460.74 1984.53 C 1484.25 1872.58 1596.33 1801.66 1710.73 1825.71 C 1825.13 1849.73 1899.17 1959.75 1875.64 2071.71 M 1861.81 2068.8 C 1883.65 1964.8 1814.88 1862.07 1707.81 1839.55 C 1600.7 1817.07 1496.42 1883.49 1474.57 1987.45 C 1452.76 2091.41 1521.48 2194.19 1628.57 2216.64 C 1735.65 2239.18 1839.97 2172.78 1861.81 2068.8 Z M 1861.81 2068.8" style=""/>
  <path fill-rule="nonzero" fill="rgb(0%, 0%, 0%)" fill-opacity="1" d="M 1811.28 2053.84 C 1794.45 2134.09 1715.7 2185.47 1635.47 2168.61 C 1555.24 2151.74 1503.82 2073.02 1520.69 1992.8 C 1537.59 1912.53 1616.3 1861.17 1696.52 1878 C 1776.78 1894.83 1828.17 1973.59 1811.28 2053.84 M 1797.45 2050.92 C 1812.69 1978.34 1766.22 1907.1 1693.63 1891.84 C 1621.01 1876.59 1549.77 1923.1 1534.53 1995.69 C 1519.28 2068.3 1565.79 2139.51 1638.39 2154.77 C 1710.98 2169.98 1782.2 2123.54 1797.45 2050.92 Z M 1797.45 2050.92" style=""/>
  <path fill-rule="nonzero" fill="rgb(0%, 0%, 0%)" fill-opacity="1" d="M 1782.31 2047.37 C 1768.75 2111.78 1705.62 2153.03 1641.17 2139.49 C 1576.77 2125.94 1535.52 2062.78 1549.06 1998.38 C 1562.56 1933.95 1625.75 1892.7 1690.16 1906.27 C 1754.57 1919.81 1795.85 1982.97 1782.31 2047.37 M 1768.46 2044.49 C 1780.37 1987.73 1744.05 1932.04 1687.24 1920.08 C 1630.47 1908.19 1574.81 1944.5 1562.87 2001.26 C 1550.96 2058.02 1587.32 2113.71 1644.08 2125.67 C 1700.85 2137.54 1756.56 2101.24 1768.46 2044.49 Z M 1768.46 2044.49" style=""/>
  <path fill-rule="nonzero" fill="rgb(0%, 0%, 0%)" fill-opacity="1" d="M 1565.87 2030.55 L 1559.56 2023.52 C 1574.69 2025.15 1591.62 2026.91 1605.44 2033.87 C 1619.64 2041 1630.6 2053.54 1634.49 2070.49 C 1638.21 2086.78 1635.12 2106.81 1632.47 2124.88 C 1631.89 2128.77 1628.29 2131.4 1624.45 2130.88 C 1620.56 2130.29 1617.9 2126.68 1618.47 2122.82 C 1621.27 2103.85 1623.7 2086.78 1620.68 2073.62 C 1617.85 2061.14 1609.87 2051.9 1599.1 2046.51 C 1587.99 2040.89 1573.89 2039.26 1558.05 2037.59 C 1554.45 2037.21 1551.72 2034.16 1551.72 2030.55 C 1551.72 2026.65 1554.89 2023.5 1558.83 2023.5 C 1562.74 2023.5 1565.87 2026.65 1565.87 2030.55 Z M 1565.87 2030.55" style=""/>
  <path fill-rule="nonzero" fill="rgb(0%, 0%, 0%)" fill-opacity="1" d="M 1649.02 2128.81 L 1635.6 2125.73 C 1643.23 2110.05 1651.52 2092.89 1663.42 2081.07 C 1674.14 2070.4 1687.92 2063.83 1702.56 2063.83 C 1704.48 2063.83 1706.42 2063.98 1708.37 2064.19 C 1724.5 2066.1 1740.46 2076.22 1754.53 2085.09 C 1757.85 2087.15 1758.87 2091.5 1756.76 2094.82 C 1754.69 2098.14 1750.35 2099.11 1747 2097.04 C 1732.07 2087.72 1719 2079.7 1706.68 2078.23 C 1705.33 2078.09 1703.93 2078.01 1702.56 2078.01 C 1692.22 2078.01 1681.89 2082.59 1673.41 2091.11 C 1663.5 2100.9 1656.24 2115.63 1648.3 2131.92 C 1646.89 2134.89 1643.57 2136.45 1640.38 2135.73 C 1637.15 2134.95 1634.89 2132.11 1634.89 2128.81 C 1634.89 2124.88 1638.03 2121.75 1641.98 2121.75 C 1645.88 2121.75 1649.02 2124.88 1649.02 2128.81 Z M 1649.02 2128.81" style=""/>
  <path fill-rule="nonzero" fill="rgb(0%, 0%, 0%)" fill-opacity="1" d="M 1766.1 2075.56 C 1766.1 2078.33 1764.44 2080.87 1761.86 2082.04 C 1759.25 2083.16 1756.28 2082.64 1754.22 2080.72 L 1754.22 2080.7 L 1754.18 2080.7 C 1743.33 2070.63 1731.18 2059.45 1724.19 2045.23 C 1717.09 2030.8 1715.37 2013.42 1720.61 1997.34 C 1725.73 1981.54 1737.5 1967.34 1748.01 1954.55 C 1750.47 1951.53 1754.96 1951.08 1757.99 1953.57 C 1760.99 1956.05 1761.42 1960.56 1758.93 1963.56 C 1747.93 1976.88 1738.18 1988.97 1734.06 2001.67 C 1730.03 2014.13 1731.34 2027.65 1736.91 2039.01 C 1742.52 2050.47 1752.5 2059.85 1763.8 2070.36 L 1763.86 2070.37 L 1751.95 2075.56 C 1751.95 2071.59 1755.11 2068.46 1759.01 2068.46 C 1762.94 2068.46 1766.1 2071.59 1766.1 2075.56 Z M 1766.1 2075.56" style=""/>
  <path fill-rule="nonzero" fill="rgb(0%, 0%, 0%)" fill-opacity="1" d="M 1749.58 1944.89 C 1749.58 1947 1748.61 1949.02 1746.97 1950.37 L 1746.93 1950.43 C 1735.04 1960.05 1721.47 1971.23 1705.16 1974.78 C 1701.27 1975.66 1697.3 1976.06 1693.34 1976.06 C 1680.5 1976.06 1667.24 1971.76 1657.77 1963.42 C 1645.52 1952.57 1640.7 1935.6 1636.46 1921.35 C 1635.31 1917.6 1637.46 1913.62 1641.17 1912.53 C 1644.95 1911.44 1648.88 1913.55 1650 1917.31 C 1654.57 1932.64 1658.54 1945.2 1667.16 1952.81 C 1673.64 1958.52 1683.37 1961.91 1693.34 1961.91 C 1696.33 1961.91 1699.33 1961.61 1702.16 1960.96 C 1714.58 1958.26 1725.46 1949.57 1738.04 1939.39 L 1738.04 1939.36 L 1735.42 1944.89 C 1735.42 1940.95 1738.59 1937.8 1742.48 1937.8 C 1746.42 1937.8 1749.58 1940.95 1749.58 1944.89 Z M 1749.58 1944.89" style=""/>
  <path fill-rule="nonzero" fill="rgb(0%, 0%, 0%)" fill-opacity="1" d="M 1565.16 2009.14 L 1558.36 2002.08 L 1558.48 2002.08 L 1558.6 2002.08 C 1563.76 2002.27 1568.74 2002.48 1573.6 2002.48 C 1584.67 2002.48 1594.12 2001.42 1601.68 1997.74 C 1612.57 1992.47 1620.68 1981.18 1622.4 1968.86 C 1624.16 1956.38 1619.5 1942.41 1613.88 1926.25 C 1612.57 1922.58 1614.58 1918.53 1618.24 1917.27 C 1621.95 1915.99 1625.96 1917.94 1627.24 1921.59 C 1632.54 1936.83 1638.74 1954.28 1636.46 1970.82 C 1634.06 1987.61 1623.14 2003.09 1607.84 2010.53 C 1597.26 2015.61 1585.18 2016.63 1573.6 2016.63 C 1568.41 2016.63 1563.13 2016.4 1558.01 2016.21 L 1557.93 2016.21 L 1557.81 2016.21 C 1553.99 2016.04 1551 2012.91 1551 2009.14 C 1551 2005.21 1554.18 2002.08 1558.09 2002.08 C 1561.97 2002.08 1565.16 2005.21 1565.16 2009.14 Z M 1565.16 2009.14" style=""/>
  <path fill-rule="nonzero" fill="rgb(0%, 0%, 0%)" fill-opacity="1" d="M 1699.53 2025.62 C 1697.14 2043.82 1680.45 2056.71 1662.25 2054.32 C 1644.04 2051.9 1631.21 2035.22 1633.56 2017.01 C 1635.97 1998.83 1652.66 1986 1670.87 1988.4 C 1689.07 1990.78 1701.9 2007.43 1699.53 2025.62 M 1685.48 2023.85 C 1686.86 2013.37 1679.47 2003.76 1669.03 2002.42 C 1658.57 2001.06 1648.98 2008.41 1647.6 2018.87 C 1646.23 2029.34 1653.63 2038.93 1664.09 2040.29 C 1674.52 2041.65 1684.11 2034.29 1685.48 2023.85 Z M 1685.48 2023.85" style=""/>
  <path fill-rule="nonzero" fill="rgb(0%, 0%, 0%)" fill-opacity="1" d="M 1881.64 2067.59 L 1874.47 2060.51 L 3109.02 2045.9 C 3112.93 2045.86 3116.11 2049.01 3116.16 2052.9 C 3116.2 2056.81 3113.08 2060.01 3109.2 2060.05 L 1874.64 2074.64 C 1872.76 2074.7 1870.97 2073.98 1869.6 2072.62 C 1868.25 2071.3 1867.5 2069.52 1867.5 2067.59 C 1867.5 2063.67 1870.67 2060.51 1874.6 2060.51 C 1878.48 2060.51 1881.64 2063.67 1881.64 2067.59 Z M 1881.64 2067.59" style=""/>
  <path fill-rule="nonzero" fill="rgb(0%, 0%, 0%)" fill-opacity="1" d="M 3541.73 2054.44 C 3521.42 2163.82 3414.08 2235.33 3302.27 2214.57 C 3190.47 2193.84 3115.96 2088.58 3136.28 1979.2 C 3156.55 1869.8 3263.92 1798.28 3375.71 1819.01 C 3487.49 1839.77 3562.03 1945.01 3541.73 2054.44 M 3528.18 2051.9 C 3547.06 1950.32 3477.86 1851.97 3373.17 1832.54 C 3268.56 1813.12 3168.65 1880.08 3149.81 1981.7 C 3130.93 2083.3 3200.15 2181.64 3304.81 2201.07 C 3409.45 2220.5 3509.34 2153.55 3528.18 2051.9 Z M 3528.18 2051.9" style=""/>
  <path fill-rule="nonzero" fill="rgb(0%, 0%, 0%)" fill-opacity="1" d="M 3478.75 2038.54 C 3464.19 2116.95 3388.81 2168.72 3310.39 2154.14 C 3232 2139.58 3180.22 2064.27 3194.75 1985.84 C 3209.31 1907.4 3284.7 1855.65 3363.09 1870.21 C 3441.5 1884.73 3493.3 1960.12 3478.75 2038.54 M 3465.2 2036.04 C 3478.37 1965.08 3431.54 1896.86 3360.59 1883.69 C 3289.65 1870.55 3221.47 1917.41 3208.31 1988.32 C 3195.14 2059.28 3241.96 2127.45 3312.92 2140.63 C 3383.87 2153.77 3452.05 2106.98 3465.2 2036.04 Z M 3465.2 2036.04" style=""/>
  <path fill-rule="nonzero" fill="rgb(0%, 0%, 0%)" fill-opacity="1" d="M 3450.41 2032.92 C 3438.72 2095.87 3378.21 2137.42 3315.29 2125.73 C 3252.35 2114.05 3210.8 2053.54 3222.43 1990.58 C 3234.14 1927.65 3294.63 1886.13 3357.59 1897.78 C 3420.52 1909.47 3462.07 1969.98 3450.41 2032.92 M 3436.86 2030.38 C 3447.18 1974.9 3410.53 1921.59 3355.06 1911.33 C 3299.58 1901.06 3246.26 1937.65 3235.97 1993.12 C 3225.7 2048.59 3262.32 2101.91 3317.79 2112.18 C 3373.26 2122.48 3426.61 2085.85 3436.86 2030.38 Z M 3436.86 2030.38" style=""/>
  <path fill-rule="nonzero" fill="rgb(0%, 0%, 0%)" fill-opacity="1" d="M 3239.56 2021.7 L 3233.28 2014.83 C 3248.05 2016.07 3264.5 2017.35 3278.11 2023.81 C 3292.1 2030.46 3303.02 2042.36 3307.18 2058.76 C 3311.19 2074.55 3308.65 2094.04 3306.49 2111.7 C 3306.01 2115.51 3302.58 2118.17 3298.8 2117.71 C 3295.02 2117.21 3292.34 2113.81 3292.81 2110.05 C 3295.1 2091.5 3297.08 2074.89 3293.86 2062.16 C 3290.78 2050.1 3282.82 2041.27 3272.21 2036.23 C 3261.3 2031.07 3247.53 2029.84 3232.13 2028.52 C 3228.57 2028.25 3225.79 2025.27 3225.79 2021.7 C 3225.79 2017.89 3228.86 2014.83 3232.67 2014.83 C 3236.46 2014.83 3239.56 2017.89 3239.56 2021.7 Z M 3239.56 2021.7" style=""/>
  <path fill-rule="nonzero" fill="rgb(0%, 0%, 0%)" fill-opacity="1" d="M 3322.66 2115.29 L 3322.66 2115.33 L 3309.53 2112.48 C 3316.58 2097.04 3324.26 2080.2 3335.56 2068.39 C 3346.03 2057.47 3359.67 2050.76 3374.36 2050.76 C 3375.84 2050.76 3377.36 2050.8 3378.88 2050.92 C 3394.64 2052.45 3410.38 2061.96 3424.26 2070.18 C 3427.54 2072.16 3428.59 2076.37 3426.67 2079.65 C 3424.72 2082.89 3420.48 2083.97 3417.23 2082.04 C 3402.5 2073.27 3389.6 2065.83 3377.58 2064.65 C 3376.51 2064.55 3375.41 2064.51 3374.36 2064.51 C 3364.02 2064.51 3353.81 2069.25 3345.51 2077.92 C 3336.15 2087.69 3329.37 2102.19 3322.04 2118.2 C 3320.72 2121.15 3317.48 2122.73 3314.31 2122.05 C 3311.17 2121.34 3308.9 2118.57 3308.9 2115.33 L 3308.9 2115.29 C 3308.9 2111.54 3311.99 2108.43 3315.8 2108.43 C 3319.59 2108.43 3322.66 2111.54 3322.66 2115.29 Z M 3322.66 2115.29" style=""/>
  <path fill-rule="nonzero" fill="rgb(0%, 0%, 0%)" fill-opacity="1" d="M 3435.3 2060.83 C 3435.3 2063.52 3433.69 2066 3431.24 2067.11 C 3428.77 2068.19 3425.9 2067.79 3423.85 2065.96 L 3423.89 2066.02 L 3423.85 2066 L 3423.82 2065.96 C 3413.03 2056.4 3400.97 2045.81 3393.85 2032.13 C 3386.64 2018.29 3384.54 2001.48 3389.23 1985.7 C 3393.89 1970.19 3404.99 1956.11 3414.95 1943.45 C 3417.27 1940.44 3421.61 1939.9 3424.57 1942.28 C 3427.58 1944.64 3428.12 1948.94 3425.76 1951.94 C 3415.37 1965.18 3406.17 1977.13 3402.45 1989.59 C 3398.81 2001.77 3400.39 2014.9 3406.04 2025.8 C 3411.78 2036.83 3421.72 2045.73 3432.94 2055.67 L 3432.9 2055.63 L 3421.53 2060.83 C 3421.53 2057.01 3424.61 2053.92 3428.42 2053.92 C 3432.22 2053.92 3435.3 2057.01 3435.3 2060.83 Z M 3435.3 2060.83" style=""/>
  <path fill-rule="nonzero" fill="rgb(0%, 0%, 0%)" fill-opacity="1" d="M 3416.22 1934.17 C 3416.22 1936.18 3415.33 1938.11 3413.79 1939.39 L 3413.88 1939.33 L 3413.76 1939.44 C 3402.41 1949.1 3389.48 1960.25 3373.74 1964.09 C 3369.55 1965.12 3365.2 1965.62 3360.9 1965.62 C 3348.86 1965.62 3336.48 1961.77 3327.4 1954.09 C 3315.25 1943.87 3310.12 1927.47 3305.65 1913.72 C 3304.51 1910.08 3306.49 1906.24 3310.09 1905.01 C 3313.7 1903.84 3317.61 1905.86 3318.77 1909.42 C 3323.56 1924.23 3327.7 1936.34 3336.26 1943.59 C 3342.47 1948.83 3351.55 1951.82 3360.9 1951.82 C 3364.17 1951.82 3367.42 1951.48 3370.48 1950.74 C 3382.46 1947.82 3392.91 1939.14 3404.89 1928.94 L 3404.77 1929.04 L 3404.81 1929.04 L 3402.45 1934.17 C 3402.45 1930.35 3405.53 1927.26 3409.34 1927.26 C 3413.15 1927.26 3416.22 1930.35 3416.22 1934.17 Z M 3416.22 1934.17" style=""/>
  <path fill-rule="nonzero" fill="rgb(0%, 0%, 0%)" fill-opacity="1" d="M 3238.38 2000.86 L 3231.63 1993.97 L 3231.87 1994.01 L 3232.13 1994.01 C 3235.26 1994.05 3238.34 1994.07 3241.39 1994.07 C 3254.21 1994.07 3265.15 1993.15 3273.59 1988.83 C 3284.11 1983.4 3291.76 1972.2 3293.11 1960.21 C 3294.54 1948 3289.68 1934.59 3283.86 1919 C 3282.5 1915.45 3284.33 1911.46 3287.88 1910.13 C 3291.46 1908.81 3295.42 1910.62 3296.74 1914.18 C 3302.23 1928.86 3308.65 1945.69 3306.79 1961.83 C 3304.9 1978.23 3294.63 1993.5 3279.9 2001.06 C 3268.2 2007.05 3254.29 2007.84 3241.39 2007.84 C 3238.21 2007.84 3235.03 2007.79 3231.91 2007.74 L 3231.67 2007.74 L 3231.36 2007.72 C 3227.62 2007.69 3224.6 2004.61 3224.6 2000.86 C 3224.6 1997.04 3227.7 1993.97 3231.49 1993.97 C 3235.3 1993.97 3238.38 1997.04 3238.38 2000.86 Z M 3238.38 2000.86" style=""/>
  <path fill-rule="nonzero" fill="rgb(0%, 0%, 0%)" fill-opacity="1" d="M 3369.41 2013.71 C 3367.49 2031.47 3351.55 2044.3 3333.82 2042.4 C 3316.04 2040.52 3303.21 2024.57 3305.09 2006.79 C 3306.99 1989.06 3322.93 1976.23 3340.68 1978.11 C 3358.45 1979.97 3371.28 1995.92 3369.41 2013.71 M 3355.72 2012.25 C 3356.8 2002.05 3349.39 1992.88 3339.23 1991.8 C 3329 1990.71 3319.86 1998.1 3318.77 2008.25 C 3317.68 2018.45 3325.08 2027.62 3335.26 2028.72 C 3345.47 2029.82 3354.63 2022.43 3355.72 2012.25 Z M 3355.72 2012.25" style=""/>
  <path fill-rule="nonzero" fill="rgb(0%, 0%, 0%)" fill-opacity="1" d="M 3117.91 2052.69 L 3103.82 2051.9 L 3103.89 2051.48 C 3109.43 2002.43 3115.1 1951.14 3143.64 1909.83 C 3172.23 1868.39 3223.1 1837.85 3274.31 1822.96 C 3299.06 1815.74 3324.11 1812.19 3348.56 1812.19 C 3374.91 1812.19 3400.59 1816.32 3424.57 1824.63 C 3470.69 1840.54 3510.29 1871.68 3533.8 1909.19 C 3557.23 1946.62 3564.24 1990 3571.08 2031.66 L 3564.53 2025.76 C 3652.04 2031.24 3739.13 2036.7 3788.46 2036.83 C 3788.88 2036.83 3789.26 2036.83 3789.69 2036.83 C 3838.57 2036.83 3847.04 2031.24 3851.67 2026.26 C 3857.21 2020.22 3859.24 2012.21 3861.64 2001.95 L 3868.86 2010.63 L 3868.71 2010.63 C 3851.59 2011.5 3834.25 2012.37 3819.05 2012.37 C 3804.51 2012.37 3791.2 2011.62 3781.58 2008.86 C 3759.28 2002.56 3757.53 1986.34 3757.03 1974.56 L 3757.03 1974.23 L 3757.03 1974.56 C 3756.53 1963.09 3756.94 1952.28 3757.34 1941.76 L 3757.34 1941.69 C 3757.49 1937.95 3760.57 1934.97 3764.3 1934.91 L 3866.76 1933.22 L 3859.83 1939.63 C 3861.82 1920.04 3863.41 1902.88 3860.45 1892.88 C 3857.96 1884.44 3852.03 1881.11 3842.98 1876.53 C 3842.32 1876.17 3841.67 1875.72 3841.11 1875.15 C 3797.87 1830.62 3755.4 1786.89 3676.72 1754.12 C 3597.48 1721.05 3481.37 1698.99 3387.61 1683.39 C 3294.08 1667.83 3223.75 1658.9 3153.31 1649.95 L 3157.62 1649.18 C 3131.15 1663.51 3102.47 1679.28 3074.56 1679.28 C 3071.21 1679.28 3067.84 1679.05 3064.46 1678.58 C 3041.14 1675.19 3019.28 1659.37 2989.94 1638.4 C 2979.69 1631.14 2968.47 1623.1 2955.67 1614.46 C 2905.29 1580.35 2831.08 1536.61 2760.09 1501.42 C 2735.64 1489.31 2711.52 1478.2 2689.6 1468.09 C 2671.47 1459.75 2654.79 1452.03 2640.71 1445.06 C 2622.78 1436.16 2608.13 1428 2600.27 1420.73 C 2591.49 1412.55 2589.1 1402.74 2596.86 1394.4 C 2605.55 1385.04 2627.27 1379.36 2645.01 1374.5 L 2644.84 1388.06 C 2601.96 1375.29 2559.32 1362.58 2470.88 1354.78 C 2408.72 1349.29 2323.9 1346.2 2228.33 1346.2 C 2187.57 1346.2 2144.87 1346.77 2101.18 1347.9 C 1954.96 1351.81 1797.35 1362.5 1699.29 1371.61 C 1601.43 1380.72 1563.13 1388.26 1524.75 1395.82 L 1530.26 1387.19 C 1533.95 1402.21 1537.23 1417.42 1521.31 1456.55 C 1505.77 1494.76 1471.4 1557.25 1442.14 1591.47 C 1412.05 1626.62 1386.91 1632.31 1361.72 1634.56 C 1350.99 1635.49 1340.25 1635.8 1329.48 1635.8 C 1315.75 1635.8 1301.95 1635.25 1288.31 1634.73 L 1289.53 1634.69 C 1279.62 1636.01 1269.67 1635.63 1264.71 1667.23 C 1259.35 1701.44 1260.96 1768.92 1262.64 1837.6 C 1262.72 1840.91 1260.52 1843.82 1257.37 1844.61 C 1241.48 1848.88 1228.81 1852.5 1221.37 1862.19 C 1213.77 1872.06 1210.56 1889.77 1211.59 1910.62 C 1212.6 1931.21 1217.57 1952.57 1227.16 1968.12 C 1236.62 1983.43 1251.05 1993.8 1267.37 2001.93 C 1283.41 2009.87 1300.79 2015.45 1333.5 2019.89 C 1366.45 2024.36 1414.51 2027.58 1462.95 2030.85 C 1466.87 2031.09 1469.79 2034.49 1469.55 2038.39 C 1469.28 2042.27 1465.9 2045.23 1462.02 2044.95 C 1413.76 2041.71 1365.15 2038.43 1331.6 2033.91 C 1297.83 2029.34 1278.88 2023.44 1261.07 2014.6 C 1243.51 2005.87 1226.52 1994.01 1215.14 1975.56 C 1203.85 1957.27 1198.52 1933.3 1197.43 1911.33 C 1196.39 1889.64 1199.38 1867.63 1210.14 1853.58 C 1221.07 1839.36 1239.03 1834.87 1253.74 1830.94 L 1248.47 1837.98 C 1246.79 1770.04 1245.12 1700.87 1250.73 1665.04 C 1256.77 1626.58 1272.21 1622.73 1287.66 1620.65 C 1288.08 1620.6 1288.49 1620.56 1288.86 1620.6 C 1302.54 1621.12 1316.07 1621.62 1329.48 1621.62 C 1339.97 1621.62 1350.3 1621.38 1360.48 1620.46 C 1382.88 1618.51 1404.2 1613.97 1431.38 1582.24 C 1459.36 1549.55 1493.06 1488.53 1508.18 1451.25 C 1522.96 1414.94 1519.53 1402.82 1516.53 1390.54 C 1516.07 1388.7 1516.38 1386.71 1517.43 1385.06 C 1518.43 1383.41 1520.12 1382.31 1522.02 1381.92 C 1560.77 1374.31 1599.53 1366.68 1697.97 1357.51 C 1796.28 1348.38 1954.24 1337.68 2100.79 1333.78 C 2144.64 1332.61 2187.45 1332.05 2228.33 1332.05 C 2324.13 1332.05 2409.38 1335.12 2472.11 1340.65 C 2561.84 1348.58 2605.51 1361.57 2648.89 1374.54 C 2651.94 1375.4 2653.97 1378.23 2653.97 1381.37 C 2653.93 1384.52 2651.8 1387.29 2648.75 1388.1 C 2628.58 1393.67 2612.4 1398.44 2607.24 1404.04 C 2606.69 1404.62 2604.58 1405.38 2609.92 1410.37 C 2615.98 1416.01 2628.73 1423.35 2646.99 1432.39 C 2660.84 1439.24 2677.35 1446.85 2695.52 1455.26 C 2717.43 1465.36 2741.71 1476.57 2766.37 1488.78 C 2837.88 1524.2 2912.72 1568.3 2963.61 1602.72 C 2976.56 1611.47 2987.93 1619.61 2998.16 1626.9 C 3028.65 1648.67 3047.36 1661.79 3066.49 1664.56 C 3069.14 1664.95 3071.85 1665.14 3074.56 1665.14 C 3098.15 1665.14 3123.37 1651.6 3150.86 1636.72 C 3152.14 1636.01 3153.66 1635.74 3155.1 1635.9 C 3225.55 1644.87 3296.11 1653.84 3389.9 1669.42 C 3483.48 1684.98 3601.16 1707.28 3682.14 1741.06 C 3763.71 1775.06 3807.85 1820.62 3851.29 1865.32 L 3849.4 1863.92 C 3858.01 1868.32 3869.61 1873.96 3874.02 1888.89 C 3877.95 1902.24 3875.76 1922.84 3873.9 1940.99 C 3873.54 1944.57 3870.59 1947.34 3867 1947.38 L 3764.56 1949.06 L 3771.48 1942.32 C 3771.1 1952.9 3770.71 1963.13 3771.18 1973.93 L 3771.18 1974.23 L 3771.18 1973.93 C 3771.64 1984.43 3772.61 1991.58 3785.45 1995.26 C 3793.01 1997.43 3804.62 1998.27 3819.05 1998.27 C 3833.82 1998.27 3850.75 1997.39 3867.93 1996.51 L 3868.16 1996.51 C 3870.39 1996.37 3872.54 1997.28 3873.94 1999.02 C 3875.38 2000.69 3875.93 2002.98 3875.42 2005.15 C 3873.21 2014.73 3870.59 2026.61 3862.05 2035.85 C 3852.7 2045.95 3837.86 2050.96 3789.69 2050.96 C 3789.26 2050.96 3788.88 2050.96 3788.46 2050.96 C 3738.57 2050.86 3650.92 2045.35 3563.66 2039.88 C 3560.34 2039.67 3557.65 2037.21 3557.12 2033.98 C 3550.18 1991.8 3543.47 1951.33 3521.8 1916.67 C 3500.13 1882.11 3463.23 1852.95 3419.97 1837.98 C 3397.55 1830.28 3373.43 1826.32 3348.56 1826.32 C 3325.46 1826.32 3301.75 1829.69 3278.25 1836.52 C 3229.13 1850.78 3181.49 1879.91 3155.26 1917.88 C 3129.16 1955.74 3123.55 2003.25 3117.91 2053.09 L 3117.88 2053.5 C 3117.46 2057.25 3114.21 2059.94 3110.43 2059.79 C 3106.7 2059.55 3103.78 2056.44 3103.78 2052.69 C 3103.78 2048.8 3106.95 2045.63 3110.86 2045.63 C 3114.77 2045.63 3117.91 2048.8 3117.91 2052.69 Z M 3117.91 2052.69" style=""/>
  <path fill-rule="nonzero" fill="rgb(0%, 0%, 0%)" fill-opacity="1" d="M 3159.7 1642.7 C 3159.7 1644.83 3158.73 1646.86 3157.07 1648.2 C 3155.38 1649.51 3153.18 1650 3151.08 1649.55 L 3151.12 1649.59 L 3151.08 1649.55 L 3150.9 1649.51 C 3125.91 1643.98 3100.48 1638.28 3057.89 1615.74 C 3029.23 1600.6 2992.78 1577.82 2954.74 1554.04 C 2936.54 1542.62 2917.77 1530.9 2899.33 1519.68 C 2842.31 1485.02 2787.29 1454.34 2744.96 1433.03 C 2702.7 1411.71 2673.08 1399.66 2643.28 1387.54 C 2639.67 1386.05 2637.9 1381.95 2639.39 1378.31 C 2640.86 1374.73 2645.01 1372.97 2648.63 1374.42 C 2678.5 1386.57 2708.51 1398.81 2751.3 1420.38 C 2794.03 1441.92 2849.4 1472.75 2906.7 1507.6 C 2925.22 1518.87 2944.01 1530.66 2962.22 1542.01 C 3000.47 1565.93 3036.41 1588.41 3064.5 1603.23 C 3105.51 1624.95 3129.58 1630.29 3153.95 1635.74 L 3153.98 1635.74 L 3154.17 1635.76 L 3154.13 1635.76 L 3145.55 1642.7 C 3145.55 1638.79 3148.72 1635.59 3152.65 1635.59 C 3156.55 1635.59 3159.7 1638.79 3159.7 1642.7 Z M 3159.7 1642.7" style=""/>
  <path fill-rule="nonzero" fill="rgb(0%, 0%, 0%)" fill-opacity="1" d="M 2980.84 1698.58 L 2975.82 1698.39 C 2680.48 1688.37 2385.53 1678.33 2157.12 1669.18 C 1927.7 1659.99 1764.83 1651.57 1683.58 1637.69 C 1602.4 1623.78 1598.12 1603.06 1596.37 1569.3 C 1596.33 1568.46 1596.29 1567.99 1596.25 1567.18 C 1596.03 1563.06 1595.74 1558.72 1595.47 1554.22 C 1595.18 1549.47 1594.84 1544.51 1594.58 1539.47 L 1594.58 1539.46 C 1593.24 1514.25 1592.59 1485.44 1599.44 1465.33 C 1609.54 1435.64 1635.04 1426.11 1665.79 1420.68 C 1695.06 1415.44 1732.11 1413.44 1824.08 1408.39 L 1824.03 1408.39 L 1840.13 1407.53 L 1853.47 1406.77 L 1868.13 1405.99 C 1972.8 1400.23 2124.48 1392.05 2240.46 1389.9 L 2240.5 1389.9 L 2240.46 1389.9 C 2260.79 1389.52 2279.98 1389.33 2298.19 1389.33 C 2393.8 1389.33 2462.55 1394.74 2519.32 1407.78 C 2584.27 1422.71 2633.11 1447.47 2689.91 1476.26 L 2697.08 1479.92 C 2706.33 1484.63 2715.68 1489.31 2725.32 1494.18 C 2735.24 1499.22 2745.04 1504.1 2755.1 1509.19 C 2798.69 1531.27 2842.41 1553.81 2874.96 1572.76 C 2922.29 1600.26 2946.5 1620.49 2961.63 1638.89 C 2976.83 1657.49 2982.45 1673.77 2987.81 1689.15 C 2988.52 1691.39 2988.17 1693.81 2986.79 1695.67 C 2985.41 1697.56 2983.2 1698.65 2980.84 1698.58 M 2981.35 1684.4 L 2974.42 1693.81 C 2969.15 1678.64 2964.21 1664.38 2950.68 1647.9 C 2937.12 1631.33 2914.5 1612.08 2867.87 1584.97 C 2835.67 1566.27 2792.31 1543.93 2748.73 1521.8 C 2738.79 1516.79 2728.73 1511.71 2718.96 1506.8 C 2709.17 1501.84 2700.07 1497.3 2690.65 1492.52 L 2683.48 1488.9 C 2626.59 1460.03 2579.21 1436.06 2516.16 1421.55 C 2460.92 1408.87 2393.39 1403.48 2298.19 1403.48 C 2280.07 1403.48 2260.98 1403.64 2240.74 1404.05 L 2240.7 1404.05 C 2125.03 1406.21 1973.62 1414.35 1868.9 1420.12 L 1854.25 1420.9 L 1840.88 1421.65 L 1824.84 1422.52 C 1732.38 1427.59 1696.48 1429.58 1668.29 1434.59 C 1638.26 1439.93 1620.22 1448.17 1612.82 1469.92 C 1607 1487.01 1607.33 1513 1608.74 1538.71 C 1608.99 1543.71 1609.28 1548.57 1609.58 1553.4 C 1609.88 1557.86 1610.12 1562.21 1610.36 1566.38 C 1610.39 1567.09 1610.43 1567.85 1610.47 1568.54 C 1611.86 1594.09 1609.54 1610.65 1685.98 1623.7 C 1766.1 1637.43 1927.81 1645.79 2157.72 1655.02 C 2386.04 1664.2 2680.94 1674.21 2976.29 1684.25 L 2981.35 1684.4 Z M 2981.35 1684.4" style=""/>
  <path fill-rule="nonzero" fill="rgb(0%, 0%, 0%)" fill-opacity="1" d="M 2192.39 1399.8 C 2192.39 1401.13 2192.02 1402.48 2191.3 1403.61 C 2185.13 1413.35 2178.32 1422.83 2185.54 1461.52 C 2192.99 1501.38 2215.05 1570.49 2229.9 1608.9 C 2244.55 1646.86 2251.73 1653.56 2258.56 1660.39 C 2261.32 1663.12 2261.32 1667.63 2258.56 1670.37 C 2255.79 1673.16 2251.3 1673.16 2248.57 1670.37 C 2240.03 1661.87 2231.88 1653.29 2216.69 1614.01 C 2201.67 1575.21 2179.3 1505.13 2171.67 1464.11 C 2163.79 1421.99 2171.23 1408.87 2179.35 1396.03 L 2178.24 1399.8 C 2178.24 1395.93 2181.4 1392.74 2185.3 1392.74 C 2189.24 1392.74 2192.39 1395.93 2192.39 1399.8 Z M 2192.39 1399.8" style=""/>
  <path fill-rule="nonzero" fill="rgb(0%, 0%, 0%)" fill-opacity="1" d="M 2120.72 1439.14 L 2119.21 1439.23 C 2009.15 1445.02 1898.97 1450.79 1815.81 1452.88 C 1803.55 1453.24 1791.83 1453.44 1780.8 1453.68 C 1770.82 1453.86 1761.37 1454.06 1752.38 1454.3 C 1702.56 1455.54 1670.45 1458.15 1653.67 1468.52 C 1632.43 1481.71 1634.85 1509.39 1637.96 1536.98 L 1637.96 1537 L 1638.07 1537.82 L 1638.17 1538.52 L 1638.25 1539.25 C 1641.04 1563.97 1642.82 1578.37 1672.34 1589.14 C 1705.21 1601.15 1770.35 1607.48 1858.07 1612.59 C 1945.32 1617.65 2053.53 1621.51 2161.88 1625.38 L 2155.23 1635.49 C 2140.71 1604.85 2125.74 1573.37 2118.65 1538.97 C 2111.59 1504.67 2112.44 1467.83 2113.26 1431.94 L 2120.72 1439.14 M 2119.96 1425.02 C 2121.94 1424.92 2123.85 1425.65 2125.26 1427.01 C 2126.68 1428.4 2127.43 1430.31 2127.4 1432.27 C 2126.58 1468.51 2125.8 1503.65 2132.51 1536.16 C 2139.18 1568.54 2153.38 1598.54 2168.02 1629.43 C 2169.08 1631.65 2168.88 1634.25 2167.52 1636.32 C 2166.17 1638.36 2163.86 1639.61 2161.4 1639.51 C 2053.06 1635.66 1944.66 1631.81 1857.24 1626.7 C 1770.27 1621.62 1702.75 1615.33 1667.48 1602.42 C 1630.05 1588.74 1627.16 1566.94 1624.2 1540.83 L 1624.08 1540.12 L 1624.01 1539.41 L 1623.94 1538.56 C 1621.12 1514.05 1615.96 1475.24 1646.23 1456.47 C 1667.01 1443.65 1703.77 1441.36 1751.99 1440.13 C 1761.03 1439.91 1770.57 1439.71 1780.54 1439.52 C 1791.56 1439.28 1803.26 1439.08 1815.43 1438.74 C 1898.38 1436.65 2008.3 1430.92 2118.49 1425.09 L 2119.96 1425.02 Z M 2119.96 1425.02" style=""/>
  <path fill-rule="nonzero" fill="rgb(0%, 0%, 0%)" fill-opacity="1" d="M 1903.99 1923.52 C 1901.18 1920.04 1895.92 1913.99 1895.61 1906.77 C 1895.28 1899.7 1899.76 1892.8 1902.21 1888.7 L 1902.24 1888.63 C 1903.52 1886.56 1905.79 1885.24 1908.25 1885.24 L 3088.69 1877.64 C 3089.84 1877.64 3091.03 1877.95 3092.07 1878.49 L 3092.19 1878.58 C 3096.75 1881.03 3104.54 1884.95 3107.74 1890.42 C 3108.64 1891.88 3109.35 1893.7 3109.49 1895.73 C 3109.6 1897.55 3109.31 1899.19 3108.84 1900.63 C 3106.77 1906.83 3099.48 1912.62 3095.19 1916.2 C 3093.94 1917.3 3092.34 1917.88 3090.72 1917.88 L 1909.57 1926.13 C 1907.41 1926.16 1905.34 1925.18 1903.99 1923.52 M 1914.98 1914.61 L 1909.45 1911.96 L 3090.61 1903.74 L 3086.12 1905.37 C 3092.03 1900.36 3094.95 1897.61 3095.42 1896.14 C 3095.42 1896.14 3095.33 1896.36 3095.37 1896.81 C 3095.42 1897.27 3095.57 1897.59 3095.57 1897.59 C 3094.87 1896.36 3091.84 1894.43 3085.53 1891.02 L 3085.53 1891.05 L 3085.36 1890.98 L 3088.75 1891.8 L 1908.32 1899.4 L 1914.29 1896.05 L 1914.32 1896 C 1911.04 1901.46 1909.64 1904.26 1909.72 1906.12 C 1909.82 1907.78 1911.2 1909.9 1914.98 1914.61 Z M 1914.98 1914.61" style=""/>
  <path fill-rule="nonzero" fill="rgb(0%, 0%, 0%)" fill-opacity="1" d="M 2223.14 2061.81 C 2223.14 2065.12 2220.85 2068 2217.61 2068.71 C 2214.38 2069.47 2211.09 2067.83 2209.67 2064.86 L 2209.63 2064.75 L 2209.63 2064.71 L 2209.67 2064.84 L 2209.4 2064.27 C 2197.47 2038.99 2185.26 2013.11 2177.77 1988.99 C 2170.21 1964.6 2167.56 1942.18 2164.95 1920.4 C 2164.49 1916.51 2167.22 1912.97 2171.1 1912.52 C 2175 1912.03 2178.51 1914.83 2178.99 1918.68 C 2181.59 1940.59 2184.17 1961.81 2191.3 1984.84 C 2198.44 2007.79 2210.13 2032.68 2222.21 2058.22 L 2222.46 2058.76 L 2222.5 2058.91 L 2209 2061.81 C 2209 2057.9 2212.17 2054.77 2216.05 2054.77 C 2219.96 2054.77 2223.14 2057.9 2223.14 2061.81 Z M 2223.14 2061.81" style=""/>
  <path fill-rule="nonzero" fill="rgb(0%, 0%, 0%)" fill-opacity="1" d="M 2177.74 1887.13 C 2177.74 1890.74 2174.96 1893.79 2171.4 1894.17 C 2167.75 1894.56 2164.49 1892.14 2163.71 1888.59 L 2163.75 1888.63 L 2163.71 1888.54 C 2157.73 1859.6 2151.51 1829.69 2152.78 1797.47 C 2153.68 1774.57 2158.35 1750.67 2162.18 1731.08 C 2163.75 1723.11 2165.15 1715.89 2166.17 1709.65 C 2169.59 1688.14 2168.35 1677.46 2167.07 1666.47 C 2166.6 1662.56 2169.39 1659.05 2173.25 1658.6 C 2177.14 1658.15 2180.65 1660.94 2181.13 1664.8 C 2182.46 1676.56 2183.85 1688.6 2180.11 1711.88 C 2179.06 1718.43 2177.62 1725.91 2176.05 1733.81 C 2172.21 1753.57 2167.75 1776.4 2166.93 1798 C 2165.74 1828.24 2171.53 1856.53 2177.58 1885.66 L 2177.58 1885.61 L 2177.58 1885.65 L 2163.59 1887.13 C 2163.59 1883.21 2166.75 1880.03 2170.63 1880.03 C 2174.58 1880.03 2177.74 1883.21 2177.74 1887.13 Z M 2177.74 1887.13" style=""/>
  <path fill-rule="nonzero" fill="rgb(0%, 0%, 0%)" fill-opacity="1" d="M 3021.58 2053.35 L 3007.74 2051.26 C 3015.71 2025.04 3023.45 1999.41 3027.2 1976.87 C 3030.93 1954.51 3030.75 1935.04 3030.55 1914.99 C 3030.51 1911.05 3033.62 1907.85 3037.52 1907.81 C 3041.43 1907.78 3044.65 1910.93 3044.69 1914.84 C 3044.91 1934.81 3045.14 1955.45 3041.14 1979.2 C 3037.22 2002.78 3029.14 2029.38 3021.3 2055.36 L 3021.3 2055.38 L 3021.28 2055.38 C 3020.3 2058.74 3016.95 2060.86 3013.49 2060.35 C 3010.02 2059.83 3007.44 2056.84 3007.44 2053.35 C 3007.44 2049.41 3010.6 2046.25 3014.54 2046.25 C 3018.43 2046.25 3021.58 2049.41 3021.58 2053.35 Z M 3021.58 2053.35" style=""/>
  <path fill-rule="nonzero" fill="rgb(0%, 0%, 0%)" fill-opacity="1" d="M 3042.37 1882.47 L 3028.23 1882.04 C 3030.13 1851.55 3031.99 1821.73 3027.72 1788.25 C 3023.41 1754.67 3012.94 1717.2 3002.21 1679.08 C 3001.19 1675.29 3003.37 1671.37 3007.15 1670.33 C 3010.91 1669.26 3014.8 1671.5 3015.86 1675.28 C 3026.44 1713.12 3037.26 1751.65 3041.73 1786.47 C 3046.22 1821.42 3044.23 1852.5 3042.37 1882.91 C 3042.13 1886.72 3038.9 1889.67 3035.08 1889.57 C 3031.26 1889.44 3028.23 1886.3 3028.23 1882.47 C 3028.23 1878.56 3031.38 1875.41 3035.27 1875.41 C 3039.2 1875.41 3042.37 1878.56 3042.37 1882.47 Z M 3042.37 1882.47" style=""/>
  <path fill-rule="nonzero" fill="rgb(0%, 0%, 0%)" fill-opacity="1" d="M 2978.9 1684.93 L 2978.95 1684.93 L 2978.95 1684.9 C 2986.46 1680.41 2993.84 1676.05 3001.34 1671.12 C 3008.92 1666.17 3016.63 1660.69 3024.51 1655.12 C 3027.72 1652.88 3032.12 1653.65 3034.37 1656.87 C 3036.64 1660.03 3035.86 1664.47 3032.69 1666.67 C 3024.86 1672.22 3016.91 1677.86 3009.13 1682.95 C 3001.28 1688.03 2993.67 1692.59 2986.21 1697.06 C 2982.83 1699.09 2978.48 1698 2976.49 1694.6 C 2974.46 1691.28 2975.55 1686.93 2978.9 1684.93 Z M 2978.9 1684.93" style=""/>
  <path fill-rule="nonzero" fill="rgb(0%, 0%, 0%)" fill-opacity="1" d="M 3810.79 1877.82 C 3761.86 1879.91 3712.65 1882 3674.57 1882 C 3658.97 1882 3645.07 1881.62 3633.8 1880.79 C 3595.04 1877.8 3584.21 1868.48 3579.77 1854.29 C 3575.94 1842.01 3577.04 1827.22 3595.4 1816.74 C 3611.61 1807.54 3641.98 1801.54 3666.15 1798.94 C 3675.15 1798 3683.54 1797.47 3691.49 1797.47 C 3705.3 1797.47 3717.68 1799.04 3729.26 1802.82 C 3747.4 1808.63 3762.73 1819.47 3776.43 1830.63 C 3790.15 1841.82 3802.86 1853.78 3815.35 1865.59 C 3817.41 1867.55 3818.11 1870.55 3817.13 1873.22 C 3816.12 1875.88 3813.63 1877.68 3810.79 1877.82 M 3810.19 1863.71 L 3805.63 1875.88 C 3793.09 1864.06 3780.77 1852.42 3767.47 1841.58 C 3754.17 1830.77 3740.49 1821.29 3724.9 1816.23 C 3715.09 1813.12 3704.19 1811.62 3691.49 1811.62 C 3684.2 1811.62 3676.28 1812.1 3667.67 1813.04 C 3643.59 1815.61 3615.81 1821.39 3602.38 1829.05 C 3591.1 1835.48 3590.93 1842.59 3593.25 1850.07 C 3595 1855.61 3597.71 1863.82 3634.84 1866.68 C 3645.65 1867.45 3659.1 1867.86 3674.57 1867.86 C 3712.27 1867.86 3761.12 1865.79 3810.19 1863.71 Z M 3810.19 1863.71" style=""/>
  <path fill-rule="nonzero" fill="rgb(0%, 0%, 0%)" fill-opacity="1" d="M 3490.32 1861.32 L 3483.08 1854.25 L 3587.87 1851.8 C 3591.76 1851.71 3595 1854.8 3595.12 1858.74 C 3595.21 1862.63 3592.11 1865.85 3588.19 1865.95 L 3483.41 1868.39 C 3481.52 1868.44 3479.64 1867.71 3478.29 1866.36 C 3476.95 1865.07 3476.18 1863.26 3476.18 1861.32 C 3476.18 1857.4 3479.35 1854.25 3483.24 1854.25 C 3487.16 1854.25 3490.32 1857.4 3490.32 1861.32 Z M 3490.32 1861.32" style=""/>
  <path fill-rule="nonzero" fill="rgb(0%, 0%, 0%)" fill-opacity="1" d="M 3818.38 1870.86 L 3811.01 1863.76 L 3841.74 1862.4 C 3845.64 1862.23 3848.93 1865.27 3849.11 1869.18 C 3849.3 1873.04 3846.26 1876.4 3842.35 1876.53 L 3811.65 1877.9 C 3809.7 1877.98 3807.82 1877.3 3806.41 1875.95 C 3805.02 1874.6 3804.24 1872.77 3804.24 1870.86 C 3804.24 1866.92 3807.43 1863.76 3811.31 1863.76 C 3815.23 1863.76 3818.38 1866.92 3818.38 1870.86 Z M 3818.38 1870.86" style=""/>
  <path fill-rule="nonzero" fill="rgb(0%, 0%, 0%)" fill-opacity="1" d="M 3871.4 1942.36 L 3871.21 1940.53 L 3871.14 1940.33 C 3872.92 1946.37 3874.92 1952.91 3875.81 1961.88 C 3876.64 1970.64 3876.42 1981.49 3875.71 1988.59 C 3874.96 1996.1 3873.58 1999.69 3872.3 2003.09 C 3870.89 2006.72 3866.8 2008.56 3863.17 2007.14 C 3859.51 2005.72 3857.68 2001.64 3859.07 1998 C 3860.09 1995.38 3861.04 1993.03 3861.6 1987.16 C 3862.25 1980.88 3862.48 1970.93 3861.72 1963.25 C 3861 1955.82 3859.36 1950.37 3857.6 1944.37 L 3857.53 1944.19 L 3857.53 1944.17 C 3857.38 1943.73 3857.3 1943.03 3857.3 1942.36 C 3857.3 1938.42 3860.45 1935.25 3864.34 1935.25 C 3868.24 1935.25 3871.4 1938.42 3871.4 1942.36 Z M 3871.4 1942.36" style=""/>
  <path fill-rule="nonzero" fill="rgb(0%, 0%, 0%)" fill-opacity="1" d="M 3832.89 1942.14 L 3832.68 1940.34 C 3835.25 1950.3 3838.04 1961.02 3838.79 1971.74 C 3839.55 1982.45 3838.26 1993.03 3837.11 2002.74 C 3836.63 2006.63 3833.08 2009.41 3829.22 2008.95 C 3825.33 2008.51 3822.59 2004.96 3823.05 2001.06 C 3824.24 1991.09 3825.33 1981.89 3824.69 1972.73 C 3824.06 1963.53 3821.62 1954.07 3818.98 1943.87 C 3818.82 1943.32 3818.74 1942.71 3818.74 1942.14 C 3818.74 1938.21 3821.9 1935.06 3825.82 1935.06 C 3829.72 1935.06 3832.89 1938.21 3832.89 1942.14 Z M 3832.89 1942.14" style=""/>
  <path fill-rule="nonzero" fill="rgb(0%, 0%, 0%)" fill-opacity="1" d="M 3836.71 1972.2 C 3836.71 1976.13 3833.55 1979.26 3829.64 1979.26 L 3767.86 1979.37 C 3763.92 1979.37 3760.76 1976.23 3760.76 1972.31 C 3760.76 1968.39 3763.92 1965.24 3767.82 1965.24 L 3829.63 1965.12 L 3822.54 1972.2 C 3822.54 1968.28 3825.71 1965.12 3829.64 1965.12 C 3833.51 1965.12 3836.71 1968.28 3836.71 1972.2 Z M 3836.71 1972.2" style=""/>
  <path fill-rule="nonzero" fill="rgb(0%, 0%, 0%)" fill-opacity="1" d="M 1530.6 1389.37 C 1530.6 1391.39 1529.76 1393.29 1528.28 1394.61 C 1526.77 1395.99 1524.79 1396.6 1522.76 1396.41 C 1477.82 1391.52 1433.55 1386.77 1406.35 1386.77 C 1398.84 1386.77 1392.98 1387.11 1388.92 1387.85 C 1385.04 1388.55 1383.71 1389.45 1383.55 1389.58 C 1383.85 1389.33 1384.22 1388.45 1384.1 1387.8 C 1384.1 1387.76 1384.1 1387.76 1384.1 1387.76 C 1384.77 1390.42 1392.6 1397.53 1409.19 1406.54 C 1434.48 1420.2 1471.54 1433.93 1509.32 1447.92 C 1512.99 1449.28 1514.85 1453.34 1513.5 1456.99 C 1512.16 1460.7 1508.05 1462.54 1504.41 1461.19 C 1466.97 1447.31 1428.81 1433.21 1402.47 1418.93 C 1387.78 1410.99 1372.96 1401.13 1370.42 1391.33 C 1370.34 1390.98 1370.26 1390.63 1370.17 1390.31 C 1369.41 1386.05 1370.8 1382.05 1374.04 1379.12 C 1377.21 1376.25 1381.68 1374.79 1386.42 1373.91 C 1391.7 1372.97 1398.55 1372.62 1406.35 1372.62 C 1434.52 1372.62 1479.72 1377.5 1524.31 1382.34 L 1516.45 1389.37 C 1516.45 1385.45 1519.61 1382.31 1523.55 1382.31 C 1527.45 1382.31 1530.6 1385.45 1530.6 1389.37 Z M 1530.6 1389.37" style=""/>
  <path fill-rule="nonzero" fill="rgb(0%, 0%, 0%)" fill-opacity="1" d="M 1456.87 1435.46 C 1456.87 1437.62 1455.87 1439.69 1454.12 1441.06 C 1411.55 1473.91 1369.28 1506.45 1341.7 1531.14 C 1314.24 1555.69 1301.76 1572.04 1293.88 1587.41 C 1285.95 1602.87 1282.44 1617.78 1278.73 1633.54 C 1277.84 1637.34 1274.05 1639.72 1270.24 1638.8 C 1266.44 1637.93 1264.07 1634.14 1264.97 1630.29 C 1268.59 1614.68 1272.45 1598.15 1281.31 1580.92 C 1290.25 1563.53 1304.07 1545.86 1332.25 1520.6 C 1360.32 1495.5 1403.1 1462.53 1445.5 1429.86 L 1442.71 1435.46 C 1442.71 1431.52 1445.9 1428.38 1449.82 1428.38 C 1453.74 1428.38 1456.87 1431.52 1456.87 1435.46 Z M 1456.87 1435.46" style=""/>
  <path fill-rule="nonzero" fill="rgb(0%, 0%, 0%)" fill-opacity="1" d="M 1275.99 1692.43 C 1317.66 1692.51 1360.7 1692.52 1388.63 1699.02 C 1417.58 1705.68 1431.61 1719.48 1438.21 1737.61 C 1444.29 1754.35 1444.14 1775.57 1435.91 1788.21 C 1426.93 1802.02 1409.73 1803.1 1384.72 1803.84 C 1367.72 1804.29 1345.11 1804.42 1320.54 1804.42 C 1306.68 1804.42 1292.33 1804.4 1277.88 1804.36 C 1274.01 1804.33 1270.88 1801.26 1270.83 1797.41 L 1268.9 1699.61 C 1268.85 1697.75 1269.56 1695.91 1270.92 1694.54 C 1272.25 1693.18 1274.09 1692.43 1275.99 1692.43 M 1275.95 1706.58 L 1283.04 1699.37 L 1284.92 1797.12 L 1277.88 1790.2 C 1292.37 1790.24 1306.68 1790.27 1320.54 1790.27 C 1345.11 1790.27 1367.58 1790.15 1384.34 1789.67 C 1412.01 1788.87 1419.93 1786.85 1424.05 1780.48 C 1429 1772.88 1430.09 1756.73 1424.9 1742.45 C 1420.21 1729.53 1410.45 1718.55 1385.46 1712.78 C 1359.47 1706.77 1318.38 1706.65 1275.95 1706.58 Z M 1275.95 1706.58" style=""/>
  <path fill-rule="nonzero" fill="rgb(0%, 0%, 0%)" fill-opacity="1" d="M 1394.31 1710.27 C 1394.31 1710.36 1394.31 1710.51 1394.31 1710.61 L 1392.68 1747.74 C 1392.52 1751.52 1389.41 1754.48 1385.62 1754.48 L 1284.22 1754.48 C 1280.29 1754.48 1277.12 1751.35 1277.12 1747.44 C 1277.12 1743.56 1280.29 1740.37 1284.22 1740.37 L 1385.62 1740.34 L 1378.57 1747.13 L 1380.16 1709.99 L 1380.16 1710.27 C 1380.16 1706.35 1383.32 1703.21 1387.22 1703.21 C 1391.15 1703.21 1394.31 1706.35 1394.31 1710.27 Z M 1394.31 1710.27" style=""/>
  <path fill-rule="nonzero" fill="rgb(0%, 0%, 0%)" fill-opacity="1" d="M 1390.44 1799.29 L 1387.95 1793.92 C 1393.53 1798.71 1400.58 1804.56 1404.53 1811.97 C 1408.56 1819.47 1409.05 1827.98 1409.56 1834.61 L 1402.51 1828.04 C 1446.01 1828.16 1490.27 1828.22 1516.96 1831.56 C 1544.62 1835.04 1554.38 1842.09 1563.76 1849.12 C 1566.93 1851.49 1567.54 1855.91 1565.19 1859.05 C 1562.87 1862.17 1558.45 1862.81 1555.31 1860.46 C 1547.42 1854.58 1539.94 1848.68 1515.23 1845.58 C 1489.6 1842.4 1446.44 1842.28 1402.51 1842.17 C 1398.8 1842.17 1395.71 1839.33 1395.45 1835.64 C 1394.91 1828.41 1394.39 1823.06 1392.04 1818.62 C 1389.59 1814.05 1384.91 1809.94 1378.76 1804.67 C 1377.21 1803.36 1376.3 1801.38 1376.3 1799.29 C 1376.3 1795.39 1379.47 1792.24 1383.35 1792.24 C 1387.26 1792.24 1390.44 1795.39 1390.44 1799.29 Z M 1390.44 1799.29" style=""/>
  <path fill-rule="nonzero" fill="rgb(0%, 0%, 0%)" fill-opacity="1" d="M 2313.25 1758.67 L 2313.01 1758.67 C 2301.93 1759.09 2290.67 1759.52 2280.45 1759.52 C 2269.43 1759.52 2259.09 1759.01 2251.26 1757.24 C 2234.5 1753.33 2229.3 1743.5 2227.66 1732.85 C 2225.84 1721.24 2228.63 1707.78 2252.58 1702.6 C 2262.02 1700.53 2274.92 1699.61 2288.34 1699.61 C 2305.7 1699.61 2324.67 1701.12 2339.32 1703.91 C 2363.81 1708.56 2380.54 1717.69 2382.51 1729.9 C 2382.51 1730.09 2382.55 1730.32 2382.59 1730.54 C 2382.83 1732.56 2382.59 1734.52 2382.02 1736.42 C 2378.93 1745.8 2366.65 1750.4 2357.19 1752.87 C 2344.36 1756.21 2328.51 1757.43 2313.55 1758.64 C 2313.48 1758.67 2313.35 1758.67 2313.25 1758.67 M 2312.7 1744.54 L 2312.43 1744.56 C 2327.74 1743.3 2342.24 1742.13 2353.63 1739.15 C 2364.44 1736.39 2368.22 1733.04 2368.56 1732.04 C 2368.56 1732.04 2368.53 1732.09 2368.56 1732.12 C 2368.3 1730.67 2362.46 1722.68 2336.71 1717.79 C 2323.1 1715.23 2305.07 1713.79 2288.34 1713.79 C 2275.34 1713.79 2263.59 1714.65 2255.62 1716.41 C 2239.81 1719.82 2240.84 1725.56 2241.63 1730.67 C 2242.61 1736.71 2244.37 1741.12 2254.43 1743.46 C 2260.6 1744.87 2269.54 1745.36 2280.45 1745.36 C 2290.32 1745.36 2301.32 1744.98 2312.46 1744.54 L 2312.7 1744.54 Z M 2312.7 1744.54" style=""/>
  <path fill-rule="nonzero" fill="rgb(0%, 0%, 0%)" fill-opacity="1" d="M 2310.27 1708.23 C 2310.27 1709.23 2310.09 1710.17 2309.71 1711.03 C 2305.99 1719.77 2303.69 1725.77 2304.28 1730.09 C 2304.81 1734.02 2307.98 1737.62 2313.67 1743.46 C 2316.44 1746.25 2316.4 1750.69 2313.59 1753.44 C 2310.78 1756.2 2306.35 1756.16 2303.57 1753.33 C 2298.82 1748.53 2291.53 1741.48 2290.25 1731.99 C 2289.03 1722.93 2293.55 1712.82 2296.72 1705.5 L 2296.13 1708.23 C 2296.13 1704.32 2299.28 1701.18 2303.22 1701.18 C 2307.13 1701.18 2310.27 1704.32 2310.27 1708.23 Z M 2310.27 1708.23" style=""/>
  <path fill-rule="nonzero" fill="rgb(0%, 0%, 0%)" fill-opacity="1" d="M 1262 2008.19 C 1262 2008.58 1262 2008.9 1261.92 2009.27 L 1258.04 2033.63 C 1257.49 2036.98 1254.56 2039.45 1251.16 2039.38 C 1249.85 2039.3 1248.62 2039.3 1247.43 2039.3 C 1239.5 2039.3 1236.32 2040.46 1234.57 2044.41 C 1231.31 2051.67 1231.98 2068.19 1238.56 2078.01 C 1244.31 2086.55 1255.58 2090.92 1288.05 2092.88 C 1308.13 2094.04 1335.15 2094.3 1361.17 2094.3 C 1370.65 2094.3 1380 2094.29 1388.78 2094.25 C 1393.89 2094.22 1398.84 2094.2 1403.52 2094.2 C 1406.73 2094.19 1409.77 2094.19 1412.75 2094.19 C 1441.95 2094.19 1460.31 2094.45 1478.62 2094.82 C 1482.38 2094.86 1485.38 2097.97 1485.29 2101.75 C 1485.26 2105.49 1482.16 2108.51 1478.35 2108.43 C 1460.07 2108.1 1441.84 2107.84 1412.75 2107.84 C 1409.77 2107.84 1406.77 2107.84 1403.56 2107.84 C 1398.88 2107.85 1393.97 2107.87 1388.82 2107.89 C 1380.04 2107.91 1370.68 2107.93 1361.17 2107.93 C 1335.15 2107.93 1307.77 2107.7 1287.22 2106.47 C 1255.68 2104.58 1237.26 2100.44 1227.26 2085.63 C 1218.07 2072.06 1216.9 2050.47 1222.12 2038.84 C 1227.62 2026.5 1239.4 2025.66 1247.43 2025.66 C 1248.78 2025.66 1250.15 2025.72 1251.39 2025.74 L 1244.58 2031.47 L 1248.47 2007.14 L 1248.4 2008.19 C 1248.4 2004.44 1251.43 2001.4 1255.21 2001.4 C 1258.95 2001.4 1262 2004.44 1262 2008.19 Z M 1262 2008.19" style=""/>
  <path fill-rule="nonzero" fill="rgb(0%, 0%, 0%)" fill-opacity="1" d="M 1889.18 2070.07 C 1889.18 2070.32 1889.14 2070.59 1889.11 2070.89 C 1887.54 2083.6 1886.17 2095.3 1887.72 2106.91 C 1889.33 2118.67 1893.64 2128.36 1903.99 2132.9 C 1911.2 2136.07 1922.06 2137.12 1934.44 2137.12 C 1941.41 2137.12 1948.54 2136.82 1955.34 2136.45 C 1973.97 2135.46 1989.13 2134.34 2004.37 2133.2 C 2004.51 2133.2 2004.62 2133.17 2004.76 2133.17 L 3012.6 2111.7 L 3012.67 2111.7 C 3039.25 2111.33 3064.39 2110.97 3079.24 2106.98 C 3092.54 2103.47 3096.52 2097.32 3099.17 2088.83 C 3102.13 2079.38 3103.06 2067.59 3104 2054.71 L 3104 2054.64 C 3104.36 2050.86 3107.66 2048.11 3111.42 2048.44 C 3115.19 2048.79 3117.91 2052.11 3117.6 2055.82 L 3117.6 2055.73 C 3116.67 2068.15 3115.69 2081.66 3112.19 2092.93 C 3108.32 2105.2 3101.2 2115.25 3082.75 2120.19 C 3065.85 2124.7 3038.62 2124.95 3012.86 2125.32 L 3012.9 2125.32 L 2005.04 2146.8 L 2005.38 2146.76 C 1990.14 2147.92 1974.86 2149.08 1956.08 2150.09 C 1949.24 2150.46 1941.81 2150.77 1934.44 2150.77 C 1921.9 2150.77 1908.55 2149.79 1898.49 2145.41 C 1881.69 2138.02 1876.07 2122.28 1874.22 2108.74 C 1872.38 2095.06 1874.04 2081.63 1875.57 2069.21 L 1875.53 2070.07 C 1875.53 2066.29 1878.57 2063.23 1882.31 2063.23 C 1886.08 2063.23 1889.18 2066.29 1889.18 2070.07 Z M 1889.18 2070.07" style=""/>
  <path fill-rule="nonzero" fill="rgb(0%, 0%, 0%)" fill-opacity="1" d="M 3574.42 2034.95 C 3574.42 2035.51 3574.34 2036.04 3574.21 2036.53 L 3574.15 2036.89 C 3569.55 2056.34 3566.9 2070.32 3571.82 2077.32 C 3576.49 2084.05 3589.97 2086.84 3642.2 2089.69 C 3673.08 2091.31 3715.98 2093.1 3754.13 2093.1 C 3777.77 2093.1 3799.36 2092.39 3815.15 2090.66 C 3855.78 2086.14 3854.04 2075.5 3853.57 2070.99 C 3853.53 2070.74 3853.5 2070.52 3853.46 2070.22 C 3852.19 2061.1 3846.76 2052.95 3840.15 2043.21 L 3839.98 2042.89 C 3837.99 2039.67 3839.01 2035.51 3842.25 2033.54 C 3845.48 2031.57 3849.65 2032.59 3851.59 2035.8 L 3851.43 2035.51 C 3857.68 2044.72 3865.16 2055.53 3866.96 2068.36 C 3867.03 2068.76 3867.07 2069.04 3867.13 2069.52 C 3868.99 2086.44 3858.57 2099.53 3816.66 2104.17 C 3800.06 2106.05 3777.88 2106.71 3754.13 2106.71 C 3715.61 2106.71 3672.47 2104.96 3641.49 2103.28 C 3593.6 2100.73 3570.14 2098.8 3560.61 2085.13 C 3551.36 2071.86 3557.03 2050.11 3560.9 2033.69 L 3560.86 2033.73 L 3560.94 2033.4 L 3560.79 2034.95 C 3560.79 2031.17 3563.82 2028.11 3567.61 2028.11 C 3571.33 2028.11 3574.42 2031.17 3574.42 2034.95 Z M 3574.42 2034.95" style=""/>
  <path fill-rule="nonzero" fill="rgb(0%, 0%, 0%)" fill-opacity="1" d="M 2965.13 1650.55 C 2965.13 1652.58 2964.25 1654.49 2962.71 1655.79 C 2961.2 1657.04 2959.17 1657.62 2957.18 1657.31 L 2908.46 1649.08 C 2905.69 1648.61 2903.51 1646.51 2902.93 1643.81 C 2899.33 1627.14 2896.22 1613.97 2885.76 1606.21 C 2874.91 1598.09 2854.97 1594.8 2835.38 1594.8 C 2835.24 1594.8 2834.96 1594.8 2834.81 1594.8 C 2814.93 1594.84 2800 1598.32 2793.19 1604.94 C 2786.78 1611.28 2786.05 1622.13 2786.47 1636.16 C 2786.9 1650.22 2788.3 1658.56 2796.96 1662.86 C 2805.69 1667.19 2822.25 1668.1 2839.45 1668.1 C 2842.99 1668.1 2846.49 1668.07 2849.87 1668.03 C 2869.05 1667.83 2882.31 1667.63 2891.33 1666.49 C 2899.97 1665.4 2904.69 1663.43 2909.82 1661.28 C 2911.33 1660.64 2913.01 1660.57 2914.58 1661.09 L 2970.61 1679.58 C 2974.21 1680.77 2976.14 1684.59 2974.97 1688.21 C 2973.8 1691.77 2969.93 1693.68 2966.35 1692.52 L 2910.32 1674.07 L 2915.08 1673.86 C 2909.5 1676.18 2903.51 1678.68 2893.06 1680 C 2883.03 1681.27 2868.84 1681.43 2850.01 1681.67 C 2846.63 1681.71 2843.07 1681.75 2839.45 1681.75 C 2823.11 1681.75 2803.04 1681.11 2790.87 1675.06 C 2774.12 1666.74 2773.26 1649.45 2772.88 1636.62 C 2772.48 1623.7 2772.3 1606.36 2783.67 1595.21 C 2794.71 1584.45 2814.85 1581.23 2834.79 1581.16 C 2834.96 1581.16 2835.2 1581.16 2835.38 1581.16 C 2855.31 1581.16 2879.31 1584.35 2893.91 1595.25 C 2909.16 1606.69 2912.94 1625.52 2916.26 1640.9 L 2910.73 1635.63 L 2959.47 1643.85 L 2951.49 1650.55 C 2951.49 1646.82 2954.57 1643.77 2958.33 1643.77 C 2962.09 1643.77 2965.13 1646.82 2965.13 1650.55 Z M 2965.13 1650.55" style=""/>
  <path fill-rule="nonzero" fill="rgb(68.164062%, 93.359375%, 3.137207%)" fill-opacity="1" d="M 2228.33 1345.47 C 2220.9 1345.47 2213.3 1345.49 2205.78 1345.52 C 2171.93 1345.7 2136.9 1346.27 2101.13 1347.21 C 1954.92 1351.08 1797.26 1361.75 1699.24 1370.87 C 1607.39 1379.43 1567.99 1386.6 1531.74 1393.69 C 1531.37 1393.78 1531.14 1394.09 1531.19 1394.48 C 1531.19 1394.54 1531.19 1394.62 1531.23 1394.72 C 1533.77 1407.72 1533.95 1423.56 1520.64 1456.32 C 1505.13 1494.45 1470.79 1556.84 1441.61 1591 C 1411.63 1625.98 1386.71 1631.65 1361.64 1633.83 C 1351.8 1634.69 1341.91 1635.05 1331.98 1635.09 C 1331.19 1635.09 1330.29 1635.09 1329.48 1635.09 C 1315.98 1635.09 1302.42 1634.59 1289.02 1634.07 L 1288.98 1634.07 C 1288.98 1634.07 1288.94 1634.07 1288.9 1634.07 C 1288.9 1634.07 1288.86 1634.07 1288.83 1634.07 C 1288.56 1634.08 1288.23 1634.14 1287.93 1634.18 C 1287.66 1634.22 1287.37 1634.25 1287.06 1634.29 C 1277.55 1635.52 1268.59 1637.78 1263.99 1667.12 C 1258.61 1701.41 1260.25 1769 1261.92 1837.65 C 1261.96 1840.57 1260.03 1843.18 1257.2 1843.96 C 1241.34 1848.15 1228.43 1851.8 1220.79 1861.77 C 1213.05 1871.87 1209.84 1889.77 1210.86 1910.68 C 1211.87 1931.28 1216.85 1952.84 1226.56 1968.51 C 1236.12 1983.97 1250.65 1994.41 1267.02 2002.56 C 1283.17 2010.59 1300.6 2016.17 1333.37 2020.55 C 1364.89 2024.85 1410.18 2028 1456.37 2031.09 C 1456.37 2031.09 1456.4 2031.09 1456.4 2031.09 C 1456.62 2031.09 1456.77 2031.04 1456.92 2030.9 C 1457.08 2030.75 1457.15 2030.55 1457.11 2030.36 C 1456.83 2015.32 1458.23 2000.05 1461.44 1984.7 C 1472.91 1930.1 1505.53 1885.24 1549.19 1856.57 C 1549.39 1856.5 1549.55 1856.27 1549.62 1856.06 C 1549.66 1855.78 1549.55 1855.46 1549.28 1855.3 C 1542.64 1851.03 1533.64 1847.19 1515.32 1844.9 C 1489.72 1841.66 1446.74 1841.56 1403.03 1841.5 L 1402.97 1841.5 C 1402.97 1841.5 1402.93 1841.5 1402.93 1841.5 L 1402.51 1841.5 C 1399.18 1841.5 1396.42 1838.92 1396.18 1835.58 C 1395.63 1828.39 1395.14 1822.83 1392.68 1818.28 C 1390.18 1813.58 1385.35 1809.37 1379.23 1804.11 C 1378.99 1803.95 1378.79 1803.75 1378.61 1803.51 C 1378.48 1803.39 1378.32 1803.31 1378.14 1803.28 L 1378.02 1803.28 C 1368.34 1803.49 1357.24 1803.57 1345.24 1803.61 C 1337.36 1803.65 1329.1 1803.69 1320.54 1803.69 C 1306.77 1803.69 1292.33 1803.65 1277.92 1803.61 L 1277.88 1803.61 C 1274.38 1803.61 1271.59 1800.86 1271.51 1797.41 L 1269.6 1699.61 C 1269.56 1697.94 1270.24 1696.26 1271.43 1695.06 C 1272.6 1693.84 1274.24 1693.13 1275.95 1693.13 L 1277.68 1693.13 C 1318.89 1693.22 1361.03 1693.37 1388.49 1699.68 C 1417.2 1706.31 1431.04 1719.99 1437.51 1737.87 C 1443.56 1754.48 1443.36 1775.43 1435.33 1787.78 C 1428.24 1798.68 1415.94 1801.52 1398.13 1802.57 C 1398.09 1802.57 1398.09 1802.57 1398.05 1802.57 C 1397.66 1802.64 1397.39 1802.99 1397.39 1803.36 C 1397.43 1803.57 1397.55 1803.77 1397.7 1803.89 C 1400.12 1806.45 1402.25 1809.22 1403.9 1812.26 C 1406.59 1817.39 1407.72 1822.97 1408.31 1828.16 C 1408.31 1828.33 1408.38 1828.49 1408.56 1828.64 C 1408.69 1828.74 1408.85 1828.78 1409.02 1828.78 C 1409.02 1828.78 1409.02 1828.78 1409.05 1828.78 C 1450.4 1828.86 1491.59 1829.11 1516.88 1832.3 C 1542.78 1835.49 1552.81 1841.91 1561.67 1848.5 C 1561.82 1848.6 1561.97 1848.61 1562.1 1848.61 C 1562.24 1848.61 1562.33 1848.6 1562.44 1848.56 C 1562.44 1848.56 1562.44 1848.56 1562.44 1848.52 C 1593.37 1831.32 1628.88 1821.75 1665.92 1821.75 C 1680.62 1821.75 1695.58 1823.25 1710.55 1826.42 C 1820.79 1849.56 1893.38 1952.8 1876.96 2060.39 C 1876.95 2060.6 1877 2060.79 1877.14 2060.95 C 1877.25 2061.1 1877.47 2061.22 1877.67 2061.22 C 1877.67 2061.22 1877.67 2061.22 1877.67 2061.22 L 2205.78 2057.32 L 2205.85 2057.32 C 2206.08 2057.32 2206.27 2057.2 2206.41 2056.97 C 2206.54 2056.79 2206.54 2056.5 2206.45 2056.3 L 2206.41 2056.3 C 2195.72 2033.46 2185.17 2010.38 2178.49 1988.81 C 2171.4 1965.95 2168.61 1944.8 2166.13 1924.23 C 2166.09 1923.95 2165.81 1923.66 2165.46 1923.62 L 2165.37 1923.62 L 1909.57 1925.45 C 1909.53 1925.45 1909.53 1925.45 1909.49 1925.45 C 1907.58 1925.45 1905.75 1924.57 1904.54 1923.06 C 1904.45 1922.92 1904.19 1922.61 1904.07 1922.44 C 1903.82 1922.13 1903.72 1922.04 1903.48 1921.73 C 1900.56 1918.15 1896.59 1912.87 1896.36 1906.73 C 1896.03 1900.3 1899.81 1894.02 1902.39 1889.77 C 1902.5 1889.57 1902.72 1889.22 1902.8 1889.06 C 1903.99 1887.13 1906.01 1886 1908.25 1886 L 2162.69 1884.35 L 2162.78 1884.35 C 2162.96 1884.33 2163.15 1884.19 2163.29 1884.07 C 2163.38 1883.88 2163.42 1883.65 2163.38 1883.49 C 2157.73 1856.06 2152.31 1827.82 2153.49 1797.49 C 2154.39 1774.72 2159.03 1751.01 2162.84 1731.44 L 2162.88 1731.22 C 2164.45 1723.26 2165.84 1716.08 2166.85 1709.75 C 2169.97 1690.29 2169.25 1679.62 2168.15 1669.59 C 2168.15 1669.18 2167.84 1668.88 2167.49 1668.88 L 2157.16 1668.48 C 1927.7 1659.23 1764.91 1650.86 1683.7 1636.95 C 1602.79 1623.13 1598.82 1602.61 1597.08 1569.3 C 1597.08 1569.26 1597.08 1569.14 1597.08 1569.04 L 1597.04 1568.55 C 1597 1568.06 1597 1567.79 1596.95 1567.18 C 1596.95 1567.16 1596.95 1567.13 1596.95 1567.13 C 1596.95 1567.12 1596.95 1567.12 1596.95 1567.12 C 1596.75 1562.98 1596.44 1558.71 1596.22 1554.19 C 1595.9 1549.44 1595.58 1544.51 1595.32 1539.47 L 1595.32 1539.46 C 1593.95 1514.19 1593.32 1485.54 1600.11 1465.53 C 1610.09 1436.27 1635.23 1426.84 1665.92 1421.37 C 1695.02 1416.19 1731.84 1414.19 1823.06 1409.19 L 1824.12 1409.13 C 1824.12 1409.13 1824.12 1409.13 1824.12 1409.13 L 1840.13 1408.24 L 1853.51 1407.53 L 1868.17 1406.69 C 1868.17 1406.69 1868.17 1406.69 1868.22 1406.69 L 1868.17 1406.69 C 1972.88 1400.94 2124.52 1392.8 2240.46 1390.59 C 2255.95 1390.32 2270.79 1390.13 2285.06 1390.06 C 2289.5 1390.06 2293.93 1390.03 2298.19 1390.03 C 2393.8 1390.03 2462.48 1395.48 2519.15 1408.49 C 2583.93 1423.35 2632.64 1448.05 2689.3 1476.77 L 2689.57 1476.93 L 2696.73 1480.56 C 2696.78 1480.58 2696.82 1480.58 2696.86 1480.62 C 2705.94 1485.22 2714.98 1489.79 2724.44 1494.51 L 2725.28 1494.95 L 2725.58 1495.13 C 2734.97 1499.84 2745.23 1504.98 2754.78 1509.85 C 2798.36 1531.89 2842.07 1554.43 2874.62 1573.37 C 2921.87 1600.85 2946.04 1621.04 2961.08 1639.37 C 2973.65 1654.71 2979.61 1668.52 2984.34 1681.51 C 2984.44 1681.81 2984.71 1681.97 2985.01 1681.97 C 2985.05 1681.97 2985.1 1681.97 2985.14 1681.97 C 2985.22 1681.93 2985.31 1681.93 2985.37 1681.88 C 2990.84 1678.64 2996.24 1675.29 3001.75 1671.72 L 3001.79 1671.72 C 3007.62 1667.88 3013.56 1663.73 3019.6 1659.53 L 3019.56 1659.53 C 3019.79 1659.47 3019.94 1659.26 3020.03 1659 C 3020.12 1658.71 3019.99 1658.4 3019.74 1658.2 C 3011.02 1652.58 3001.87 1646.03 2991.78 1638.84 L 2990.32 1637.83 C 2980.11 1630.52 2968.89 1622.51 2956.1 1613.87 C 2905.69 1579.77 2831.42 1535.98 2760.4 1500.79 C 2735.91 1488.7 2711.82 1477.59 2689.91 1467.44 C 2689.91 1467.44 2689.87 1467.44 2689.87 1467.44 C 2689.87 1467.44 2689.87 1467.44 2689.8 1467.4 C 2671.7 1459.05 2655.07 1451.37 2641.03 1444.39 C 2623.05 1435.54 2608.51 1427.43 2600.79 1420.21 C 2592.13 1412.19 2589.96 1402.82 2597.36 1394.89 C 2602.26 1389.62 2611.43 1385.49 2621.84 1382.01 C 2622.16 1381.96 2622.45 1381.72 2622.46 1381.37 C 2622.5 1381 2622.27 1380.7 2621.96 1380.63 C 2585.5 1370.23 2543.69 1360.48 2470.93 1354.05 C 2408.72 1348.54 2323.9 1345.47 2228.33 1345.47 Z M 2228.33 1345.47" style=""/>
  <path fill-rule="nonzero" fill="rgb(68.164062%, 93.359375%, 3.137207%)" fill-opacity="1" d="M 2288.34 1700.18 C 2305.69 1700.18 2324.63 1701.64 2339.24 1704.46 C 2363.77 1709.08 2380.07 1718.21 2381.98 1729.96 C 2382.02 1730.16 2382.02 1730.4 2382.05 1730.58 C 2382.05 1730.62 2382.05 1730.71 2382.09 1730.78 L 2382.05 1730.78 C 2382.28 1732.61 2382.05 1734.48 2381.47 1736.2 C 2378.51 1745.29 2366.57 1749.84 2357.01 1752.32 C 2344.4 1755.63 2328.77 1756.87 2313.94 1758.04 L 2313.52 1758.07 C 2313.44 1758.1 2313.31 1758.1 2313.25 1758.1 L 2313.21 1758.1 L 2313.17 1758.14 L 2312.88 1758.14 C 2302.49 1758.52 2291.93 1758.96 2282.29 1758.98 C 2281.67 1758.98 2281.05 1758.98 2280.41 1758.98 C 2269.39 1758.98 2259.09 1758.48 2251.39 1756.73 C 2234.88 1752.9 2229.86 1743.2 2228.22 1732.75 C 2226.43 1721.38 2229.04 1708.23 2252.71 1703.1 C 2261.74 1701.13 2274.03 1700.23 2286.86 1700.18 C 2287.37 1700.18 2287.83 1700.18 2288.34 1700.18 Z M 2181.71 1669.62 C 2181.4 1669.62 2181.16 1669.86 2181.16 1670.16 C 2181.16 1670.23 2181.16 1670.28 2181.2 1670.37 L 2181.16 1670.37 C 2182.22 1680.54 2182.72 1692.15 2179.56 1711.78 C 2178.55 1718.35 2177.07 1725.77 2175.55 1733.61 L 2175.55 1733.68 C 2171.67 1753.44 2167.22 1776.32 2166.34 1798 C 2165.19 1827.59 2170.72 1855.2 2176.61 1883.63 C 2176.65 1883.91 2176.89 1884.07 2177.1 1884.07 C 2177.14 1884.07 2177.14 1884.07 2177.14 1884.07 L 3028.44 1878.58 L 3028.52 1878.58 C 3028.8 1878.58 3029.03 1878.34 3029.03 1878.07 C 3030.84 1848.95 3032.35 1820.23 3028.26 1788.21 C 3024.19 1756.62 3014.73 1721.65 3004.74 1685.97 C 3004.67 1685.75 3004.49 1685.57 3004.24 1685.57 L 3004.2 1685.57 C 3004.2 1685.57 3004.2 1685.57 3004.2 1685.57 C 3004.08 1685.57 3003.98 1685.57 3003.88 1685.67 C 2997.82 1689.48 2991.81 1693.08 2985.9 1696.58 L 2985.86 1696.58 C 2985.26 1696.97 2984.6 1697.22 2983.92 1697.38 C 2983.81 1697.43 2983.74 1697.47 2983.67 1697.49 C 2982.83 1697.86 2981.98 1698.04 2981.09 1698.04 C 2980.99 1698.04 2980.92 1698.04 2980.88 1698.04 L 2974.5 1697.8 C 2690.1 1688.14 2406.14 1678.46 2181.75 1669.62 L 2181.71 1669.62 C 2181.71 1669.62 2181.71 1669.62 2181.71 1669.62 Z M 2181.71 1669.62" style=""/>
  <path fill-rule="nonzero" fill="rgb(68.164062%, 93.359375%, 3.137207%)" fill-opacity="1" d="M 3030.55 1917.74 L 2179.68 1923.67 C 2179.68 1923.67 2179.64 1923.67 2179.64 1923.67 C 2179.64 1923.67 2179.6 1923.67 2179.6 1923.67 C 2179.3 1923.72 2179.06 1923.96 2179.09 1924.27 C 2179.09 1924.38 2179.09 1924.45 2179.15 1924.52 L 2179.15 1924.53 C 2181.55 1944.37 2184.25 1963.96 2190.79 1984.98 C 2197.77 2007.47 2209.11 2031.78 2220.85 2056.67 C 2220.94 2056.84 2221.15 2056.97 2221.37 2056.97 C 2221.37 2056.97 2221.37 2056.97 2221.41 2056.97 L 2221.37 2056.97 L 3009.01 2047.66 L 3009.03 2047.66 C 3009.27 2047.66 3009.46 2047.48 3009.55 2047.26 C 3017.02 2022.49 3024.16 1998.32 3027.76 1976.93 C 3031.26 1955.79 3031.3 1937.2 3031.1 1918.3 C 3031.1 1917.98 3030.88 1917.74 3030.59 1917.74 L 3030.55 1917.74 Z M 3030.55 1917.74" style=""/>
  <path fill-rule="nonzero" fill="rgb(68.164062%, 93.359375%, 3.137207%)" fill-opacity="1" d="M 3023.88 2046.91 L 3024.16 2047.06 L 3024 2047.18 C 3024 2047.11 3023.96 2047.06 3023.88 2046.91 Z M 3155.61 1649.83 C 3155.51 1649.83 3155.47 1649.85 3155.38 1649.85 C 3129.58 1663.87 3101.89 1678.72 3074.97 1678.83 C 3074.83 1678.83 3074.68 1678.83 3074.56 1678.83 C 3071.21 1678.83 3067.87 1678.64 3064.5 1678.15 C 3053.89 1676.61 3043.64 1672.5 3032.73 1666.47 C 3032.69 1666.44 3032.62 1666.41 3032.58 1666.41 L 3032.54 1666.41 C 3032.54 1666.41 3032.54 1666.41 3032.5 1666.41 C 3032.44 1666.41 3032.35 1666.44 3032.27 1666.49 C 3026.96 1670.2 3021.67 1673.96 3016.35 1677.6 C 3016.18 1677.72 3016.09 1677.89 3016.18 1678.08 C 3016.18 1678.16 3016.23 1678.23 3016.28 1678.27 L 3016.23 1678.27 C 3026.58 1715.22 3036.96 1752.62 3041.32 1786.53 C 3045.52 1819.56 3044.01 1849.09 3042.26 1877.95 C 3042.21 1878.03 3042.26 1878.15 3042.33 1878.27 C 3042.41 1878.34 3042.53 1878.4 3042.68 1878.4 L 3088.69 1878.07 C 3088.71 1878.07 3088.71 1878.07 3088.71 1878.07 C 3089.8 1878.07 3090.9 1878.34 3091.88 1878.91 C 3092.19 1879.06 3092.41 1879.16 3092.81 1879.41 C 3093.26 1879.58 3093.48 1879.72 3093.91 1879.98 C 3098.5 1882.47 3104.67 1886.01 3107.4 1890.61 C 3108.26 1892.07 3108.93 1893.79 3109.06 1895.78 C 3109.2 1897.51 3108.88 1899.09 3108.46 1900.44 C 3106.53 1906.17 3100.14 1911.5 3095.81 1915.14 C 3095.55 1915.35 3095.14 1915.69 3094.91 1915.89 C 3093.76 1916.87 3092.26 1917.43 3090.72 1917.43 L 3044.69 1917.78 C 3044.43 1917.78 3044.28 1917.94 3044.28 1918.19 C 3044.28 1918.28 3044.28 1918.34 3044.31 1918.43 L 3044.28 1918.43 C 3044.47 1937.28 3044.43 1956.82 3040.72 1979.15 C 3037.22 2000.14 3030.43 2023.52 3023.41 2046.77 C 3023.37 2046.91 3023.41 2047.1 3023.49 2047.18 C 3023.58 2047.28 3023.7 2047.33 3023.83 2047.33 L 3023.81 2047.33 C 3023.81 2047.33 3023.83 2047.33 3023.83 2047.33 C 3023.83 2047.33 3023.88 2047.33 3023.88 2047.33 L 3023.83 2047.33 L 3104.45 2046.4 L 3104.49 2046.4 C 3104.74 2046.36 3104.9 2046.25 3104.92 2046.04 C 3110.32 1998.64 3116.63 1949.75 3143.98 1910.08 C 3172.54 1868.77 3223.26 1838.24 3274.45 1823.37 C 3298.72 1816.29 3323.29 1812.74 3347.3 1812.63 C 3347.73 1812.61 3348.12 1812.61 3348.56 1812.61 C 3374.86 1812.61 3400.51 1816.74 3424.45 1825.05 C 3445.07 1832.17 3464.37 1842.32 3481.55 1854.74 C 3481.59 1854.8 3481.67 1854.84 3481.8 1854.84 C 3481.85 1854.84 3481.85 1854.8 3481.89 1854.8 C 3482.3 1854.74 3482.74 1854.66 3483.16 1854.66 L 3483.24 1854.66 L 3579.11 1852.46 L 3579.15 1852.46 C 3579.29 1852.46 3579.4 1852.41 3579.44 1852.27 C 3579.53 1852.15 3579.57 1852.05 3579.53 1851.91 C 3576.57 1840.29 3578.55 1826.82 3595.63 1817.12 C 3611.76 1807.96 3642.02 1801.98 3666.19 1799.39 C 3674.85 1798.49 3682.95 1797.94 3690.59 1797.91 C 3690.9 1797.91 3691.19 1797.91 3691.49 1797.91 C 3705.26 1797.91 3717.63 1799.5 3729.11 1803.2 C 3747.2 1809.03 3762.44 1819.81 3776.13 1830.94 C 3789.1 1841.51 3801.17 1852.8 3813 1863.96 C 3813.07 1864.09 3813.15 1864.13 3813.28 1864.13 C 3813.32 1864.13 3813.32 1864.13 3813.32 1864.13 L 3829.26 1863.38 C 3829.45 1863.38 3829.59 1863.3 3829.64 1863.12 C 3829.72 1862.95 3829.68 1862.78 3829.59 1862.63 C 3790.1 1822.35 3748.42 1783.56 3676.88 1753.73 C 3597.57 1720.65 3481.41 1698.55 3387.66 1682.95 C 3295.22 1667.59 3225.4 1658.67 3155.76 1649.85 L 3155.72 1649.85 C 3155.68 1649.83 3155.65 1649.83 3155.61 1649.83 Z M 3155.61 1649.83" style=""/>
  <path fill-rule="nonzero" fill="rgb(68.164062%, 93.359375%, 3.137207%)" fill-opacity="1" d="M 3586.33 1865.48 L 3586.28 1865.48 L 3498.79 1867.5 L 3498.75 1867.5 C 3498.75 1867.5 3498.71 1867.5 3498.71 1867.5 C 3498.42 1867.55 3498.2 1867.76 3498.2 1868.05 C 3498.2 1868.29 3498.37 1868.44 3498.57 1868.53 L 3498.53 1868.53 C 3512.25 1880.83 3524.04 1894.64 3533.33 1909.42 C 3555.66 1945.16 3563.07 1986.26 3569.66 2026.21 C 3569.7 2026.44 3569.91 2026.61 3570.17 2026.61 C 3570.17 2026.61 3570.17 2026.61 3570.17 2026.61 L 3570.21 2026.61 C 3655.74 2032.01 3740.18 2037.24 3788.46 2037.32 C 3788.84 2037.32 3789.3 2037.32 3789.69 2037.32 C 3790.74 2037.32 3791.8 2037.32 3792.8 2037.32 C 3838.92 2037.08 3847.36 2031.62 3852.03 2026.56 C 3855.89 2022.43 3858.06 2017.31 3859.83 2011.24 C 3859.86 2011.1 3859.83 2010.94 3859.75 2010.79 C 3859.67 2010.69 3859.51 2010.61 3859.36 2010.61 L 3859.28 2010.61 C 3846.01 2011.27 3832.93 2011.81 3821.03 2011.87 C 3820.33 2011.87 3819.68 2011.87 3819.01 2011.87 C 3804.47 2011.87 3791.24 2011.1 3781.7 2008.37 C 3759.78 2002.15 3758.05 1986.26 3757.53 1974.55 C 3757.07 1963.13 3757.45 1952.34 3757.84 1941.86 L 3757.84 1941.76 C 3758 1938.25 3760.84 1935.48 3764.3 1935.42 L 3860.41 1933.86 L 3860.5 1933.86 C 3860.71 1933.81 3860.93 1933.65 3860.97 1933.39 C 3862.63 1916.51 3863.59 1901.81 3860.97 1892.7 C 3858.39 1884.07 3852.22 1880.65 3843.22 1876.05 C 3843.22 1876.05 3843.22 1876.05 3843.22 1876.05 C 3843.18 1876.05 3843.18 1876.05 3843.14 1876.03 C 3843.07 1875.99 3843.02 1875.99 3842.94 1875.99 L 3842.83 1875.99 C 3842.68 1875.99 3842.51 1876.03 3842.35 1876.03 L 3811.6 1877.4 C 3811.52 1877.4 3811.4 1877.4 3811.31 1877.4 C 3811.01 1877.4 3810.66 1877.37 3810.38 1877.33 L 3810.23 1877.33 C 3763.76 1879.3 3717.18 1881.29 3680.07 1881.45 C 3678.22 1881.45 3676.37 1881.5 3674.57 1881.5 C 3658.93 1881.5 3645.11 1881.11 3633.84 1880.28 C 3607.05 1878.22 3593.76 1873.12 3586.71 1865.66 C 3586.62 1865.54 3586.45 1865.48 3586.33 1865.48 Z M 3586.33 1865.48" style=""/>
  <path fill-rule="nonzero" fill="rgb(50.976562%, 69.726562%, 62.693787%)" fill-opacity="1" d="M 1406.35 1386.53 C 1406.06 1386.53 1405.59 1386.53 1405.27 1386.53 C 1398.25 1386.57 1392.75 1386.95 1388.9 1387.67 C 1386.83 1388.03 1385.46 1388.45 1384.64 1388.81 C 1384.53 1388.85 1384.48 1388.93 1384.53 1389.01 C 1384.53 1389.07 1384.57 1389.11 1384.6 1389.12 C 1386.91 1392.48 1394.7 1398.91 1409.13 1406.66 C 1434.39 1420.35 1471.47 1434.1 1509.23 1448.14 C 1509.32 1448.15 1509.36 1448.17 1509.4 1448.2 C 1509.44 1448.2 1509.49 1448.21 1509.49 1448.21 C 1509.54 1448.21 1509.59 1448.2 1509.59 1448.17 C 1509.63 1448.15 1509.66 1448.1 1509.66 1448.06 C 1520.97 1419.29 1520.27 1406.42 1517.98 1395.85 C 1517.98 1395.74 1517.89 1395.66 1517.81 1395.66 L 1517.77 1395.64 C 1474.55 1390.98 1432.54 1386.53 1406.35 1386.53 Z M 1406.35 1386.53" style=""/>
  <path fill-rule="nonzero" fill="rgb(50.976562%, 69.726562%, 62.693787%)" fill-opacity="1" d="M 2120.04 1425.17 L 2119.96 1425.2 C 2120.09 1425.2 2120.23 1425.2 2120.34 1425.2 C 2122.16 1425.2 2123.85 1425.88 2125.15 1427.12 C 2126.51 1428.46 2127.31 1430.35 2127.26 1432.27 C 2126.43 1468.45 2125.67 1503.66 2132.37 1536.19 C 2139.03 1568.54 2153.16 1598.51 2167.75 1629.27 L 2167.87 1629.5 C 2168.92 1631.65 2168.74 1634.22 2167.4 1636.25 C 2166.13 1638.18 2163.93 1639.35 2161.65 1639.35 C 2161.57 1639.35 2161.43 1639.35 2161.4 1639.35 L 2161.28 1639.35 C 2053.02 1635.52 1944.62 1631.65 1857.24 1626.58 C 1770.27 1621.47 1702.79 1615.13 1667.53 1602.29 C 1630.21 1588.63 1627.33 1566.89 1624.32 1540.83 L 1624.24 1540.08 L 1624.2 1539.41 L 1624.08 1538.56 C 1624.01 1537.95 1623.98 1537.55 1623.9 1536.95 L 1623.7 1535.22 C 1620.89 1510.56 1617.49 1474.5 1646.32 1456.64 L 1646.32 1456.66 L 1646.32 1456.64 C 1667.05 1443.79 1703.77 1441.54 1751.99 1440.3 C 1760.95 1440.08 1770.63 1439.89 1780.54 1439.68 L 1780.66 1439.68 L 1781.58 1439.65 C 1792.37 1439.45 1803.55 1439.21 1815.43 1438.94 C 1898.73 1436.8 2009.27 1431 2119.92 1425.2 L 2119.96 1425.2 L 2120.04 1425.17 Z M 2173.78 1405.65 C 2070.92 1408.97 1954.4 1415.27 1868.94 1419.93 L 1868.9 1419.93 L 1854.25 1420.76 L 1840.88 1421.47 L 1824.84 1422.37 C 1824.84 1422.37 1824.84 1422.37 1824.84 1422.37 C 1732.38 1427.46 1696.48 1429.43 1668.24 1434.44 C 1638.25 1439.75 1620.15 1448.02 1612.71 1469.88 C 1606.85 1486.97 1607.17 1513 1608.56 1538.71 L 1608.56 1538.74 C 1608.82 1543.62 1609.12 1548.49 1609.42 1553.21 L 1609.42 1553.4 L 1609.46 1554.07 C 1609.75 1558.29 1610.01 1562.46 1610.21 1566.38 C 1610.25 1567.44 1610.25 1567.31 1610.29 1568.3 L 1610.33 1568.54 C 1610.39 1569.52 1610.43 1570.57 1610.47 1571.5 C 1610.5 1572.4 1610.55 1573.41 1610.59 1574.31 C 1611.77 1596.74 1615.36 1611.84 1685.94 1623.9 C 1766.1 1637.62 1927.81 1645.96 2157.68 1655.19 C 2183.69 1656.27 2210.42 1657.31 2238.05 1658.38 C 2238.09 1658.38 2238.13 1658.37 2238.17 1658.34 C 2238.2 1658.3 2238.2 1658.25 2238.2 1658.2 L 2238.17 1658.1 C 2232.56 1650 2225.96 1637.57 2216.84 1613.95 C 2201.82 1575.13 2179.46 1505.12 2171.82 1464.1 C 2165.84 1432.15 2168.69 1416.93 2173.93 1405.86 C 2173.96 1405.8 2173.96 1405.74 2173.93 1405.7 C 2173.88 1405.65 2173.84 1405.65 2173.78 1405.65 Z M 2173.78 1405.65" style=""/>
  <path fill-rule="nonzero" fill="rgb(50.976562%, 69.726562%, 62.693787%)" fill-opacity="1" d="M 2835.38 1594.59 C 2835.2 1594.59 2835.05 1594.59 2834.85 1594.59 C 2834.85 1594.59 2834.81 1594.59 2834.81 1594.59 C 2834.75 1594.59 2834.58 1594.59 2834.54 1594.59 C 2814.78 1594.69 2799.83 1598.15 2793.03 1604.82 C 2786.51 1611.22 2785.81 1622.14 2786.23 1636.16 C 2786.66 1650.19 2788.08 1658.71 2796.83 1663.06 C 2805.78 1667.5 2822.58 1668.33 2839.69 1668.33 C 2840.62 1668.33 2841.56 1668.33 2842.49 1668.33 C 2844.99 1668.29 2847.47 1668.29 2849.87 1668.25 C 2869.05 1668.1 2882.31 1667.87 2891.38 1666.7 C 2900.05 1665.64 2904.74 1663.63 2909.94 1661.5 C 2910.73 1661.16 2911.57 1660.99 2912.47 1660.99 C 2913.14 1660.99 2913.84 1661.09 2914.5 1661.33 L 2968.93 1679.28 C 2968.96 1679.28 2968.96 1679.28 2969 1679.28 C 2969.04 1679.28 2969.11 1679.28 2969.15 1679.24 C 2969.23 1679.17 2969.27 1679.12 2969.27 1679.01 L 2969.23 1678.93 C 2966.39 1671.88 2962.96 1664.8 2957.99 1657.4 C 2957.99 1657.22 2957.89 1657.11 2957.78 1657.11 C 2957.56 1657.11 2957.39 1657.1 2957.22 1657.04 L 2908.5 1648.83 C 2905.83 1648.41 2903.73 1646.38 2903.17 1643.74 L 2903.17 1643.7 C 2899.59 1627.12 2896.41 1613.87 2885.89 1605.97 C 2875.01 1597.85 2854.93 1594.59 2835.38 1594.59 Z M 2835.38 1594.59" style=""/>
  <path fill-rule="nonzero" fill="rgb(50.976562%, 69.726562%, 62.693787%)" fill-opacity="1" d="M 3086.93 1891.7 L 1912.33 1899.27 C 1912.26 1899.27 1912.22 1899.33 1912.22 1899.36 C 1910.39 1902.68 1909.57 1904.69 1909.64 1906.12 C 1909.72 1907.44 1910.57 1909.08 1912.85 1912.03 C 1912.85 1912.03 1912.89 1912.07 1912.93 1912.07 L 3088.03 1903.83 L 3088.11 1903.83 C 3091.88 1900.59 3094.1 1898.42 3095.07 1897.04 L 3095.03 1897.04 L 3095.12 1896.86 C 3093.94 1895.72 3091.41 1894.12 3087.01 1891.73 L 3086.93 1891.7 Z M 3086.93 1891.7" style=""/>
  <path fill-rule="nonzero" fill="rgb(100%, 14.892578%, 0%)" fill-opacity="1" d="M 1283.17 1706.45 C 1283.1 1706.45 1283 1706.5 1283 1706.6 L 1283.67 1740.4 C 1283.67 1740.48 1283.75 1740.57 1283.84 1740.57 C 1283.84 1740.57 1283.84 1740.57 1283.88 1740.57 L 1283.84 1740.57 C 1283.96 1740.54 1284.1 1740.54 1284.22 1740.54 L 1378.83 1740.54 C 1378.95 1740.54 1378.99 1740.45 1378.99 1740.37 L 1380.25 1711.68 L 1380.29 1711.68 C 1380.29 1711.59 1380.21 1711.54 1380.13 1711.51 C 1355.64 1706.9 1320.23 1706.53 1283.21 1706.45 C 1283.21 1706.45 1283.21 1706.45 1283.17 1706.45 Z M 1283.17 1706.45" style=""/>
  <path fill-rule="nonzero" fill="rgb(99.21875%, 100%, 0%)" fill-opacity="1" d="M 1394.11 1714.99 C 1394.02 1714.99 1393.93 1715.08 1393.93 1715.18 L 1392.52 1747.74 C 1392.37 1751.41 1389.33 1754.33 1385.62 1754.33 L 1284.22 1754.35 L 1284.18 1754.35 C 1284.18 1754.35 1284.14 1754.35 1284.14 1754.35 C 1284.14 1754.35 1284.14 1754.35 1284.1 1754.35 C 1284.06 1754.35 1284.02 1754.35 1284.02 1754.4 C 1283.96 1754.41 1283.96 1754.45 1283.96 1754.48 L 1284.64 1790.24 C 1284.64 1790.27 1284.68 1790.31 1284.68 1790.34 C 1284.72 1790.34 1284.77 1790.38 1284.81 1790.38 C 1284.81 1790.38 1284.81 1790.38 1284.85 1790.38 C 1296.98 1790.39 1308.94 1790.43 1320.54 1790.43 C 1329.06 1790.43 1337.32 1790.39 1345.2 1790.38 C 1359.98 1790.31 1373.34 1790.16 1384.25 1789.83 L 1384.34 1789.83 C 1411.97 1789.07 1420 1787.05 1424.2 1780.58 C 1429.2 1772.91 1430.26 1756.73 1425.07 1742.39 C 1420.94 1731.02 1412.91 1721.19 1394.16 1715.02 L 1394.11 1714.99 Z M 1394.11 1714.99" style=""/>
  <path fill-rule="nonzero" fill="rgb(99.21875%, 100%, 0%)" fill-opacity="1" d="M 3691.49 1811.25 C 3691.23 1811.25 3690.9 1811.25 3690.67 1811.25 C 3683.59 1811.31 3675.94 1811.79 3667.63 1812.69 C 3643.55 1815.28 3615.72 1821.08 3602.21 1828.74 C 3590.76 1835.28 3590.56 1842.59 3592.95 1850.18 C 3594.74 1855.91 3597.66 1864.16 3634.84 1867 C 3645.65 1867.86 3659.14 1868.2 3674.57 1868.2 C 3676.37 1868.2 3678.18 1868.2 3680 1868.17 C 3712.51 1868.02 3752.42 1866.45 3793.36 1864.72 L 3793.38 1864.72 C 3793.56 1864.72 3793.66 1864.65 3793.7 1864.51 C 3793.79 1864.36 3793.74 1864.23 3793.65 1864.14 C 3785.16 1856.27 3776.67 1848.61 3767.7 1841.35 C 3754.38 1830.47 3740.65 1820.98 3725.02 1815.96 C 3715.14 1812.74 3704.19 1811.25 3691.49 1811.25 Z M 3691.49 1811.25" style=""/>
  <path fill-rule="nonzero" fill="rgb(100%, 0%, 0%)" fill-opacity="1" d="M 3771.52 1979.34 L 3771.48 1979.37 L 3771.52 1979.41 L 3771.52 1979.34 Z M 3824.82 1979.2 L 3771.52 1979.3 L 3771.52 1979.34 L 3771.52 1979.42 L 3771.52 1979.41 L 3771.48 1979.42 C 3772.31 1987.01 3774.91 1992.38 3785.4 1995.34 C 3793.01 1997.51 3804.66 1998.32 3819.05 1998.32 C 3819.68 1998.32 3820.29 1998.32 3820.95 1998.32 C 3821.74 1998.32 3822.54 1998.32 3823.34 1998.31 L 3823.38 1998.31 L 3823.45 1998.23 C 3824.24 1991.67 3824.9 1985.43 3824.93 1979.3 L 3824.86 1979.2 L 3824.82 1979.2 Z M 3824.82 1979.2" style=""/>
  <path fill-rule="nonzero" fill="rgb(100%, 0%, 0%)" fill-opacity="1" d="M 3820.01 1948.04 L 3771.22 1948.89 L 3771.22 1949 L 3771.18 1948.94 C 3770.97 1954.36 3770.85 1959.79 3770.89 1965.22 L 3770.97 1965.28 L 3823.76 1965.22 L 3823.8 1965.22 L 3823.84 1965.12 C 3822.98 1959.65 3821.66 1954.01 3820.14 1948.15 L 3820.05 1948.04 L 3820.01 1948.04 Z M 3820.01 1948.04" style=""/>
  <path fill-rule="nonzero" fill="rgb(99.21875%, 100%, 0%)" fill-opacity="1" d="M 3834.65 1947.85 C 3834.69 1947.85 3834.69 1947.89 3834.69 1947.89 L 3834.65 1947.89 L 3834.65 1947.85 Z M 3858.47 1947.44 L 3834.61 1947.85 L 3834.58 1947.85 L 3834.61 1947.85 L 3834.53 1947.85 C 3834.49 1947.85 3834.45 1947.89 3834.49 1947.93 C 3834.49 1947.94 3834.53 1948 3834.58 1948 L 3834.53 1948 C 3836.43 1955.68 3838.12 1963.71 3838.7 1971.74 C 3839.36 1980.72 3838.54 1989.5 3837.57 1997.9 L 3837.57 1997.92 C 3837.57 1997.96 3837.61 1998 3837.69 1998 C 3844.74 1997.7 3852.07 1997.41 3859.48 1997 L 3859.48 1997.04 L 3859.51 1997 L 3859.59 1996.99 C 3860.45 1994.67 3861.22 1992.24 3861.72 1987.17 C 3862.36 1980.88 3862.56 1970.89 3861.82 1963.22 C 3861.22 1957.06 3860.04 1952.34 3858.61 1947.5 L 3858.53 1947.44 L 3858.47 1947.44 Z M 3858.47 1947.44" style=""/>
  <path fill-rule="nonzero" fill="rgb(50.976562%, 69.726562%, 62.693787%)" fill-opacity="1" d="M 3103.56 2059.94 L 1888.67 2074.34 C 1888.55 2074.34 1888.48 2074.44 1888.48 2074.52 C 1887.14 2085.84 1886.13 2096.42 1887.58 2106.95 C 1889.18 2118.72 1893.51 2128.52 1903.92 2133.02 C 1911.2 2136.27 1922.1 2137.31 1934.48 2137.31 C 1934.83 2137.31 1935.18 2137.31 1935.56 2137.31 C 1942.21 2137.27 1948.94 2136.96 1955.38 2136.61 C 1973.97 2135.6 1989.18 2134.49 2004.37 2133.34 C 2004.51 2133.34 2004.62 2133.34 2004.76 2133.34 L 3012.6 2111.87 L 3012.67 2111.87 C 3039.25 2111.52 3064.43 2111.12 3079.28 2107.13 C 3092.67 2103.6 3096.64 2097.39 3099.33 2088.88 C 3101.89 2080.72 3102.9 2070.92 3103.78 2060.16 L 3103.78 2060.13 C 3103.78 2060.01 3103.7 2059.94 3103.56 2059.94 Z M 3103.56 2059.94" style=""/>
  <path fill-rule="nonzero" fill="rgb(50.976562%, 69.726562%, 62.693787%)" fill-opacity="1" d="M 3573.32 2040.24 C 3573.21 2040.24 3573.11 2040.33 3573.11 2040.44 C 3569.05 2057.91 3566.94 2070.74 3571.57 2077.46 C 3576.36 2084.27 3590.04 2087.11 3642.16 2089.9 C 3673.08 2091.55 3715.98 2093.34 3754.13 2093.34 C 3756.11 2093.34 3758.05 2093.34 3759.99 2093.3 C 3781.32 2093.21 3800.69 2092.48 3815.19 2090.86 C 3854.8 2086.48 3854.36 2076.22 3853.82 2071.34 C 3853.82 2071.3 3853.82 2071.27 3853.82 2071.23 C 3853.82 2071.23 3853.82 2071.23 3853.82 2071.15 C 3853.82 2071.1 3853.79 2071.1 3853.79 2071.07 C 3853.79 2071.07 3853.79 2071.07 3853.79 2070.99 C 3853.79 2070.78 3853.75 2070.47 3853.71 2070.22 L 3853.71 2070.18 C 3852.57 2062.11 3848.26 2054.86 3842.72 2046.59 C 3842.68 2046.52 3842.6 2046.47 3842.51 2046.47 L 3842.43 2046.47 C 3831.95 2049.21 3816.66 2050.62 3792.88 2050.72 C 3791.83 2050.72 3790.78 2050.72 3789.69 2050.72 C 3789.26 2050.72 3788.84 2050.72 3788.46 2050.72 C 3740.45 2050.66 3657.41 2045.54 3573.36 2040.24 C 3573.36 2040.24 3573.36 2040.24 3573.32 2040.24 Z M 3573.32 2040.24" style=""/>
  <path fill-rule="nonzero" fill="rgb(50.976562%, 69.726562%, 62.693787%)" fill-opacity="1" d="M 1261.07 2014.21 C 1260.87 2014.21 1260.7 2014.34 1260.69 2014.52 L 1257.61 2033.57 C 1257.15 2036.67 1254.46 2038.99 1251.28 2038.99 C 1251.24 2038.99 1251.2 2038.99 1251.16 2038.97 L 1251.16 2038.99 C 1249.85 2038.96 1248.62 2038.93 1247.43 2038.93 C 1247.27 2038.93 1247.14 2038.93 1247.02 2038.93 C 1239.36 2038.97 1236.03 2040.11 1234.18 2044.24 L 1234.18 2044.27 C 1230.89 2051.68 1231.56 2068.38 1238.22 2078.23 C 1244.1 2086.94 1255.58 2091.34 1288.02 2093.27 C 1308.16 2094.44 1335.2 2094.71 1361.21 2094.71 C 1370.65 2094.71 1380 2094.67 1388.78 2094.65 C 1393.89 2094.61 1398.88 2094.59 1403.52 2094.59 C 1406.7 2094.55 1409.77 2094.55 1412.75 2094.55 C 1436.5 2094.55 1453.06 2094.79 1468.26 2095.02 C 1468.44 2095.02 1468.52 2094.97 1468.62 2094.86 C 1468.7 2094.75 1468.7 2094.65 1468.66 2094.51 L 1468.66 2094.45 C 1462.95 2078.54 1459.19 2061.8 1457.62 2044.64 C 1457.62 2044.38 1457.46 2044.24 1457.24 2044.22 C 1410.58 2041.09 1364.07 2037.89 1331.65 2033.5 C 1297.91 2028.93 1279.02 2023.05 1261.25 2014.23 L 1261.11 2014.21 L 1261.07 2014.21 Z M 1261.07 2014.21" style=""/>
  <path fill-rule="nonzero" fill="rgb(49.021912%, 49.021912%, 49.021912%)" fill-opacity="1" d="M 2288.38 1713.75 C 2287.86 1713.75 2287.45 1713.75 2286.94 1713.75 C 2274.45 1713.79 2263.26 1714.65 2255.59 1716.33 C 2239.92 1719.77 2240.78 1725.44 2241.56 1730.54 L 2241.59 1730.67 C 2242.53 1736.76 2244.33 1741.18 2254.43 1743.52 C 2260.61 1744.92 2269.58 1745.46 2280.49 1745.46 C 2281.09 1745.46 2281.58 1745.46 2282.22 1745.46 C 2286.66 1745.43 2291.35 1745.33 2296.13 1745.2 L 2296.17 1745.2 L 2296.21 1745.1 C 2293.4 1741.39 2291.01 1737.02 2290.32 1731.99 C 2289.5 1726.03 2291.19 1719.66 2293.32 1713.87 L 2293.28 1713.79 C 2291.64 1713.75 2290 1713.75 2288.38 1713.75 Z M 2288.38 1713.75" style=""/>
  <path fill-rule="nonzero" fill="rgb(49.021912%, 49.021912%, 49.021912%)" fill-opacity="1" d="M 2308.28 1714.35 L 2308.21 1714.38 C 2305.37 1721.35 2303.69 1726.36 2304.2 1730.09 C 2304.74 1734.06 2307.95 1737.69 2313.63 1743.5 C 2313.9 1743.78 2314.19 1744.12 2314.42 1744.42 L 2314.53 1744.36 L 2314.45 1744.46 C 2329.03 1743.27 2342.76 1742.09 2353.63 1739.25 C 2364.04 1736.56 2367.94 1733.4 2368.56 1732.16 L 2368.59 1732.09 C 2368.3 1730.52 2362.3 1722.55 2336.71 1717.75 C 2328.45 1716.18 2318.54 1714.99 2308.32 1714.35 L 2308.36 1714.38 L 2308.28 1714.35 Z M 2308.28 1714.35" style=""/>
  <path fill-rule="nonzero" fill="rgb(46.263123%, 46.263123%, 46.263123%)" fill-opacity="1" d="M 2905.8 1608.78 L 2905.73 1608.89 C 2910.73 1617.5 2913.22 1627.33 2915.21 1636.42 L 2915.3 1636.47 L 2944.99 1641.48 L 2945.06 1641.39 L 2945.06 1641.33 C 2936.17 1631.81 2923.94 1621.21 2905.87 1608.78 L 2905.8 1608.78 Z M 2905.8 1608.78" style=""/>
  <path fill-rule="nonzero" fill="rgb(46.263123%, 46.263123%, 46.263123%)" fill-opacity="1" d="M 2912.72 1674.79 L 2912.67 1674.79 C 2907.77 1676.8 2902.03 1678.82 2893.06 1679.96 C 2889.49 1680.41 2885.38 1680.75 2880.7 1680.96 L 2880.7 1681 L 2880.74 1681.04 L 2880.74 1681 L 2899.53 1681.7 L 2937.21 1682.95 L 2937.25 1682.9 L 2912.76 1674.79 L 2912.72 1674.79 Z M 2912.72 1674.79" style=""/>
  <path fill-rule="nonzero" fill="rgb(22.363281%, 14.892578%, 14.892578%)" fill-opacity="1" d="M 1665.83 1875.51 C 1675.92 1875.51 1686.12 1876.55 1696.37 1878.72 C 1776.24 1895.5 1827.38 1973.84 1810.58 2053.69 C 1795.95 2123.29 1734.56 2171.07 1666.14 2171.07 C 1656.09 2171.07 1645.88 2170.02 1635.64 2167.89 C 1555.78 2151.11 1504.64 2072.76 1521.39 1992.94 C 1536.02 1923.31 1597.41 1875.51 1665.83 1875.51 Z M 1665.88 1834.47 C 1574.38 1834.47 1492.93 1896.66 1473.89 1987.31 C 1451.94 2091.69 1520.97 2194.82 1628.42 2217.4 C 1642.56 2220.37 1656.62 2221.74 1670.53 2221.74 C 1762 2221.74 1843.45 2159.6 1862.51 2068.94 C 1884.43 1964.56 1815.43 1861.43 1707.94 1838.86 C 1693.83 1835.89 1679.72 1834.47 1665.88 1834.47 Z M 1665.88 1834.47" style=""/>
  <path fill-rule="nonzero" fill="rgb(22.363281%, 14.892578%, 14.892578%)" fill-opacity="1" d="M 3336.57 1867.91 C 3345.32 1867.91 3354.18 1868.72 3363.09 1870.33 C 3441.41 1884.9 3493.11 1960.17 3478.6 2038.5 C 3465.71 2107.93 3405.08 2156.44 3336.93 2156.44 C 3328.19 2156.44 3319.34 2155.67 3310.43 2154.02 C 3232.11 2139.44 3180.37 2064.19 3194.9 1985.86 C 3207.81 1916.42 3268.44 1867.91 3336.57 1867.91 Z M 3336.93 1828.98 C 3246.31 1828.98 3166.33 1891.8 3149.66 1981.67 C 3130.77 2083.35 3200.01 2181.82 3304.77 2201.24 C 3316.96 2203.46 3329.09 2204.59 3341.08 2204.59 C 3431.71 2204.59 3511.7 2141.83 3528.33 2051.94 C 3547.22 1950.26 3477.97 1851.8 3373.23 1832.37 C 3361.03 1830.14 3348.9 1828.98 3336.93 1828.98 Z M 3336.93 1828.98" style=""/>
  <path fill-rule="nonzero" fill="rgb(27.830505%, 27.830505%, 27.830505%)" fill-opacity="1" d="M 1665.53 1903.83 C 1673.64 1903.83 1681.89 1904.66 1690.13 1906.38 C 1754.49 1919.91 1795.7 1983.02 1782.17 2047.33 C 1770.4 2103.43 1720.92 2141.92 1665.79 2141.92 C 1657.7 2141.92 1649.47 2141.08 1641.21 2139.35 C 1576.88 2125.83 1535.67 2062.75 1549.19 1998.42 C 1560.97 1942.32 1610.43 1903.83 1665.53 1903.83 Z M 1665.88 1888.8 C 1603.59 1888.8 1547.71 1932.3 1534.41 1995.65 C 1519.14 2068.36 1565.7 2139.62 1638.35 2154.89 C 1647.68 2156.84 1656.96 2157.8 1666.14 2157.8 C 1728.42 2157.8 1784.25 2114.27 1797.6 2050.92 C 1812.85 1978.3 1766.29 1906.96 1693.63 1891.7 C 1684.32 1889.72 1675 1888.8 1665.88 1888.8 Z M 1665.88 1888.8" style=""/>
  <path fill-rule="nonzero" fill="rgb(27.830505%, 27.830505%, 27.830505%)" fill-opacity="1" d="M 1666.49 1988.25 C 1667.95 1988.25 1669.37 1988.32 1670.83 1988.54 C 1688.95 1990.9 1701.74 2007.53 1699.36 2025.62 C 1697.18 2042.31 1682.95 2054.44 1666.58 2054.44 C 1665.17 2054.44 1663.73 2054.36 1662.25 2054.18 C 1644.13 2051.82 1631.32 2035.18 1633.7 2017.05 C 1635.89 2000.4 1650.12 1988.25 1666.49 1988.25 Z M 1636.61 1921.8 L 1636.56 1921.8 C 1633.74 1922.61 1630.99 1923.55 1628.24 1924.57 C 1628.16 1924.61 1628.16 1924.67 1628.16 1924.75 C 1628.16 1924.78 1628.2 1924.78 1628.2 1924.82 C 1633.2 1939.3 1638.43 1955.45 1636.27 1970.82 C 1633.96 1987.53 1623.04 2002.98 1607.76 2010.34 C 1597.5 2015.32 1585.8 2016.4 1574.53 2016.48 C 1574.23 2016.48 1573.9 2016.48 1573.6 2016.48 C 1569.38 2016.48 1565.06 2016.34 1560.89 2016.18 L 1560.85 2016.18 C 1560.81 2016.18 1560.77 2016.21 1560.73 2016.21 C 1560.7 2016.25 1560.7 2016.26 1560.7 2016.3 C 1560.55 2018.77 1560.47 2021.23 1560.47 2023.66 C 1560.47 2023.71 1560.51 2023.74 1560.51 2023.77 C 1560.55 2023.81 1560.59 2023.81 1560.63 2023.81 C 1575.51 2025.38 1591.88 2027.18 1605.35 2034 L 1605.4 2034 C 1619.56 2041.09 1630.47 2053.61 1634.34 2070.52 C 1637.88 2086.12 1635.23 2105.11 1632.68 2122.63 C 1632.64 2122.67 1632.68 2122.69 1632.69 2122.73 C 1632.73 2122.77 1632.77 2122.77 1632.82 2122.77 L 1632.77 2122.77 C 1634.03 2123.2 1635.27 2123.56 1636.49 2123.91 C 1636.52 2123.91 1636.52 2123.91 1636.52 2123.91 C 1636.56 2123.91 1636.61 2123.91 1636.65 2123.87 C 1636.65 2123.87 1636.69 2123.87 1636.69 2123.85 C 1644.04 2108.7 1652.12 2092.48 1663.5 2081.17 C 1674.14 2070.56 1687.8 2064.05 1702.32 2064 C 1702.41 2064 1702.49 2064 1702.56 2064 C 1704.48 2064 1706.38 2064.11 1708.33 2064.35 C 1723.34 2066.1 1738.18 2075.05 1751.57 2083.35 C 1751.57 2083.4 1751.61 2083.4 1751.65 2083.4 C 1751.65 2083.4 1751.69 2083.4 1751.72 2083.35 C 1751.72 2083.35 1751.76 2083.35 1751.76 2083.31 C 1752.46 2082.35 1753.12 2081.36 1753.77 2080.36 C 1753.8 2080.36 1753.82 2080.32 1753.82 2080.28 C 1753.86 2080.22 1753.86 2080.2 1753.8 2080.17 C 1743.07 2070.14 1731.18 2059.17 1724.31 2045.15 C 1717.27 2030.75 1715.54 2013.47 1720.73 1997.41 C 1725.65 1982.28 1736.63 1968.66 1746.81 1956.24 L 1746.81 1956.26 C 1746.85 1956.24 1746.89 1956.2 1746.89 1956.16 C 1746.93 1956.11 1746.89 1956.05 1746.89 1956.04 C 1745.95 1954.93 1745.01 1953.83 1744.05 1952.76 L 1743.97 1952.68 L 1743.93 1952.68 L 1743.86 1952.76 C 1732.64 1961.73 1720.01 1971.4 1705.16 1974.63 C 1701.35 1975.46 1697.45 1975.88 1693.59 1975.88 C 1693.51 1975.88 1693.41 1975.88 1693.34 1975.88 C 1680.52 1975.88 1667.32 1971.67 1657.85 1963.29 C 1645.95 1952.76 1641.04 1936.29 1636.88 1922.28 L 1636.75 1921.92 L 1636.61 1921.8 Z M 1636.61 1921.8" style=""/>
  <path fill-rule="nonzero" fill="rgb(27.830505%, 27.830505%, 27.830505%)" fill-opacity="1" d="M 3336.31 1895.88 C 3343.29 1895.88 3350.42 1896.56 3357.55 1897.83 C 3420.48 1909.53 3461.99 1970 3450.33 2032.92 C 3440 2088.67 3391.31 2127.62 3336.57 2127.62 C 3329.56 2127.62 3322.43 2126.98 3315.29 2125.67 C 3252.38 2113.99 3210.85 2053.5 3222.5 1990.62 C 3232.87 1934.83 3281.53 1895.88 3336.31 1895.88 Z M 3336.6 1881.45 C 3274.83 1881.45 3219.89 1925.41 3208.22 1988.32 C 3195.09 2059.33 3241.92 2127.49 3312.92 2140.67 C 3320.97 2142.19 3328.97 2142.94 3336.9 2142.94 C 3398.67 2142.94 3453.61 2098.94 3465.29 2036.04 C 3478.45 1965.06 3431.58 1896.82 3360.59 1883.65 C 3352.53 1882.12 3344.53 1881.45 3336.6 1881.45 Z M 3336.6 1881.45" style=""/>
  <path fill-rule="nonzero" fill="rgb(27.830505%, 27.830505%, 27.830505%)" fill-opacity="1" d="M 3337.2 1978 C 3338.33 1978 3339.51 1978.05 3340.68 1978.19 C 3358.37 1980.09 3371.2 1995.99 3369.32 2013.71 C 3367.56 2030.23 3353.54 2042.54 3337.28 2042.54 C 3336.15 2042.54 3334.99 2042.47 3333.82 2042.31 C 3316.11 2040.44 3303.29 2024.53 3305.15 2006.79 C 3306.94 1990.3 3320.94 1978 3337.2 1978 Z M 3305.82 1914.2 L 3305.78 1914.2 C 3303.08 1915.05 3300.41 1916.02 3297.79 1917.09 L 3297.83 1917.22 L 3297.79 1917.22 C 3302.98 1931.21 3308.48 1946.76 3306.71 1961.81 C 3304.81 1978.19 3294.54 1993.44 3279.85 2001 C 3268.56 2006.73 3255.23 2007.69 3242.71 2007.74 C 3242.26 2007.74 3241.84 2007.74 3241.39 2007.74 C 3239.04 2007.74 3236.69 2007.72 3234.36 2007.72 L 3234.32 2007.72 L 3234.24 2007.74 L 3234.24 2007.79 C 3234.17 2010.18 3234.14 2012.57 3234.2 2014.9 L 3234.28 2014.98 L 3234.32 2014.98 C 3248.84 2016.21 3264.81 2017.61 3278.07 2023.9 C 3292.02 2030.5 3302.94 2042.46 3307.13 2058.8 C 3310.92 2073.89 3308.78 2092.45 3306.68 2109.51 L 3306.75 2109.59 C 3307.97 2109.96 3309.16 2110.31 3310.39 2110.63 L 3310.47 2110.56 L 3310.5 2110.56 C 3317.32 2095.68 3324.82 2079.72 3335.64 2068.46 C 3345.98 2057.6 3359.53 2050.88 3374.12 2050.82 C 3374.2 2050.82 3374.27 2050.82 3374.36 2050.82 C 3375.84 2050.82 3377.36 2050.88 3378.88 2051.06 C 3393.53 2052.41 3408.18 2060.79 3421.37 2068.56 L 3421.49 2068.53 L 3421.49 2068.5 L 3421.49 2068.53 C 3422.17 2067.55 3422.76 2066.59 3423.36 2065.61 L 3423.4 2065.5 C 3412.71 2056.04 3400.93 2045.6 3393.92 2032.07 C 3386.71 2018.29 3384.66 2001.48 3389.32 1985.71 C 3393.75 1970.85 3404.14 1957.37 3413.76 1945.05 L 3413.76 1945.1 L 3413.79 1944.95 C 3412.88 1943.87 3411.99 1942.85 3411.01 1941.84 L 3410.91 1941.8 L 3410.84 1941.8 C 3400.21 1950.86 3388.17 1960.51 3373.74 1964.04 C 3369.63 1965.02 3365.39 1965.52 3361.18 1965.52 C 3361.06 1965.52 3361.03 1965.52 3360.9 1965.52 C 3348.9 1965.52 3336.52 1961.69 3327.44 1954.03 C 3315.58 1944.03 3310.43 1928.15 3306.05 1914.61 C 3306.01 1914.5 3305.94 1914.38 3305.94 1914.28 L 3305.86 1914.2 L 3305.82 1914.2 Z M 3305.82 1914.2" style=""/>
</svg>