<?xml version="1.0" encoding="UTF-8"?>
<svg xmlns="http://www.w3.org/2000/svg" xmlns:xlink="http://www.w3.org/1999/xlink" width="5000" height="3000" viewBox="0 0 5000 3000">

<path fill-rule="evenodd" fill="rgb(0%, 0%, 0%)" fill-opacity="1" d="M 535.964844 2157.011719 C 558.90625 2185.671875 597.480469 2200.777344 646.917969 2206.015625 L 646.917969 2235.230469 C 646.917969 2237.726562 648.160156 2240.058594 650.230469 2241.453125 C 652.300781 2242.847656 654.929688 2243.117188 657.242188 2242.175781 L 702.316406 2223.847656 C 705.140625 2222.695312 706.988281 2219.949219 706.988281 2216.898438 L 706.988281 2152.816406 L 708.9375 2152.574219 C 743.390625 2262.148438 824.773438 2351.011719 929.492188 2395.570312 L 701.046875 2395.570312 C 692.765625 2395.570312 686.046875 2402.289062 686.046875 2410.570312 C 686.046875 2418.847656 692.765625 2425.570312 701.046875 2425.570312 L 1053.441406 2425.570312 C 1063.011719 2426.273438 1072.699219 2426.628906 1082.460938 2426.628906 C 1092.230469 2426.628906 1101.910156 2426.273438 1111.480469 2425.570312 L 1669.171875 2425.570312 C 1677.441406 2425.570312 1684.171875 2418.847656 1684.171875 2410.570312 C 1684.171875 2402.289062 1677.441406 2395.570312 1669.171875 2395.570312 L 1235.429688 2395.570312 C 1331.140625 2354.847656 1407.359375 2277.113281 1446.070312 2180.382812 C 1460.828125 2175.613281 1475.179688 2169.226562 1489.101562 2161.074219 C 1487.75 2165.417969 1486.339844 2169.734375 1484.859375 2174.023438 C 1481.960938 2182.402344 1486.410156 2191.554688 1494.789062 2194.449219 C 1498.5 2195.730469 1502.371094 2195.570312 1505.769531 2194.269531 L 3672.171875 2194.269531 C 3675.03125 2195.367188 3678.230469 2195.652344 3681.390625 2194.949219 L 3743.988281 2204.230469 C 3785.101562 2289.855469 3856.441406 2358.253906 3944.140625 2395.570312 L 3628.328125 2395.570312 C 3620.050781 2395.570312 3613.328125 2402.289062 3613.328125 2410.570312 C 3613.328125 2418.847656 3620.050781 2425.570312 3628.328125 2425.570312 L 4068.089844 2425.570312 C 4077.660156 2426.273438 4087.339844 2426.628906 4097.109375 2426.628906 C 4106.878906 2426.628906 4116.558594 2426.273438 4126.128906 2425.570312 L 4596.449219 2425.570312 C 4604.730469 2425.570312 4611.449219 2418.847656 4611.449219 2410.570312 C 4611.449219 2402.289062 4604.730469 2395.570312 4596.449219 2395.570312 L 4250.078125 2395.570312 C 4382.109375 2339.390625 4477.050781 2212.773438 4487.601562 2063.003906 C 4501.339844 2062.945312 4512.691406 2069.222656 4521.75 2081.628906 C 4520.878906 2089.585938 4519.800781 2097.480469 4518.511719 2105.300781 C 4517.058594 2114.046875 4522.988281 2122.320312 4531.730469 2123.769531 C 4535.691406 2124.421875 4539.539062 2123.570312 4542.71875 2121.632812 C 4600.140625 2110.765625 4659.089844 2091.339844 4712.601562 2068.355469 C 4718.011719 2066.035156 4721.558594 2060.765625 4721.679688 2054.882812 C 4724.058594 1938.441406 4753.160156 1827.199219 4722.679688 1717.128906 C 4721.679688 1713.519531 4719.359375 1710.410156 4716.179688 1708.421875 C 4678.289062 1684.691406 4648.589844 1656.898438 4627.179688 1624.921875 C 4650.78125 1526 4643.109375 1406.488281 4604.550781 1311.839844 C 4578.050781 1246.789062 4536.941406 1193.511719 4482.101562 1165.339844 L 4215.011719 839.800781 C 4247.140625 834.109375 4298.539062 825.011719 4298.539062 825.011719 C 4305.410156 823.789062 4310.53125 818 4310.898438 811.03125 C 4311.539062 799.019531 4303.328125 785.371094 4282.101562 774.78125 C 4249.070312 758.300781 4178.890625 743.96875 4082.839844 732.46875 C 4042.480469 727.640625 3997.46875 723.25 3948.679688 719.28125 C 3939.730469 698.371094 3925.46875 683.269531 3908.410156 673.871094 L 3925.070312 590.910156 C 3925.890625 586.851562 3923.261719 582.890625 3919.199219 582.078125 C 3915.140625 581.261719 3911.179688 583.898438 3910.371094 587.949219 L 3894.359375 667.609375 C 3853.488281 653.328125 3801.980469 667.070312 3767.46875 707.320312 C 3290.390625 681.878906 2615.359375 686.300781 2285.390625 714.179688 C 2212.101562 720.371094 2155.628906 727.769531 2121.75 736.179688 C 2105.039062 740.328125 2093.238281 745.050781 2086.609375 749.640625 C 1909.371094 872.460938 1732.121094 1009.050781 1554.871094 1162.878906 C 1027.039062 1195.859375 599.324219 1291.03125 374.769531 1509.121094 C 344.339844 1538.679688 321.261719 1595.640625 308.769531 1665.898438 C 290.851562 1766.691406 293.824219 1895.148438 322.882812 2004.347656 C 321.683594 2006.257812 318.761719 2010.753906 316.058594 2013.761719 C 306.179688 2024.765625 290.835938 2037.003906 279.117188 2042.351562 C 267.191406 2047.796875 261.203125 2063.046875 264.027344 2077.929688 C 266.675781 2091.90625 276.53125 2103.042969 288.605469 2104.828125 C 368.632812 2133.957031 451.226562 2150.695312 535.964844 2157.011719 Z M 3473.390625 2425.570312 L 3578.230469 2425.570312 C 3586.511719 2425.570312 3593.230469 2418.847656 3593.230469 2410.570312 C 3593.230469 2402.289062 3586.511719 2395.570312 3578.230469 2395.570312 L 3473.390625 2395.570312 C 3465.109375 2395.570312 3458.390625 2402.289062 3458.390625 2410.570312 C 3458.390625 2418.847656 3465.109375 2425.570312 3473.390625 2425.570312 Z M 546.109375 2425.570312 L 650.949219 2425.570312 C 659.230469 2425.570312 665.949219 2418.847656 665.949219 2410.570312 C 665.949219 2402.289062 659.230469 2395.570312 650.949219 2395.570312 L 546.109375 2395.570312 C 537.832031 2395.570312 531.109375 2402.289062 531.109375 2410.570312 C 531.109375 2418.847656 537.832031 2425.570312 546.109375 2425.570312 Z M 4097.109375 1675.808594 C 4295.441406 1675.808594 4456.460938 1836.828125 4456.460938 2035.160156 C 4456.460938 2233.488281 4295.441406 2394.507812 4097.109375 2394.507812 C 3898.78125 2394.507812 3737.761719 2233.488281 3737.761719 2035.160156 C 3737.761719 1836.828125 3898.78125 1675.808594 4097.109375 1675.808594 Z M 1082.460938 1675.808594 C 1280.789062 1675.808594 1441.808594 1836.828125 1441.808594 2035.160156 C 1441.808594 2233.488281 1280.789062 2394.507812 1082.460938 2394.507812 C 884.132812 2394.507812 723.117188 2233.488281 723.117188 2035.160156 C 723.117188 1836.828125 884.132812 1675.808594 1082.460938 1675.808594 Z M 962.246094 1770.921875 C 816.40625 1837.269531 751.875 2009.542969 818.226562 2155.378906 C 884.574219 2301.214844 1056.839844 2365.746094 1202.679688 2299.398438 C 1348.519531 2233.046875 1413.050781 2060.777344 1346.699219 1914.941406 C 1280.351562 1769.109375 1108.078125 1704.570312 962.246094 1770.921875 Z M 4124.011719 1746.109375 C 3964.480469 1731.261719 3822.910156 1848.730469 3808.058594 2008.261719 C 3793.210938 2167.792969 3910.679688 2309.363281 4070.210938 2324.210938 C 4229.738281 2339.058594 4371.308594 2221.589844 4386.160156 2062.058594 C 4401.011719 1902.53125 4283.539062 1760.960938 4124.011719 1746.109375 Z M 1115.390625 2156.121094 C 1096.238281 2161.355469 1076.578125 2161.820312 1057.898438 2158.066406 L 1019.699219 2287.738281 C 1065.648438 2299.203125 1115 2298.253906 1162.398438 2282.902344 Z M 4160.628906 2143.210938 C 4144.210938 2152.882812 4125.480469 2158.894531 4105.671875 2160.230469 L 4102.851562 2295.417969 C 4152.671875 2294.371094 4199.589844 2279.082031 4239.25 2253.179688 Z M 4084.921875 2131.828125 L 4058.210938 2292.542969 C 4063.078125 2293.277344 4068.011719 2293.878906 4072.988281 2294.339844 C 4077.96875 2294.804688 4082.929688 2295.121094 4087.851562 2295.300781 L 4091.25 2132.417969 C 4090.199219 2132.472656 4089.140625 2132.453125 4088.058594 2132.355469 C 4086.988281 2132.253906 4085.941406 2132.078125 4084.921875 2131.828125 Z M 4014.75 2129.636719 L 3917.179688 2223.210938 C 3951.378906 2255.980469 3994.671875 2279.667969 4043.441406 2289.886719 L 4065.609375 2156.503906 C 4046.390625 2151.53125 4029.101562 2142.171875 4014.75 2129.636719 Z M 1045.320312 2125.238281 L 977.378906 2273.253906 C 986.464844 2277.257812 995.769531 2280.742188 1005.25 2283.695312 L 1051.28125 2127.46875 C 1050.25 2127.246094 1049.230469 2126.949219 1048.21875 2126.570312 C 1047.210938 2126.191406 1046.238281 2125.746094 1045.320312 2125.238281 Z M 1125.691406 2122.484375 C 1124.800781 2123.050781 1123.871094 2123.5625 1122.890625 2124.011719 C 1121.898438 2124.457031 1120.910156 2124.824219 1119.898438 2125.117188 L 1176.53125 2277.875 C 1181.128906 2276.089844 1185.710938 2274.160156 1190.261719 2272.089844 C 1194.808594 2270.019531 1199.269531 2267.835938 1203.628906 2265.542969 Z M 978.164062 2104.714844 L 859.429688 2169.40625 C 885.078125 2212.128906 921.65625 2245.261719 963.832031 2266.8125 L 1020.230469 2143.953125 C 1003.679688 2134.511719 989.164062 2121.242188 978.164062 2104.714844 Z M 1191.261719 2097.394531 C 1181.808594 2113.941406 1168.550781 2128.460938 1152.019531 2139.460938 L 1216.710938 2258.195312 C 1259.429688 2232.542969 1292.558594 2195.96875 1314.121094 2153.789062 Z M 4161.738281 2108.074219 C 4161.039062 2108.855469 4160.269531 2109.59375 4159.441406 2110.28125 C 4158.609375 2110.972656 4157.738281 2111.589844 4156.851562 2112.136719 L 4251.570312 2244.621094 C 4259.550781 2238.726562 4267.199219 2232.378906 4274.46875 2225.617188 Z M 661.988281 2158.464844 L 661.96875 2158.476562 L 661.917969 2158.503906 L 661.917969 2224.082031 L 691.988281 2211.851562 L 691.988281 2154.699219 Z M 4218.449219 2066.65625 C 4213.480469 2085.878906 4204.121094 2103.175781 4191.589844 2117.523438 L 4285.160156 2215.085938 C 4317.929688 2180.894531 4341.621094 2137.597656 4351.839844 2088.828125 Z M 4020.140625 2094.894531 L 3887.648438 2189.617188 C 3893.539062 2197.605469 3899.890625 2205.253906 3906.648438 2212.523438 L 4024.199219 2099.789062 C 4023.410156 2099.089844 4022.679688 2098.320312 4021.988281 2097.492188 C 4021.300781 2096.660156 4020.679688 2095.792969 4020.140625 2094.894531 Z M 557.898438 2158.414062 C 578.820312 2176.984375 609.515625 2186.820312 646.917969 2190.933594 L 646.917969 2159.527344 C 617.007812 2160.328125 587.332031 2159.984375 557.898438 2158.414062 Z M 3836.851562 2040.902344 C 3837.898438 2090.71875 3853.191406 2137.644531 3879.089844 2177.296875 L 3989.058594 2098.675781 C 3979.390625 2082.261719 3973.378906 2063.535156 3972.039062 2043.726562 Z M 4488.570312 2032.75 C 4501.730469 2032.601562 4513.609375 2035.863281 4524.191406 2042.589844 C 4524.230469 2040.117188 4524.25 2037.640625 4524.25 2035.160156 C 4524.25 1799.410156 4332.851562 1608.019531 4097.109375 1608.019531 C 3861.359375 1608.019531 3669.96875 1799.410156 3669.96875 2035.160156 C 3669.96875 2080.773438 3677.128906 2124.730469 3690.398438 2165.957031 L 3730.210938 2171.859375 C 3714.320312 2129.28125 3705.640625 2083.226562 3705.640625 2035.160156 C 3705.640625 1819.101562 3881.050781 1643.691406 4097.109375 1643.691406 C 4312.371094 1643.691406 4487.28125 1817.808594 4488.570312 2032.75 Z M 3637.910156 2042.773438 L 3547.191406 2043.425781 C 3546.160156 2043.828125 3545.03125 2044.027344 3543.851562 2043.964844 C 3543 2043.921875 3542.191406 2043.75 3541.441406 2043.464844 L 3134.578125 2046.382812 C 3134.488281 2046.386719 3134.398438 2046.386719 3134.300781 2046.382812 L 1720.679688 2056.515625 C 1720.621094 2056.515625 1720.558594 2056.515625 1720.5 2056.515625 L 1650.730469 2057.015625 L 1539.628906 2057.8125 C 1537.828125 2094.597656 1531.679688 2130.25 1521.691406 2164.269531 L 3656.28125 2164.269531 C 3644.960938 2125.628906 3638.589844 2084.886719 3637.910156 2042.773438 Z M 992.507812 2072.59375 L 839.75 2129.230469 C 841.535156 2133.824219 843.460938 2138.402344 845.53125 2142.953125 C 847.601562 2147.507812 849.789062 2151.96875 852.078125 2156.332031 L 995.140625 2078.382812 C 994.570312 2077.5 994.058594 2076.566406 993.613281 2075.585938 C 993.164062 2074.601562 992.796875 2073.601562 992.507812 2072.59375 Z M 1102.769531 1926.710938 C 1087.140625 1923.761719 1070.769531 1924.160156 1054.769531 1928.328125 L 1061.769531 1947.21875 C 1065.601562 1949.398438 1068.800781 1952.761719 1070.761719 1957.070312 C 1075.71875 1967.960938 1070.898438 1980.839844 1060 1985.789062 C 1049.109375 1990.75 1036.238281 1985.929688 1031.28125 1975.03125 C 1029.320312 1970.71875 1028.890625 1966.101562 1029.761719 1961.78125 L 1020.121094 1944.089844 C 1006.46875 1953.421875 995.410156 1965.5 987.363281 1979.210938 L 1005.648438 1987.609375 C 1009.898438 1986.441406 1014.539062 1986.550781 1018.96875 1988.210938 C 1030.179688 1992.410156 1035.871094 2004.925781 1031.671875 2016.132812 C 1027.480469 2027.34375 1014.960938 2033.035156 1003.75 2028.835938 C 999.320312 2027.175781 995.746094 2024.210938 993.308594 2020.542969 L 974.007812 2014.855469 C 971.066406 2030.480469 971.464844 2046.851562 975.628906 2062.855469 L 994.519531 2055.851562 C 996.699219 2052.023438 1000.058594 2048.820312 1004.371094 2046.859375 C 1015.269531 2041.902344 1028.140625 2046.722656 1033.101562 2057.621094 C 1038.050781 2068.515625 1033.230469 2081.386719 1022.339844 2086.34375 C 1018.03125 2088.304688 1013.398438 2088.734375 1009.089844 2087.863281 L 991.394531 2097.503906 C 1000.71875 2111.15625 1012.800781 2122.214844 1026.511719 2130.261719 L 1034.910156 2111.976562 C 1033.738281 2107.726562 1033.859375 2103.085938 1035.519531 2098.652344 C 1039.71875 2087.441406 1052.230469 2081.75 1063.441406 2085.949219 C 1074.648438 2090.148438 1080.339844 2102.660156 1076.140625 2113.867188 C 1074.480469 2118.304688 1071.519531 2121.875 1067.851562 2124.3125 L 1062.160156 2143.613281 C 1077.78125 2146.558594 1094.148438 2146.15625 1110.160156 2141.992188 L 1103.148438 2123.101562 C 1099.328125 2120.921875 1096.121094 2117.5625 1094.160156 2113.25 C 1089.210938 2102.355469 1094.03125 2089.484375 1104.921875 2084.527344 C 1115.820312 2079.570312 1128.691406 2084.390625 1133.648438 2095.285156 C 1135.609375 2099.597656 1136.039062 2104.21875 1135.171875 2108.535156 L 1144.808594 2126.230469 C 1158.460938 2116.902344 1169.519531 2104.824219 1177.558594 2091.109375 L 1159.28125 2082.714844 C 1155.03125 2083.878906 1150.390625 2083.765625 1145.960938 2082.105469 C 1134.738281 2077.90625 1129.050781 2065.394531 1133.25 2054.1875 C 1137.449219 2042.976562 1149.960938 2037.285156 1161.171875 2041.484375 C 1165.609375 2043.144531 1169.179688 2046.109375 1171.621094 2049.777344 L 1190.921875 2055.464844 C 1193.859375 2039.839844 1193.460938 2023.46875 1189.300781 2007.464844 L 1170.410156 2014.472656 C 1168.230469 2018.296875 1164.871094 2021.5 1160.550781 2023.460938 C 1149.660156 2028.417969 1136.789062 2023.597656 1131.828125 2012.699219 C 1126.871094 2001.804688 1131.691406 1988.929688 1142.589844 1983.980469 C 1146.898438 1982.011719 1151.519531 1981.578125 1155.839844 1982.460938 L 1173.53125 1972.808594 C 1164.210938 1959.160156 1152.128906 1948.109375 1138.410156 1940.058594 L 1130.019531 1958.351562 C 1131.179688 1962.589844 1131.070312 1967.230469 1129.410156 1971.671875 C 1125.210938 1982.878906 1112.699219 1988.570312 1101.488281 1984.371094 C 1090.28125 1980.171875 1084.589844 1967.660156 1088.789062 1956.449219 C 1090.449219 1952.019531 1093.410156 1948.441406 1097.078125 1946.011719 Z M 4088.230469 1925.148438 C 4071.75 1926.46875 4056.148438 1931.460938 4042.359375 1939.359375 L 4054.058594 1955.730469 C 4058.328125 1956.828125 4062.300781 1959.230469 4065.320312 1962.878906 C 4072.960938 1972.089844 4071.691406 1985.78125 4062.480469 1993.421875 C 4053.269531 2001.066406 4039.578125 1999.789062 4031.941406 1990.578125 C 4028.910156 1986.929688 4027.28125 1982.589844 4026.988281 1978.191406 L 4013.058594 1963.671875 C 4002.75 1975.769531 3994.960938 1990.179688 3990.628906 2006.132812 L 4010.5 2009.4375 C 4014.300781 2007.199219 4018.808594 2006.089844 4023.519531 2006.527344 C 4035.441406 2007.636719 4044.21875 2018.214844 4043.109375 2030.136719 C 4042 2042.054688 4031.421875 2050.828125 4019.5 2049.722656 C 4014.78125 2049.28125 4010.558594 2047.359375 4007.25 2044.460938 L 3987.101562 2044.039062 C 3988.421875 2060.519531 3993.410156 2076.117188 4001.308594 2089.914062 L 4017.679688 2078.210938 C 4018.78125 2073.945312 4021.179688 2069.972656 4024.828125 2066.949219 C 4034.039062 2059.304688 4047.730469 2060.578125 4055.371094 2069.792969 C 4063.011719 2079.003906 4061.738281 2092.691406 4052.53125 2100.332031 C 4048.878906 2103.359375 4044.539062 2104.984375 4040.140625 2105.277344 L 4025.621094 2119.207031 C 4037.71875 2129.523438 4052.128906 2137.304688 4068.078125 2141.640625 L 4071.390625 2121.765625 C 4069.148438 2117.972656 4068.039062 2113.464844 4068.480469 2108.75 C 4069.589844 2096.828125 4080.160156 2088.054688 4092.078125 2089.160156 C 4104 2090.273438 4112.78125 2100.847656 4111.671875 2112.769531 C 4111.230469 2117.484375 4109.308594 2121.710938 4106.410156 2125.023438 L 4105.988281 2145.167969 C 4122.46875 2143.851562 4138.070312 2138.859375 4151.859375 2130.953125 L 4140.160156 2114.585938 C 4135.890625 2113.488281 4131.921875 2111.085938 4128.898438 2107.441406 C 4121.25 2098.226562 4122.53125 2084.542969 4131.738281 2076.898438 C 4140.949219 2069.253906 4154.640625 2070.527344 4162.28125 2079.742188 C 4165.308594 2083.386719 4166.941406 2087.730469 4167.230469 2092.128906 L 4181.160156 2106.648438 C 4191.46875 2094.550781 4199.25 2080.144531 4203.589844 2064.1875 L 4183.710938 2060.882812 C 4179.921875 2063.121094 4175.410156 2064.230469 4170.699219 2063.792969 C 4158.78125 2062.683594 4150 2052.105469 4151.109375 2040.1875 C 4152.21875 2028.265625 4162.800781 2019.488281 4174.71875 2020.597656 C 4179.429688 2021.039062 4183.660156 2022.960938 4186.96875 2025.859375 L 4207.121094 2026.28125 C 4205.800781 2009.800781 4200.808594 1994.199219 4192.898438 1980.410156 L 4176.539062 1992.109375 C 4175.441406 1996.371094 4173.039062 2000.347656 4169.390625 2003.371094 C 4160.179688 2011.015625 4146.488281 2009.742188 4138.851562 2000.527344 C 4131.210938 1991.320312 4132.480469 1977.628906 4141.691406 1969.988281 C 4145.339844 1966.960938 4149.679688 1965.328125 4154.078125 1965.039062 L 4168.601562 1951.109375 C 4156.5 1940.800781 4142.089844 1933.011719 4126.140625 1928.679688 L 4122.828125 1948.558594 C 4125.070312 1952.351562 4126.179688 1956.859375 4125.738281 1961.570312 C 4124.628906 1973.488281 4114.058594 1982.269531 4102.128906 1981.160156 C 4090.21875 1980.050781 4081.441406 1969.46875 4082.550781 1957.550781 C 4082.988281 1952.828125 4084.910156 1948.609375 4087.808594 1945.300781 Z M 1500.21875 2116.835938 C 1505.359375 2090.402344 1508.058594 2063.09375 1508.058594 2035.160156 C 1508.058594 1800.269531 1317.359375 1609.558594 1082.460938 1609.558594 C 847.570312 1609.558594 656.867188 1800.269531 656.867188 2035.160156 C 656.867188 2066.902344 660.347656 2097.835938 666.949219 2127.605469 L 700.980469 2123.335938 C 694.445312 2094.996094 690.992188 2065.480469 690.992188 2035.160156 C 690.992188 1819.101562 866.40625 1643.691406 1082.460938 1643.691406 C 1298.519531 1643.691406 1473.929688 1819.101562 1473.929688 2035.160156 C 1473.929688 2072.613281 1468.660156 2108.84375 1458.828125 2143.144531 C 1473.128906 2136.40625 1486.941406 2127.691406 1500.21875 2116.835938 Z M 1174.769531 2066.34375 C 1174.550781 2067.371094 1174.25 2068.390625 1173.871094 2069.402344 C 1173.5 2070.414062 1173.050781 2071.382812 1172.539062 2072.300781 L 1320.558594 2140.242188 C 1324.558594 2131.160156 1328.050781 2121.851562 1331 2112.371094 Z M 349.855469 2017.339844 C 348.476562 2020.351562 346.632812 2023.5 344.253906 2026.683594 C 333.152344 2041.546875 310.648438 2060.296875 293.488281 2068.730469 C 293.398438 2069.699219 293.308594 2071.320312 293.5 2072.34375 C 293.671875 2073.242188 294.222656 2074.519531 294.597656 2075.316406 C 295.449219 2075.46875 296.285156 2075.695312 297.101562 2075.992188 C 405.113281 2115.582031 517.972656 2131.726562 634.558594 2129.789062 C 629.429688 2105.433594 626.238281 2080.363281 625.15625 2054.746094 C 586.394531 2058.191406 549.324219 2058.875 514.074219 2056.574219 L 514.019531 2056.570312 C 513.820312 2056.566406 513.625 2056.550781 513.433594 2056.53125 C 460.667969 2053.027344 412.027344 2042.816406 367.984375 2025.152344 C 367.878906 2025.113281 367.773438 2025.070312 367.671875 2025.027344 C 361.648438 2022.605469 355.707031 2020.042969 349.855469 2017.339844 Z M 4094.289062 2115.953125 L 4094.25 2115.980469 C 4092.949219 2117.023438 4091.25 2117.585938 4089.460938 2117.417969 C 4087.660156 2117.253906 4086.089844 2116.386719 4085 2115.117188 L 4084.980469 2115.085938 C 4083.851562 2113.761719 4083.238281 2112.003906 4083.410156 2110.140625 C 4083.761719 2106.460938 4087.019531 2103.757812 4090.691406 2104.097656 C 4094.371094 2104.441406 4097.078125 2107.703125 4096.730469 2111.378906 C 4096.558594 2113.242188 4095.640625 2114.859375 4094.289062 2115.953125 Z M 829.882812 1972.398438 C 818.421875 2018.351562 819.367188 2067.691406 834.71875 2115.097656 L 961.503906 2068.09375 C 956.269531 2048.9375 955.804688 2029.277344 959.554688 2010.597656 Z M 1058.53125 2112.378906 L 1058.488281 2112.394531 C 1056.960938 2113.0625 1055.171875 2113.15625 1053.480469 2112.523438 C 1051.789062 2111.890625 1050.511719 2110.644531 1049.789062 2109.136719 L 1049.769531 2109.097656 C 1049.039062 2107.523438 1048.910156 2105.667969 1049.558594 2103.914062 C 1050.859375 2100.457031 1054.71875 2098.699219 1058.179688 2099.996094 C 1061.628906 2101.289062 1063.390625 2105.148438 1062.089844 2108.605469 C 1061.441406 2110.359375 1060.121094 2111.675781 1058.53125 2112.378906 Z M 1120.140625 2106.6875 L 1120.128906 2106.722656 C 1119.511719 2108.28125 1118.320312 2109.609375 1116.679688 2110.359375 C 1115.03125 2111.105469 1113.238281 2111.132812 1111.671875 2110.570312 L 1111.628906 2110.558594 C 1110 2109.96875 1108.589844 2108.742188 1107.820312 2107.039062 C 1106.289062 2103.679688 1107.769531 2099.710938 1111.140625 2098.179688 C 1114.488281 2096.652344 1118.460938 2098.136719 1119.988281 2101.5 C 1120.769531 2103.203125 1120.769531 2105.066406 1120.140625 2106.6875 Z M 4152.238281 2094.285156 L 4152.238281 2094.328125 C 4152.058594 2095.988281 4151.25 2097.585938 4149.859375 2098.738281 C 4148.46875 2099.890625 4146.761719 2100.386719 4145.089844 2100.261719 L 4145.050781 2100.257812 C 4143.308594 2100.117188 4141.640625 2099.304688 4140.441406 2097.863281 C 4138.089844 2095.019531 4138.480469 2090.800781 4141.320312 2088.441406 C 4144.160156 2086.085938 4148.378906 2086.476562 4150.738281 2089.320312 C 4151.941406 2090.761719 4152.421875 2092.558594 4152.238281 2094.285156 Z M 1330.210938 1955.21875 L 1203.429688 2002.226562 C 1208.660156 2021.382812 1209.121094 2041.042969 1205.371094 2059.722656 L 1335.039062 2097.925781 C 1346.511719 2051.96875 1345.558594 2002.628906 1330.210938 1955.21875 Z M 4037.980469 2090.292969 L 4037.941406 2090.289062 C 4036.28125 2090.105469 4034.679688 2089.300781 4033.53125 2087.914062 C 4032.378906 2086.523438 4031.878906 2084.804688 4032.011719 2083.136719 L 4032.011719 2083.097656 C 4032.148438 2081.363281 4032.96875 2079.691406 4034.410156 2078.492188 C 4037.25 2076.136719 4041.46875 2076.527344 4043.828125 2079.371094 C 4046.191406 2082.210938 4045.789062 2086.433594 4042.949219 2088.789062 C 4041.511719 2089.984375 4039.710938 2090.472656 4037.980469 2090.292969 Z M 1061.011719 1988.011719 C 1034.988281 1999.851562 1023.46875 2030.589844 1035.308594 2056.613281 C 1047.148438 2082.636719 1077.890625 2094.152344 1103.921875 2082.3125 C 1129.941406 2070.472656 1141.460938 2039.730469 1129.621094 2013.707031 C 1117.78125 1987.679688 1087.039062 1976.171875 1061.011719 1988.011719 Z M 4101.910156 1983.578125 C 4073.441406 1980.929688 4048.179688 2001.890625 4045.53125 2030.359375 C 4042.878906 2058.828125 4063.839844 2084.09375 4092.308594 2086.742188 C 4120.78125 2089.390625 4146.039062 2068.429688 4148.691406 2039.960938 C 4151.339844 2011.492188 4130.378906 1986.230469 4101.910156 1983.578125 Z M 4194.371094 2041.019531 C 4194.421875 2042.066406 4194.398438 2043.128906 4194.300781 2044.203125 C 4194.199219 2045.28125 4194.03125 2046.328125 4193.78125 2047.347656 L 4354.488281 2074.0625 C 4355.230469 2069.191406 4355.828125 2064.257812 4356.289062 2059.28125 C 4356.75 2054.300781 4357.070312 2049.34375 4357.25 2044.417969 Z M 1010.941406 2072.839844 L 1010.898438 2072.824219 C 1009.339844 2072.210938 1008.011719 2071.015625 1007.269531 2069.371094 C 1006.519531 2067.730469 1006.488281 2065.941406 1007.050781 2064.363281 L 1007.070312 2064.328125 C 1007.660156 2062.691406 1008.878906 2061.289062 1010.578125 2060.511719 C 1013.941406 2058.984375 1017.910156 2060.472656 1019.441406 2063.832031 C 1020.96875 2067.191406 1019.488281 2071.160156 1016.128906 2072.691406 C 1014.421875 2073.46875 1012.558594 2073.464844 1010.941406 2072.839844 Z M 1159.679688 2059.09375 L 1159.699219 2059.132812 C 1160.371094 2060.664062 1160.460938 2062.453125 1159.828125 2064.140625 C 1159.191406 2065.832031 1157.949219 2067.113281 1156.441406 2067.832031 L 1156.398438 2067.851562 C 1154.828125 2068.589844 1152.96875 2068.714844 1151.21875 2068.058594 C 1147.761719 2066.765625 1146 2062.90625 1147.300781 2059.449219 C 1148.589844 2055.988281 1152.449219 2054.234375 1155.910156 2055.53125 C 1157.660156 2056.1875 1158.980469 2057.503906 1159.679688 2059.09375 Z M 1073.429688 2015.3125 C 1084.390625 2010.328125 1097.328125 2015.175781 1102.308594 2026.128906 C 1107.289062 2037.085938 1102.449219 2050.023438 1091.488281 2055.007812 C 1080.539062 2059.992188 1067.601562 2055.144531 1062.621094 2044.191406 C 1057.628906 2033.234375 1062.480469 2020.296875 1073.429688 2015.3125 Z M 4099.128906 2013.449219 C 4111.109375 2014.5625 4119.941406 2025.199219 4118.820312 2037.179688 C 4117.710938 2049.164062 4107.070312 2057.984375 4095.089844 2056.871094 C 4083.109375 2055.757812 4074.28125 2045.121094 4075.398438 2033.140625 C 4076.511719 2021.15625 4087.148438 2012.335938 4099.128906 2013.449219 Z M 4177.898438 2037.984375 L 4177.929688 2038.015625 C 4178.980469 2039.320312 4179.539062 2041.019531 4179.371094 2042.816406 C 4179.199219 2044.613281 4178.339844 2046.175781 4177.070312 2047.265625 L 4177.039062 2047.292969 C 4175.710938 2048.417969 4173.949219 2049.03125 4172.089844 2048.855469 C 4168.410156 2048.515625 4165.710938 2045.253906 4166.050781 2041.574219 C 4166.390625 2037.898438 4169.648438 2035.191406 4173.328125 2035.535156 C 4175.191406 2035.707031 4176.808594 2036.632812 4177.898438 2037.984375 Z M 1642.910156 2042.074219 C 1629.640625 1729.308594 1383.699219 1479.488281 1082.460938 1479.488281 C 781.246094 1479.488281 535.3125 1729.28125 522.011719 2042.039062 C 554.71875 2043.785156 589.007812 2042.941406 624.765625 2039.722656 C 624.753906 2038.199219 624.742188 2036.683594 624.742188 2035.160156 C 624.742188 1782.539062 829.839844 1577.441406 1082.460938 1577.441406 C 1335.089844 1577.441406 1540.179688 1782.539062 1540.179688 2035.160156 C 1540.179688 2037.714844 1540.160156 2040.265625 1540.121094 2042.808594 Z M 1712.070312 2041.578125 C 1692.449219 1883.101562 1675.179688 1726.199219 1685.628906 1588.261719 C 1695.851562 1453.261719 1732.660156 1336.351562 1818.761719 1253.171875 C 1774.609375 1252.21875 1733.289062 1250.910156 1695.101562 1249.179688 C 1694.789062 1249.191406 1694.46875 1249.171875 1694.160156 1249.140625 C 1667.109375 1247.910156 1641.640625 1246.46875 1617.871094 1244.808594 C 1500.171875 1314.339844 1401.019531 1408.140625 1311.171875 1514.070312 C 1508.039062 1603.609375 1647.980469 1805.179688 1657.828125 2041.964844 Z M 1727.171875 2041.46875 L 3128.96875 2031.421875 C 3182.480469 1870.308594 3225.710938 1714.621094 3235.820312 1576.261719 C 3245.820312 1439.449219 3223.46875 1319.710938 3145.578125 1229 C 3132.199219 1229.460938 3118.828125 1229.921875 3105.480469 1230.371094 C 3105.359375 1230.378906 3105.238281 1230.378906 3105.121094 1230.378906 C 2777.851562 1241.488281 2462.871094 1250.800781 2194.578125 1253.929688 C 2190.640625 1267.390625 2185.640625 1280.890625 2179.679688 1294.421875 C 2178.480469 1297.140625 2175.789062 1298.890625 2172.808594 1298.890625 L 2148.941406 1298.890625 C 2148.898438 1298.890625 2148.871094 1298.890625 2148.828125 1298.890625 L 2148.660156 1298.890625 C 2148.550781 1298.878906 2148.449219 1298.878906 2148.339844 1298.871094 C 2143.390625 1298.53125 2138.488281 1298.109375 2133.628906 1297.621094 L 2129.808594 1337.808594 C 2129.589844 1340.070312 2128.371094 1342.109375 2126.480469 1343.359375 C 2091.269531 1366.648438 2032.171875 1369.25 1988.070312 1356.46875 C 1956.890625 1347.441406 1933.550781 1330.390625 1928.800781 1309.121094 C 1928.320312 1306.988281 1928.800781 1304.761719 1930.109375 1303 C 1937.878906 1292.578125 1946.671875 1282.328125 1956.621094 1272.289062 L 1956.660156 1272.261719 L 1956.78125 1272.128906 C 1962.53125 1266.339844 1968.671875 1260.628906 1975.21875 1254.980469 L 1973.960938 1254.980469 C 1958.488281 1254.929688 1943.019531 1254.839844 1927.550781 1254.71875 L 1925.449219 1254.699219 C 1896.121094 1254.460938 1867.738281 1254.101562 1840.378906 1253.601562 C 1748.738281 1334.78125 1710.941406 1452.671875 1700.589844 1589.390625 C 1690.171875 1726.929688 1707.589844 1883.441406 1727.171875 2041.46875 Z M 507.042969 2041.046875 C 520.835938 1720.101562 773.761719 1451.210938 1082.460938 1464.488281 C 1243.289062 1471.410156 1296.828125 1507.789062 1296.828125 1507.789062 C 1296.828125 1507.789062 1296.828125 1507.789062 1296.828125 1507.78125 C 1383.921875 1404.648438 1479.621094 1312.78125 1592.121094 1242.871094 C 1544.261719 1238.988281 1504.261719 1234.089844 1473.21875 1228.019531 C 1447.371094 1222.96875 1427.558594 1217.058594 1414.328125 1210.378906 C 1410.519531 1208.449219 1407.21875 1206.429688 1404.398438 1204.339844 C 955.675781 1244.621094 812.527344 1308.308594 812.527344 1308.308594 C 818.550781 1318.300781 818.800781 1333.03125 812.597656 1351.089844 C 798.539062 1392.058594 751.515625 1453.011719 685.863281 1510.058594 C 620.210938 1567.121094 553.308594 1605.179688 510.777344 1613.390625 C 489.515625 1617.5 473.660156 1613.988281 465.097656 1604.140625 C 456.535156 1594.28125 455.273438 1578.089844 462.300781 1557.609375 C 476.363281 1516.640625 523.386719 1455.699219 589.039062 1398.648438 C 591.449219 1396.550781 593.863281 1394.480469 596.273438 1392.441406 C 518.054688 1431.511719 450.625 1477.25 395.648438 1530.640625 C 393.363281 1532.859375 391.15625 1535.261719 388.984375 1537.828125 C 355.449219 1696.128906 350.054688 1854.421875 377.28125 2012.703125 C 416.875 2028.109375 460.253906 2037.347656 507.042969 2041.046875 Z M 4016.320312 2032.335938 L 4016.289062 2032.304688 C 4015.238281 2031 4014.679688 2029.300781 4014.851562 2027.503906 C 4015.019531 2025.707031 4015.878906 2024.144531 4017.148438 2023.054688 L 4017.179688 2023.027344 C 4018.511719 2021.902344 4020.269531 2021.289062 4022.128906 2021.464844 C 4025.808594 2021.804688 4028.511719 2025.066406 4028.171875 2028.746094 C 4027.828125 2032.421875 4024.570312 2035.128906 4020.890625 2034.785156 C 4019.03125 2034.613281 4017.410156 2033.6875 4016.320312 2032.335938 Z M 4459.539062 1185.140625 C 4099.859375 1194.328125 3686.089844 1210.070312 3281.449219 1224.28125 C 3281.339844 1224.289062 3281.21875 1224.289062 3281.109375 1224.289062 C 3242.140625 1225.660156 3203.25 1227.019531 3164.539062 1228.351562 C 3238.820312 1320.769531 3260.769531 1440.730469 3250.78125 1577.351562 C 3240.691406 1715.421875 3198 1870.628906 3144.808594 2031.308594 L 3536.640625 2028.5 C 3555.679688 1726.238281 3799.589844 1486.941406 4097.109375 1486.941406 C 4370.328125 1486.941406 4598.328125 1688.730469 4648.5 1955.75 L 4677.519531 1957.210938 C 4690.820312 1912.25 4699.671875 1866.171875 4706.808594 1819.671875 C 4706.128906 1789.839844 4702.871094 1760.199219 4695.238281 1730.648438 C 4653.558594 1703.699219 4621.339844 1671.980469 4598.378906 1635.671875 C 4596.179688 1632.179688 4595.5 1627.941406 4596.519531 1623.949219 C 4598.488281 1616.210938 4600.261719 1608.328125 4601.808594 1600.328125 C 4596.480469 1602.980469 4590.859375 1605.199219 4585.359375 1607.179688 C 4580.191406 1609.039062 4574.109375 1608.269531 4567.519531 1604.070312 C 4560.640625 1599.699219 4552.660156 1591.058594 4544.269531 1578.96875 C 4514.140625 1535.558594 4476.300781 1445.761719 4453.839844 1367.179688 C 4438.601562 1313.859375 4430.671875 1265.570312 4436.179688 1239.839844 C 4439.269531 1225.378906 4446.578125 1217.058594 4457.039062 1215.230469 C 4490.101562 1209.441406 4508.941406 1225.539062 4527.269531 1248.339844 C 4530.230469 1248.949219 4533.179688 1249.660156 4536.128906 1250.46875 C 4516.628906 1224.898438 4493.261719 1204.25 4465.890625 1190.761719 C 4463.96875 1189.820312 4462.28125 1188.46875 4460.921875 1186.820312 Z M 4315.128906 1893.019531 L 4205.160156 1971.640625 C 4214.828125 1988.058594 4220.839844 2006.785156 4222.179688 2026.597656 L 4357.371094 2029.417969 C 4356.320312 1979.601562 4341.03125 1932.679688 4315.128906 1893.019531 Z M 3839.730469 1996.261719 C 3838.988281 2001.128906 3838.390625 2006.0625 3837.929688 2011.039062 C 3837.46875 2016.019531 3837.148438 2020.976562 3836.96875 2025.902344 L 3999.851562 2029.300781 C 3999.800781 2028.253906 3999.808594 2027.191406 3999.910156 2026.113281 C 4000.011719 2025.039062 4000.191406 2023.988281 4000.441406 2022.972656 Z M 4549.808594 1957.441406 L 4549.691406 1956.738281 L 4549.570312 1956.03125 L 4549.441406 1955.320312 C 4549.398438 1955.078125 4549.359375 1954.851562 4549.320312 1954.609375 L 4549.269531 1954.308594 C 4548.578125 1950.46875 4547.851562 1946.628906 4547.070312 1942.839844 C 4574.46875 1938.160156 4599.941406 1930 4623.75 1918.878906 C 4560.878906 1679.429688 4348.820312 1503 4097.109375 1503 C 3805.730469 1503 3567.5 1739.398438 3552.28125 2036.355469 L 3552.738281 2028.386719 L 3637.910156 2027.773438 C 3641.839844 1777.710938 3846.089844 1575.898438 4097.109375 1575.898438 C 4318.898438 1575.898438 4504.179688 1733.449219 4547.039062 1942.648438 L 4547.070312 1942.839844 C 4547.851562 1946.660156 4548.578125 1950.480469 4549.269531 1954.308594 L 4549.359375 1954.808594 C 4549.378906 1954.96875 4549.410156 1955.121094 4549.441406 1955.269531 L 4549.53125 1955.78125 L 4549.601562 1956.210938 L 4549.679688 1956.660156 L 4549.769531 1957.199219 L 4549.839844 1957.589844 L 4549.898438 1957.96875 L 4550 1958.558594 L 4549.910156 1958 Z M 4556.21875 2023.359375 L 4556.238281 2024.101562 L 4556.261719 2024.789062 L 4556.238281 2024.050781 L 4556.199219 2022.574219 L 4556.179688 2021.839844 L 4556.210938 2022.710938 Z M 4556.089844 2019.011719 L 4556.058594 2018.152344 L 4556.089844 2018.890625 L 4556.089844 2019.019531 L 4556.101562 2019.152344 L 4556.121094 2019.671875 L 4556.109375 2019.539062 L 4556.101562 2019.152344 Z M 1005.238281 2011.226562 L 1005.230469 2011.1875 C 1004.558594 2009.652344 1004.46875 2007.867188 1005.101562 2006.179688 C 1005.730469 2004.488281 1006.980469 2003.207031 1008.488281 2002.488281 L 1008.519531 2002.46875 C 1010.101562 2001.730469 1011.960938 2001.605469 1013.710938 2002.261719 C 1017.171875 2003.554688 1018.921875 2007.414062 1017.628906 2010.871094 C 1016.328125 2014.328125 1012.46875 2016.085938 1009.019531 2014.789062 C 1007.261719 2014.132812 1005.949219 2012.816406 1005.238281 2011.226562 Z M 1153.988281 1997.480469 L 1154.03125 1997.5 C 1155.578125 1998.109375 1156.910156 1999.308594 1157.660156 2000.949219 C 1158.410156 2002.589844 1158.441406 2004.378906 1157.878906 2005.953125 L 1157.859375 2005.992188 C 1157.269531 2007.628906 1156.050781 2009.03125 1154.339844 2009.808594 C 1150.980469 2011.335938 1147.011719 2009.847656 1145.480469 2006.488281 C 1143.949219 2003.128906 1145.441406 1999.160156 1148.800781 1997.628906 C 1150.511719 1996.851562 1152.371094 1996.851562 1153.988281 1997.480469 Z M 366.476562 1574.480469 C 354.285156 1600.839844 344.90625 1634.03125 338.308594 1671.148438 C 320.929688 1768.910156 323.976562 1893.71875 352.585938 1999.308594 C 352.832031 2000.21875 353 2001.214844 353.082031 2002.289062 C 355.679688 2003.519531 358.292969 2004.71875 360.925781 2005.890625 C 337.34375 1862.089844 340.273438 1718.28125 366.476562 1574.480469 Z M 844.371094 1930.078125 C 840.363281 1939.160156 836.878906 1948.46875 833.929688 1957.949219 L 990.152344 2003.976562 C 990.375 2002.949219 990.671875 2001.929688 991.050781 2000.917969 C 991.429688 1999.910156 991.878906 1998.941406 992.382812 1998.019531 Z M 3909.058594 1855.230469 C 3876.289062 1889.429688 3852.601562 1932.71875 3842.378906 1981.488281 L 3975.769531 2003.664062 C 3980.738281 1984.441406 3990.101562 1967.148438 4002.628906 1952.800781 Z M 1312.851562 1913.988281 L 1169.789062 1991.941406 C 1170.359375 1992.820312 1170.871094 1993.75 1171.308594 1994.738281 C 1171.761719 1995.71875 1172.128906 1996.71875 1172.421875 1997.730469 L 1325.179688 1941.089844 C 1323.390625 1936.488281 1321.460938 1931.921875 1319.390625 1927.359375 C 1317.320312 1922.808594 1315.140625 1918.351562 1312.851562 1913.988281 Z M 4156.238281 1980.03125 L 4156.28125 1980.03125 C 4157.941406 1980.210938 4159.539062 1981.019531 4160.691406 1982.410156 C 4161.839844 1983.800781 4162.339844 1985.511719 4162.210938 1987.179688 L 4162.210938 1987.21875 C 4162.058594 1988.960938 4161.25 1990.628906 4159.808594 1991.828125 C 4156.96875 1994.179688 4152.75 1993.789062 4150.390625 1990.949219 C 4148.039062 1988.109375 4148.429688 1983.890625 4151.269531 1981.53125 C 4152.710938 1980.328125 4154.511719 1979.851562 4156.238281 1980.03125 Z M 4049.128906 1970.058594 L 4049.171875 1970.058594 C 4050.898438 1970.210938 4052.578125 1971.019531 4053.78125 1972.460938 C 4056.128906 1975.300781 4055.738281 1979.519531 4052.898438 1981.878906 C 4050.058594 1984.230469 4045.839844 1983.839844 4043.480469 1981 C 4042.28125 1979.558594 4041.800781 1977.761719 4041.980469 1976.03125 L 4041.980469 1975.988281 C 4042.160156 1974.328125 4042.96875 1972.730469 4044.359375 1971.578125 C 4045.75 1970.429688 4047.460938 1969.929688 4049.128906 1970.058594 Z M 4287.558594 1857.800781 L 4170.019531 1970.53125 C 4170.800781 1971.230469 4171.539062 1972 4172.230469 1972.828125 C 4172.921875 1973.660156 4173.539062 1974.53125 4174.078125 1975.421875 L 4306.570312 1880.699219 C 4300.679688 1872.71875 4294.328125 1865.070312 4287.558594 1857.800781 Z M 948.214844 1812.128906 C 905.496094 1837.78125 872.363281 1874.351562 850.8125 1916.53125 L 973.667969 1972.921875 C 983.113281 1956.378906 996.378906 1941.859375 1012.910156 1930.859375 Z M 1053.261719 1959.75 L 1053.300781 1959.761719 C 1054.929688 1960.351562 1056.328125 1961.578125 1057.109375 1963.28125 C 1058.640625 1966.640625 1057.148438 1970.609375 1053.789062 1972.140625 C 1050.429688 1973.671875 1046.460938 1972.179688 1044.929688 1968.820312 C 1044.160156 1967.121094 1044.160156 1965.25 1044.789062 1963.628906 L 1044.800781 1963.601562 C 1045.410156 1962.039062 1046.609375 1960.710938 1048.25 1959.960938 C 1049.890625 1959.210938 1051.679688 1959.191406 1053.261719 1959.75 Z M 4551.910156 1970.96875 L 4552.019531 1971.761719 L 4552.058594 1972 L 4552.019531 1971.738281 Z M 1115.140625 1961.191406 L 1115.148438 1961.21875 C 1115.890625 1962.789062 1116.019531 1964.648438 1115.359375 1966.410156 C 1114.070312 1969.859375 1110.210938 1971.621094 1106.75 1970.320312 C 1103.289062 1969.03125 1101.539062 1965.171875 1102.828125 1961.710938 C 1103.488281 1959.960938 1104.808594 1958.640625 1106.398438 1957.941406 L 1106.429688 1957.921875 C 1107.96875 1957.261719 1109.761719 1957.160156 1111.441406 1957.800781 C 1113.128906 1958.429688 1114.421875 1959.671875 1115.140625 1961.191406 Z M 4551.589844 1968.730469 L 4551.519531 1968.199219 L 4551.53125 1968.269531 Z M 4109.21875 1955.199219 L 4109.238281 1955.230469 C 4110.371094 1956.558594 4110.980469 1958.320312 4110.808594 1960.179688 C 4110.460938 1963.859375 4107.199219 1966.558594 4103.53125 1966.21875 C 4099.851562 1965.878906 4097.140625 1962.621094 4097.480469 1958.941406 C 4097.660156 1957.078125 4098.578125 1955.460938 4099.929688 1954.371094 L 4099.960938 1954.339844 C 4101.269531 1953.289062 4102.96875 1952.730469 4104.769531 1952.898438 C 4106.558594 1953.070312 4108.128906 1953.929688 4109.21875 1955.199219 Z M 1201.089844 1803.511719 L 1144.699219 1926.371094 C 1161.25 1935.808594 1175.761719 1949.078125 1186.761719 1965.609375 L 1305.5 1900.910156 C 1279.851562 1858.191406 1243.269531 1825.058594 1201.089844 1803.511719 Z M 3942.648438 1825.699219 C 3934.671875 1831.589844 3927.019531 1837.941406 3919.75 1844.710938 L 4032.480469 1962.25 C 4033.179688 1961.460938 4033.949219 1960.730469 4034.78125 1960.039062 C 4035.609375 1959.351562 4036.480469 1958.730469 4037.371094 1958.191406 Z M 988.390625 1792.449219 C 983.796875 1794.230469 979.21875 1796.160156 974.667969 1798.230469 C 970.117188 1800.300781 965.65625 1802.480469 961.292969 1804.78125 L 1039.238281 1947.839844 C 1040.121094 1947.269531 1041.058594 1946.761719 1042.039062 1946.308594 C 1043.019531 1945.859375 1044.019531 1945.488281 1045.03125 1945.199219 Z M 1159.671875 1786.621094 L 1113.648438 1942.851562 C 1114.671875 1943.070312 1115.691406 1943.371094 1116.710938 1943.75 C 1117.71875 1944.128906 1118.679688 1944.570312 1119.601562 1945.078125 L 1187.550781 1797.070312 C 1178.460938 1793.058594 1169.160156 1789.578125 1159.671875 1786.621094 Z M 4150.78125 1780.429688 L 4128.609375 1913.820312 C 4147.828125 1918.789062 4165.121094 1928.148438 4179.46875 1940.679688 L 4277.039062 1847.109375 C 4242.839844 1814.339844 4199.550781 1790.648438 4150.78125 1780.429688 Z M 4106.371094 1775.019531 L 4102.96875 1937.898438 C 4104.019531 1937.851562 4105.078125 1937.859375 4106.148438 1937.96875 C 4107.230469 1938.070312 4108.28125 1938.238281 4109.300781 1938.488281 L 4136.011719 1777.78125 C 4131.140625 1777.039062 4126.210938 1776.441406 4121.230469 1775.980469 C 4116.25 1775.519531 4111.289062 1775.199219 4106.371094 1775.019531 Z M 4091.371094 1774.898438 C 4041.550781 1775.949219 3994.628906 1791.238281 3954.96875 1817.140625 L 4033.589844 1927.109375 C 4050.011719 1917.441406 4068.738281 1911.429688 4088.539062 1910.089844 Z M 1145.230469 1782.578125 C 1099.269531 1771.121094 1049.929688 1772.070312 1002.53125 1787.421875 L 1049.53125 1914.199219 C 1068.679688 1908.960938 1088.339844 1908.5 1107.019531 1912.25 Z M 797.109375 1313.050781 C 791.796875 1314.710938 786.515625 1316.378906 781.265625 1318.078125 C 782.925781 1326.160156 781.910156 1336.191406 777.953125 1347.730469 C 765.429688 1384.21875 723.570312 1438.53125 665.089844 1489.351562 C 606.613281 1540.171875 547 1574.050781 509.117188 1581.359375 C 493.539062 1584.371094 481.179688 1582.800781 472.914062 1577.371094 C 472.105469 1584.441406 472.917969 1590.269531 476.417969 1594.300781 C 479.992188 1598.410156 485.8125 1600.011719 493.136719 1600.140625 C 502.277344 1600.300781 513.46875 1598.019531 526.210938 1593.699219 C 566.691406 1579.980469 621.710938 1545.941406 676.023438 1498.738281 C 730.335938 1451.539062 771.710938 1401.800781 790.945312 1363.628906 C 796.996094 1351.609375 800.824219 1340.851562 801.933594 1331.78125 C 802.824219 1324.511719 802.054688 1318.519531 798.480469 1314.410156 C 798.058594 1313.921875 797.597656 1313.46875 797.109375 1313.050781 Z M 4550.621094 1271.480469 C 4517.488281 1257.160156 4483.820312 1257.128906 4449.71875 1270.71875 C 4451.359375 1295.628906 4458.300781 1328.191406 4468.269531 1363.058594 C 4490.25 1439.96875 4527.109375 1527.929688 4556.601562 1570.421875 C 4562.488281 1578.910156 4568 1585.511719 4573.050781 1589.589844 C 4574.660156 1590.890625 4576.179688 1591.898438 4577.640625 1592.550781 C 4578.621094 1592.980469 4579.480469 1593.351562 4580.28125 1593.058594 C 4588.828125 1589.988281 4598 1586.609375 4605.109375 1581.199219 C 4617.910156 1496.300781 4608.410156 1400.828125 4576.769531 1323.160156 C 4569.289062 1304.800781 4560.578125 1287.441406 4550.621094 1271.480469 Z M 766.988281 1322.761719 C 728.847656 1335.46875 692.386719 1349.199219 657.699219 1364.039062 C 638.484375 1377.378906 618.632812 1392.800781 598.878906 1409.96875 C 544.5625 1457.171875 503.1875 1506.910156 483.957031 1545.078125 C 481.285156 1550.378906 479.050781 1555.429688 477.289062 1560.210938 C 477.746094 1561.238281 478.332031 1562.191406 479.058594 1563.03125 C 482.101562 1566.519531 487.070312 1567.820312 493.300781 1567.929688 C 501.34375 1568.070312 511.191406 1566.050781 522.40625 1562.25 C 558.304688 1550.078125 607.085938 1519.878906 655.25 1478.03125 C 703.417969 1436.171875 740.117188 1392.070312 757.175781 1358.21875 C 762.5 1347.648438 765.878906 1338.179688 766.855469 1330.191406 C 767.1875 1327.5 767.261719 1325 766.988281 1322.761719 Z M 2927.160156 1381.851562 L 2865.878906 1381.851562 C 2854.050781 1381.851562 2844.441406 1391.460938 2844.441406 1403.289062 C 2844.441406 1415.121094 2854.050781 1424.730469 2865.878906 1424.730469 L 2927.160156 1424.730469 C 2936.800781 1464.210938 2972.429688 1493.558594 3014.859375 1493.558594 C 3057.289062 1493.558594 3092.921875 1464.210938 3102.558594 1424.730469 L 3163.839844 1424.730469 C 3175.671875 1424.730469 3185.28125 1415.121094 3185.28125 1403.289062 C 3185.28125 1391.460938 3175.671875 1381.851562 3163.839844 1381.851562 L 3102.558594 1381.851562 C 3092.921875 1342.371094 3057.289062 1313.019531 3014.859375 1313.019531 C 2972.429688 1313.019531 2936.800781 1342.371094 2927.160156 1381.851562 Z M 1484.089844 1392.761719 C 1481.71875 1392.761719 1479.5 1393.871094 1478.089844 1395.761719 L 1424.269531 1467.488281 C 1422.570312 1469.761719 1422.289062 1472.800781 1423.558594 1475.339844 C 1424.828125 1477.878906 1427.429688 1479.488281 1430.269531 1479.488281 L 1650.691406 1479.488281 C 1653.199219 1479.488281 1655.539062 1478.238281 1656.929688 1476.148438 L 1704.800781 1404.429688 C 1706.339844 1402.128906 1706.480469 1399.171875 1705.179688 1396.730469 C 1703.871094 1394.289062 1701.328125 1392.761719 1698.558594 1392.761719 Z M 3087.03125 1424.730469 L 2942.699219 1424.730469 C 2951.941406 1455.839844 2980.769531 1478.558594 3014.859375 1478.558594 C 3048.949219 1478.558594 3077.78125 1455.839844 3087.03125 1424.730469 Z M 1487.828125 1407.761719 C 1511.570312 1407.761719 1641.308594 1407.761719 1684.539062 1407.761719 L 1646.679688 1464.488281 C 1646.679688 1464.488281 1494.308594 1464.488281 1445.269531 1464.488281 Z M 2933.148438 1396.851562 L 2865.878906 1396.851562 C 2862.328125 1396.851562 2859.441406 1399.738281 2859.441406 1403.289062 C 2859.441406 1406.839844 2862.328125 1409.730469 2865.878906 1409.730469 L 3163.839844 1409.730469 C 3167.390625 1409.730469 3170.28125 1406.839844 3170.28125 1403.289062 C 3170.28125 1399.738281 3167.390625 1396.851562 3163.839844 1396.851562 Z M 3087.03125 1381.851562 C 3077.78125 1350.738281 3048.949219 1328.019531 3014.859375 1328.019531 C 2980.769531 1328.019531 2951.941406 1350.738281 2942.699219 1381.851562 Z M 1963.351562 1286.890625 C 1956.421875 1294.160156 1950.109375 1301.539062 1944.371094 1309.019531 C 1946.769531 1315.640625 1951.890625 1321.441406 1958.691406 1326.488281 C 1967.519531 1333.058594 1979.148438 1338.269531 1992.238281 1342.070312 C 2031.128906 1353.328125 2082.921875 1352.121094 2115.21875 1332.730469 L 2118.21875 1301.21875 C 2066.878906 1320.859375 2009.050781 1312.128906 1963.351562 1286.890625 Z M 2004.78125 1250.558594 C 2003.511719 1251.511719 2002.25 1252.449219 2001 1253.398438 C 2000.910156 1253.46875 2000.820312 1253.539062 2000.730469 1253.609375 C 1991.210938 1260.878906 1982.480469 1268.289062 1974.46875 1275.839844 C 2011.210938 1295.039062 2055.820312 1302.921875 2097.378906 1292.160156 C 2062.640625 1284.988281 2031.148438 1272.210938 2004.78125 1250.558594 Z M 2161.539062 1101.941406 C 2187.699219 1161.25 2185.890625 1221.980469 2160.351562 1283.890625 L 2167.890625 1283.890625 C 2193.058594 1224.621094 2198.761719 1165.839844 2173.550781 1107.789062 C 2169.691406 1105.441406 2165.679688 1103.5 2161.539062 1101.941406 Z M 2127.988281 1281.910156 C 2133.339844 1282.550781 2138.75 1283.078125 2144.21875 1283.519531 C 2171.691406 1220.359375 2173.230469 1158.5 2143.230469 1098.21875 C 2081.53125 1101.808594 2024.980469 1115.71875 1973.960938 1140.691406 C 1973.089844 1141.121094 1972.800781 1142.359375 1972.261719 1143.691406 C 1971.121094 1146.53125 1970.378906 1150.160156 1969.949219 1154.179688 C 1968.570312 1167.03125 1970.378906 1183.738281 1975.921875 1193.289062 L 1976.078125 1193.550781 C 1976.121094 1193.628906 1976.171875 1193.699219 1976.210938 1193.78125 C 2010.101562 1251.769531 2064.53125 1274.25 2127.578125 1281.859375 L 2127.601562 1281.859375 C 2127.730469 1281.871094 2127.859375 1281.890625 2127.988281 1281.910156 Z M 4505.011719 1245.640625 C 4493.289062 1233.789062 4479.949219 1226.449219 4459.628906 1230.011719 C 4456.761719 1230.511719 4454.820312 1232.550781 4453.339844 1235.460938 C 4451.050781 1239.980469 4449.910156 1246.230469 4449.511719 1253.820312 C 4449.488281 1254.128906 4449.480469 1254.449219 4449.460938 1254.769531 C 4468.101562 1248.019531 4486.621094 1244.941406 4505.011719 1245.640625 Z M 1968.589844 1209.96875 L 1942.109375 1239.820312 L 1944.070312 1239.839844 C 1959.628906 1239.929688 1975.191406 1239.988281 1990.75 1240.03125 L 1993.078125 1240.03125 C 1984.191406 1231.261719 1975.988281 1221.289062 1968.589844 1209.96875 Z M 2210.539062 773.199219 L 1713.21875 1234.980469 L 1714.679688 1235.039062 C 1749.148438 1236.429688 1783.640625 1237.429688 1818.140625 1238.171875 C 1824.589844 1238.300781 1831.03125 1238.429688 1837.480469 1238.550781 C 1837.648438 1238.550781 1837.820312 1238.550781 1838 1238.558594 C 1865.308594 1239.070312 1892.640625 1239.421875 1919.960938 1239.660156 L 1922.199219 1239.679688 L 1960.691406 1196.269531 C 1954.53125 1181.890625 1952.988281 1159.601562 1956.261719 1144.96875 C 1958.300781 1135.871094 1962.578125 1129.558594 1967.359375 1127.21875 C 1992.980469 1114.679688 2019.929688 1104.828125 2048.191406 1097.578125 L 2332.339844 777.128906 Z M 2351.828125 777.761719 L 2073.28125 1091.898438 C 2097.050781 1087.210938 2121.699219 1084.25 2147.179688 1082.980469 C 2147.601562 1082.949219 2148.019531 1082.960938 2148.441406 1083 L 2148.519531 1083.011719 C 2148.699219 1083.03125 2148.871094 1083.058594 2149.050781 1083.089844 C 2161.351562 1085.230469 2172.941406 1089.441406 2183.589844 1096.398438 C 2184.800781 1097.191406 2185.75 1098.308594 2186.328125 1099.621094 C 2206.910156 1145.628906 2209.421875 1192.089844 2198.539062 1238.878906 C 2464.230469 1235.730469 2775.308594 1226.550781 3098.511719 1215.601562 L 3157.429688 803.761719 Z M 2112.449219 770.03125 C 2108.789062 771.390625 2105.859375 772.800781 2103.699219 774.300781 C 1926.039062 897.410156 1748.378906 1034.421875 1570.710938 1188.859375 C 1568.21875 1191.019531 1565.089844 1192.300781 1561.789062 1192.511719 C 1518.011719 1195.210938 1474.910156 1198.320312 1432.53125 1201.890625 C 1443.941406 1206.101562 1458.53125 1209.871094 1476.089844 1213.300781 C 1511.550781 1220.230469 1558.75 1225.609375 1616.050781 1229.679688 C 1616.390625 1229.679688 1616.730469 1229.710938 1617.070312 1229.75 C 1640.460938 1231.410156 1665.53125 1232.839844 1692.160156 1234.058594 L 2189.230469 772.511719 Z M 3172.519531 804.25 L 3113.730469 1215.078125 C 3167.03125 1213.269531 3220.589844 1211.410156 3274.320312 1209.519531 L 3322.28125 809.078125 Z M 3968.308594 829.941406 L 3337.328125 809.570312 L 3289.488281 1208.988281 C 3603.929688 1197.929688 3923.539062 1185.988281 4218.789062 1176.949219 Z M 4173.929688 836.570312 L 3987.25 830.550781 L 4236.890625 1176.398438 C 4308.761719 1174.21875 4379.089844 1172.210938 4447.480469 1170.441406 L 4175.558594 839.011719 C 4174.929688 838.238281 4174.390625 837.429688 4173.929688 836.570312 Z M 4174.421875 821.578125 C 4176.640625 818 4180.300781 815.46875 4184.539062 814.71875 L 4266.011719 800.300781 C 4262.539062 798.710938 4258.628906 797.140625 4254.300781 795.570312 C 4218.691406 782.660156 4158.03125 771.679688 4079.269531 762.261719 C 3651.890625 711.109375 2699.960938 709.261719 2287.921875 744.070312 C 2242.261719 747.929688 2203.300781 752.21875 2172.519531 756.960938 L 3166.199219 789.039062 C 3166.25 789.039062 3166.308594 789.039062 3166.359375 789.039062 Z M 3931.328125 717.910156 C 3917.210938 691.988281 3892.539062 678.761719 3865.710938 677.429688 C 3838.878906 676.109375 3809.878906 686.691406 3787.121094 708.390625 C 3837.78125 711.21875 3886.070312 714.378906 3931.328125 717.910156 Z M 4555.03125 1999.761719 L 4555.101562 2000.683594 L 4555.140625 2001.246094 L 4555.191406 2002.050781 L 4555.238281 2002.710938 L 4555.289062 2003.394531 L 4555.351562 2004.328125 L 4555.390625 2004.976562 L 4555.441406 2005.714844 L 4555.390625 2004.976562 L 4555.351562 2004.328125 L 4555.289062 2003.492188 L 4555.351562 2004.222656 L 4555.390625 2004.953125 L 4555.441406 2005.714844 L 4555.480469 2006.359375 L 4555.53125 2007.144531 L 4555.570312 2007.878906 L 4555.578125 2007.992188 L 4555.621094 2008.640625 L 4555.578125 2007.988281 L 4555.53125 2007.144531 L 4555.53125 2007.054688 L 4555.570312 2007.855469 L 4555.609375 2008.550781 L 4555.640625 2009.046875 C 4555.648438 2009.230469 4555.660156 2009.414062 4555.671875 2009.601562 L 4555.699219 2010.105469 L 4555.730469 2010.710938 L 4555.769531 2011.515625 L 4555.808594 2012.308594 L 4555.851562 2012.996094 L 4555.878906 2013.660156 L 4555.910156 2014.382812 L 4555.941406 2015.183594 L 4555.980469 2015.988281 L 4555.949219 2015.335938 L 4555.921875 2014.628906 L 4555.878906 2013.683594 L 4555.851562 2013.058594 L 4555.808594 2012.308594 L 4555.78125 2011.65625 L 4555.738281 2010.808594 C 4555.75 2011.054688 4555.761719 2011.296875 4555.769531 2011.539062 L 4555.78125 2011.660156 L 4555.808594 2012.308594 L 4555.851562 2013.058594 L 4555.878906 2013.742188 L 4555.910156 2014.476562 L 4555.949219 2015.335938 L 4555.980469 2015.988281 L 4556.011719 2016.683594 C 4556.019531 2016.929688 4556.03125 2017.171875 4556.039062 2017.417969 L 4556.03125 2017.359375 L 4556.058594 2018.046875 L 4556.089844 2018.863281 L 4556.109375 2019.539062 L 4556.140625 2020.417969 L 4556.160156 2021.039062 L 4556.179688 2021.730469 L 4556.199219 2022.550781 L 4556.21875 2023.359375 L 4556.238281 2024.023438 L 4556.261719 2024.738281 L 4556.269531 2025.421875 L 4556.289062 2026.117188 L 4556.300781 2027.058594 C 4556.308594 2027.515625 4556.320312 2027.972656 4556.320312 2028.429688 L 4556.328125 2029.117188 L 4556.339844 2029.820312 L 4556.351562 2030.761719 L 4556.339844 2029.96875 L 4556.351562 2030.710938 C 4556.351562 2030.957031 4556.359375 2031.203125 4556.359375 2031.449219 L 4556.359375 2032.191406 L 4556.359375 2031.472656 L 4556.359375 2032.136719 L 4556.371094 2032.824219 L 4556.371094 2035.585938 C 4556.359375 2053.613281 4555.300781 2071.398438 4553.261719 2088.882812 C 4600.261719 2078.703125 4647.839844 2062.921875 4691.949219 2044.523438 C 4693.289062 2004.550781 4697.710938 1965.199219 4701.410156 1926.308594 C 4698.03125 1940.019531 4694.308594 1953.648438 4690.191406 1967.179688 C 4689.191406 1970.46875 4686.078125 1972.660156 4682.640625 1972.488281 L 4644.140625 1970.550781 C 4643.789062 1970.671875 4643.421875 1970.761719 4643.050781 1970.820312 C 4638.691406 1971.601562 4634.511719 1968.691406 4633.738281 1964.320312 C 4631.898438 1954.019531 4629.800781 1943.808594 4627.429688 1933.699219 C 4603.460938 1944.628906 4577.890625 1952.710938 4550.480469 1957.480469 L 4549.839844 1957.589844 L 4549.929688 1958.148438 L 4550 1958.558594 C 4550.039062 1958.78125 4550.078125 1959 4550.109375 1959.230469 L 4550.210938 1959.828125 L 4550.320312 1960.460938 L 4550.421875 1961.101562 L 4550.519531 1961.730469 L 4550.621094 1962.339844 L 4550.730469 1963 L 4550.828125 1963.660156 L 4550.910156 1964.171875 L 4550.988281 1964.699219 L 4551.078125 1965.261719 C 4551.109375 1965.5 4551.148438 1965.730469 4551.191406 1965.96875 L 4551.28125 1966.589844 L 4551.378906 1967.261719 L 4551.519531 1968.199219 L 4551.609375 1968.839844 L 4551.710938 1969.511719 L 4551.800781 1970.179688 L 4551.898438 1970.851562 L 4552.019531 1971.761719 L 4552.109375 1972.371094 L 4552.191406 1972.949219 L 4552.230469 1973.308594 L 4552.328125 1974.011719 L 4552.421875 1974.699219 L 4552.488281 1975.199219 L 4552.488281 1975.230469 L 4552.589844 1976.011719 L 4552.691406 1976.738281 L 4552.78125 1977.511719 L 4552.878906 1978.289062 L 4552.941406 1978.800781 L 4553.039062 1979.628906 L 4553.128906 1980.328125 C 4553.160156 1980.589844 4553.191406 1980.851562 4553.21875 1981.109375 L 4553.308594 1981.890625 L 4553.371094 1982.410156 L 4553.449219 1983.089844 L 4553.550781 1983.988281 L 4553.621094 1984.660156 L 4553.710938 1985.421875 L 4553.769531 1986.019531 L 4553.839844 1986.699219 L 4553.941406 1987.601562 L 4554 1988.28125 L 4554.078125 1989.039062 L 4554.140625 1989.628906 L 4554.210938 1990.390625 L 4554.28125 1991.109375 L 4554.351562 1991.808594 L 4554.378906 1992.101562 L 4554.429688 1992.671875 L 4554.480469 1993.261719 L 4554.550781 1994 L 4554.609375 1994.738281 L 4554.679688 1995.539062 L 4554.738281 1996.21875 L 4554.800781 1996.921875 L 4554.859375 1997.621094 L 4554.921875 1998.441406 L 4554.890625 1998.078125 L 4554.859375 1997.621094 L 4554.851562 1997.539062 L 4554.800781 1996.921875 L 4554.769531 1996.558594 L 4554.738281 1996.21875 L 4554.691406 1995.570312 L 4554.609375 1994.738281 L 4554.550781 1994.03125 L 4554.488281 1993.351562 L 4554.441406 1992.738281 L 4554.378906 1992.191406 L 4554.378906 1992.101562 L 4554.359375 1991.898438 L 4554.28125 1991.109375 L 4554.210938 1990.410156 L 4554.148438 1989.71875 L 4554.089844 1989.109375 L 4554.019531 1988.449219 L 4554 1988.28125 L 4553.941406 1987.609375 L 4553.839844 1986.699219 L 4553.78125 1986.109375 L 4553.710938 1985.488281 L 4553.640625 1984.839844 L 4553.621094 1984.660156 L 4553.550781 1984.011719 L 4553.449219 1983.089844 L 4553.449219 1983.078125 L 4553.371094 1982.410156 L 4553.308594 1981.890625 L 4553.21875 1981.101562 L 4553.121094 1980.308594 L 4553.039062 1979.628906 L 4552.941406 1978.808594 L 4552.878906 1978.300781 L 4552.78125 1977.5 L 4552.691406 1976.800781 L 4552.601562 1976.089844 L 4552.589844 1976.011719 L 4552.578125 1975.949219 L 4552.488281 1975.230469 L 4552.488281 1975.210938 L 4552.421875 1974.710938 L 4552.328125 1974.019531 L 4552.328125 1974 L 4552.238281 1973.328125 L 4552.230469 1973.308594 L 4552.21875 1973.191406 L 4552.308594 1973.828125 L 4552.410156 1974.640625 L 4552.480469 1975.160156 L 4552.589844 1975.980469 L 4552.679688 1976.691406 L 4552.769531 1977.421875 L 4552.871094 1978.21875 L 4552.941406 1978.761719 L 4553.039062 1979.570312 L 4553.121094 1980.289062 L 4553.21875 1981.101562 L 4553.300781 1981.808594 L 4553.371094 1982.371094 L 4553.371094 1982.410156 L 4553.378906 1982.5 L 4553.449219 1983.078125 L 4553.460938 1983.179688 L 4553.539062 1983.898438 L 4553.609375 1984.570312 L 4553.621094 1984.660156 L 4553.628906 1984.710938 L 4553.640625 1984.839844 L 4553.691406 1985.261719 L 4553.730469 1985.640625 L 4553.78125 1986.109375 L 4553.851562 1986.78125 L 4553.929688 1987.511719 L 4554 1988.191406 L 4554 1988.28125 L 4554.011719 1988.320312 L 4554.019531 1988.449219 L 4554.058594 1988.871094 L 4554.101562 1989.261719 L 4554.160156 1989.859375 L 4554.210938 1990.410156 C 4554.238281 1990.640625 4554.261719 1990.878906 4554.28125 1991.109375 C 4554.300781 1991.308594 4554.320312 1991.511719 4554.339844 1991.71875 L 4554.351562 1991.808594 L 4554.359375 1991.949219 L 4554.378906 1992.191406 L 4554.410156 1992.488281 L 4554.449219 1992.890625 L 4554.488281 1993.351562 L 4554.550781 1994.03125 L 4554.609375 1994.738281 L 4554.679688 1995.480469 L 4554.730469 1996.121094 L 4554.738281 1996.21875 L 4554.75 1996.300781 L 4554.769531 1996.558594 L 4554.789062 1996.828125 L 4554.800781 1996.921875 L 4554.808594 1997.03125 L 4554.851562 1997.539062 L 4554.859375 1997.671875 L 4554.890625 1998.078125 L 4554.921875 1998.398438 L 4554.980469 1999.121094 L 4555.03125 1999.851562 L 4555.089844 2000.640625 L 4555.128906 2001.226562 L 4555.191406 2002.050781 L 4555.140625 2001.246094 L 4555.101562 2000.683594 L 4555.03125 1999.761719 "/>
</svg>
