<?xml version="1.0" encoding="UTF-8"?>
<svg xmlns="http://www.w3.org/2000/svg" xmlns:xlink="http://www.w3.org/1999/xlink" width="5000" height="3000" viewBox="0 0 5000 3000">
<rect x="-500" y="-300" width="6000" height="3600" fill="rgb(100%, 100%, 100%)" fill-opacity="1"/>
<path fill-rule="evenodd" fill="rgb(0%, 0%, 0%)" fill-opacity="1" d="M 1878.601562 2728.847656 L 2106.820312 2728.847656 C 2115.101562 2728.847656 2121.820312 2722.128906 2121.820312 2713.847656 C 2121.820312 2705.570312 2115.101562 2698.847656 2106.820312 2698.847656 L 1878.601562 2698.847656 C 1870.328125 2698.847656 1863.601562 2705.570312 1863.601562 2713.847656 C 1863.601562 2722.128906 1870.328125 2728.847656 1878.601562 2728.847656 Z M 3944.988281 2728.847656 L 4173.210938 2728.847656 C 4181.488281 2728.847656 4188.210938 2722.128906 4188.210938 2713.847656 C 4188.210938 2705.570312 4181.488281 2698.847656 4173.210938 2698.847656 L 3944.988281 2698.847656 C 3936.710938 2698.847656 3929.988281 2705.570312 3929.988281 2713.847656 C 3929.988281 2722.128906 3936.710938 2728.847656 3944.988281 2728.847656 Z M 3720.5 546.140625 C 3751.621094 478.878906 3792.421875 424.328125 3843.359375 382.988281 C 3847.679688 379.480469 3849.699219 373.859375 3848.609375 368.410156 C 3847.519531 362.949219 3843.5 358.539062 3838.160156 356.960938 C 3732.058594 325.519531 3620.390625 311.691406 3504.269531 311.890625 C 3432.578125 283.679688 3355.949219 273.691406 3271.429688 271.601562 C 3161.210938 268.871094 3037.339844 279.609375 2893.070312 279.21875 C 2685.730469 278.660156 2411.910156 275.210938 2270.339844 303.421875 C 2254.519531 306.570312 2233.210938 317.929688 2207.910156 337.070312 C 2173.03125 363.441406 2129.351562 404.878906 2080.039062 457.21875 C 1891.871094 656.941406 1620.21875 1016.628906 1441.941406 1294.648438 C 1321.808594 1308.789062 1208.839844 1334.660156 1109.199219 1382.101562 C 1091.640625 1390.460938 1068.148438 1418.550781 1043.460938 1458.96875 C 991.949219 1543.320312 930.351562 1682.191406 889.554688 1779.878906 C 871.84375 1780.628906 850.082031 1783.179688 836.050781 1787.460938 C 823.949219 1791.160156 816.480469 1797.539062 813.9375 1802.859375 C 770.390625 1894.128906 755.378906 1999.738281 765.800781 2117.988281 C 730.785156 2240.589844 721.980469 2371.597656 739.1875 2510.910156 C 739.804688 2515.894531 742.875 2520.242188 747.367188 2522.488281 C 751.863281 2524.734375 757.179688 2524.582031 761.539062 2522.082031 L 844.726562 2474.371094 C 850.015625 2471.339844 852.941406 2465.40625 852.128906 2459.363281 C 842.390625 2386.886719 844.859375 2319.761719 859.285156 2257.867188 L 871.203125 2257.867188 C 870.378906 2268.8125 869.960938 2279.875 869.960938 2291.03125 C 869.960938 2476.417969 985.433594 2635.046875 1148.300781 2698.847656 L 848.695312 2698.847656 C 840.417969 2698.847656 833.695312 2705.570312 833.695312 2713.847656 C 833.695312 2722.128906 840.417969 2728.847656 848.695312 2728.847656 L 1799.089844 2728.847656 C 1807.371094 2728.847656 1814.089844 2722.128906 1814.089844 2713.847656 C 1814.089844 2705.570312 1807.371094 2698.847656 1799.089844 2698.847656 L 1467.261719 2698.847656 C 1556.089844 2664.050781 1630.808594 2601.046875 1680.410156 2520.863281 C 1722.339844 2501.683594 1757.199219 2473.304688 1786.238281 2437.355469 C 1788.359375 2461.488281 1789.878906 2485.671875 1790.878906 2509.691406 C 1791.210938 2517.726562 1797.820312 2524.070312 1805.859375 2524.070312 L 3137.289062 2524.070312 C 3141.480469 2524.070312 3145.480469 2522.320312 3148.320312 2519.242188 C 3151.160156 2516.164062 3152.578125 2512.035156 3152.238281 2507.863281 C 3149.28125 2471.164062 3148.359375 2435.589844 3149.609375 2401.199219 C 3169.140625 2431.5 3190.898438 2456.753906 3214.820312 2476.976562 C 3262.308594 2577.964844 3347.28125 2657.917969 3451.761719 2698.847656 L 2915.078125 2698.847656 C 2906.800781 2698.847656 2900.078125 2705.570312 2900.078125 2713.847656 C 2900.078125 2722.128906 2906.800781 2728.847656 2915.078125 2728.847656 L 3865.46875 2728.847656 C 3873.75 2728.847656 3880.46875 2722.128906 3880.46875 2713.847656 C 3880.46875 2705.570312 3873.75 2698.847656 3865.46875 2698.847656 L 3770.71875 2698.847656 C 3910.039062 2644.269531 4014.671875 2520.308594 4042.019531 2369.570312 C 4056.878906 2378.503906 4072.328125 2385.632812 4088.171875 2391.644531 C 4099.128906 2395.804688 4111.660156 2396.355469 4124.859375 2394.441406 C 4140.871094 2392.113281 4158.03125 2386.109375 4173.851562 2380.683594 C 4178.839844 2379.878906 4183.300781 2376.574219 4185.359375 2371.5625 C 4245.429688 2225.007812 4272.460938 2072.945312 4269.058594 1915.808594 C 4268.941406 1910.238281 4265.738281 1905.199219 4260.761719 1902.710938 C 4257.101562 1900.878906 4252.910156 1900.660156 4249.148438 1901.960938 C 4249.128906 1869.058594 4247.300781 1839.890625 4243.339844 1816.308594 C 4242.851562 1813.410156 4241.519531 1810.710938 4239.511719 1808.558594 C 4193.628906 1759.421875 4142.480469 1714.960938 4087.429688 1673.960938 C 4085.078125 1639.5 4082.429688 1600.589844 4079.179688 1560.261719 C 4090.589844 1547.078125 4098.679688 1530.390625 4103.660156 1511.21875 C 4121.910156 1440.898438 4097.371094 1335.121094 4058.421875 1264.921875 C 4056.988281 1262.328125 4054.410156 1259.28125 4049.621094 1257.140625 C 4046.378906 1255.699219 4040.019531 1254.378906 4031.019531 1253.578125 C 4024.589844 1235.710938 4017.378906 1221.179688 4009.550781 1210.808594 C 3988.160156 1182.511719 3957.699219 1164.441406 3923.828125 1152.828125 C 3875.371094 991.71875 3815.839844 770.679688 3743.988281 599.238281 C 3736.320312 580.941406 3728.488281 563.199219 3720.5 546.140625 Z M 3610.539062 1883.21875 C 3491.699219 1883.410156 3385.640625 1930.308594 3316.191406 2009.585938 L 3315.78125 2010.054688 C 3315.640625 2010.203125 3315.5 2010.351562 3315.359375 2010.496094 C 3246 2083.605469 3203.429688 2182.386719 3203.429688 2291.03125 C 3203.429688 2516.113281 3386.160156 2698.847656 3611.238281 2698.847656 C 3836.320312 2698.847656 4019.058594 2516.113281 4019.058594 2291.03125 C 4019.058594 2065.953125 3836.320312 1883.21875 3611.238281 1883.21875 Z M 1519.589844 1942.789062 C 1518.269531 1941.988281 1519.410156 1942.511719 1512.550781 1938.5 C 1452.441406 1903.359375 1382.5 1883.21875 1307.78125 1883.21875 C 1208.039062 1883.21875 1116.628906 1919.089844 1045.71875 1978.648438 C 1045.578125 1978.769531 1045.441406 1978.890625 1045.300781 1979 C 956.453125 2053.835938 899.960938 2165.890625 899.960938 2291.03125 C 899.960938 2516.113281 1082.699219 2698.847656 1307.78125 2698.847656 C 1532.859375 2698.847656 1715.589844 2516.113281 1715.589844 2291.03125 C 1715.589844 2143.515625 1637.050781 2014.394531 1519.589844 1942.789062 Z M 1307.78125 1975.550781 C 1133.660156 1975.550781 992.296875 2116.914062 992.296875 2291.03125 C 992.296875 2465.152344 1133.660156 2606.515625 1307.78125 2606.515625 C 1481.898438 2606.515625 1623.261719 2465.152344 1623.261719 2291.03125 C 1623.261719 2116.914062 1481.898438 1975.550781 1307.78125 1975.550781 Z M 3611.238281 1975.550781 C 3437.121094 1975.550781 3295.761719 2116.914062 3295.761719 2291.03125 C 3295.761719 2465.152344 3437.121094 2606.515625 3611.238281 2606.515625 C 3785.359375 2606.515625 3926.71875 2465.152344 3926.71875 2291.03125 C 3926.71875 2116.914062 3785.359375 1975.550781 3611.238281 1975.550781 Z M 1330.511719 2410.179688 C 1323.148438 2411.578125 1315.550781 2412.3125 1307.78125 2412.3125 C 1300.011719 2412.3125 1292.410156 2411.578125 1285.050781 2410.179688 C 1250.140625 2457.238281 1226.179688 2507.410156 1218.460938 2562.238281 C 1246.550781 2571.5 1276.578125 2576.515625 1307.78125 2576.515625 C 1338.980469 2576.515625 1369.011719 2571.5 1397.101562 2562.238281 C 1389.371094 2507.40625 1365.410156 2457.234375 1330.511719 2410.179688 Z M 3633.96875 2410.179688 C 3626.609375 2411.578125 3619.011719 2412.3125 3611.238281 2412.3125 C 3603.46875 2412.3125 3595.871094 2411.578125 3588.511719 2410.179688 C 3553.609375 2457.238281 3529.640625 2507.410156 3521.921875 2562.238281 C 3550.011719 2571.5 3580.039062 2576.515625 3611.238281 2576.515625 C 3642.441406 2576.515625 3672.46875 2571.5 3700.558594 2562.238281 C 3692.839844 2507.40625 3668.878906 2457.234375 3633.96875 2410.179688 Z M 3691.710938 2381.738281 C 3679.589844 2392.5 3665.300781 2400.871094 3649.589844 2406.113281 C 3683.460938 2452.976562 3706.738281 2502.871094 3714.96875 2557.058594 C 3742.140625 2546.441406 3767.289062 2531.78125 3789.691406 2513.8125 C 3746.898438 2479.589844 3715.351562 2434.484375 3691.710938 2381.738281 Z M 1227.308594 2381.738281 C 1203.671875 2434.492188 1172.121094 2479.59375 1129.328125 2513.8125 C 1151.71875 2531.777344 1176.878906 2546.441406 1204.058594 2557.058594 C 1212.28125 2502.871094 1235.558594 2452.972656 1269.429688 2406.113281 C 1253.710938 2400.871094 1239.429688 2392.496094 1227.308594 2381.738281 Z M 3530.769531 2381.738281 C 3507.128906 2434.492188 3475.578125 2479.59375 3432.789062 2513.8125 C 3455.179688 2531.777344 3480.339844 2546.441406 3507.519531 2557.058594 C 3515.75 2502.871094 3539.03125 2452.972656 3572.898438 2406.113281 C 3557.179688 2400.871094 3542.890625 2392.496094 3530.769531 2381.738281 Z M 1388.25 2381.738281 C 1376.128906 2392.5 1361.839844 2400.871094 1346.121094 2406.113281 C 1379.988281 2452.976562 1403.269531 2502.871094 1411.5 2557.058594 C 1438.671875 2546.441406 1463.828125 2531.78125 1486.230469 2513.8125 C 1443.441406 2479.589844 1411.878906 2434.484375 1388.25 2381.738281 Z M 1193.21875 2330.917969 C 1135.03125 2324.222656 1079.601562 2328.554688 1028.25 2349.277344 C 1040.898438 2410.160156 1072.960938 2463.964844 1117.648438 2503.925781 C 1161.238281 2469.820312 1192.691406 2423.992188 1215.980469 2370.253906 C 1206.089844 2358.808594 1198.308594 2345.496094 1193.21875 2330.917969 Z M 3496.691406 2330.917969 C 3438.488281 2324.222656 3383.058594 2328.554688 3331.71875 2349.277344 C 3344.359375 2410.160156 3376.421875 2463.964844 3421.121094 2503.925781 C 3464.699219 2469.820312 3496.148438 2423.992188 3519.441406 2370.253906 C 3509.550781 2358.808594 3501.769531 2345.496094 3496.691406 2330.917969 Z M 3890.769531 2349.277344 C 3839.421875 2328.554688 3783.988281 2324.222656 3725.800781 2330.917969 C 3720.71875 2345.492188 3712.929688 2358.804688 3703.039062 2370.253906 C 3726.328125 2423.992188 3757.78125 2469.820312 3801.371094 2503.925781 C 3846.070312 2463.964844 3878.128906 2410.160156 3890.769531 2349.277344 Z M 1587.300781 2349.277344 C 1535.960938 2328.554688 1480.53125 2324.222656 1422.328125 2330.917969 C 1417.25 2345.492188 1409.46875 2358.804688 1399.578125 2370.253906 C 1422.871094 2423.992188 1454.320312 2469.820312 1497.898438 2503.925781 C 1542.609375 2463.964844 1574.660156 2410.160156 1587.300781 2349.277344 Z M 795.039062 2107.640625 C 795.3125 2111.109375 795.609375 2114.585938 795.925781 2118.074219 C 796.097656 2119.933594 795.917969 2121.808594 795.398438 2123.601562 C 762.734375 2236.617188 753.191406 2357.015625 766.40625 2484.707031 L 821.117188 2453.328125 C 796.222656 2246.546875 866.527344 2081.480469 1026.441406 1955.671875 C 1102.558594 1891.730469 1200.710938 1853.21875 1307.78125 1853.21875 C 1387.070312 1853.21875 1461.460938 1874.339844 1525.640625 1911.261719 C 1610.390625 1934.03125 1673.378906 1992.761719 1718.859375 2072.53125 C 1769.308594 2161.015625 1798.101562 2275.714844 1811.929688 2394.023438 C 1812.019531 2394.5625 1812.089844 2395.109375 1812.121094 2395.65625 C 1815.898438 2428.351562 1818.550781 2461.316406 1820.191406 2494.070312 L 3121.148438 2494.070312 C 3107.621094 2286.8125 3159.128906 2115.070312 3294.160156 1989.261719 C 3373.929688 1905.46875 3486.53125 1853.21875 3611.238281 1853.21875 C 3852.878906 1853.21875 4049.058594 2049.394531 4049.058594 2291.03125 C 4049.058594 2306.53125 4048.25 2321.84375 4046.679688 2336.90625 C 4063.21875 2348.304688 4080.75 2356.742188 4098.808594 2363.59375 C 4107.230469 2366.789062 4117.179688 2365.699219 4127.511719 2363.484375 C 4136.96875 2361.457031 4146.671875 2358.292969 4156.070312 2355.078125 C 4158.078125 2264.265625 4153.371094 2176.421875 4128.738281 2090.691406 C 4112.921875 2035.636719 4091.621094 1986.660156 4065.839844 1943.539062 C 4064.671875 1941.578125 4064 1939.460938 4063.789062 1937.320312 L 4063.78125 1937.28125 C 4063.578125 1935.148438 4063.820312 1932.941406 4064.589844 1930.789062 C 4064.859375 1930.050781 4065.171875 1929.351562 4065.53125 1928.691406 C 3946.539062 1739.691406 3740.609375 1666.628906 3541.171875 1686.511719 C 3236 1716.910156 2945.679688 1964.898438 3004.128906 2349.441406 C 3004.460938 2351.601562 3003.828125 2353.800781 3002.410156 2355.457031 C 3000.980469 2357.113281 2998.898438 2358.070312 2996.71875 2358.070312 L 1955.558594 2358.070312 C 1952.140625 2358.070312 1949.148438 2355.757812 1948.300781 2352.449219 C 1927.28125 2271.351562 1902.941406 2198.339844 1864.761719 2122.820312 C 1743.539062 1883.101562 1533.5 1757.488281 1323.980469 1754.738281 C 1114.589844 1751.988281 906.09375 1872.070312 787.769531 2122.640625 L 788.203125 2121.730469 C 790.363281 2117.167969 792.566406 2112.628906 794.808594 2108.109375 L 795.039062 2107.640625 L 787.769531 2122.640625 Z M 1718.328125 2138.734375 C 1735.960938 2186.171875 1745.589844 2237.488281 1745.589844 2291.035156 C 1745.589844 2355.308594 1731.710938 2416.363281 1706.789062 2471.363281 C 1736.121094 2450.886719 1760.769531 2424.34375 1781.640625 2392.878906 C 1770.769531 2302.089844 1750.851562 2213.714844 1718.328125 2138.734375 Z M 3177.820312 2228.804688 C 3165.988281 2266.414062 3157.941406 2306.109375 3153.429688 2347.738281 C 3164.179688 2368.660156 3175.789062 2387.585938 3188.289062 2404.480469 C 3188.289062 2404.480469 3173.429688 2356.214844 3173.429688 2291.03125 C 3173.429688 2269.914062 3174.921875 2249.140625 3177.820312 2228.804688 Z M 3611.238281 2199.757812 C 3661.621094 2199.757812 3702.519531 2240.65625 3702.519531 2291.03125 C 3702.519531 2341.410156 3661.621094 2382.3125 3611.238281 2382.3125 C 3560.859375 2382.3125 3519.960938 2341.410156 3519.960938 2291.03125 C 3519.960938 2240.65625 3560.859375 2199.757812 3611.238281 2199.757812 Z M 1307.78125 2199.757812 C 1358.160156 2199.757812 1399.058594 2240.65625 1399.058594 2291.03125 C 1399.058594 2341.410156 1358.160156 2382.3125 1307.78125 2382.3125 C 1257.398438 2382.3125 1216.5 2341.410156 1216.5 2291.03125 C 1216.5 2240.65625 1257.398438 2199.757812 1307.78125 2199.757812 Z M 1571.988281 2056.039062 C 1627.621094 2118.53125 1661.441406 2200.863281 1661.441406 2291.03125 C 1661.441406 2309.964844 1659.949219 2328.550781 1657.078125 2346.679688 C 1656.429688 2350.765625 1659.230469 2354.609375 1663.308594 2355.257812 C 1667.398438 2355.90625 1671.25 2353.109375 1671.890625 2349.023438 C 1674.878906 2330.128906 1676.441406 2310.761719 1676.441406 2291.03125 C 1676.441406 2197.035156 1641.179688 2111.210938 1583.191406 2046.0625 C 1580.441406 2042.972656 1575.691406 2042.695312 1572.601562 2045.449219 C 1569.511719 2048.203125 1569.230469 2052.945312 1571.988281 2056.039062 Z M 3875.449219 2056.039062 C 3931.078125 2118.53125 3964.898438 2200.863281 3964.898438 2291.03125 C 3964.898438 2309.964844 3963.410156 2328.550781 3960.539062 2346.679688 C 3959.890625 2350.765625 3962.691406 2354.609375 3966.78125 2355.257812 C 3970.859375 2355.90625 3974.710938 2353.109375 3975.359375 2349.023438 C 3978.351562 2330.128906 3979.898438 2310.761719 3979.898438 2291.03125 C 3979.898438 2197.035156 3944.648438 2111.210938 3886.648438 2046.0625 C 3883.898438 2042.972656 3879.160156 2042.695312 3876.058594 2045.449219 C 3872.96875 2048.203125 3872.699219 2052.945312 3875.449219 2056.039062 Z M 1976.449219 1310.488281 L 1976.449219 2343.070312 L 2988.050781 2343.070312 C 2933.710938 1953.640625 3227.160156 1785.800781 3227.160156 1785.800781 L 3223.199219 1218.960938 Z M 4078.320312 1920.839844 C 4080.121094 1920.789062 4081.96875 1921.070312 4083.769531 1921.71875 C 4132.621094 1939.199219 4177.839844 1939.238281 4219 1919.609375 C 4219.648438 1883.488281 4218.339844 1851.378906 4214.460938 1825.710938 C 4169.070312 1777.570312 4118.460938 1734.070312 4064.039062 1693.96875 C 4060.488281 1691.351562 4058.269531 1687.308594 4057.96875 1682.910156 C 4055.890625 1652.390625 4053.578125 1618.058594 4050.808594 1582.171875 C 4034.300781 1590.269531 4013.941406 1593.988281 3989.121094 1591.691406 C 3981.671875 1591 3973.550781 1587.789062 3965.089844 1582.171875 C 3955.289062 1575.671875 3944.589844 1565.679688 3933.28125 1554.210938 C 3908.578125 1529.179688 3880.679688 1495.921875 3850.53125 1485.210938 C 3793.078125 1464.789062 3731.539062 1456.859375 3684.078125 1440.578125 C 3630.078125 1422.058594 3593.179688 1393.140625 3591.871094 1332.019531 C 3591.710938 1324.679688 3596.191406 1315.238281 3609.210938 1308.039062 C 3624.671875 1299.480469 3656.519531 1290.878906 3696.621094 1283.441406 C 3789.011719 1266.308594 3926.71875 1253.78125 3998.609375 1252.828125 C 3994.609375 1243.210938 3990.308594 1235.121094 3985.609375 1228.898438 C 3966.421875 1203.5 3938.101562 1188.558594 3907.28125 1178.988281 C 3902.519531 1177.511719 3898.808594 1173.769531 3897.359375 1169 C 3848.761719 1008.148438 3788.910156 784.03125 3716.320312 610.828125 C 3708.050781 591.101562 3699.628906 572.019531 3691.058594 553.78125 C 3690.609375 553 3690.21875 552.171875 3689.910156 551.320312 C 3650.128906 467.148438 3607.058594 401.371094 3559.429688 372.539062 C 3538.75 360.019531 3517.691406 349.601562 3496.171875 340.949219 C 3495.960938 340.871094 3495.75 340.789062 3495.539062 340.699219 C 3426.371094 313.03125 3352.359375 303.609375 3270.691406 301.589844 C 3160.671875 298.871094 3037 309.609375 2892.988281 309.21875 C 2687.640625 308.671875 2416.421875 304.898438 2276.199219 332.839844 C 2263.371094 335.398438 2246.539062 345.460938 2226 360.988281 C 2192.128906 386.609375 2149.769531 426.949219 2101.871094 477.789062 C 2086.058594 494.578125 2069.640625 512.5 2052.730469 531.441406 C 1895.75 793.511719 1738.28125 1058.910156 1578.808594 1338.28125 C 1577.199219 1341.121094 1573.929688 1342.578125 1570.738281 1341.898438 L 1461.890625 1318.769531 C 1459.460938 1321.46875 1456.101562 1323.21875 1452.429688 1323.640625 C 1438.050781 1325.269531 1423.78125 1327.070312 1409.621094 1329.058594 C 1421.550781 1332.621094 1433.011719 1337.121094 1443.929688 1342.710938 C 1445.980469 1343.761719 1447.429688 1345.699219 1447.871094 1347.960938 C 1448.308594 1350.21875 1447.691406 1352.558594 1446.179688 1354.300781 C 1387.539062 1422.089844 1340.21875 1498.171875 1301.46875 1580.550781 C 1300.691406 1582.21875 1299.308594 1583.550781 1297.609375 1584.269531 C 1229.308594 1613.148438 1110.78125 1663.691406 1062.558594 1679.011719 C 1051.601562 1682.488281 1043.769531 1684.078125 1040.300781 1683.839844 C 1037.019531 1683.609375 1034.988281 1682.25 1033.800781 1680.988281 C 1014.238281 1660.261719 1003.75 1634.75 999.675781 1605.910156 C 970.109375 1667.699219 941.539062 1733.378906 919.03125 1787.140625 L 1093.960938 1787.140625 C 1167.628906 1754.371094 1245.871094 1738.710938 1324.179688 1739.738281 C 1538.671875 1742.550781 1754.050781 1870.640625 1878.140625 2116.054688 C 1915.949219 2190.816406 1940.390625 2263.140625 1961.351562 2343.070312 L 1961.449219 2343.070312 L 1961.449219 1311.589844 L 1672.378906 1332.808594 C 1669.679688 1333.011719 1667.078125 1331.730469 1665.578125 1329.46875 C 1664.078125 1327.21875 1663.921875 1324.328125 1665.148438 1321.910156 C 1687.058594 1279.058594 1709.460938 1236.519531 1732.308594 1194.320312 L 1732.339844 1194.269531 L 1732.339844 1194.261719 C 1880.679688 920.378906 2049.390625 659.441406 2240.140625 412.511719 C 2244.679688 406.628906 2253.410156 401.011719 2266.199219 396.230469 C 2283.191406 389.878906 2307.871094 384.519531 2338.679688 380.121094 C 2539.910156 351.378906 3007.949219 362.019531 3288.5 370.761719 L 3288.550781 370.761719 C 3411.808594 374.609375 3499.230469 407.398438 3568.96875 449.808594 C 3599.179688 468.179688 3629.691406 516.53125 3658.941406 583 C 3725.410156 734.058594 3787.808594 979.511719 3838.78125 1164.789062 C 3839.371094 1166.960938 3838.96875 1169.269531 3837.671875 1171.109375 C 3836.378906 1172.941406 3834.328125 1174.101562 3832.089844 1174.261719 L 3238.191406 1217.859375 L 3242.089844 1775.75 C 3242.089844 1775.75 3367.851562 1688.789062 3539.710938 1671.660156 C 3744.449219 1651.261719 3955.691406 1726.410156 4077.949219 1920.269531 L 4078.320312 1920.851562 C 4079.761719 1923.148438 4081.199219 1925.46875 4082.621094 1927.800781 C 4083.46875 1929.191406 4084.308594 1930.589844 4085.148438 1931.988281 C 4085.269531 1932.191406 4084.921875 1931.601562 4084.800781 1931.398438 C 4084.679688 1931.199219 4084.558594 1931.011719 4084.441406 1930.808594 C 4083.96875 1930.019531 4083.488281 1929.230469 4083.019531 1928.449219 C 4081.46875 1925.898438 4079.898438 1923.371094 4078.320312 1920.851562 Z M 3611.238281 2242.828125 C 3584.640625 2242.828125 3563.03125 2264.425781 3563.03125 2291.03125 C 3563.03125 2317.640625 3584.640625 2339.238281 3611.238281 2339.238281 C 3637.851562 2339.238281 3659.449219 2317.640625 3659.449219 2291.03125 C 3659.449219 2264.425781 3637.851562 2242.828125 3611.238281 2242.828125 Z M 1307.78125 2242.828125 C 1281.171875 2242.828125 1259.570312 2264.425781 1259.570312 2291.03125 C 1259.570312 2317.640625 1281.171875 2339.238281 1307.78125 2339.238281 C 1334.378906 2339.238281 1355.988281 2317.640625 1355.988281 2291.03125 C 1355.988281 2264.425781 1334.378906 2242.828125 1307.78125 2242.828125 Z M 1025.550781 2247.851562 C 1023.410156 2261.921875 1022.300781 2276.347656 1022.300781 2291.03125 C 1022.300781 2305.71875 1023.410156 2320.144531 1025.550781 2334.214844 C 1076.589844 2314.25 1131.441406 2309.464844 1188.949219 2315.367188 C 1187.339844 2307.503906 1186.5 2299.367188 1186.5 2291.03125 C 1186.5 2282.699219 1187.339844 2274.5625 1188.949219 2266.699219 C 1131.429688 2272.601562 1076.589844 2267.816406 1025.550781 2247.851562 Z M 3329.011719 2247.851562 C 3326.871094 2261.921875 3325.761719 2276.347656 3325.761719 2291.03125 C 3325.761719 2305.71875 3326.871094 2320.144531 3329.011719 2334.214844 C 3380.050781 2314.25 3434.898438 2309.464844 3492.410156 2315.367188 C 3490.808594 2307.503906 3489.960938 2299.367188 3489.960938 2291.03125 C 3489.960938 2282.699219 3490.808594 2274.5625 3492.410156 2266.699219 C 3434.890625 2272.601562 3380.050781 2267.816406 3329.011719 2247.851562 Z M 1590.011719 2247.851562 C 1538.96875 2267.816406 1484.121094 2272.601562 1426.609375 2266.699219 C 1428.210938 2274.5625 1429.058594 2282.699219 1429.058594 2291.03125 C 1429.058594 2299.367188 1428.210938 2307.503906 1426.609375 2315.367188 C 1484.128906 2309.464844 1538.96875 2314.25 1590.011719 2334.214844 C 1592.148438 2320.144531 1593.261719 2305.71875 1593.261719 2291.03125 C 1593.261719 2276.347656 1592.148438 2261.921875 1590.011719 2247.851562 Z M 3893.46875 2247.851562 C 3842.429688 2267.816406 3787.578125 2272.601562 3730.070312 2266.699219 C 3731.679688 2274.5625 3732.519531 2282.699219 3732.519531 2291.03125 C 3732.519531 2299.367188 3731.679688 2307.503906 3730.070312 2315.367188 C 3787.589844 2309.464844 3842.441406 2314.25 3893.46875 2334.214844 C 3895.609375 2320.144531 3896.71875 2305.71875 3896.71875 2291.03125 C 3896.71875 2276.347656 3895.609375 2261.921875 3893.46875 2247.851562 Z M 3611.238281 2257.828125 C 3629.570312 2257.828125 3644.449219 2272.707031 3644.449219 2291.03125 C 3644.449219 2309.359375 3629.570312 2324.238281 3611.238281 2324.238281 C 3592.910156 2324.238281 3578.03125 2309.359375 3578.03125 2291.03125 C 3578.03125 2272.707031 3592.910156 2257.828125 3611.238281 2257.828125 Z M 1307.78125 2257.828125 C 1326.109375 2257.828125 1340.988281 2272.707031 1340.988281 2291.03125 C 1340.988281 2309.359375 1326.109375 2324.238281 1307.78125 2324.238281 C 1289.449219 2324.238281 1274.570312 2309.359375 1274.570312 2291.03125 C 1274.570312 2272.707031 1289.449219 2257.828125 1307.78125 2257.828125 Z M 4185.980469 2282.871094 C 4221.839844 2172.601562 4239.25 2059.238281 4239.339844 1942.988281 C 4199.28125 1964.421875 4155.878906 1969.800781 4109.390625 1960.121094 C 4128.550781 1997.171875 4144.78125 2037.886719 4157.578125 2082.410156 C 4176.398438 2147.925781 4184.089844 2214.625 4185.980469 2282.871094 Z M 3421.121094 2078.140625 C 3376.410156 2118.101562 3344.359375 2171.90625 3331.71875 2232.789062 C 3383.058594 2253.511719 3438.488281 2257.84375 3496.691406 2251.148438 C 3501.769531 2236.574219 3509.550781 2223.261719 3519.441406 2211.8125 C 3496.148438 2158.074219 3464.699219 2112.246094 3421.121094 2078.140625 Z M 3801.371094 2078.140625 C 3757.78125 2112.246094 3726.328125 2158.074219 3703.039062 2211.8125 C 3712.929688 2223.257812 3720.71875 2236.570312 3725.800781 2251.148438 C 3783.988281 2257.84375 3839.421875 2253.511719 3890.769531 2232.789062 C 3878.121094 2171.902344 3846.058594 2118.101562 3801.371094 2078.140625 Z M 1497.898438 2078.140625 C 1454.320312 2112.246094 1422.871094 2158.074219 1399.578125 2211.8125 C 1409.46875 2223.257812 1417.25 2236.570312 1422.328125 2251.148438 C 1480.53125 2257.84375 1535.949219 2253.511719 1587.300781 2232.789062 C 1574.660156 2171.902344 1542.601562 2118.101562 1497.898438 2078.140625 Z M 1117.648438 2078.140625 C 1072.949219 2118.101562 1040.890625 2171.90625 1028.25 2232.789062 C 1079.601562 2253.511719 1135.03125 2257.84375 1193.21875 2251.148438 C 1198.300781 2236.574219 1206.089844 2223.261719 1215.980469 2211.8125 C 1192.691406 2158.074219 1161.238281 2112.246094 1117.648438 2078.140625 Z M 874.492188 2227.867188 C 876.636719 2213.054688 879.527344 2198.480469 883.117188 2184.179688 C 877.128906 2198.425781 871.867188 2212.992188 867.335938 2227.867188 Z M 1411.5 2025.007812 C 1403.269531 2079.195312 1379.988281 2129.09375 1346.121094 2175.953125 C 1361.839844 2181.195312 1376.128906 2189.570312 1388.25 2200.328125 C 1411.890625 2147.574219 1443.441406 2102.472656 1486.230469 2068.253906 C 1463.839844 2050.289062 1438.679688 2035.625 1411.5 2025.007812 Z M 3714.96875 2025.007812 C 3706.738281 2079.195312 3683.460938 2129.09375 3649.589844 2175.953125 C 3665.300781 2181.195312 3679.589844 2189.570312 3691.710938 2200.328125 C 3715.351562 2147.574219 3746.898438 2102.472656 3789.691406 2068.253906 C 3767.300781 2050.289062 3742.140625 2035.625 3714.96875 2025.007812 Z M 3507.519531 2025.007812 C 3480.351562 2035.621094 3455.191406 2050.28125 3432.789062 2068.253906 C 3475.578125 2102.476562 3507.140625 2147.582031 3530.769531 2200.328125 C 3542.890625 2189.566406 3557.179688 2181.195312 3572.898438 2175.953125 C 3539.03125 2129.089844 3515.75 2079.195312 3507.519531 2025.007812 Z M 1204.058594 2025.007812 C 1176.878906 2035.621094 1151.730469 2050.28125 1129.328125 2068.253906 C 1172.121094 2102.476562 1203.671875 2147.582031 1227.308594 2200.328125 C 1239.429688 2189.566406 1253.71875 2181.195312 1269.429688 2175.953125 C 1235.558594 2129.089844 1212.28125 2079.195312 1204.058594 2025.007812 Z M 1397.101562 2019.824219 C 1369.011719 2010.566406 1338.980469 2005.550781 1307.78125 2005.550781 C 1276.578125 2005.550781 1246.550781 2010.566406 1218.460938 2019.824219 C 1226.179688 2074.660156 1250.140625 2124.832031 1285.050781 2171.886719 C 1292.410156 2170.488281 1300.011719 2169.757812 1307.78125 2169.757812 C 1315.550781 2169.757812 1323.148438 2170.488281 1330.511719 2171.886719 C 1365.410156 2124.828125 1389.378906 2074.65625 1397.101562 2019.824219 Z M 3700.558594 2019.824219 C 3672.46875 2010.566406 3642.441406 2005.550781 3611.238281 2005.550781 C 3580.039062 2005.550781 3550.011719 2010.566406 3521.921875 2019.824219 C 3529.648438 2074.660156 3553.609375 2124.832031 3588.511719 2171.886719 C 3595.871094 2170.488281 3603.46875 2169.757812 3611.238281 2169.757812 C 3619.011719 2169.757812 3626.609375 2170.488281 3633.96875 2171.886719 C 3668.878906 2124.828125 3692.839844 2074.65625 3700.558594 2019.824219 Z M 1062.859375 1802.140625 L 912.644531 1802.140625 C 909.996094 1806.730469 905.078125 1809.628906 899.683594 1809.640625 C 885.65625 1809.671875 865.691406 1811.261719 851.011719 1814.539062 C 847.019531 1815.441406 841.929688 1817.339844 839.910156 1818.128906 C 803.921875 1894.671875 789.234375 1981.808594 793.265625 2078.375 C 786.691406 2090.640625 780.332031 2103.265625 774.207031 2116.234375 L 793.265625 2078.375 C 862.765625 1948.730469 957.289062 1857.109375 1062.859375 1802.140625 Z M 3768.191406 1974.070312 C 3791.910156 1985.851562 3814.121094 2000.210938 3834.449219 2016.785156 C 3837.660156 2019.398438 3842.390625 2018.917969 3845 2015.710938 C 3847.621094 2012.5 3847.140625 2007.773438 3843.929688 2005.15625 C 3822.730469 1987.878906 3799.589844 1972.910156 3774.871094 1960.640625 C 3771.160156 1958.800781 3766.660156 1960.308594 3764.808594 1964.019531 C 3762.96875 1967.730469 3764.488281 1972.230469 3768.191406 1974.070312 Z M 1464.730469 1974.070312 C 1488.449219 1985.851562 1510.648438 2000.210938 1530.988281 2016.785156 C 1534.199219 2019.398438 1538.921875 2018.917969 1541.539062 2015.710938 C 1544.160156 2012.5 1543.671875 2007.773438 1540.460938 2005.15625 C 1519.269531 1987.878906 1496.121094 1972.910156 1471.398438 1960.640625 C 1467.699219 1958.800781 1463.191406 1960.308594 1461.351562 1964.019531 C 1459.511719 1967.730469 1461.019531 1972.230469 1464.730469 1974.070312 Z M 1368.019531 1335.488281 C 1280.128906 1350.421875 1197.199219 1373.429688 1122.089844 1409.179688 C 1117.011719 1411.601562 1111.539062 1416.628906 1105.429688 1423.390625 C 1094.328125 1435.671875 1082.058594 1453.328125 1069.058594 1474.609375 C 1051.050781 1504.109375 1031.800781 1540.371094 1012.660156 1579.171875 C 1013.199219 1613.949219 1021.390625 1644.691406 1042.78125 1668.589844 C 1045.539062 1668.039062 1051.820312 1666.691406 1058.019531 1664.710938 C 1105.359375 1649.679688 1220.820312 1600.460938 1289.128906 1571.570312 C 1326.808594 1491.941406 1372.46875 1418.148438 1428.460938 1351.941406 C 1409.730469 1343.609375 1389.429688 1338.441406 1368.019531 1335.488281 Z M 3453.921875 1335.53125 C 3382 1335.53125 3323.601562 1393.929688 3323.601562 1465.851562 C 3323.601562 1537.78125 3382 1596.179688 3453.921875 1596.179688 C 3525.851562 1596.179688 3584.25 1537.78125 3584.25 1465.851562 C 3584.25 1393.929688 3525.851562 1335.53125 3453.921875 1335.53125 Z M 3453.921875 1350.53125 C 3517.570312 1350.53125 3569.25 1402.210938 3569.25 1465.851562 C 3569.25 1529.5 3517.570312 1581.179688 3453.921875 1581.179688 C 3390.269531 1581.179688 3338.601562 1529.5 3338.601562 1465.851562 C 3338.601562 1402.210938 3390.269531 1350.53125 3453.921875 1350.53125 Z M 4019.308594 1282.941406 C 4019.019531 1282.929688 4018.730469 1282.921875 4018.441406 1282.910156 C 3957.101562 1281.179688 3802.378906 1294.339844 3702.089844 1312.941406 C 3670.878906 1318.71875 3645.089844 1324.941406 3629.53125 1331.519531 C 3626.871094 1332.640625 3623.859375 1334.390625 3622.03125 1335.511719 C 3624.671875 1379.03125 3654.03125 1398.558594 3693.808594 1412.199219 C 3741.371094 1428.511719 3803.019531 1436.488281 3860.578125 1456.941406 C 3894.441406 1468.96875 3926.890625 1505.019531 3954.640625 1533.140625 C 3962.820312 1541.441406 3970.558594 1548.921875 3977.839844 1554.441406 C 3982.980469 1558.328125 3987.488281 1561.410156 3991.890625 1561.820312 C 4015.78125 1564.03125 4034.148438 1559.390625 4047.648438 1548.988281 C 4061.238281 1538.539062 4069.710938 1522.589844 4074.621094 1503.679688 C 4090.839844 1441.191406 4068.820312 1348.171875 4034.789062 1284.269531 C 4031.390625 1283.839844 4025.421875 1283.191406 4019.710938 1282.960938 C 4019.570312 1282.949219 4019.441406 1282.949219 4019.308594 1282.941406 Z M 2767.289062 1542.300781 L 2767.289062 1550.429688 C 2767.289062 1554.570312 2770.648438 1557.929688 2774.789062 1557.929688 L 3129.289062 1557.929688 C 3133.398438 1557.929688 3136.738281 1554.628906 3136.789062 1550.519531 L 3137.160156 1520.378906 L 3138.261719 1520.320312 C 3141.46875 1520.128906 3144.210938 1517.898438 3145.050781 1514.789062 C 3153.488281 1483.628906 3158.128906 1433.789062 3150.328125 1407.050781 C 3145.929688 1391.929688 3137.300781 1383.570312 3125.800781 1383.980469 C 3007.679688 1388.21875 2897.710938 1397.691406 2824.921875 1429.929688 C 2774.210938 1452.398438 2741.160156 1485.859375 2734.03125 1535.25 C 2733.710938 1537.480469 2734.410156 1539.730469 2735.929688 1541.390625 C 2737.460938 1543.050781 2739.648438 1543.941406 2741.898438 1543.808594 Z M 3122.148438 1521.269531 L 2782.289062 1541.410156 L 2782.289062 1542.929688 L 3121.878906 1542.929688 Z M 2750.578125 1528.261719 L 3131.898438 1505.671875 C 3137.859375 1480.96875 3141.441406 1446.601562 3138.199219 1422.421875 C 3137.160156 1414.679688 3135.488281 1408.058594 3132.71875 1403.46875 C 3131.101562 1400.78125 3129.179688 1398.871094 3126.339844 1398.96875 C 3010.410156 1403.128906 2902.429688 1412 2831 1443.648438 C 2788.769531 1462.359375 2759.601562 1489.058594 2750.578125 1528.261719 Z M 1996.871094 595.488281 C 1970.980469 625.828125 1945.488281 656.511719 1920.320312 687.460938 C 1900.839844 711.410156 1881.539062 735.511719 1862.410156 759.75 C 1839.519531 788.75 1816.871094 817.941406 1794.429688 847.289062 C 1771.570312 877.191406 1748.941406 907.25 1726.519531 937.480469 C 1703.621094 968.371094 1680.929688 999.429688 1658.480469 1030.648438 C 1636.339844 1061.441406 1614.429688 1092.390625 1592.761719 1123.511719 C 1574.929688 1149.109375 1557.269531 1174.839844 1539.808594 1200.691406 C 1516.761719 1234.800781 1494.050781 1269.140625 1471.761719 1303.75 L 1470.75 1305.320312 L 1568.5 1326.089844 C 1712.601562 1073.738281 1855.078125 832.75 1997.039062 595.289062 Z M 1968.449219 1296.03125 L 3293.128906 1198.789062 L 3280.878906 385.53125 C 3035.601562 377.949219 2652.761719 369.148438 2427.261719 386.03125 C 2369.210938 390.371094 2321.671875 396.398438 2289.78125 404.640625 C 2270.539062 409.609375 2257.300781 414.828125 2252.011719 421.679688 C 2097.570312 621.601562 1957.621094 830.738281 1831.269531 1048.5 C 1863.261719 1043.46875 1894.789062 1043.949219 1925.730469 1051.480469 C 1999.941406 906.429688 2116.320312 691.410156 2205.210938 571.699219 C 2228.730469 540.039062 2250.390625 514.980469 2268.871094 499.410156 C 2282.421875 488 2294.621094 481.589844 2304.699219 480.460938 C 2349.261719 475.441406 2878 440.550781 3092.761719 457.121094 C 3131.5 460.109375 3160.289062 464.941406 3174.800781 471.628906 C 3183.851562 475.800781 3188.261719 481.351562 3189.140625 486.679688 C 3225.871094 707.53125 3216.980469 932.949219 3218.300781 1157.339844 C 3218.320312 1161.289062 3215.28125 1164.578125 3211.339844 1164.871094 L 1943.648438 1255.441406 C 1936.960938 1263.171875 1929.449219 1267.640625 1921.75 1268.230469 C 1834.039062 1274.949219 1773.058594 1256.191406 1739.671875 1212.261719 C 1721 1246.910156 1702.628906 1281.789062 1684.589844 1316.871094 L 1968.351562 1296.039062 L 1968.378906 1296.039062 Z M 1927.679688 1067.480469 C 1893 1058.011719 1857.511719 1058.238281 1821.441406 1065.5 C 1796.289062 1109.179688 1771.679688 1153.199219 1747.609375 1197.570312 C 1777.359375 1242.328125 1835.75 1259.78125 1920.601562 1253.269531 C 1925.359375 1252.910156 1929.488281 1249.640625 1933.339844 1244.628906 C 1933.679688 1244.011719 1934.101562 1243.441406 1934.589844 1242.941406 C 1935.890625 1241.101562 1937.160156 1239.070312 1938.410156 1236.898438 C 1948.269531 1219.839844 1955.441406 1193.558594 1959 1166.800781 C 1962.550781 1140.03125 1962.488281 1112.738281 1957.421875 1093.589844 C 1954.679688 1083.210938 1950.980469 1075.25 1944.421875 1072.839844 C 1938.871094 1070.789062 1933.300781 1069.011719 1927.699219 1067.488281 Z M 1953.96875 1239.660156 L 3203.261719 1150.410156 C 3202.171875 929.128906 3210.558594 706.910156 3174.351562 489.140625 C 3174.230469 488.421875 3173.359375 488.078125 3172.5 487.46875 C 3170.121094 485.789062 3166.71875 484.308594 3162.460938 482.910156 C 3147.46875 477.960938 3122.96875 474.5 3091.609375 472.070312 C 2877.621094 455.558594 2350.78125 490.359375 2306.371094 495.359375 C 2298.449219 496.25 2289.191406 501.910156 2278.539062 510.878906 C 2260.71875 525.890625 2239.921875 550.121094 2217.261719 580.648438 C 2129.308594 699.070312 2014.410156 911.238281 1940.46875 1055.621094 C 1943.519531 1056.601562 1946.558594 1057.640625 1949.609375 1058.761719 C 1959.820312 1062.519531 1967.640625 1073.570312 1971.929688 1089.761719 C 1977.390625 1110.429688 1977.699219 1139.878906 1973.871094 1168.769531 C 1970.339844 1195.289062 1963.339844 1221.308594 1953.96875 1239.660156 Z M 3295.890625 386.039062 C 3411.808594 390.890625 3494.75 422.230469 3561.179688 462.628906 C 3589.710938 479.980469 3617.578125 526.261719 3645.210938 589.039062 C 3710.390625 737.179688 3771.570312 976.449219 3821.898438 1159.96875 L 3308.109375 1197.691406 Z M 3380.269531 452.679688 C 3376.46875 452.828125 3373.390625 455.808594 3373.089844 459.601562 C 3356.96875 669.050781 3361.019531 885.238281 3374.308594 1104.5 C 3374.550781 1108.488281 3377.878906 1111.589844 3381.871094 1111.550781 C 3490.960938 1110.429688 3603.488281 1102.449219 3719.121094 1088.25 C 3721.230469 1087.988281 3723.128906 1086.851562 3724.351562 1085.109375 C 3725.570312 1083.371094 3726 1081.199219 3725.519531 1079.128906 C 3692.960938 936.75 3650.878906 738 3578.378906 603.511719 C 3528.671875 511.300781 3464.339844 449.339844 3380.269531 452.679688 Z M 3387.53125 467.550781 C 3462.96875 467.949219 3519.929688 526.699219 3565.179688 610.628906 C 3635.71875 741.5 3677.011719 933.769531 3709.050781 1074.359375 C 3599.398438 1087.558594 3492.570312 1095.121094 3388.851562 1096.460938 C 3376.089844 882.71875 3372.230469 671.941406 3387.53125 467.550781 Z M 3781.558594 399.75 C 3744.859375 418.640625 3713.328125 445.589844 3687.570312 481.570312 C 3693.039062 491.339844 3698.449219 501.480469 3703.789062 511.949219 C 3725.679688 469.269531 3751.589844 431.851562 3781.558594 399.75 Z M 3568.96875 343.300781 C 3570.980469 344.480469 3572.980469 345.671875 3574.96875 346.871094 C 3611.738281 369.140625 3646.660156 411.621094 3679.410156 467.328125 C 3710.859375 425.371094 3750.089844 395.558594 3796.160156 376.449219 C 3722.898438 357.539062 3647.039062 346.910156 3568.96875 343.300781 "/>
</svg>
