<?xml version="1.0" encoding="UTF-8"?>
<svg xmlns="http://www.w3.org/2000/svg" xmlns:xlink="http://www.w3.org/1999/xlink" width="5000" height="3000" viewBox="0 0 5000 3000">
<rect x="-500" y="-300" width="6000" height="3600" fill="rgb(100%, 100%, 100%)" fill-opacity="1"/>
<path fill-rule="evenodd" fill="rgb(0%, 0%, 0%)" fill-opacity="1" d="M 735.03125 2376.5625 L 800.902344 2376.5625 C 809.179688 2376.5625 815.902344 2369.839844 815.902344 2361.5625 C 815.902344 2353.28125 809.179688 2346.5625 800.902344 2346.5625 L 735.03125 2346.5625 C 726.753906 2346.5625 720.03125 2353.28125 720.03125 2361.5625 C 720.03125 2369.839844 726.753906 2376.5625 735.03125 2376.5625 Z M 3861.46875 862.710938 C 3848.21875 843.671875 3840.359375 822.828125 3839.679688 799.601562 C 3839.578125 796.070312 3837.019531 793.078125 3833.550781 792.441406 C 3763.070312 779.421875 3703.28125 797.359375 3651.539062 838.679688 C 3185.808594 790.441406 2769.011719 784.820312 2420.980469 831.328125 C 2105.421875 873.5 1752.449219 1117.039062 1553.671875 1233.960938 C 1163.359375 1296.390625 791.304688 1376.191406 475.925781 1509.609375 C 471.136719 1511.628906 467.738281 1516 466.945312 1521.140625 C 457.546875 1582.101562 452.539062 1647.460938 451.265625 1716.550781 C 441.34375 1723.839844 422.582031 1737.621094 422.582031 1737.621094 C 419.113281 1740.171875 416.90625 1744.078125 416.519531 1748.371094 C 407.351562 1850.628906 412.921875 1952.890625 436.542969 2055.15625 C 437.710938 2060.210938 441.402344 2064.304688 446.3125 2065.976562 C 514.214844 2089.144531 583 2105.234375 652.742188 2113.738281 L 730.933594 2164.746094 C 732.972656 2166.078125 735.527344 2166.335938 737.789062 2165.441406 L 769.902344 2152.738281 C 772.199219 2151.828125 773.898438 2149.851562 774.453125 2147.445312 L 780.605469 2120.714844 C 781.394531 2120.703125 782.171875 2120.695312 782.953125 2120.683594 C 813.648438 2222.0625 887.859375 2304.613281 983.808594 2346.5625 L 851.210938 2346.5625 C 842.933594 2346.5625 836.210938 2353.28125 836.210938 2361.5625 C 836.210938 2369.839844 842.933594 2376.5625 851.210938 2376.5625 L 1636.96875 2376.5625 C 1645.25 2376.5625 1651.96875 2369.839844 1651.96875 2361.5625 C 1651.96875 2353.28125 1645.25 2346.5625 1636.96875 2346.5625 L 1271.941406 2346.5625 L 1272.101562 2346.492188 C 1280.339844 2342.882812 1288.441406 2338.972656 1296.378906 2334.757812 C 1310.910156 2327.046875 1324.921875 2318.335938 1338.269531 2308.710938 C 1352.699219 2298.304688 1366.371094 2286.828125 1379.121094 2274.414062 C 1391.96875 2261.90625 1403.898438 2248.445312 1414.761719 2234.175781 C 1428.25 2216.453125 1440.089844 2197.484375 1450.089844 2177.578125 C 1454.261719 2169.277344 1458.109375 2160.8125 1461.621094 2152.210938 C 1463.410156 2147.820312 1465.109375 2143.394531 1466.730469 2138.941406 L 1487.238281 2131.835938 C 1487.03125 2132.820312 1486.910156 2133.839844 1486.898438 2134.882812 C 1486.789062 2143.4375 1493.648438 2150.46875 1502.199219 2150.578125 L 3358.25 2173.964844 C 3362.46875 2174.019531 3366.320312 2172.378906 3369.148438 2169.675781 L 3392.761719 2156.515625 C 3428.710938 2241.390625 3496.269531 2309.671875 3580.648438 2346.5625 L 3249.878906 2346.5625 C 3241.601562 2346.5625 3234.878906 2353.28125 3234.878906 2361.5625 C 3234.878906 2369.839844 3241.601562 2376.5625 3249.878906 2376.5625 L 4144.53125 2376.5625 C 4152.808594 2376.5625 4159.53125 2369.839844 4159.53125 2361.5625 C 4159.53125 2353.28125 4152.808594 2346.5625 4144.53125 2346.5625 L 3868.78125 2346.5625 C 3972.738281 2301.113281 4051.171875 2208.003906 4076.398438 2094.914062 L 4093.070312 2120.644531 C 4093.660156 2121.550781 4094.339844 2122.386719 4095.101562 2123.140625 C 4096.75 2124.777344 4098.800781 2126.050781 4101.140625 2126.789062 L 4146.339844 2141.410156 C 4148.480469 2142.101562 4150.738281 2142.304688 4152.96875 2142.003906 C 4252.109375 2128.558594 4343.191406 2111.9375 4417.230469 2089.253906 L 4550.648438 2089.253906 C 4552.960938 2089.253906 4555.140625 2088.191406 4556.558594 2086.371094 C 4563.730469 2077.199219 4567.101562 2065.785156 4567.679688 2053.742188 C 4568.269531 2041.578125 4565.988281 2028.765625 4562.308594 2017.335938 C 4563.421875 2015.957031 4564.289062 2014.386719 4564.859375 2012.695312 C 4590.75 1936.050781 4593.820312 1856.550781 4578.011719 1774.691406 C 4577.46875 1771.898438 4576.148438 1769.320312 4574.191406 1767.25 L 4495.410156 1683.679688 C 4500.96875 1663.398438 4515.019531 1612.171875 4515.019531 1612.171875 C 4515.558594 1610.191406 4515.691406 1608.128906 4515.410156 1606.109375 C 4500.558594 1500.621094 4506.710938 1395.128906 4536.398438 1289.640625 C 4537.789062 1284.691406 4536.558594 1279.378906 4533.121094 1275.550781 C 4444.429688 1176.769531 4344.351562 1088.121094 4234.78125 1007.898438 L 4287.128906 967.070312 C 4291.53125 963.640625 4293.660156 958.058594 4292.671875 952.570312 C 4291.679688 947.089844 4287.71875 942.609375 4282.410156 940.929688 C 4175.128906 907.199219 4066.378906 884.578125 3955.851562 875.25 C 3886.960938 865.890625 3866.609375 863.28125 3861.46875 862.710938 Z M 1127.878906 1685.929688 C 1310.179688 1685.929688 1458.191406 1833.941406 1458.191406 2016.242188 C 1458.191406 2198.550781 1310.179688 2346.5625 1127.878906 2346.5625 C 945.570312 2346.5625 797.558594 2198.550781 797.558594 2016.242188 C 797.558594 1833.941406 945.570312 1685.929688 1127.878906 1685.929688 Z M 3724.710938 1685.929688 C 3907.019531 1685.929688 4055.03125 1833.941406 4055.03125 2016.242188 C 4055.03125 2198.550781 3907.019531 2346.5625 3724.710938 2346.5625 C 3542.410156 2346.5625 3394.398438 2198.550781 3394.398438 2016.242188 C 3394.398438 1833.941406 3542.410156 1685.929688 3724.710938 1685.929688 Z M 1127.878906 1747.980469 C 979.820312 1747.980469 859.613281 1868.191406 859.613281 2016.242188 C 859.613281 2164.300781 979.820312 2284.503906 1127.878906 2284.503906 C 1275.929688 2284.503906 1396.140625 2164.300781 1396.140625 2016.242188 C 1396.140625 1868.191406 1275.929688 1747.980469 1127.878906 1747.980469 Z M 3724.710938 1747.980469 C 3576.660156 1747.980469 3456.449219 1868.191406 3456.449219 2016.242188 C 3456.449219 2164.300781 3576.660156 2284.503906 3724.710938 2284.503906 C 3872.769531 2284.503906 3992.980469 2164.300781 3992.980469 2016.242188 C 3992.980469 1868.191406 3872.769531 1747.980469 3724.710938 1747.980469 Z M 3741.730469 2253.90625 L 3741.730469 2164.710938 C 3741.730469 2155.320312 3734.101562 2147.699219 3724.710938 2147.699219 C 3715.320312 2147.699219 3707.699219 2155.320312 3707.699219 2164.710938 L 3707.699219 2253.90625 C 3713.320312 2254.300781 3718.988281 2254.503906 3724.710938 2254.503906 C 3730.429688 2254.503906 3736.109375 2254.300781 3741.730469 2253.90625 Z M 1144.890625 2253.90625 L 1144.890625 2164.710938 C 1144.890625 2155.320312 1137.269531 2147.699219 1127.878906 2147.699219 C 1118.488281 2147.699219 1110.859375 2155.320312 1110.859375 2164.710938 L 1110.859375 2253.90625 C 1116.480469 2254.300781 1122.160156 2254.503906 1127.878906 2254.503906 C 1133.601562 2254.503906 1139.269531 2254.300781 1144.890625 2253.90625 Z M 1138.03125 2058.742188 C 1134.769531 2059.519531 1131.371094 2059.929688 1127.878906 2059.929688 C 1124.378906 2059.929688 1120.980469 2059.519531 1117.71875 2058.742188 L 1078.101562 2139.804688 L 1084.378906 2250.535156 C 1088.179688 2251.238281 1092.011719 2251.851562 1095.859375 2252.367188 L 1095.859375 2164.710938 C 1095.859375 2147.042969 1110.210938 2132.699219 1127.878906 2132.699219 C 1145.539062 2132.699219 1159.890625 2147.042969 1159.890625 2164.710938 L 1159.890625 2252.367188 C 1163.738281 2251.851562 1167.558594 2251.238281 1171.371094 2250.535156 L 1177.648438 2139.804688 Z M 3734.871094 2058.742188 C 3731.609375 2059.519531 3728.210938 2059.929688 3724.710938 2059.929688 C 3721.21875 2059.929688 3717.820312 2059.519531 3714.558594 2058.742188 L 3674.941406 2139.804688 L 3681.21875 2250.535156 C 3685.011719 2251.238281 3688.839844 2251.851562 3692.699219 2252.367188 L 3692.699219 2164.710938 C 3692.699219 2147.042969 3707.039062 2132.699219 3724.710938 2132.699219 C 3742.378906 2132.699219 3756.730469 2147.042969 3756.730469 2164.710938 L 3756.730469 2252.367188 C 3760.578125 2251.851562 3764.398438 2251.238281 3768.210938 2250.535156 L 3774.488281 2139.804688 Z M 3764.339844 2084.882812 L 3788.828125 2134.976562 C 3789.390625 2136.132812 3789.648438 2137.414062 3789.578125 2138.695312 L 3783.421875 2247.203125 C 3826.621094 2236.246094 3865.128906 2213.46875 3895.289062 2182.523438 L 3798.328125 2133.640625 C 3797.179688 2133.0625 3796.199219 2132.199219 3795.480469 2131.132812 Z M 1088.25 2084.882812 L 1057.109375 2131.132812 C 1056.390625 2132.199219 1055.410156 2133.0625 1054.261719 2133.640625 L 957.296875 2182.523438 C 987.464844 2213.464844 1025.96875 2236.238281 1069.171875 2247.203125 L 1063.011719 2138.695312 C 1062.941406 2137.414062 1063.199219 2136.132812 1063.761719 2134.976562 Z M 3685.078125 2084.882812 L 3653.941406 2131.132812 C 3653.230469 2132.199219 3652.25 2133.0625 3651.101562 2133.640625 L 3554.140625 2182.523438 C 3584.300781 2213.464844 3622.800781 2236.238281 3666 2247.203125 L 3659.851562 2138.695312 C 3659.78125 2137.414062 3660.039062 2136.132812 3660.601562 2134.976562 Z M 1167.511719 2084.882812 L 1191.988281 2134.976562 C 1192.550781 2136.132812 1192.808594 2137.414062 1192.738281 2138.695312 L 1186.589844 2247.203125 C 1229.78125 2236.246094 1268.289062 2213.46875 1298.449219 2182.523438 L 1201.488281 2133.640625 C 1200.339844 2133.0625 1199.371094 2132.199219 1198.648438 2131.132812 Z M 995.980469 2034.914062 L 903.214844 2095.726562 C 904.511719 2099.386719 905.898438 2103.007812 907.367188 2106.589844 L 983.292969 2062.753906 C 998.59375 2053.917969 1018.191406 2059.167969 1027.019531 2074.472656 C 1035.859375 2089.773438 1030.609375 2109.367188 1015.308594 2118.199219 L 939.441406 2162 C 941.816406 2165.066406 944.269531 2168.074219 946.789062 2171.023438 L 1045.761719 2121.128906 L 1096.160156 2046.273438 C 1091.5 2041.355469 1087.96875 2035.359375 1085.988281 2028.695312 Z M 3592.820312 2034.914062 L 3500.050781 2095.726562 C 3501.351562 2099.386719 3502.738281 2103.007812 3504.210938 2106.589844 L 3580.128906 2062.753906 C 3595.429688 2053.917969 3615.03125 2059.167969 3623.859375 2074.472656 C 3632.691406 2089.773438 3627.441406 2109.367188 3612.140625 2118.199219 L 3536.28125 2162 C 3538.660156 2165.066406 3541.109375 2168.074219 3543.628906 2171.023438 L 3642.589844 2121.128906 L 3693 2046.273438 C 3688.339844 2041.355469 3684.808594 2035.359375 3682.828125 2028.695312 Z M 3766.601562 2028.695312 C 3764.621094 2035.355469 3761.089844 2041.355469 3756.429688 2046.273438 L 3806.828125 2121.128906 L 3905.800781 2171.023438 C 3908.320312 2168.078125 3910.769531 2165.070312 3913.148438 2162 L 3837.28125 2118.199219 C 3821.980469 2109.367188 3816.730469 2089.773438 3825.570312 2074.472656 C 3834.398438 2059.167969 3854 2053.917969 3869.300781 2062.753906 L 3945.21875 2106.589844 C 3946.691406 2103.011719 3948.078125 2099.386719 3949.371094 2095.726562 L 3856.609375 2034.914062 Z M 1169.761719 2028.695312 C 1167.78125 2035.355469 1164.25 2041.355469 1159.589844 2046.273438 L 1209.988281 2121.128906 L 1308.960938 2171.023438 C 1311.480469 2168.078125 1313.929688 2165.070312 1316.308594 2162 L 1240.449219 2118.199219 C 1225.140625 2109.367188 1219.890625 2089.773438 1228.730469 2074.472656 C 1237.558594 2059.167969 1257.160156 2053.917969 1272.460938 2062.753906 L 1348.390625 2106.589844 C 1349.851562 2103.011719 1351.238281 2099.386719 1352.539062 2095.726562 L 1259.769531 2034.914062 Z M 685.441406 2117.160156 L 735.882812 2150.066406 L 760.71875 2140.238281 L 765.195312 2120.785156 C 758.488281 2120.761719 751.789062 2120.664062 745.089844 2120.5 C 744.933594 2120.496094 744.777344 2120.496094 744.621094 2120.488281 C 724.820312 2119.988281 705.09375 2118.875 685.441406 2117.160156 Z M 930.585938 2149.792969 L 1007.808594 2105.210938 C 1015.941406 2100.515625 1018.730469 2090.101562 1014.03125 2081.972656 C 1009.339844 2073.839844 998.925781 2071.050781 990.792969 2075.742188 L 913.535156 2120.347656 C 918.527344 2130.597656 924.234375 2140.4375 930.585938 2149.792969 Z M 3527.421875 2149.792969 L 3604.640625 2105.210938 C 3612.78125 2100.515625 3615.558594 2090.101562 3610.871094 2081.972656 C 3606.179688 2073.839844 3595.761719 2071.050781 3587.628906 2075.742188 L 3510.371094 2120.347656 C 3515.359375 2130.597656 3521.070312 2140.4375 3527.421875 2149.792969 Z M 3939.050781 2120.347656 L 3861.800781 2075.742188 C 3853.660156 2071.050781 3843.25 2073.839844 3838.558594 2081.972656 C 3833.859375 2090.101562 3836.648438 2100.515625 3844.78125 2105.210938 L 3922.011719 2149.792969 C 3928.359375 2140.429688 3934.058594 2130.59375 3939.050781 2120.347656 Z M 1342.21875 2120.347656 L 1264.960938 2075.742188 C 1256.828125 2071.050781 1246.410156 2073.839844 1241.71875 2081.972656 C 1237.019531 2090.101562 1239.808594 2100.515625 1247.949219 2105.210938 L 1325.171875 2149.792969 C 1331.519531 2140.429688 1337.230469 2130.59375 1342.21875 2120.347656 Z M 1141.328125 1576.109375 C 1133.511719 1576.121094 1125.679688 1576.261719 1117.828125 1576.511719 C 978.402344 1581.019531 715.480469 1658.789062 708.703125 1978.941406 C 708.617188 1983.019531 705.285156 1986.28125 701.207031 1986.28125 L 592.808594 1986.28125 L 569.3125 2024.824219 C 567.949219 2027.058594 565.523438 2028.421875 562.910156 2028.421875 L 461.394531 2028.421875 C 462.210938 2032.363281 463.054688 2036.308594 463.929688 2040.253906 C 550.003906 2068.871094 637.539062 2085.785156 726.667969 2089.835938 C 722.308594 2065.960938 720.03125 2041.367188 720.03125 2016.242188 C 720.03125 1791.148438 902.78125 1608.398438 1127.878906 1608.398438 C 1352.96875 1608.398438 1535.71875 1791.148438 1535.71875 2016.242188 C 1535.71875 2052.027344 1531.101562 2086.742188 1522.421875 2119.828125 L 1644.210938 2121.363281 C 1689.070312 2100.871094 1736.960938 2083.769531 1788.921875 2071.25 C 1789.488281 2071.113281 1790.058594 2071.042969 1790.648438 2071.042969 L 3012.640625 2065.476562 C 3013.550781 2065.472656 3014.449219 2065.632812 3015.308594 2065.953125 L 3215.558594 2141.164062 L 3336.890625 2142.695312 C 3323.898438 2102.882812 3316.871094 2060.375 3316.871094 2016.242188 C 3316.871094 1791.148438 3499.621094 1608.398438 3724.710938 1608.398438 C 3949.808594 1608.398438 4132.558594 1791.148438 4132.558594 2016.242188 C 4132.558594 2045.820312 4129.398438 2074.664062 4123.410156 2102.460938 L 4152.320312 2111.816406 C 4321.980469 2088.660156 4467.238281 2057.734375 4537.738281 1999.179688 C 4557.269531 1939.328125 4561.910156 1877.621094 4553.96875 1814.339844 L 4538.421875 1846.800781 L 4520.070312 1889.269531 C 4519.03125 1891.671875 4516.808594 1893.359375 4514.21875 1893.71875 L 4254.320312 1929.898438 C 4252.921875 1930.101562 4251.5 1929.890625 4250.210938 1929.320312 L 4188.230469 1901.488281 C 4174.421875 1902.71875 4160.621094 1903.859375 4146.808594 1904.910156 C 4143.308594 1905.171875 4140.101562 1902.980469 4139.070312 1899.621094 C 4067.019531 1664.371094 3895.679688 1569.511719 3689.128906 1585.550781 C 3475.921875 1602.101562 3307.96875 1735.691406 3298.039062 1979.078125 C 3297.878906 1983.101562 3294.578125 1986.28125 3290.550781 1986.28125 L 1557.96875 1986.28125 C 1554.199219 1986.28125 1551.011719 1983.46875 1550.53125 1979.730469 C 1528.859375 1810.289062 1471.238281 1707.609375 1393.449219 1648.300781 C 1322.011719 1593.839844 1233.828125 1576.078125 1141.910156 1576.109375 Z M 3171.421875 2140.609375 L 3011.328125 2080.480469 C 3011.328125 2080.480469 1791.589844 2086.039062 1791.589844 2086.039062 C 1752.511719 2095.5 1715.78125 2107.605469 1680.929688 2121.824219 Z M 4098.25 2073.464844 C 4101.089844 2054.804688 4102.558594 2035.695312 4102.558594 2016.242188 C 4102.558594 1807.710938 3933.25 1638.398438 3724.710938 1638.398438 C 3516.179688 1638.398438 3346.871094 1807.710938 3346.871094 2016.242188 C 3346.871094 2058.386719 3353.78125 2098.929688 3366.53125 2136.789062 L 3382.128906 2128.101562 C 3370.621094 2092.875 3364.398438 2055.28125 3364.398438 2016.242188 C 3364.398438 1817.378906 3525.851562 1655.929688 3724.710938 1655.929688 C 3923.578125 1655.929688 4085.03125 1817.378906 4085.03125 2016.242188 C 4085.03125 2027.820312 4084.480469 2039.269531 4083.410156 2050.574219 Z M 775.289062 2090.765625 C 770.222656 2066.71875 767.558594 2041.789062 767.558594 2016.242188 C 767.558594 1817.378906 929.011719 1655.929688 1127.878906 1655.929688 C 1326.738281 1655.929688 1488.191406 1817.378906 1488.191406 2016.242188 C 1488.191406 2046.3125 1484.5 2075.523438 1477.550781 2103.441406 L 1497.128906 2096.660156 C 1502.761719 2070.738281 1505.71875 2043.835938 1505.71875 2016.242188 C 1505.71875 1807.710938 1336.410156 1638.398438 1127.878906 1638.398438 C 919.339844 1638.398438 750.03125 1807.710938 750.03125 2016.242188 C 750.03125 2041.734375 752.558594 2066.640625 757.382812 2090.722656 C 763.347656 2090.792969 769.3125 2090.808594 775.289062 2090.765625 Z M 3495.339844 1951.609375 C 3489.550781 1972.171875 3486.449219 1993.851562 3486.449219 2016.242188 C 3486.449219 2038.636719 3489.550781 2060.316406 3495.339844 2080.882812 L 3586.238281 2021.296875 C 3587.308594 2020.59375 3588.550781 2020.175781 3589.828125 2020.085938 L 3645.449219 2016.242188 L 3589.828125 2012.398438 C 3588.550781 2012.3125 3587.308594 2011.894531 3586.238281 2011.191406 Z M 898.503906 1951.609375 C 892.710938 1972.171875 889.613281 1993.851562 889.613281 2016.242188 C 889.613281 2038.636719 892.710938 2060.316406 898.503906 2080.882812 L 989.398438 2021.296875 C 990.472656 2020.59375 991.710938 2020.175781 992.992188 2020.085938 L 1048.621094 2016.242188 L 992.992188 2012.398438 C 991.710938 2012.3125 990.472656 2011.894531 989.398438 2011.191406 Z M 1357.25 1951.609375 L 1266.351562 2011.191406 C 1265.28125 2011.894531 1264.039062 2012.3125 1262.761719 2012.398438 L 1207.140625 2016.242188 L 1262.761719 2020.085938 C 1264.039062 2020.175781 1265.28125 2020.59375 1266.351562 2021.296875 L 1357.25 2080.882812 C 1363.039062 2060.316406 1366.140625 2038.636719 1366.140625 2016.242188 C 1366.140625 1993.851562 1363.039062 1972.171875 1357.25 1951.609375 Z M 3954.089844 1951.609375 L 3863.191406 2011.191406 C 3862.121094 2011.894531 3860.878906 2012.3125 3859.601562 2012.398438 L 3803.96875 2016.242188 L 3859.601562 2020.085938 C 3860.878906 2020.175781 3862.121094 2020.59375 3863.191406 2021.296875 L 3954.089844 2080.882812 C 3959.878906 2060.316406 3962.980469 2038.636719 3962.980469 2016.242188 C 3962.980469 1993.851562 3959.878906 1972.171875 3954.089844 1951.609375 Z M 4549.78125 2027.886719 C 4526.480469 2045.503906 4496.5 2060.820312 4461.21875 2074.253906 L 4546.75 2074.253906 C 4550.609375 2068.035156 4552.328125 2060.671875 4552.699219 2053.019531 C 4553.101562 2044.695312 4551.898438 2036.027344 4549.78125 2027.886719 Z M 1127.878906 2002.554688 C 1135.429688 2002.554688 1141.558594 2008.6875 1141.558594 2016.242188 C 1141.558594 2023.796875 1135.429688 2029.929688 1127.878906 2029.929688 C 1120.320312 2029.929688 1114.191406 2023.796875 1114.191406 2016.242188 C 1114.191406 2008.6875 1120.320312 2002.554688 1127.878906 2002.554688 Z M 3724.710938 2002.554688 C 3732.269531 2002.554688 3738.398438 2008.6875 3738.398438 2016.242188 C 3738.398438 2023.796875 3732.269531 2029.929688 3724.710938 2029.929688 C 3717.160156 2029.929688 3711.03125 2023.796875 3711.03125 2016.242188 C 3711.03125 2008.6875 3717.160156 2002.554688 3724.710938 2002.554688 Z M 982.621094 1584.609375 L 904.679688 1513.808594 C 811.121094 1574.570312 717.675781 1636.488281 615.0625 1644.148438 C 613.007812 1644.308594 610.984375 1643.609375 609.460938 1642.21875 L 594.9375 1629.039062 C 582.285156 1627.410156 522.59375 1619.710938 522.59375 1619.710938 C 519.273438 1619.28125 516.636719 1616.699219 516.136719 1613.378906 L 503.671875 1530.511719 C 500.890625 1531.660156 498.117188 1532.820312 495.351562 1533.980469 C 486.628906 1593.488281 482.113281 1657.191406 481.140625 1724.449219 C 481.074219 1729.148438 478.808594 1733.539062 475.023438 1736.320312 L 445.820312 1757.769531 C 438.734375 1842.988281 442.238281 1928.199219 458.414062 2013.421875 L 558.695312 2013.421875 L 561.785156 2008.351562 L 510.671875 2008.351562 C 507.207031 2008.351562 504.191406 2005.980469 503.382812 2002.609375 L 465.488281 1845.449219 C 464.914062 1843.070312 465.539062 1840.558594 467.160156 1838.71875 C 468.785156 1836.890625 471.203125 1835.960938 473.636719 1836.238281 L 574.253906 1847.800781 C 577.695312 1848.199219 580.421875 1850.898438 580.84375 1854.339844 L 595.230469 1971.28125 L 693.90625 1971.28125 C 701.855469 1732.839844 848.429688 1626.339844 982.621094 1584.609375 Z M 3543.628906 1861.460938 C 3541.109375 1864.410156 3538.660156 1867.421875 3536.28125 1870.488281 L 3612.140625 1914.289062 C 3627.441406 1923.121094 3632.691406 1942.710938 3623.859375 1958.019531 C 3615.03125 1973.320312 3595.429688 1978.570312 3580.128906 1969.730469 L 3504.210938 1925.898438 C 3502.738281 1929.480469 3501.351562 1933.101562 3500.050781 1936.761719 L 3592.820312 1997.570312 L 3682.828125 2003.789062 C 3684.808594 1997.128906 3688.339844 1991.128906 3693 1986.210938 L 3642.589844 1911.359375 Z M 946.789062 1861.460938 C 944.269531 1864.410156 941.820312 1867.421875 939.441406 1870.488281 L 1015.308594 1914.289062 C 1030.609375 1923.121094 1035.859375 1942.710938 1027.019531 1958.019531 C 1018.191406 1973.320312 998.59375 1978.570312 983.292969 1969.730469 L 907.367188 1925.898438 C 905.898438 1929.480469 904.511719 1933.101562 903.214844 1936.761719 L 995.980469 1997.570312 L 1085.988281 2003.789062 C 1087.96875 1997.128906 1091.5 1991.128906 1096.160156 1986.210938 L 1045.761719 1911.359375 Z M 1209.988281 1911.359375 L 1159.589844 1986.210938 C 1164.25 1991.128906 1167.78125 1997.128906 1169.761719 2003.789062 L 1259.769531 1997.570312 L 1352.539062 1936.761719 C 1351.238281 1933.101562 1349.859375 1929.480469 1348.390625 1925.898438 L 1272.460938 1969.730469 C 1257.160156 1978.570312 1237.558594 1973.320312 1228.730469 1958.019531 C 1219.890625 1942.710938 1225.140625 1923.121094 1240.449219 1914.289062 L 1316.308594 1870.488281 C 1313.929688 1867.421875 1311.480469 1864.410156 1308.960938 1861.460938 Z M 3806.828125 1911.359375 L 3756.429688 1986.210938 C 3761.089844 1991.128906 3764.621094 1997.128906 3766.601562 2003.789062 L 3856.609375 1997.570312 L 3949.371094 1936.761719 C 3948.078125 1933.101562 3946.691406 1929.480469 3945.21875 1925.898438 L 3869.300781 1969.730469 C 3854 1978.570312 3834.398438 1973.320312 3825.570312 1958.019531 C 3816.730469 1942.710938 3821.980469 1923.121094 3837.28125 1914.289062 L 3913.148438 1870.488281 C 3910.769531 1867.421875 3908.320312 1864.410156 3905.800781 1861.460938 Z M 580.835938 1977.101562 L 566.675781 1862.03125 C 550.265625 1860.140625 503.714844 1854.789062 482.585938 1852.371094 L 490.632812 1885.738281 C 491.445312 1885.789062 492.332031 1885.859375 493.277344 1885.929688 C 498.601562 1886.339844 505.757812 1887.039062 513.457031 1887.851562 C 533.679688 1889.980469 556.699219 1892.828125 556.699219 1892.828125 C 556.699219 1892.828125 533.679688 1895.679688 513.457031 1897.808594 C 506.097656 1898.578125 499.234375 1899.261719 493.992188 1899.679688 L 496.421875 1909.75 C 497.03125 1909.800781 497.679688 1909.851562 498.363281 1909.910156 C 503.269531 1910.308594 509.839844 1911.019531 516.925781 1911.828125 C 535.550781 1913.960938 556.699219 1916.808594 556.699219 1916.808594 C 556.699219 1916.808594 535.550781 1919.660156 516.925781 1921.789062 C 510.492188 1922.519531 504.480469 1923.171875 499.757812 1923.589844 L 502.410156 1934.589844 C 503.011719 1934.628906 503.648438 1934.691406 504.320312 1934.738281 C 509.210938 1935.148438 515.757812 1935.859375 522.816406 1936.660156 C 541.371094 1938.800781 562.445312 1941.640625 562.445312 1941.640625 C 562.445312 1941.640625 541.371094 1944.488281 522.816406 1946.621094 C 516.421875 1947.351562 510.445312 1948 505.746094 1948.421875 L 509.539062 1964.148438 C 510.035156 1964.191406 510.558594 1964.238281 511.105469 1964.28125 C 515.785156 1964.691406 522.042969 1965.398438 528.800781 1966.210938 C 546.574219 1968.339844 566.726562 1971.191406 566.726562 1971.191406 C 566.726562 1971.191406 546.574219 1974.03125 528.800781 1976.160156 C 522.855469 1976.878906 517.296875 1977.511719 512.859375 1977.929688 L 516.578125 1993.351562 L 570.929688 1993.351562 Z M 1159.890625 1780.121094 L 1159.890625 1867.78125 C 1159.890625 1885.441406 1145.539062 1899.789062 1127.878906 1899.789062 C 1110.210938 1899.789062 1095.859375 1885.441406 1095.859375 1867.78125 L 1095.859375 1780.121094 C 1092.011719 1780.640625 1088.191406 1781.25 1084.378906 1781.949219 L 1078.101562 1892.679688 L 1117.71875 1973.738281 C 1120.980469 1972.96875 1124.378906 1972.558594 1127.878906 1972.558594 C 1131.371094 1972.558594 1134.769531 1972.96875 1138.03125 1973.738281 L 1177.648438 1892.679688 L 1171.371094 1781.949219 C 1167.578125 1781.25 1163.75 1780.640625 1159.890625 1780.121094 Z M 3692.699219 1780.121094 C 3688.851562 1780.640625 3685.03125 1781.25 3681.21875 1781.949219 L 3674.941406 1892.679688 L 3714.558594 1973.738281 C 3717.820312 1972.96875 3721.21875 1972.558594 3724.710938 1972.558594 C 3728.210938 1972.558594 3731.609375 1972.96875 3734.871094 1973.738281 L 3774.488281 1892.679688 L 3768.210938 1781.949219 C 3764.410156 1781.25 3760.578125 1780.640625 3756.730469 1780.121094 L 3756.730469 1867.78125 C 3756.730469 1885.441406 3742.378906 1899.789062 3724.710938 1899.789062 C 3707.039062 1899.789062 3692.699219 1885.441406 3692.699219 1867.78125 Z M 3687.320312 1570.640625 L 3687.359375 1570.640625 C 3687.570312 1570.621094 3687.761719 1570.609375 3687.960938 1570.589844 C 3792.261719 1562.5 3887.890625 1581.691406 3967.140625 1631.769531 C 4081.949219 1610.46875 4188.910156 1584.988281 4274.960938 1548.210938 C 4282.371094 1545.039062 4288.929688 1538.628906 4294.628906 1530.921875 C 4302.441406 1520.328125 4308.53125 1507.230469 4312.359375 1495.289062 C 4290.679688 1486.921875 4268.308594 1476.691406 4246.628906 1465.351562 C 4207 1444.628906 4169.679688 1420.261719 4143.140625 1397.089844 C 4131.988281 1387.359375 4122.71875 1377.769531 4115.839844 1368.710938 C 4115.519531 1368.359375 4115.230469 1367.96875 4114.980469 1367.558594 C 4110.878906 1362.03125 4107.691406 1356.71875 4105.53125 1351.699219 C 4100.96875 1341.109375 4105.589844 1329.089844 4116.351562 1318.878906 C 4129.710938 1306.191406 4152.210938 1296.140625 4168.308594 1295.140625 C 4256.390625 1289.699219 4342.320312 1289.640625 4426.429688 1294.160156 L 4391.921875 1252.480469 C 4366.949219 1245.941406 4340.511719 1234.679688 4319.429688 1221.011719 L 4174.789062 1121.289062 L 4053.808594 1023.308594 C 4014.441406 986 3980.539062 946.898438 3954.550781 905.238281 C 3954.019531 905.199219 3953.488281 905.148438 3952.949219 905.109375 C 3952.699219 905.089844 3952.441406 905.058594 3952.191406 905.019531 C 3365.871094 825.359375 2845.058594 804.921875 2424.960938 861.058594 C 2360.769531 869.640625 2295.03125 886.699219 2229.421875 909.390625 L 2228.960938 909.539062 L 2237.480469 915.480469 C 2239.609375 916.960938 2240.820312 919.441406 2240.679688 922.039062 C 2240.539062 924.628906 2239.070312 926.96875 2236.789062 928.210938 C 2034.050781 1039.058594 1837.671875 1158.820312 1645.570312 1284.570312 C 1634.621094 1291.738281 1615.261719 1296.578125 1592.558594 1298.761719 C 1567.160156 1301.191406 1537.480469 1300.488281 1511.519531 1297.011719 C 1446.609375 1333.449219 1368.910156 1351.109375 1274.578125 1365.410156 C 1144.261719 1385.148438 981.890625 1398.609375 777.316406 1448.148438 C 798.425781 1449.460938 819.539062 1451.710938 840.65625 1455 C 841.679688 1455.160156 842.660156 1455.519531 843.53125 1456.078125 L 909.363281 1497.96875 C 909.675781 1498.171875 909.980469 1498.390625 910.273438 1498.628906 L 910.308594 1498.660156 C 910.378906 1498.71875 910.445312 1498.78125 910.511719 1498.839844 L 999.5 1579.679688 C 1042.421875 1567.921875 1083.410156 1562.621094 1117.339844 1561.519531 C 1221.410156 1558.148438 1322.148438 1575.089844 1402.539062 1636.371094 C 1481.78125 1696.78125 1541.539062 1800.421875 1564.550781 1971.28125 L 1636.800781 1971.28125 C 1620.53125 1856.441406 1603.640625 1741.328125 1604.839844 1633.859375 C 1606.078125 1522.539062 1626.738281 1419.398438 1686.859375 1332.941406 C 1686.980469 1332.761719 1687.109375 1332.589844 1687.25 1332.429688 L 1687.328125 1332.320312 C 1687.71875 1331.871094 1688.140625 1331.480469 1688.601562 1331.140625 C 1737.101562 1293.808594 1782.601562 1258.71875 1826.25 1225.898438 C 1826.480469 1225.699219 1826.71875 1225.519531 1826.96875 1225.359375 C 1849.558594 1208.371094 1871.648438 1192 1893.410156 1176.230469 C 1893.699219 1175.988281 1894.011719 1175.761719 1894.339844 1175.558594 C 2015.878906 1087.539062 2126.800781 1018.710938 2254.609375 969.871094 C 2382.710938 920.910156 2527.808594 892.011719 2717.660156 884.101562 C 2718.28125 883.988281 2718.921875 883.96875 2719.558594 884.019531 C 2737.539062 883.289062 2755.921875 882.738281 2774.730469 882.378906 C 2776.148438 881.789062 2777.761719 881.628906 2779.371094 882.019531 C 2779.671875 882.089844 2779.960938 882.179688 2780.238281 882.28125 C 2796.921875 882 2813.929688 881.859375 2831.28125 881.871094 C 2831.878906 881.789062 2832.488281 881.78125 2833.121094 881.859375 C 2833.160156 881.859375 2833.199219 881.871094 2833.238281 881.871094 C 2975.921875 882.039062 3142.101562 892.148438 3340.738281 912.480469 C 3341.109375 912.488281 3341.46875 912.53125 3341.828125 912.589844 L 3342.269531 912.640625 C 3366.070312 915.078125 3389.859375 917.621094 3413.640625 920.238281 L 3413.851562 920.261719 C 3414.160156 920.28125 3414.460938 920.308594 3414.75 920.359375 L 3415.660156 920.460938 C 3436.210938 922.738281 3456.761719 925.070312 3477.300781 927.46875 L 3477.941406 927.539062 C 3478.179688 927.558594 3478.421875 927.578125 3478.660156 927.621094 C 3558.238281 936.910156 3642.671875 947.628906 3732.359375 959.800781 C 3828.03125 972.78125 3904 1031.460938 3971.421875 1091.851562 C 3976.300781 1096.21875 3978.890625 1102.808594 3978.960938 1111.070312 C 3979.03125 1120.710938 3975.570312 1133.058594 3969.71875 1145.78125 C 3959.929688 1167.070312 3943.589844 1189.539062 3928.488281 1201.839844 C 3921 1207.949219 3913.609375 1211.601562 3907.320312 1212.320312 C 3814.488281 1222.839844 3712.960938 1233.410156 3606.019531 1243.761719 C 3605.808594 1243.78125 3605.589844 1243.808594 3605.378906 1243.820312 L 3603.96875 1243.949219 C 3599.058594 1244.429688 3594.148438 1244.898438 3589.25 1245.371094 L 3585.96875 1245.691406 C 3639.039062 1350.808594 3614.859375 1471.039062 3553.738281 1598.21875 C 3546.808594 1600.660156 3539.96875 1603.261719 3533.230469 1606 C 3598.160156 1476.148438 3626.609375 1353.578125 3569.871094 1247.21875 C 3560.75 1248.089844 3551.589844 1248.960938 3542.460938 1249.820312 C 3542.210938 1249.859375 3541.960938 1249.878906 3541.71875 1249.890625 C 3518.160156 1252.101562 3494.378906 1254.308594 3470.351562 1256.5 C 3470.070312 1256.539062 3469.78125 1256.570312 3469.5 1256.578125 C 3249.269531 1276.671875 3012.910156 1295.5 2785.859375 1311.058594 C 2785.320312 1311.160156 2784.75 1311.210938 2784.179688 1311.179688 C 2749.480469 1313.558594 2715 1315.859375 2680.878906 1318.070312 C 2602.929688 1493.988281 2599.328125 1723.621094 2620.398438 1971.28125 L 3283.398438 1971.28125 C 3296.660156 1723.710938 3469.21875 1587.578125 3687.960938 1570.589844 L 3533.230469 1606 L 3687.960938 1570.589844 L 3687.359375 1570.640625 L 3687.171875 1570.660156 L 3686.761719 1570.691406 L 3686.53125 1570.710938 L 3686.160156 1570.738281 L 3685.921875 1570.761719 L 3685.550781 1570.789062 L 3685.308594 1570.808594 L 3684.921875 1570.839844 L 3684.710938 1570.859375 L 3684.238281 1570.898438 L 3684.109375 1570.910156 L 3683.511719 1570.960938 L 3683.339844 1570.96875 L 3682.910156 1571.011719 L 3682.691406 1571.03125 L 3682.308594 1571.058594 L 3682.070312 1571.078125 L 3681.699219 1571.109375 L 3681.460938 1571.128906 L 3681.089844 1571.171875 L 3680.859375 1571.191406 L 3680.441406 1571.230469 L 3680.261719 1571.238281 L 3679.671875 1571.300781 L 3679.558594 1571.308594 L 3679.070312 1571.351562 L 3678.859375 1571.371094 L 3678.46875 1571.410156 L 3678.230469 1571.429688 L 3677.871094 1571.46875 L 3677.621094 1571.488281 L 3677.261719 1571.519531 L 3677.019531 1571.550781 L 3676.640625 1571.578125 L 3676.421875 1571.609375 L 3675.921875 1571.648438 L 3675.828125 1571.660156 L 3675.238281 1571.71875 L 3675.03125 1571.738281 L 3674.640625 1571.78125 L 3674.398438 1571.808594 L 3674.039062 1571.839844 L 3673.789062 1571.871094 L 3673.441406 1571.898438 L 3673.191406 1571.929688 L 3672.839844 1571.96875 L 3672.589844 1571.988281 L 3672.191406 1572.03125 L 3672 1572.050781 L 3671.421875 1572.109375 L 3671.21875 1572.140625 L 3670.828125 1572.179688 L 3670.570312 1572.210938 L 3670.230469 1572.238281 L 3669.96875 1572.269531 L 3669.640625 1572.308594 L 3669.371094 1572.339844 L 3669.039062 1572.371094 L 3668.769531 1572.398438 L 3668.429688 1572.441406 L 3668.179688 1572.46875 L 3667.730469 1572.519531 L 3667.609375 1572.53125 L 3667.398438 1572.558594 L 3667.019531 1572.601562 L 3666.75 1572.628906 L 3666.429688 1572.671875 L 3666.140625 1572.699219 L 3665.839844 1572.738281 L 3665.550781 1572.769531 L 3665.261719 1572.808594 L 3664.960938 1572.839844 L 3664.671875 1572.871094 L 3664.371094 1572.910156 L 3664.078125 1572.941406 L 3663.789062 1572.980469 L 3663.511719 1573.011719 L 3663.230469 1573.050781 L 3662.910156 1573.078125 L 3662.648438 1573.121094 L 3662.320312 1573.160156 L 3662.058594 1573.191406 L 3661.730469 1573.230469 L 3661.480469 1573.261719 L 3661.140625 1573.300781 L 3660.910156 1573.328125 L 3660.558594 1573.378906 L 3660.351562 1573.398438 L 3659.980469 1573.449219 C 3659.800781 1573.46875 3659.609375 1573.5 3659.429688 1573.519531 L 3659.03125 1573.570312 L 3658.871094 1573.589844 L 3658.488281 1573.640625 L 3658.289062 1573.671875 L 3657.910156 1573.710938 L 3657.71875 1573.738281 L 3657.339844 1573.789062 L 3657.148438 1573.820312 L 3656.761719 1573.871094 L 3656.609375 1573.890625 C 3655.949219 1573.96875 3655.289062 1574.058594 3654.628906 1574.148438 L 3654.53125 1574.171875 L 3654.089844 1574.230469 L 3653.960938 1574.25 L 3653.53125 1574.308594 L 3653.410156 1574.320312 L 3652.960938 1574.378906 L 3652.871094 1574.398438 C 3652 1574.519531 3651.128906 1574.640625 3650.261719 1574.769531 L 3650.21875 1574.769531 L 3649.71875 1574.851562 L 3649.671875 1574.859375 L 3649.160156 1574.929688 L 3649.140625 1574.929688 C 3615.910156 1579.808594 3583.96875 1587.578125 3553.738281 1598.21875 C 3583.96875 1587.578125 3615.910156 1579.808594 3649.140625 1574.929688 L 3649.390625 1574.898438 L 3650.011719 1574.808594 L 3650.261719 1574.769531 C 3651.128906 1574.640625 3652 1574.519531 3652.871094 1574.398438 L 3653.128906 1574.359375 L 3653.410156 1574.320312 L 3653.46875 1574.308594 L 3653.53125 1574.308594 L 3653.761719 1574.269531 L 3653.960938 1574.25 L 3654.011719 1574.238281 L 3654.089844 1574.230469 L 3654.390625 1574.191406 L 3654.628906 1574.148438 C 3655.289062 1574.058594 3655.949219 1573.96875 3656.609375 1573.890625 L 3656.71875 1573.871094 L 3656.761719 1573.871094 L 3656.890625 1573.851562 L 3657.148438 1573.820312 L 3657.261719 1573.800781 L 3657.339844 1573.789062 L 3657.519531 1573.769531 L 3657.71875 1573.738281 L 3657.808594 1573.730469 L 3657.910156 1573.710938 L 3658.148438 1573.691406 L 3658.289062 1573.671875 L 3658.351562 1573.660156 L 3658.488281 1573.640625 L 3658.769531 1573.601562 L 3658.890625 1573.589844 L 3659.03125 1573.570312 L 3659.398438 1573.519531 C 3659.609375 1573.5 3659.820312 1573.46875 3660.03125 1573.441406 L 3660.351562 1573.398438 L 3660.519531 1573.378906 L 3660.558594 1573.378906 L 3660.660156 1573.359375 L 3660.910156 1573.328125 L 3661.058594 1573.308594 L 3661.140625 1573.300781 L 3661.289062 1573.289062 L 3661.480469 1573.261719 L 3661.609375 1573.238281 L 3661.730469 1573.230469 L 3661.921875 1573.210938 L 3662.058594 1573.191406 L 3662.148438 1573.179688 L 3662.320312 1573.160156 L 3662.550781 1573.128906 L 3662.648438 1573.121094 L 3662.699219 1573.109375 L 3662.910156 1573.078125 L 3663.179688 1573.050781 L 3663.238281 1573.039062 L 3663.511719 1573.011719 L 3663.808594 1572.980469 L 3664.078125 1572.941406 L 3664.328125 1572.910156 L 3664.371094 1572.910156 L 3664.441406 1572.898438 L 3664.671875 1572.871094 L 3664.878906 1572.851562 L 3664.960938 1572.839844 L 3665.070312 1572.828125 L 3665.261719 1572.808594 L 3665.421875 1572.789062 L 3665.550781 1572.769531 L 3665.699219 1572.75 L 3665.839844 1572.738281 L 3665.96875 1572.71875 L 3666.140625 1572.699219 L 3666.328125 1572.679688 L 3666.429688 1572.671875 L 3666.511719 1572.660156 L 3666.75 1572.628906 L 3666.960938 1572.609375 L 3667.058594 1572.601562 L 3667.398438 1572.558594 L 3667.589844 1572.539062 L 3667.730469 1572.519531 L 3668.148438 1572.46875 L 3668.230469 1572.460938 L 3668.429688 1572.441406 L 3668.699219 1572.410156 L 3668.769531 1572.398438 L 3668.859375 1572.390625 L 3669.039062 1572.371094 L 3669.25 1572.351562 L 3669.371094 1572.339844 L 3669.488281 1572.320312 L 3669.640625 1572.308594 L 3669.789062 1572.289062 L 3669.96875 1572.269531 L 3670.128906 1572.25 L 3670.230469 1572.238281 L 3670.339844 1572.230469 L 3670.570312 1572.210938 L 3670.761719 1572.191406 L 3670.828125 1572.179688 L 3670.890625 1572.171875 L 3671.21875 1572.140625 L 3671.390625 1572.121094 L 3671.421875 1572.109375 C 3671.609375 1572.089844 3671.808594 1572.070312 3672 1572.050781 L 3672.03125 1572.050781 L 3672.191406 1572.03125 L 3672.53125 1572 L 3672.589844 1571.988281 L 3672.660156 1571.980469 L 3672.839844 1571.96875 L 3673.078125 1571.941406 L 3673.191406 1571.929688 L 3673.289062 1571.921875 L 3673.441406 1571.898438 L 3673.628906 1571.878906 L 3673.789062 1571.871094 L 3673.929688 1571.851562 L 3674.039062 1571.839844 L 3674.179688 1571.828125 L 3674.398438 1571.808594 L 3674.558594 1571.789062 L 3674.640625 1571.78125 L 3674.730469 1571.769531 L 3675.03125 1571.738281 L 3675.199219 1571.730469 L 3675.238281 1571.71875 C 3675.441406 1571.699219 3675.628906 1571.679688 3675.828125 1571.660156 L 3676.371094 1571.609375 L 3676.421875 1571.609375 L 3676.46875 1571.601562 L 3676.640625 1571.578125 L 3676.921875 1571.558594 L 3677.019531 1571.550781 L 3677.109375 1571.539062 L 3677.261719 1571.519531 L 3677.46875 1571.5 L 3677.621094 1571.488281 L 3677.738281 1571.480469 L 3677.871094 1571.46875 L 3678.03125 1571.449219 L 3678.230469 1571.429688 L 3678.378906 1571.421875 L 3678.46875 1571.410156 L 3678.578125 1571.398438 L 3678.859375 1571.371094 L 3679.019531 1571.359375 L 3679.070312 1571.351562 L 3679.128906 1571.351562 L 3679.671875 1571.300781 C 3679.859375 1571.28125 3680.058594 1571.261719 3680.261719 1571.238281 L 3680.289062 1571.238281 L 3680.441406 1571.230469 L 3680.78125 1571.199219 L 3680.859375 1571.191406 L 3680.929688 1571.179688 L 3681.089844 1571.171875 L 3681.328125 1571.148438 L 3681.460938 1571.128906 L 3681.570312 1571.128906 L 3681.699219 1571.109375 L 3681.878906 1571.101562 L 3682.070312 1571.078125 L 3682.210938 1571.070312 L 3682.308594 1571.058594 L 3682.429688 1571.050781 L 3682.691406 1571.03125 L 3682.839844 1571.011719 L 3682.910156 1571.011719 L 3682.988281 1571 L 3683.339844 1570.96875 L 3683.480469 1570.960938 L 3683.511719 1570.960938 C 3683.710938 1570.941406 3683.910156 1570.921875 3684.109375 1570.910156 L 3684.640625 1570.859375 L 3684.710938 1570.859375 L 3684.761719 1570.851562 L 3684.921875 1570.839844 L 3685.199219 1570.820312 L 3685.308594 1570.808594 L 3685.398438 1570.800781 L 3685.550781 1570.789062 L 3685.75 1570.769531 L 3685.921875 1570.761719 L 3686.039062 1570.75 L 3686.160156 1570.738281 L 3686.300781 1570.730469 L 3686.53125 1570.710938 L 3686.679688 1570.691406 L 3686.761719 1570.691406 L 3686.859375 1570.679688 L 3687.171875 1570.660156 Z M 2605.351562 1971.28125 C 2584.449219 1724.640625 2588.371094 1495.828125 2664.050781 1319.160156 C 2634.898438 1321.03125 2605.988281 1322.839844 2577.359375 1324.589844 C 2576.738281 1324.699219 2576.109375 1324.738281 2575.46875 1324.699219 L 2571.671875 1324.929688 C 2493.550781 1329.671875 2415.398438 1334.070312 2337.230469 1337.980469 C 2272.171875 1341.230469 2207.089844 1344.148438 2141.988281 1346.570312 C 2112.410156 1347.671875 2082.820312 1348.660156 2053.238281 1349.519531 C 2024.988281 1350.328125 1996.75 1351.019531 1968.5 1351.539062 C 1943.441406 1351.988281 1918.378906 1352.308594 1893.320312 1352.429688 C 1868.589844 1352.550781 1843.851562 1352.46875 1819.121094 1352.070312 L 1818.691406 1352.070312 C 1818.109375 1352.121094 1817.53125 1352.109375 1816.960938 1352.039062 C 1785.371094 1351.5 1757.789062 1350.460938 1734.71875 1348.878906 C 1734.371094 1348.878906 1734.019531 1348.851562 1733.679688 1348.800781 C 1719.589844 1347.820312 1707.191406 1346.640625 1696.621094 1345.238281 C 1640.179688 1428.488281 1621.03125 1527.460938 1619.839844 1634.03125 C 1618.640625 1741.429688 1635.691406 1856.511719 1651.949219 1971.28125 Z M 3922.011719 1882.691406 L 3844.78125 1927.28125 C 3836.648438 1931.96875 3833.859375 1942.378906 3838.558594 1950.519531 C 3843.25 1958.648438 3853.660156 1961.441406 3861.800781 1956.738281 L 3939.050781 1912.140625 C 3934.058594 1901.890625 3928.359375 1892.050781 3922.011719 1882.691406 Z M 1325.171875 1882.691406 L 1247.949219 1927.28125 C 1239.808594 1931.96875 1237.019531 1942.378906 1241.71875 1950.519531 C 1246.410156 1958.648438 1256.828125 1961.441406 1264.960938 1956.738281 L 1342.21875 1912.140625 C 1337.21875 1901.890625 1331.519531 1892.050781 1325.171875 1882.691406 Z M 930.585938 1882.691406 C 924.230469 1892.058594 918.523438 1901.890625 913.535156 1912.140625 L 990.792969 1956.738281 C 998.925781 1961.441406 1009.339844 1958.648438 1014.03125 1950.519531 C 1018.730469 1942.378906 1015.941406 1931.96875 1007.808594 1927.28125 Z M 3527.421875 1882.691406 C 3521.070312 1892.058594 3515.359375 1901.890625 3510.371094 1912.140625 L 3587.628906 1956.738281 C 3595.761719 1961.441406 3606.179688 1958.648438 3610.871094 1950.519531 C 3615.558594 1942.378906 3612.78125 1931.96875 3604.640625 1927.28125 Z M 3666 1785.28125 C 3622.808594 1796.238281 3584.300781 1819.019531 3554.140625 1849.960938 L 3651.101562 1898.839844 C 3652.25 1899.421875 3653.230469 1900.289062 3653.941406 1901.351562 L 3685.078125 1947.601562 L 3660.601562 1897.511719 C 3660.039062 1896.351562 3659.78125 1895.070312 3659.851562 1893.789062 Z M 1069.171875 1785.28125 C 1025.96875 1796.238281 987.464844 1819.019531 957.296875 1849.960938 L 1054.261719 1898.839844 C 1055.410156 1899.421875 1056.390625 1900.289062 1057.109375 1901.351562 L 1088.25 1947.601562 L 1063.761719 1897.511719 C 1063.199219 1896.351562 1062.941406 1895.070312 1063.011719 1893.789062 Z M 1186.589844 1785.28125 L 1192.738281 1893.789062 C 1192.808594 1895.070312 1192.550781 1896.351562 1191.988281 1897.511719 L 1167.511719 1947.601562 L 1198.648438 1901.351562 C 1199.371094 1900.289062 1200.339844 1899.421875 1201.488281 1898.839844 L 1298.449219 1849.960938 C 1268.289062 1819.019531 1229.789062 1796.25 1186.589844 1785.28125 Z M 3783.421875 1785.28125 L 3789.578125 1893.789062 C 3789.648438 1895.070312 3789.390625 1896.351562 3788.828125 1897.511719 L 3764.339844 1947.601562 L 3795.480469 1901.351562 C 3796.199219 1900.289062 3797.179688 1899.421875 3798.328125 1898.839844 L 3895.289062 1849.960938 C 3865.128906 1819.019531 3826.621094 1796.25 3783.421875 1785.28125 Z M 4519.019531 1853.878906 C 4418.851562 1873.828125 4318.679688 1888.691406 4218.488281 1898.628906 L 4254.390625 1914.75 L 4507.96875 1879.449219 Z M 4477.671875 1489.289062 L 4454.078125 1496.578125 L 4430.210938 1515.011719 C 4429.289062 1515.71875 4428.230469 1516.210938 4427.089844 1516.429688 C 4410.660156 1519.710938 4388.75 1517.789062 4363.988281 1511.800781 C 4352.058594 1508.910156 4339.429688 1505.078125 4326.429688 1500.5 C 4322.121094 1513.710938 4315.328125 1528.128906 4306.699219 1539.828125 C 4299.289062 1549.859375 4290.488281 1557.878906 4280.851562 1562 C 4197.671875 1597.550781 4095.179688 1622.738281 3984.878906 1643.699219 C 4058.25 1696.089844 4116.089844 1776.96875 4151.628906 1889.488281 C 4164.019531 1888.53125 4176.421875 1887.488281 4188.828125 1886.371094 L 4188.878906 1886.371094 C 4301.410156 1876.238281 4413.929688 1859.890625 4526.441406 1837.089844 L 4549.960938 1787.980469 C 4549.761719 1786.859375 4549.558594 1785.75 4549.359375 1784.640625 L 4467.800781 1698.128906 C 4464.210938 1694.320312 4462.871094 1688.921875 4464.25 1683.871094 C 4464.25 1683.871094 4485.269531 1607.210938 4485.269531 1607.210938 C 4479.890625 1567.898438 4477.308594 1528.589844 4477.671875 1489.289062 Z M 3741.730469 1778.578125 C 3736.109375 1778.179688 3730.429688 1777.980469 3724.710938 1777.980469 C 3718.988281 1777.980469 3713.320312 1778.179688 3707.699219 1778.578125 L 3707.699219 1867.78125 C 3707.699219 1877.171875 3715.320312 1884.789062 3724.710938 1884.789062 C 3734.101562 1884.789062 3741.730469 1877.171875 3741.730469 1867.78125 Z M 1144.890625 1778.578125 C 1139.269531 1778.179688 1133.601562 1777.980469 1127.878906 1777.980469 C 1122.160156 1777.980469 1116.480469 1778.179688 1110.859375 1778.578125 L 1110.859375 1867.78125 C 1110.859375 1877.171875 1118.488281 1884.789062 1127.878906 1884.789062 C 1137.269531 1884.789062 1144.890625 1877.171875 1144.890625 1867.78125 Z M 530.109375 1688.261719 C 523.683594 1688.261719 517.34375 1691.609375 512.003906 1698.390625 C 502.765625 1710.109375 496.019531 1733.628906 496.019531 1760.839844 C 496.019531 1788.050781 502.765625 1811.570312 512.003906 1823.289062 C 517.34375 1830.070312 523.683594 1833.421875 530.109375 1833.421875 C 536.535156 1833.421875 542.878906 1830.070312 548.21875 1823.289062 C 557.453125 1811.570312 564.199219 1788.050781 564.199219 1760.839844 C 564.199219 1733.628906 557.453125 1710.109375 548.21875 1698.390625 C 542.878906 1691.609375 536.535156 1688.261719 530.109375 1688.261719 Z M 530.109375 1703.261719 C 531.410156 1703.261719 532.597656 1703.941406 533.769531 1704.890625 C 535.78125 1706.53125 537.585938 1708.96875 539.257812 1711.96875 C 545.394531 1722.988281 549.199219 1740.800781 549.199219 1760.839844 C 549.199219 1780.878906 545.394531 1798.691406 539.257812 1809.710938 C 537.585938 1812.710938 535.78125 1815.148438 533.769531 1816.789062 C 532.597656 1817.75 531.410156 1818.421875 530.109375 1818.421875 C 528.808594 1818.421875 527.621094 1817.75 526.449219 1816.789062 C 524.441406 1815.148438 522.636719 1812.710938 520.960938 1809.710938 C 514.824219 1798.691406 511.019531 1780.878906 511.019531 1760.839844 C 511.019531 1740.800781 514.824219 1722.988281 520.960938 1711.96875 C 522.636719 1708.96875 524.441406 1706.53125 526.449219 1704.890625 C 527.621094 1703.941406 528.808594 1703.261719 530.109375 1703.261719 Z M 711.695312 1745.210938 C 698.578125 1745.210938 687.925781 1755.859375 687.925781 1768.980469 C 687.925781 1782.101562 698.578125 1792.75 711.695312 1792.75 C 724.816406 1792.75 735.46875 1782.101562 735.46875 1768.980469 C 735.46875 1755.859375 724.816406 1745.210938 711.695312 1745.210938 Z M 711.695312 1760.210938 C 716.539062 1760.210938 720.46875 1764.140625 720.46875 1768.980469 C 720.46875 1773.820312 716.539062 1777.75 711.695312 1777.75 C 706.855469 1777.75 702.925781 1773.820312 702.925781 1768.980469 C 702.925781 1764.140625 706.855469 1760.210938 711.695312 1760.210938 Z M 866.4375 1488.441406 L 784.78125 1495.601562 L 814.40625 1510.511719 C 816.847656 1511.738281 818.425781 1514.210938 818.527344 1516.941406 C 818.628906 1519.671875 817.234375 1522.238281 814.890625 1523.640625 L 662.25 1615.269531 C 661.546875 1615.691406 660.78125 1616 659.980469 1616.171875 L 614.058594 1626.140625 L 617.140625 1628.941406 C 714.304688 1620.570312 802.839844 1562.148438 891.578125 1504.429688 Z M 535.851562 1517.421875 C 529.871094 1519.808594 523.90625 1522.210938 517.957031 1524.640625 L 530.128906 1605.550781 L 597.90625 1614.300781 L 655.589844 1601.769531 L 795.5 1517.789062 L 756.382812 1498.089844 Z M 4478.410156 1461.558594 L 4388.160156 1461.558594 C 4386.699219 1461.558594 4385.269531 1461.128906 4384.050781 1460.328125 L 4294.71875 1401.839844 L 4172.890625 1401.839844 C 4196.03125 1419.25 4224.148438 1436.671875 4253.578125 1452.058594 C 4276.800781 1464.199219 4300.828125 1475.058594 4323.859375 1483.621094 C 4324.03125 1483.679688 4324.191406 1483.738281 4324.359375 1483.808594 C 4339.339844 1489.351562 4353.890625 1493.921875 4367.519531 1497.21875 C 4388.910156 1502.398438 4407.921875 1504.511719 4422.480469 1502.03125 L 4445.988281 1483.871094 C 4446.699219 1483.328125 4447.5 1482.910156 4448.359375 1482.640625 L 4477.96875 1473.488281 C 4478.089844 1469.511719 4478.230469 1465.53125 4478.410156 1461.558594 Z M 586.144531 1497.960938 L 845.640625 1475.199219 L 836.804688 1469.578125 C 798.792969 1463.761719 760.777344 1461.371094 722.773438 1461.78125 C 722.675781 1461.78125 722.578125 1461.78125 722.480469 1461.78125 C 709.703125 1461.921875 696.929688 1462.378906 684.15625 1463.128906 C 650.988281 1474.28125 618.304688 1485.871094 586.144531 1497.960938 Z M 2361.601562 1406.800781 L 2360.941406 1406.960938 C 2353.691406 1408.738281 2346.460938 1410.628906 2339.269531 1412.648438 C 2332.03125 1414.671875 2324.820312 1416.820312 2317.640625 1419.070312 L 2317.628906 1419.078125 C 2316.761719 1419.351562 2315.941406 1419.789062 2315.210938 1420.371094 L 2315.089844 1420.46875 C 2314.71875 1420.78125 2314.390625 1421.109375 2314.089844 1421.480469 L 2314 1421.589844 C 2313.410156 1422.339844 2312.980469 1423.179688 2312.71875 1424.050781 L 2312.699219 1424.109375 C 2312.421875 1425.078125 2312.320312 1426.109375 2312.449219 1427.160156 C 2312.539062 1427.878906 2312.738281 1428.578125 2313.019531 1429.21875 L 2313.039062 1429.269531 C 2313.398438 1430.101562 2313.929688 1430.871094 2314.601562 1431.539062 L 2314.789062 1431.71875 L 2314.859375 1431.789062 L 2340.121094 1454.660156 C 2341.5 1455.910156 2343.300781 1456.601562 2345.160156 1456.601562 L 2389.460938 1456.601562 C 2402.191406 1463 2418.179688 1466.910156 2435.679688 1466.910156 C 2457.488281 1466.910156 2477.070312 1460.949219 2490.621094 1451.679688 L 2490.789062 1451.558594 L 2528.199219 1451.558594 C 2530.160156 1451.558594 2532.039062 1450.800781 2533.441406 1449.429688 L 2556.328125 1427.078125 C 2564.648438 1424.46875 2569.78125 1415 2569.78125 1405.050781 C 2569.769531 1393.46875 2562.941406 1383.429688 2552.46875 1383.621094 C 2532.488281 1383.980469 2513.328125 1384.871094 2494.941406 1386.238281 C 2481.351562 1375.160156 2459.890625 1367.78125 2435.679688 1367.78125 C 2412.671875 1367.78125 2392.148438 1374.421875 2378.539062 1384.570312 C 2370.140625 1390.839844 2364.289062 1398.488281 2361.601562 1406.800781 Z M 2489.308594 1433.28125 C 2454.371094 1435.488281 2419.558594 1436.359375 2384.839844 1435.960938 C 2386.738281 1437.601562 2388.859375 1439.140625 2391.160156 1440.578125 C 2392.179688 1441.210938 2393.238281 1441.820312 2394.328125 1442.410156 C 2394.421875 1442.460938 2394.519531 1442.511719 2394.609375 1442.558594 C 2405.609375 1448.429688 2419.988281 1451.910156 2435.679688 1451.910156 C 2454.101562 1451.910156 2470.710938 1447.121094 2482.148438 1439.300781 C 2482.730469 1438.898438 2483.300781 1438.5 2483.851562 1438.089844 L 2483.949219 1438.019531 C 2485.929688 1436.53125 2487.730469 1434.949219 2489.308594 1433.28125 Z M 720.628906 1447.03125 C 951.023438 1386.160156 1130.578125 1372.050781 1272.328125 1350.578125 C 1356.679688 1337.789062 1427.5 1322.46875 1487.539062 1292.710938 C 1475.550781 1289.921875 1465.261719 1286.359375 1457.730469 1282.191406 C 1456.800781 1281.679688 1455.921875 1281.148438 1455.070312 1280.621094 C 1221.671875 1320.320312 996.226562 1367.511719 787.28125 1430.339844 L 786.683594 1430.480469 C 771.785156 1434.019531 756.914062 1437.671875 742.078125 1441.460938 C 737.171875 1442.710938 732.265625 1443.980469 727.363281 1445.261719 C 726.019531 1445.609375 724.671875 1445.960938 723.324219 1446.320312 C 722.878906 1446.441406 722.425781 1446.558594 721.976562 1446.671875 C 721.527344 1446.789062 720.175781 1447.140625 720.628906 1447.03125 C 742.847656 1441.46875 765.0625 1435.910156 787.28125 1430.339844 C 809.183594 1424.859375 743.480469 1441.308594 721.578125 1446.789062 C 721.5625 1446.800781 721.511719 1446.800781 721.527344 1446.789062 C 721.675781 1446.75 721.828125 1446.710938 721.976562 1446.671875 C 722.648438 1446.5 723.320312 1446.320312 723.992188 1446.140625 C 725.675781 1445.699219 727.355469 1445.261719 729.035156 1444.820312 C 733.742188 1443.601562 738.453125 1442.390625 743.164062 1441.191406 C 757.644531 1437.5 772.148438 1433.941406 786.683594 1430.480469 Z M 4483.351562 1401.839844 L 4322.101562 1401.839844 L 4390.398438 1446.558594 L 4479.21875 1446.558594 C 4480.160156 1431.648438 4481.539062 1416.738281 4483.351562 1401.839844 Z M 2348.050781 1441.601562 L 2369.511719 1441.601562 C 2367.828125 1439.660156 2366.359375 1437.660156 2365.121094 1435.589844 C 2356.898438 1435.378906 2348.691406 1435.109375 2340.488281 1434.761719 Z M 2531.96875 1429.898438 C 2524.019531 1430.660156 2516.089844 1431.339844 2508.171875 1431.949219 C 2507.441406 1433.519531 2506.609375 1435.058594 2505.660156 1436.558594 L 2525.140625 1436.558594 Z M 2502.558594 1417.328125 C 2518.941406 1416.121094 2535.351562 1414.609375 2551.78125 1412.78125 C 2552.550781 1412.691406 2552.960938 1412 2553.351562 1411.320312 C 2554.359375 1409.558594 2554.78125 1407.28125 2554.78125 1405.050781 C 2554.78125 1403.28125 2554.5 1401.511719 2553.859375 1400.050781 C 2553.578125 1399.410156 2553.441406 1398.601562 2552.738281 1398.621094 C 2531.949219 1399 2512.058594 1399.949219 2493.019531 1401.421875 L 2492.941406 1401.429688 C 2447.46875 1404.960938 2406.75 1411.46875 2369.679688 1420.28125 C 2369.558594 1420.308594 2369.449219 1420.339844 2369.328125 1420.359375 C 2368.921875 1420.460938 2368.5 1420.558594 2368.078125 1420.660156 C 2368.621094 1420.671875 2369.160156 1420.679688 2369.691406 1420.699219 C 2369.808594 1420.699219 2369.941406 1420.699219 2370.070312 1420.710938 C 2413.890625 1421.671875 2457.890625 1420.621094 2502.050781 1417.371094 C 2502.21875 1417.351562 2502.390625 1417.339844 2502.558594 1417.328125 Z M 3310.851562 1357.21875 C 3295.609375 1360.949219 3280.988281 1365.050781 3266.898438 1369.488281 C 3266.019531 1369.769531 3265.179688 1370.210938 3264.429688 1370.808594 L 3264.328125 1370.898438 C 3263.980469 1371.191406 3263.660156 1371.519531 3263.371094 1371.871094 L 3263.339844 1371.898438 C 3262.679688 1372.699219 3262.21875 1373.601562 3261.941406 1374.550781 C 3261.660156 1375.511719 3261.570312 1376.539062 3261.699219 1377.578125 C 3261.789062 1378.289062 3261.980469 1378.96875 3262.25 1379.601562 L 3262.269531 1379.660156 C 3262.671875 1380.570312 3263.25 1381.410156 3264.019531 1382.128906 L 3264.109375 1382.210938 L 3289.371094 1405.078125 C 3290.75 1406.328125 3292.539062 1407.019531 3294.410156 1407.019531 L 3338.710938 1407.019531 C 3351.429688 1413.421875 3367.429688 1417.328125 3384.921875 1417.328125 C 3406.730469 1417.328125 3426.320312 1411.371094 3439.859375 1402.109375 C 3439.921875 1402.070312 3439.980469 1402.019531 3440.039062 1401.980469 L 3477.449219 1401.980469 C 3479.410156 1401.980469 3481.28125 1401.21875 3482.691406 1399.851562 L 3505.578125 1377.5 C 3513.890625 1374.890625 3519.03125 1365.421875 3519.03125 1355.46875 C 3519.019531 1343.890625 3512.179688 1333.851562 3501.71875 1334.039062 C 3481.730469 1334.410156 3462.578125 1335.289062 3444.191406 1336.660156 C 3430.589844 1325.578125 3409.140625 1318.199219 3384.921875 1318.199219 C 3361.921875 1318.199219 3341.390625 1324.839844 3327.789062 1334.988281 C 3319.378906 1341.269531 3313.539062 1348.921875 3310.851562 1357.21875 Z M 3438.558594 1383.699219 C 3403.621094 1385.921875 3368.800781 1386.78125 3334.089844 1386.378906 C 3335.980469 1388.019531 3338.101562 1389.570312 3340.410156 1391 C 3341.429688 1391.628906 3342.488281 1392.25 3343.578125 1392.839844 C 3343.671875 1392.878906 3343.769531 1392.941406 3343.859375 1392.988281 C 3354.859375 1398.859375 3369.238281 1402.328125 3384.921875 1402.328125 C 3403.351562 1402.328125 3419.949219 1397.550781 3431.398438 1389.71875 C 3431.980469 1389.328125 3432.539062 1388.921875 3433.089844 1388.511719 C 3433.128906 1388.488281 3433.160156 1388.460938 3433.199219 1388.429688 C 3435.191406 1386.949219 3436.980469 1385.371094 3438.558594 1383.699219 Z M 2468.898438 1388.539062 C 2459.28125 1384.859375 2447.871094 1382.78125 2435.679688 1382.78125 C 2416.320312 1382.78125 2398.960938 1388.050781 2387.511719 1396.589844 C 2385.148438 1398.359375 2383.039062 1400.261719 2381.261719 1402.28125 C 2408.449219 1396.421875 2437.53125 1391.761719 2468.898438 1388.539062 Z M 3297.300781 1392.019531 L 3318.75 1392.019531 C 3317.078125 1390.089844 3315.609375 1388.078125 3314.371094 1386.011719 C 3306.148438 1385.808594 3297.941406 1385.53125 3289.738281 1385.179688 Z M 3481.21875 1380.320312 C 3473.269531 1381.078125 3465.339844 1381.761719 3457.410156 1382.371094 C 3456.691406 1383.941406 3455.851562 1385.480469 3454.898438 1386.980469 L 3474.390625 1386.980469 Z M 4487.691406 1371.160156 L 4137.601562 1371.160156 C 4142.140625 1375.941406 4147.320312 1380.828125 4153.011719 1385.789062 C 4153.410156 1386.140625 4153.808594 1386.488281 4154.210938 1386.839844 L 4485.320312 1386.839844 C 4486.050781 1381.609375 4486.839844 1376.390625 4487.691406 1371.160156 Z M 3451.808594 1367.761719 C 3468.191406 1366.539062 3484.589844 1365.03125 3501.019531 1363.199219 C 3501.800781 1363.121094 3502.210938 1362.421875 3502.601562 1361.738281 C 3503.609375 1359.980469 3504.03125 1357.699219 3504.03125 1355.46875 C 3504.03125 1353.699219 3503.75 1351.941406 3503.109375 1350.46875 C 3502.828125 1349.839844 3502.691406 1349.03125 3501.988281 1349.039062 C 3481.199219 1349.421875 3461.320312 1350.371094 3442.289062 1351.851562 C 3442.25 1351.851562 3442.210938 1351.851562 3442.171875 1351.859375 C 3396.71875 1355.378906 3356 1361.890625 3318.929688 1370.699219 C 3318.808594 1370.730469 3318.699219 1370.761719 3318.578125 1370.78125 C 3318.160156 1370.878906 3317.75 1370.980469 3317.328125 1371.078125 C 3317.859375 1371.089844 3318.390625 1371.109375 3318.929688 1371.121094 C 3319.058594 1371.121094 3319.191406 1371.121094 3319.328125 1371.128906 C 3363.140625 1372.101562 3407.121094 1371.050781 3451.300781 1367.789062 C 3451.46875 1367.78125 3451.640625 1367.761719 3451.808594 1367.761719 Z M 4246 1306.710938 C 4220.589844 1307.390625 4195.011719 1308.519531 4169.238281 1310.109375 C 4156.03125 1310.929688 4137.640625 1319.339844 4126.679688 1329.75 C 4123.46875 1332.789062 4120.910156 1335.980469 4119.578125 1339.25 C 4118.691406 1341.441406 4118.398438 1343.648438 4119.308594 1345.761719 C 4120.75 1349.109375 4122.730469 1352.578125 4125.179688 1356.160156 L 4237.378906 1356.160156 L 4218.96875 1342.050781 C 4217.179688 1340.679688 4216.101562 1338.578125 4216.03125 1336.320312 C 4215.960938 1334.070312 4216.910156 1331.910156 4218.621094 1330.429688 Z M 4439.488281 1309.921875 C 4383.671875 1306.578125 4327.039062 1305.261719 4269.5 1306.199219 L 4235.390625 1335.738281 L 4262.039062 1356.160156 L 4484.441406 1356.160156 L 4472.820312 1349.441406 C 4472.050781 1349 4471.371094 1348.421875 4470.800781 1347.730469 Z M 3418.148438 1338.960938 C 3408.53125 1335.28125 3397.121094 1333.199219 3384.921875 1333.199219 C 3365.570312 1333.199219 3348.210938 1338.46875 3336.761719 1347.011719 C 3334.390625 1348.78125 3332.289062 1350.679688 3330.5 1352.699219 C 3357.691406 1346.839844 3386.78125 1342.179688 3418.148438 1338.960938 Z M 4471.429688 1253.199219 C 4461.269531 1255.890625 4451.121094 1257.601562 4440.960938 1258.371094 C 4433.28125 1258.949219 4424.601562 1258.53125 4415.339844 1257.230469 L 4481.5 1337.128906 L 4492.648438 1343.578125 C 4496.21875 1325.558594 4500.441406 1307.539062 4505.308594 1289.511719 C 4494.191406 1277.25 4482.890625 1265.140625 4471.429688 1253.199219 Z M 2708.339844 899.410156 C 2525.480469 907.828125 2384.628906 936.238281 2259.96875 983.878906 C 2141.988281 1028.96875 2038.539062 1091.269531 1927.671875 1170.050781 C 1930.148438 1170.148438 1932.679688 1170.351562 1935.230469 1170.660156 C 1945.140625 1171.859375 1953.640625 1176.601562 1961.378906 1183.078125 C 1968.191406 1188.789062 1974.410156 1195.871094 1980.671875 1202.5 C 1987.410156 1209.621094 1991.96875 1221.300781 1994.371094 1234.648438 C 1995.039062 1238.371094 1995.550781 1242.21875 1995.921875 1246.121094 C 1995.941406 1246.28125 1995.949219 1246.449219 1995.960938 1246.609375 L 1995.96875 1246.648438 C 1996.601562 1253.570312 1996.78125 1260.628906 1996.609375 1267.410156 C 1996.628906 1267.558594 1996.640625 1267.71875 1996.660156 1267.878906 C 1996.710938 1268.601562 1996.660156 1269.308594 1996.519531 1269.980469 C 1996.230469 1277.21875 1995.539062 1284.050781 1994.53125 1289.910156 C 1993.058594 1298.488281 1990.789062 1305.160156 1988.429688 1308.691406 C 1986.191406 1312.03125 1983.460938 1313.609375 1981.011719 1314.121094 C 1925.578125 1325.511719 1871.121094 1331.089844 1817.351562 1332.578125 L 1821.429688 1337.210938 C 1987.070312 1339.871094 2261.039062 1328.921875 2570.449219 1310.101562 Z M 1752.871094 1335 L 1778.738281 1311.449219 L 1801.078125 1336.808594 C 1783.578125 1336.378906 1767.480469 1335.78125 1752.871094 1335 Z M 1810.5 1256.570312 C 1778.910156 1280.558594 1746.261719 1305.679688 1712.140625 1331.949219 C 1718.308594 1332.578125 1724.949219 1333.160156 1732.019531 1333.679688 L 1774.21875 1295.28125 C 1774.988281 1294.558594 1775.929688 1294 1776.988281 1293.648438 L 1777.070312 1293.621094 L 1777.25 1293.570312 L 1804.128906 1285.808594 C 1804.28125 1284.160156 1804.46875 1282.519531 1804.691406 1280.890625 C 1804.691406 1280.859375 1804.691406 1280.828125 1804.699219 1280.789062 C 1805.820312 1272.441406 1807.78125 1264.371094 1810.5 1256.570312 Z M 1829.289062 1317.171875 L 1809.390625 1299.910156 L 1792.789062 1304.699219 L 1804.378906 1317.859375 C 1812.671875 1317.730469 1820.980469 1317.5 1829.289062 1317.171875 Z M 1981.101562 1276.578125 L 1819.488281 1288.808594 L 1850.921875 1316.078125 C 1892.199219 1313.558594 1933.929688 1308.390625 1976.230469 1299.78125 C 1976.589844 1299.058594 1977.140625 1297.898438 1977.480469 1296.890625 C 1978.359375 1294.300781 1979.121094 1291.058594 1979.75 1287.371094 C 1980.308594 1284.078125 1980.769531 1280.441406 1981.101562 1276.578125 Z M 2767.941406 897.398438 L 2669.851562 1303.859375 C 2641.878906 1305.671875 2614.101562 1307.421875 2586.601562 1309.109375 L 2724.398438 898.71875 C 2738.671875 898.160156 2753.171875 897.71875 2767.941406 897.398438 Z M 2823.449219 896.75 L 2823.851562 896.75 L 2777.761719 1296.679688 L 2773.878906 1296.941406 C 2745.179688 1298.898438 2716.46875 1300.820312 2687.769531 1302.699219 L 2685.53125 1302.839844 L 2783.441406 897.109375 L 2783.550781 897.109375 C 2796.851562 896.890625 2810.148438 896.78125 2823.449219 896.75 Z M 2838.949219 896.761719 C 2978.839844 897.191406 3141.449219 907.171875 3335.210938 926.949219 L 3458.628906 1242.53125 C 3243.820312 1262.070312 3014.109375 1280.390625 2792.988281 1295.628906 Z M 2214.359375 917.058594 L 2211.558594 915.699219 C 2211.308594 915.789062 2211.558594 915.699219 2211.558594 915.699219 C 2111.898438 938.910156 1791.058594 1112.460938 1566.421875 1261.261719 C 1564.859375 1262.289062 1563.039062 1262.839844 1561.191406 1263.140625 C 1534.921875 1267.328125 1508.730469 1271.609375 1482.648438 1275.96875 C 1486.148438 1276.96875 1489.878906 1277.890625 1493.789062 1278.738281 C 1499.191406 1279.910156 1504.941406 1280.929688 1510.910156 1281.78125 C 1511.03125 1281.800781 1511.148438 1281.820312 1511.269531 1281.839844 C 1536.628906 1285.449219 1566.058594 1286.230469 1591.128906 1283.828125 C 1610.871094 1281.941406 1627.839844 1278.25 1637.359375 1272.019531 C 1826.429688 1148.25 2019.648438 1030.28125 2218.980469 920.871094 Z M 1836.730469 1236.761719 C 1829.449219 1248.308594 1824.140625 1260.550781 1821.210938 1273.628906 L 1836.851562 1272.449219 L 1851.75 1251.101562 C 1853.058594 1249.21875 1855.148438 1248.050781 1857.429688 1247.898438 L 1980.070312 1240.101562 C 1979.929688 1239.160156 1979.769531 1238.230469 1979.609375 1237.300781 C 1977.789062 1227.21875 1974.859375 1218.179688 1969.769531 1212.800781 C 1963.898438 1206.589844 1958.121094 1199.921875 1951.738281 1194.578125 C 1946.289062 1190.011719 1940.410156 1186.398438 1933.429688 1185.550781 C 1922.039062 1184.171875 1911.519531 1185.410156 1901.691406 1188.710938 C 1880.421875 1204.128906 1858.808594 1220.148438 1836.730469 1236.761719 Z M 1861.988281 1262.640625 L 1856.160156 1270.988281 L 1981.679688 1261.488281 C 1981.671875 1259.359375 1981.621094 1257.199219 1981.519531 1255.039062 Z M 4233.28125 1044.101562 C 4245.480469 1065.300781 4262.671875 1087.910156 4281.378906 1110.128906 C 4326.949219 1164.230469 4381.828125 1215.78125 4400.601562 1239.320312 C 4414.949219 1242.710938 4428.550781 1244.269531 4439.828125 1243.410156 C 4446.308594 1242.921875 4452.789062 1242.011719 4459.269531 1240.671875 C 4389.898438 1169.851562 4314.300781 1104.570312 4233.28125 1044.101562 Z M 3351.988281 928.679688 C 3370.46875 930.609375 3389.199219 932.609375 3408.21875 934.710938 L 3530.640625 1235.878906 C 3511.960938 1237.628906 3493.128906 1239.371094 3474.179688 1241.109375 Z M 3425.179688 936.589844 L 3546.238281 1234.410156 C 3555.210938 1233.558594 3564.148438 1232.71875 3573.03125 1231.871094 C 3573.261719 1231.839844 3573.480469 1231.820312 3573.699219 1231.808594 C 3580.511719 1231.148438 3587.308594 1230.5 3594.089844 1229.851562 L 3472.230469 941.960938 L 3470.339844 941.738281 C 3455.328125 940 3440.320312 938.28125 3425.308594 936.601562 Z M 4223.109375 978.949219 L 4074.351562 1022.121094 C 4146.359375 1088.25 4235.589844 1148.75 4327.589844 1208.421875 C 4341.160156 1217.21875 4357.109375 1225.019531 4373.320312 1231.019531 C 4348.289062 1204.160156 4306.128906 1162.789062 4269.910156 1119.789062 C 4242.648438 1087.429688 4218.828125 1054.078125 4207.398438 1025.078125 C 4205.300781 1023.558594 4203.191406 1022.039062 4201.078125 1020.519531 C 4197.238281 1017.761719 4194.921875 1013.359375 4194.828125 1008.628906 C 4194.738281 1003.910156 4196.878906 999.410156 4200.601562 996.511719 Z M 3489.371094 943.96875 C 3565.230469 952.910156 3645.421875 963.140625 3730.339844 974.660156 C 3822.941406 987.230469 3896.160156 1044.570312 3961.410156 1103.019531 C 3964.179688 1105.5 3964.300781 1109.820312 3963.761719 1114.910156 C 3962.980469 1122.160156 3960.140625 1130.699219 3956.089844 1139.519531 C 3948.480469 1156.058594 3936.578125 1173.449219 3924.699219 1185.101562 C 3917.859375 1191.808594 3911.308594 1196.769531 3905.628906 1197.410156 C 3814.410156 1207.761719 3714.769531 1218.140625 3609.738281 1228.339844 Z M 4053.808594 1023.308594 C 4054.179688 1023.789062 4054.179688 1023.789062 4054.089844 1023.671875 C 4054 1023.550781 4053.808594 1023.308594 4053.808594 1023.308594 Z M 3973.488281 906.988281 C 3997.359375 943.199219 4027.308594 977.410156 4061.609375 1010.199219 L 4238.28125 958.929688 C 4151.089844 933.621094 4062.878906 915.890625 3973.488281 906.988281 Z M 3842.261719 860.460938 C 3832.539062 843.691406 3826.539062 825.691406 3825.019531 806.191406 C 3767.320312 796.949219 3717.390625 810.21875 3673.480469 840.980469 C 3729.058594 846.878906 3785.328125 853.378906 3842.261719 860.460938 Z M 4416.238281 180.429688 C 4264.550781 180.429688 4141.398438 303.578125 4141.398438 455.269531 C 4141.398438 606.960938 4264.550781 730.109375 4416.238281 730.109375 C 4567.929688 730.109375 4691.078125 606.960938 4691.078125 455.269531 C 4691.078125 303.578125 4567.929688 180.429688 4416.238281 180.429688 Z M 4416.238281 206.429688 C 4553.578125 206.429688 4665.078125 317.929688 4665.078125 455.269531 C 4665.078125 592.609375 4553.578125 704.109375 4416.238281 704.109375 C 4278.898438 704.109375 4167.398438 592.609375 4167.398438 455.269531 C 4167.398438 317.929688 4278.898438 206.429688 4416.238281 206.429688 Z M 4509.058594 496.289062 L 4542.210938 492.859375 C 4543.160156 500.359375 4545.960938 506.300781 4550.609375 510.679688 C 4555.269531 515.058594 4560.640625 517.25 4566.710938 517.25 C 4573.660156 517.25 4579.539062 514.429688 4584.359375 508.78125 C 4589.171875 503.140625 4591.578125 494.640625 4591.578125 483.269531 C 4591.578125 472.609375 4589.191406 464.621094 4584.410156 459.300781 C 4579.640625 453.96875 4573.421875 451.300781 4565.769531 451.300781 C 4556.21875 451.300781 4547.648438 455.53125 4540.078125 463.96875 L 4513.078125 460.070312 L 4530.128906 369.730469 L 4618.101562 369.730469 L 4618.101562 400.871094 L 4555.351562 400.871094 L 4550.140625 430.351562 C 4557.558594 426.640625 4565.140625 424.78125 4572.871094 424.78125 C 4587.628906 424.78125 4600.140625 430.148438 4610.398438 440.890625 C 4620.660156 451.621094 4625.789062 465.550781 4625.789062 482.679688 C 4625.789062 496.960938 4621.648438 509.710938 4613.359375 520.921875 C 4602.078125 536.230469 4586.410156 543.890625 4566.359375 543.890625 C 4550.339844 543.890625 4537.28125 539.578125 4527.171875 530.980469 C 4517.070312 522.378906 4511.03125 510.820312 4509.058594 496.289062 Z M 4429.96875 366.660156 C 4446.789062 366.660156 4459.929688 372.648438 4469.398438 384.648438 C 4480.679688 398.859375 4486.328125 422.421875 4486.328125 455.328125 C 4486.328125 488.160156 4480.640625 511.761719 4469.28125 526.128906 C 4459.890625 537.96875 4446.789062 543.890625 4429.96875 543.890625 C 4413.078125 543.890625 4399.46875 537.390625 4389.128906 524.410156 C 4378.789062 511.429688 4373.621094 488.28125 4373.621094 454.96875 C 4373.621094 422.300781 4379.300781 398.78125 4390.671875 384.410156 C 4400.058594 372.570312 4413.160156 366.660156 4429.96875 366.660156 Z M 4295.128906 366.660156 C 4311.941406 366.660156 4325.078125 372.648438 4334.550781 384.648438 C 4345.839844 398.859375 4351.480469 422.421875 4351.480469 455.328125 C 4351.480469 488.160156 4345.800781 511.761719 4334.429688 526.128906 C 4325.039062 537.96875 4311.941406 543.890625 4295.128906 543.890625 C 4278.230469 543.890625 4264.621094 537.390625 4254.28125 524.410156 C 4243.941406 511.429688 4238.769531 488.28125 4238.769531 454.96875 C 4238.769531 422.300781 4244.449219 398.78125 4255.820312 384.410156 C 4265.210938 372.570312 4278.308594 366.660156 4295.128906 366.660156 Z M 4429.96875 394.238281 C 4425.949219 394.238281 4422.359375 395.519531 4419.199219 398.089844 C 4416.039062 400.648438 4413.601562 405.25 4411.859375 411.878906 C 4409.570312 420.480469 4408.429688 434.96875 4408.429688 455.328125 C 4408.429688 475.691406 4409.449219 489.679688 4411.5 497.300781 C 4413.558594 504.921875 4416.140625 509.988281 4419.261719 512.511719 C 4422.378906 515.039062 4425.949219 516.300781 4429.96875 516.300781 C 4434 516.300781 4437.589844 515.019531 4440.75 512.449219 C 4443.898438 509.890625 4446.351562 505.289062 4448.089844 498.660156 C 4450.378906 490.140625 4451.519531 475.691406 4451.519531 455.328125 C 4451.519531 434.96875 4450.5 420.980469 4448.441406 413.359375 C 4446.390625 405.738281 4443.808594 400.648438 4440.691406 398.089844 C 4437.570312 395.519531 4434 394.238281 4429.96875 394.238281 Z M 4295.128906 394.238281 C 4291.101562 394.238281 4287.511719 395.519531 4284.351562 398.089844 C 4281.191406 400.648438 4278.75 405.25 4277.011719 411.878906 C 4274.71875 420.480469 4273.578125 434.96875 4273.578125 455.328125 C 4273.578125 475.691406 4274.601562 489.679688 4276.660156 497.300781 C 4278.710938 504.921875 4281.289062 509.988281 4284.410156 512.511719 C 4287.53125 515.039062 4291.101562 516.300781 4295.128906 516.300781 C 4299.148438 516.300781 4302.738281 515.019531 4305.898438 512.449219 C 4309.058594 509.890625 4311.5 505.289062 4313.238281 498.660156 C 4315.53125 490.140625 4316.671875 475.691406 4316.671875 455.328125 C 4316.671875 434.96875 4315.648438 420.980469 4313.601562 413.359375 C 4311.539062 405.738281 4308.960938 400.648438 4305.839844 398.089844 C 4302.71875 395.519531 4299.148438 394.238281 4295.128906 394.238281 "/>
</svg>
