<svg width="8" height="8" viewBox="0 0 8 8" fill="none" xmlns="http://www.w3.org/2000/svg">
<circle cx="4" cy="4" r="3.5" fill="#D9D9D9"/>
<circle cx="4" cy="4" r="3.5" stroke="#454C5E"/>
<circle cx="4" cy="4" r="3.5" stroke="black" stroke-opacity="0.76"/>
<mask id="path-2-inside-1_516_150" fill="white">
<path d="M3.60864 0.833252H4.49753L4.20118 3.87019H3.90488L3.60864 0.833252Z"/>
</mask>
<path d="M3.60864 0.833252H4.49753L4.20118 3.87019H3.90488L3.60864 0.833252Z" fill="#59443D"/>
<path d="M3.60864 0.833252V-0.166748H2.50635L2.61337 0.930336L3.60864 0.833252ZM4.49753 0.833252L5.4928 0.930374L5.59987 -0.166748H4.49753V0.833252ZM4.20118 3.87019V4.87019H5.10834L5.19645 3.96731L4.20118 3.87019ZM3.90488 3.87019L2.9096 3.96727L2.99768 4.87019H3.90488V3.87019ZM3.60864 1.83325H4.49753V-0.166748H3.60864V1.83325ZM3.50226 0.73613L3.2059 3.77307L5.19645 3.96731L5.4928 0.930374L3.50226 0.73613ZM4.20118 2.87019H3.90488V4.87019H4.20118V2.87019ZM4.90016 3.7731L4.60392 0.736168L2.61337 0.930336L2.9096 3.96727L4.90016 3.7731Z" fill="#454C5E" mask="url(#path-2-inside-1_516_150)"/>
<path d="M3.60864 0.833252V-0.166748H2.50635L2.61337 0.930336L3.60864 0.833252ZM4.49753 0.833252L5.4928 0.930374L5.59987 -0.166748H4.49753V0.833252ZM4.20118 3.87019V4.87019H5.10834L5.19645 3.96731L4.20118 3.87019ZM3.90488 3.87019L2.9096 3.96727L2.99768 4.87019H3.90488V3.87019ZM3.60864 1.83325H4.49753V-0.166748H3.60864V1.83325ZM3.50226 0.73613L3.2059 3.77307L5.19645 3.96731L5.4928 0.930374L3.50226 0.73613ZM4.20118 2.87019H3.90488V4.87019H4.20118V2.87019ZM4.90016 3.7731L4.60392 0.736168L2.61337 0.930336L2.9096 3.96727L4.90016 3.7731Z" fill="black" fill-opacity="0.76" mask="url(#path-2-inside-1_516_150)"/>
<mask id="path-4-inside-2_516_150" fill="white">
<path d="M1.62939 2.07324L2.27496 1.4622L4.26503 3.99574L4.04984 4.19942L1.62939 2.07324Z"/>
</mask>
<path d="M1.62939 2.07324L2.27496 1.4622L4.26503 3.99574L4.04984 4.19942L1.62939 2.07324Z" fill="#59443D"/>
<path d="M1.62939 2.07324L0.941975 1.34698L0.145545 2.10082L0.969434 2.82454L1.62939 2.07324ZM2.27496 1.4622L3.06136 0.84449L2.38397 -0.0178946L1.58754 0.735942L2.27496 1.4622ZM4.26503 3.99574L4.95245 4.722L5.61472 4.09515L5.05143 3.37803L4.26503 3.99574ZM4.04984 4.19942L3.38988 4.95072L4.07499 5.55253L4.73726 4.92568L4.04984 4.19942ZM2.31681 2.7995L2.96238 2.18846L1.58754 0.735942L0.941975 1.34698L2.31681 2.7995ZM1.48856 2.07991L3.47862 4.61345L5.05143 3.37803L3.06136 0.84449L1.48856 2.07991ZM3.57761 3.26948L3.36242 3.47316L4.73726 4.92568L4.95245 4.722L3.57761 3.26948ZM4.7098 3.44812L2.28935 1.32194L0.969434 2.82454L3.38988 4.95072L4.7098 3.44812Z" fill="#454C5E" mask="url(#path-4-inside-2_516_150)"/>
<path d="M1.62939 2.07324L0.941975 1.34698L0.145545 2.10082L0.969434 2.82454L1.62939 2.07324ZM2.27496 1.4622L3.06136 0.84449L2.38397 -0.0178946L1.58754 0.735942L2.27496 1.4622ZM4.26503 3.99574L4.95245 4.722L5.61472 4.09515L5.05143 3.37803L4.26503 3.99574ZM4.04984 4.19942L3.38988 4.95072L4.07499 5.55253L4.73726 4.92568L4.04984 4.19942ZM2.31681 2.7995L2.96238 2.18846L1.58754 0.735942L0.941975 1.34698L2.31681 2.7995ZM1.48856 2.07991L3.47862 4.61345L5.05143 3.37803L3.06136 0.84449L1.48856 2.07991ZM3.57761 3.26948L3.36242 3.47316L4.73726 4.92568L4.95245 4.722L3.57761 3.26948ZM4.7098 3.44812L2.28935 1.32194L0.969434 2.82454L3.38988 4.95072L4.7098 3.44812Z" fill="black" fill-opacity="0.76" mask="url(#path-4-inside-2_516_150)"/>
<mask id="path-6-inside-3_516_150" fill="white">
<path d="M6.66488 5.86987L6 6.5L4.13018 4.21006L4.35181 4.00002L6.66488 5.86987Z"/>
</mask>
<path d="M6.66488 5.86987L6 6.5L4.13018 4.21006L4.35181 4.00002L6.66488 5.86987Z" fill="#59443D"/>
<path d="M6.66488 5.86987L7.35277 6.59568L8.18165 5.81012L7.29354 5.09219L6.66488 5.86987ZM6 6.5L5.22542 7.13247L5.9064 7.96646L6.68789 7.22582L6 6.5ZM4.13018 4.21006L3.4423 3.48424L2.76818 4.12313L3.3556 4.84253L4.13018 4.21006ZM4.35181 4.00002L4.98048 3.22234L4.29949 2.67184L3.66393 3.2742L4.35181 4.00002ZM5.977 5.14405L5.31211 5.77418L6.68789 7.22582L7.35277 6.59568L5.977 5.14405ZM6.77458 5.86753L4.90477 3.57759L3.3556 4.84253L5.22542 7.13247L6.77458 5.86753ZM4.81807 4.93588L5.0397 4.72583L3.66393 3.2742L3.4423 3.48424L4.81807 4.93588ZM3.72315 4.77769L6.03622 6.64754L7.29354 5.09219L4.98048 3.22234L3.72315 4.77769Z" fill="#454C5E" mask="url(#path-6-inside-3_516_150)"/>
<path d="M6.66488 5.86987L7.35277 6.59568L8.18165 5.81012L7.29354 5.09219L6.66488 5.86987ZM6 6.5L5.22542 7.13247L5.9064 7.96646L6.68789 7.22582L6 6.5ZM4.13018 4.21006L3.4423 3.48424L2.76818 4.12313L3.3556 4.84253L4.13018 4.21006ZM4.35181 4.00002L4.98048 3.22234L4.29949 2.67184L3.66393 3.2742L4.35181 4.00002ZM5.977 5.14405L5.31211 5.77418L6.68789 7.22582L7.35277 6.59568L5.977 5.14405ZM6.77458 5.86753L4.90477 3.57759L3.3556 4.84253L5.22542 7.13247L6.77458 5.86753ZM4.81807 4.93588L5.0397 4.72583L3.66393 3.2742L3.4423 3.48424L4.81807 4.93588ZM3.72315 4.77769L6.03622 6.64754L7.29354 5.09219L4.98048 3.22234L3.72315 4.77769Z" fill="black" fill-opacity="0.76" mask="url(#path-6-inside-3_516_150)"/>
<mask id="path-8-inside-4_516_150" fill="white">
<path d="M2.00012 6.5L1.50011 6L4.38848 3.55517L4.58452 3.75155L2.00012 6.5Z"/>
</mask>
<path d="M2.00012 6.5L1.50011 6L4.38848 3.55517L4.58452 3.75155L2.00012 6.5Z" fill="#59443D"/>
<path d="M2.00012 6.5L1.29302 7.20711L2.02221 7.93629L2.72864 7.18503L2.00012 6.5ZM1.50011 6L0.854045 5.23672L0.0246465 5.93876L0.793015 6.70712L1.50011 6ZM4.38848 3.55517L5.09618 2.84866L4.44544 2.19682L3.74241 2.79189L4.38848 3.55517ZM4.58452 3.75155L5.31304 4.43658L5.97676 3.73073L5.29223 3.04504L4.58452 3.75155ZM2.70722 5.79289L2.20722 5.29289L0.793015 6.70712L1.29302 7.20711L2.70722 5.79289ZM2.14619 6.76328L5.03455 4.31845L3.74241 2.79189L0.854045 5.23672L2.14619 6.76328ZM3.68077 4.26168L3.87682 4.45806L5.29223 3.04504L5.09618 2.84866L3.68077 4.26168ZM3.85601 3.06652L1.27161 5.81497L2.72864 7.18503L5.31304 4.43658L3.85601 3.06652Z" fill="#454C5E" mask="url(#path-8-inside-4_516_150)"/>
<path d="M2.00012 6.5L1.29302 7.20711L2.02221 7.93629L2.72864 7.18503L2.00012 6.5ZM1.50011 6L0.854045 5.23672L0.0246465 5.93876L0.793015 6.70712L1.50011 6ZM4.38848 3.55517L5.09618 2.84866L4.44544 2.19682L3.74241 2.79189L4.38848 3.55517ZM4.58452 3.75155L5.31304 4.43658L5.97676 3.73073L5.29223 3.04504L4.58452 3.75155ZM2.70722 5.79289L2.20722 5.29289L0.793015 6.70712L1.29302 7.20711L2.70722 5.79289ZM2.14619 6.76328L5.03455 4.31845L3.74241 2.79189L0.854045 5.23672L2.14619 6.76328ZM3.68077 4.26168L3.87682 4.45806L5.29223 3.04504L5.09618 2.84866L3.68077 4.26168ZM3.85601 3.06652L1.27161 5.81497L2.72864 7.18503L5.31304 4.43658L3.85601 3.06652Z" fill="black" fill-opacity="0.76" mask="url(#path-8-inside-4_516_150)"/>
<mask id="path-10-inside-5_516_150" fill="white">
<path d="M6.37207 1L6.99229 1.57753L4.36674 3.98264L4.16 3.79013L6.37207 1Z"/>
</mask>
<path d="M6.37207 1L6.99229 1.57753L4.36674 3.98264L4.16 3.79013L6.37207 1Z" fill="#59443D"/>
<path d="M6.37207 1L7.05354 0.268153L6.26113 -0.469708L5.58846 0.378742L6.37207 1ZM6.99229 1.57753L7.66776 2.31491L8.46617 1.58354L7.67376 0.845679L6.99229 1.57753ZM4.36674 3.98264L3.68527 4.71448L4.36119 5.34387L5.04222 4.72002L4.36674 3.98264ZM4.16 3.79013L3.3764 3.16887L2.80262 3.89259L3.47853 4.52198L4.16 3.79013ZM5.6906 1.73185L6.31082 2.30937L7.67376 0.845679L7.05354 0.268153L5.6906 1.73185ZM6.31682 0.840142L3.69127 3.24525L5.04222 4.72002L7.66776 2.31491L6.31682 0.840142ZM5.04821 3.25079L4.84147 3.05828L3.47853 4.52198L3.68527 4.71448L5.04821 3.25079ZM4.94361 4.41139L7.15568 1.62126L5.58846 0.378742L3.3764 3.16887L4.94361 4.41139Z" fill="#454C5E" mask="url(#path-10-inside-5_516_150)"/>
<path d="M6.37207 1L7.05354 0.268153L6.26113 -0.469708L5.58846 0.378742L6.37207 1ZM6.99229 1.57753L7.66776 2.31491L8.46617 1.58354L7.67376 0.845679L6.99229 1.57753ZM4.36674 3.98264L3.68527 4.71448L4.36119 5.34387L5.04222 4.72002L4.36674 3.98264ZM4.16 3.79013L3.3764 3.16887L2.80262 3.89259L3.47853 4.52198L4.16 3.79013ZM5.6906 1.73185L6.31082 2.30937L7.67376 0.845679L7.05354 0.268153L5.6906 1.73185ZM6.31682 0.840142L3.69127 3.24525L5.04222 4.72002L7.66776 2.31491L6.31682 0.840142ZM5.04821 3.25079L4.84147 3.05828L3.47853 4.52198L3.68527 4.71448L5.04821 3.25079ZM4.94361 4.41139L7.15568 1.62126L5.58846 0.378742L3.3764 3.16887L4.94361 4.41139Z" fill="black" fill-opacity="0.76" mask="url(#path-10-inside-5_516_150)"/>
<mask id="path-12-inside-6_516_150" fill="white">
<path d="M4.5 7H3.5L3.96136 4.00936H4.25766L4.5 7Z"/>
</mask>
<path d="M4.5 7H3.5L3.96136 4.00936H4.25766L4.5 7Z" fill="#59443D"/>
<path d="M4.5 7V8H5.58431L5.49673 6.91923L4.5 7ZM3.5 7L2.51169 6.84753L2.3339 8H3.5V7ZM3.96136 4.00936V3.00936H3.1038L2.97305 3.85689L3.96136 4.00936ZM4.25766 4.00936L5.25439 3.92859L5.1799 3.00936H4.25766V4.00936ZM4.5 6H3.5V8H4.5V6ZM4.48831 7.15247L4.94967 4.16182L2.97305 3.85689L2.51169 6.84753L4.48831 7.15247ZM3.96136 5.00936H4.25766V3.00936H3.96136V5.00936ZM3.26093 4.09013L3.50327 7.08077L5.49673 6.91923L5.25439 3.92859L3.26093 4.09013Z" fill="#454C5E" mask="url(#path-12-inside-6_516_150)"/>
<path d="M4.5 7V8H5.58431L5.49673 6.91923L4.5 7ZM3.5 7L2.51169 6.84753L2.3339 8H3.5V7ZM3.96136 4.00936V3.00936H3.1038L2.97305 3.85689L3.96136 4.00936ZM4.25766 4.00936L5.25439 3.92859L5.1799 3.00936H4.25766V4.00936ZM4.5 6H3.5V8H4.5V6ZM4.48831 7.15247L4.94967 4.16182L2.97305 3.85689L2.51169 6.84753L4.48831 7.15247ZM3.96136 5.00936H4.25766V3.00936H3.96136V5.00936ZM3.26093 4.09013L3.50327 7.08077L5.49673 6.91923L5.25439 3.92859L3.26093 4.09013Z" fill="black" fill-opacity="0.76" mask="url(#path-12-inside-6_516_150)"/>
<mask id="path-14-inside-7_516_150" fill="white">
<path d="M7.1123 4.49634L7.11632 3.48086L4.02109 3.80712L4.01975 4.14561L7.1123 4.49634Z"/>
</mask>
<path d="M7.1123 4.49634L7.11632 3.48086L4.02109 3.80712L4.01975 4.14561L7.1123 4.49634Z" fill="#59443D"/>
<path d="M7.1123 4.49634L8.1123 4.50029L8.10788 5.61566L6.99962 5.48997L7.1123 4.49634ZM7.11632 3.48086L7.0115 2.48637L8.12073 2.36946L8.11631 3.48482L7.11632 3.48086ZM4.02109 3.80712L3.02109 3.80316L3.02464 2.90661L3.91626 2.81262L4.02109 3.80712ZM4.01975 4.14561L3.90706 5.13924L3.01621 5.0382L3.01975 4.14165L4.01975 4.14561ZM6.11231 4.49238L6.11633 3.47691L8.11631 3.48482L8.1123 4.50029L6.11231 4.49238ZM7.22115 4.47536L4.12591 4.80161L3.91626 2.81262L7.0115 2.48637L7.22115 4.47536ZM5.02108 3.81107L5.01974 4.14956L3.01975 4.14165L3.02109 3.80316L5.02108 3.81107ZM4.13244 3.15198L7.22499 3.50271L6.99962 5.48997L3.90706 5.13924L4.13244 3.15198Z" fill="#454C5E" mask="url(#path-14-inside-7_516_150)"/>
<path d="M7.1123 4.49634L8.1123 4.50029L8.10788 5.61566L6.99962 5.48997L7.1123 4.49634ZM7.11632 3.48086L7.0115 2.48637L8.12073 2.36946L8.11631 3.48482L7.11632 3.48086ZM4.02109 3.80712L3.02109 3.80316L3.02464 2.90661L3.91626 2.81262L4.02109 3.80712ZM4.01975 4.14561L3.90706 5.13924L3.01621 5.0382L3.01975 4.14165L4.01975 4.14561ZM6.11231 4.49238L6.11633 3.47691L8.11631 3.48482L8.1123 4.50029L6.11231 4.49238ZM7.22115 4.47536L4.12591 4.80161L3.91626 2.81262L7.0115 2.48637L7.22115 4.47536ZM5.02108 3.81107L5.01974 4.14956L3.01975 4.14165L3.02109 3.80316L5.02108 3.81107ZM4.13244 3.15198L7.22499 3.50271L6.99962 5.48997L3.90706 5.13924L4.13244 3.15198Z" fill="black" fill-opacity="0.76" mask="url(#path-14-inside-7_516_150)"/>
<mask id="path-16-inside-8_516_150" fill="white">
<path d="M1.00391 4.6062L0.999863 3.58427L4.09511 3.91267L4.09646 4.25332L1.00391 4.6062Z"/>
</mask>
<path d="M1.00391 4.6062L0.999863 3.58427L4.09511 3.91267L4.09646 4.25332L1.00391 4.6062Z" fill="#59443D"/>
<path d="M1.00391 4.6062L0.00391406 4.61016L0.00832962 5.72629L1.11728 5.59975L1.00391 4.6062ZM0.999863 3.58427L1.10537 2.58985L-0.00454437 2.47209L-0.000128814 3.58823L0.999863 3.58427ZM4.09511 3.91267L5.0951 3.90872L5.09156 3.01278L4.20062 2.91826L4.09511 3.91267ZM4.09646 4.25332L4.20983 5.24687L5.09999 5.1453L5.09645 4.24936L4.09646 4.25332ZM2.0039 4.60225L1.99986 3.58031L-0.000128814 3.58823L0.00391406 4.61016L2.0039 4.60225ZM0.894356 4.57869L3.9896 4.90709L4.20062 2.91826L1.10537 2.58985L0.894356 4.57869ZM3.09512 3.91663L3.09646 4.25727L5.09645 4.24936L5.0951 3.90872L3.09512 3.91663ZM3.98308 3.25977L0.890534 3.61265L1.11728 5.59975L4.20983 5.24687L3.98308 3.25977Z" fill="#454C5E" mask="url(#path-16-inside-8_516_150)"/>
<path d="M1.00391 4.6062L0.00391406 4.61016L0.00832962 5.72629L1.11728 5.59975L1.00391 4.6062ZM0.999863 3.58427L1.10537 2.58985L-0.00454437 2.47209L-0.000128814 3.58823L0.999863 3.58427ZM4.09511 3.91267L5.0951 3.90872L5.09156 3.01278L4.20062 2.91826L4.09511 3.91267ZM4.09646 4.25332L4.20983 5.24687L5.09999 5.1453L5.09645 4.24936L4.09646 4.25332ZM2.0039 4.60225L1.99986 3.58031L-0.000128814 3.58823L0.00391406 4.61016L2.0039 4.60225ZM0.894356 4.57869L3.9896 4.90709L4.20062 2.91826L1.10537 2.58985L0.894356 4.57869ZM3.09512 3.91663L3.09646 4.25727L5.09645 4.24936L5.0951 3.90872L3.09512 3.91663ZM3.98308 3.25977L0.890534 3.61265L1.11728 5.59975L4.20983 5.24687L3.98308 3.25977Z" fill="black" fill-opacity="0.76" mask="url(#path-16-inside-8_516_150)"/>
</svg>
