<svg width="59" height="18" viewBox="0 0 59 18" fill="none" xmlns="http://www.w3.org/2000/svg">
<rect x="0.25" y="14.7429" width="4.5" height="1" rx="0.25" fill="#454C5E" stroke="black" stroke-width="0.5"/>
<path d="M56 16.8593H4C2.48122 16.8593 1.25 15.6281 1.25 14.1093V9.17624C1.25 8.03466 1.95136 7.01684 3.02088 6.63203C5.91664 5.59015 11.4575 3.69028 15.55 2.85429C16.7911 2.60078 17.9423 2.34168 19.0352 2.09573C24.0561 0.96576 27.8444 0.113191 33.446 1.35344C35.681 1.84829 38.2799 3.01132 40.5303 4.18741C42.7768 5.36141 44.6583 6.53904 45.4545 7.05172C45.7507 7.24246 46.0704 7.3872 46.4129 7.47941L56.7149 10.253C57.9156 10.5763 58.75 11.665 58.75 12.9085V14.1093C58.75 15.6281 57.5188 16.8593 56 16.8593Z" fill="url(#paint0_radial_516_201)" stroke="black" stroke-width="0.5"/>
<path d="M8.76923 13.4929C6 13.4929 6 16.4929 6 16.4929H12C12 16.4929 12 13.4929 8.76923 13.4929Z" fill="black" stroke="black"/>
<path d="M10.35 15.9929C10.35 16.7385 9.74558 17.3429 9 17.3429C8.25442 17.3429 7.65 16.7385 7.65 15.9929C7.65 15.2473 8.25442 14.6429 9 14.6429C9.74558 14.6429 10.35 15.2473 10.35 15.9929Z" fill="#454C5E" stroke="black" stroke-width="0.3"/>
<path d="M10.0499 15.9975C10.0499 16.5774 9.5798 17.0475 8.9999 17.0475C8.42 17.0475 7.9499 16.5774 7.9499 15.9975C7.9499 15.4176 8.42 14.9475 8.9999 14.9475C9.5798 14.9475 10.0499 15.4176 10.0499 15.9975Z" fill="#454C5E" stroke="black" stroke-width="0.1"/>
<path d="M9.15 15.3429C9.15 15.4258 9.08284 15.4929 9 15.4929C8.91716 15.4929 8.85 15.4258 8.85 15.3429C8.85 15.2601 8.91716 15.1929 9 15.1929C9.08284 15.1929 9.15 15.2601 9.15 15.3429Z" fill="black"/>
<path d="M9.15015 16.643C9.15015 16.7258 9.08299 16.793 9.00015 16.793C8.9173 16.793 8.85015 16.7258 8.85015 16.643C8.85015 16.5601 8.9173 16.493 9.00015 16.493C9.08299 16.493 9.15015 16.5601 9.15015 16.643Z" fill="black"/>
<path d="M9.8 15.9929C9.8 16.0758 9.73284 16.1429 9.65 16.1429C9.56716 16.1429 9.5 16.0758 9.5 15.9929C9.5 15.9101 9.56716 15.8429 9.65 15.8429C9.73284 15.8429 9.8 15.9101 9.8 15.9929Z" fill="black"/>
<path d="M8.45253 15.9929C8.45253 16.0758 8.38538 16.1429 8.30253 16.1429C8.21969 16.1429 8.15253 16.0758 8.15253 15.9929C8.15253 15.9101 8.21969 15.8429 8.30253 15.8429C8.38538 15.8429 8.45253 15.9101 8.45253 15.9929Z" fill="black"/>
<path d="M8.9999 16.1082C9.08275 16.1082 9.1499 16.041 9.1499 15.9582C9.1499 15.8753 9.08275 15.8082 8.9999 15.8082C8.91706 15.8082 8.8499 15.8753 8.8499 15.9582C8.8499 16.041 8.91706 16.1082 8.9999 16.1082Z" stroke="black" stroke-width="0.1"/>
<path d="M47.7692 13.4929C45 13.4929 45 16.4929 45 16.4929H51C51 16.4929 51 13.4929 47.7692 13.4929Z" fill="black" stroke="black"/>
<path d="M49.35 15.9929C49.35 16.7385 48.7456 17.3429 48 17.3429C47.2544 17.3429 46.65 16.7385 46.65 15.9929C46.65 15.2473 47.2544 14.6429 48 14.6429C48.7456 14.6429 49.35 15.2473 49.35 15.9929Z" fill="#454C5E" stroke="black" stroke-width="0.3"/>
<path d="M49.0499 15.9975C49.0499 16.5774 48.5798 17.0475 47.9999 17.0475C47.42 17.0475 46.9499 16.5774 46.9499 15.9975C46.9499 15.4176 47.42 14.9475 47.9999 14.9475C48.5798 14.9475 49.0499 15.4176 49.0499 15.9975Z" fill="#454C5E" stroke="black" stroke-width="0.1"/>
<path d="M48.15 15.3429C48.15 15.4258 48.0828 15.4929 48 15.4929C47.9172 15.4929 47.85 15.4258 47.85 15.3429C47.85 15.2601 47.9172 15.1929 48 15.1929C48.0828 15.1929 48.15 15.2601 48.15 15.3429Z" fill="black"/>
<path d="M48.1501 16.643C48.1501 16.7258 48.083 16.793 48.0001 16.793C47.9173 16.793 47.8501 16.7258 47.8501 16.643C47.8501 16.5601 47.9173 16.493 48.0001 16.493C48.083 16.493 48.1501 16.5601 48.1501 16.643Z" fill="black"/>
<path d="M48.8 15.9929C48.8 16.0758 48.7328 16.1429 48.65 16.1429C48.5672 16.1429 48.5 16.0758 48.5 15.9929C48.5 15.9101 48.5672 15.8429 48.65 15.8429C48.7328 15.8429 48.8 15.9101 48.8 15.9929Z" fill="black"/>
<path d="M47.4525 15.9929C47.4525 16.0758 47.3854 16.1429 47.3025 16.1429C47.2197 16.1429 47.1525 16.0758 47.1525 15.9929C47.1525 15.9101 47.2197 15.8429 47.3025 15.8429C47.3854 15.8429 47.4525 15.9101 47.4525 15.9929Z" fill="black"/>
<path d="M47.9999 16.1082C48.0827 16.1082 48.1499 16.041 48.1499 15.9582C48.1499 15.8753 48.0827 15.8082 47.9999 15.8082C47.9171 15.8082 47.8499 15.8753 47.8499 15.9582C47.8499 16.041 47.9171 16.1082 47.9999 16.1082Z" stroke="black" stroke-width="0.1"/>
<path d="M22.25 8.14326V3.50794C22.2796 3.50225 22.3124 3.49601 22.3482 3.48927C22.5417 3.45281 22.8234 3.40162 23.1745 3.34295C23.8769 3.22557 24.8566 3.07837 25.9655 2.95914C28.1912 2.71981 30.9073 2.59672 32.9473 3.03685C35.3337 3.5517 38.055 4.93433 40.1933 6.20078C41.2594 6.83218 42.1748 7.43114 42.8235 7.87218C42.9687 7.97096 43.1006 8.06179 43.2178 8.14326H22.25Z" fill="url(#paint1_linear_516_201)" stroke="black" stroke-width="0.5"/>
<path d="M20.75 8.24292V3.81115C20.6826 3.82805 20.607 3.84729 20.5265 3.86829C20.2238 3.9472 19.8571 4.04924 19.5828 4.14549C18.2381 4.61731 16.8959 5.72943 15.8768 6.74656C15.3705 7.2518 14.9504 7.72703 14.657 8.07585C14.6069 8.13541 14.5605 8.19127 14.518 8.24292H20.75Z" fill="url(#paint2_linear_516_201)" stroke="black" stroke-width="0.5"/>
<path d="M55.0621 11.9594L54.3621 11.2594H58.3159L58.3593 11.3506L58.513 11.6738L58.6488 11.9594H55.0621Z" fill="#1D2E3D" stroke="black" stroke-width="0.3"/>
<path d="M1.15 8.25938H3.63787L2.93787 8.95938H1.15V8.25938Z" fill="#1D2E3D" stroke="black" stroke-width="0.3"/>
<rect x="24.1" y="9.59292" width="1.8" height="0.8" fill="#1D2E3D" stroke="black" stroke-width="0.2"/>
<path d="M22 9.49292V15.4929" stroke="black" stroke-width="0.2" stroke-linecap="round" stroke-linejoin="round"/>
<path d="M43 9.49292V15.4929" stroke="black" stroke-width="0.2" stroke-linecap="round" stroke-linejoin="round"/>
<defs>
<radialGradient id="paint0_radial_516_201" cx="0" cy="0" r="1" gradientUnits="userSpaceOnUse" gradientTransform="translate(30 8.80113) scale(29 8.30821)">
<stop offset="0.215" stop-color="#D5A8C4"/>
<stop offset="1" stop-color="#97005F"/>
</radialGradient>
<linearGradient id="paint1_linear_516_201" x1="33" y1="3.49292" x2="36" y2="14.9929" gradientUnits="userSpaceOnUse">
<stop stop-color="#B6D1E1"/>
<stop offset="1" stop-color="#444C51"/>
</linearGradient>
<linearGradient id="paint2_linear_516_201" x1="17.5" y1="5.09253" x2="18" y2="16.0925" gradientUnits="userSpaceOnUse">
<stop stop-color="#B3CEDD"/>
<stop offset="1" stop-color="#444C51"/>
</linearGradient>
</defs>
</svg>
