<svg width="9" height="9" viewBox="0 0 9 9" fill="none" xmlns="http://www.w3.org/2000/svg">
<circle cx="4.5" cy="4.5" r="3.56" fill="#3D5870" stroke="black" stroke-width="1.88"/>
<mask id="path-2-inside-1_516_169" fill="white">
<path d="M4 1.38354H5L4.66667 4.38354H4.33333L4 1.38354Z"/>
</mask>
<path d="M4 1.38354H5L4.66667 4.38354H4.33333L4 1.38354Z" fill="#1D2E3D"/>
<path d="M4 1.38354V0.383545H2.88273L3.00612 1.49398L4 1.38354ZM5 1.38354L5.99388 1.49398L6.11727 0.383545H5V1.38354ZM4.66667 4.38354V5.38354H5.56171L5.66055 4.49398L4.66667 4.38354ZM4.33333 4.38354L3.33945 4.49398L3.43829 5.38354H4.33333V4.38354ZM4 2.38354H5V0.383545H4V2.38354ZM4.00612 1.27311L3.67278 4.27311L5.66055 4.49398L5.99388 1.49398L4.00612 1.27311ZM4.66667 3.38354H4.33333V5.38354H4.66667V3.38354ZM5.32722 4.27311L4.99388 1.27311L3.00612 1.49398L3.33945 4.49398L5.32722 4.27311Z" fill="black" mask="url(#path-2-inside-1_516_169)"/>
<mask id="path-4-inside-2_516_169" fill="white">
<path d="M1.70996 2.20557L2.43622 1.51815L4.67505 4.36838L4.43296 4.59752L1.70996 2.20557Z"/>
</mask>
<path d="M1.70996 2.20557L2.43622 1.51815L4.67505 4.36838L4.43296 4.59752L1.70996 2.20557Z" fill="#1D2E3D"/>
<path d="M1.70996 2.20557L1.02254 1.47931L0.226111 2.23314L1.05 2.95687L1.70996 2.20557ZM2.43622 1.51815L3.22263 0.900434L2.54523 0.0380496L1.7488 0.791886L2.43622 1.51815ZM4.67505 4.36838L5.36247 5.09464L6.02474 4.46778L5.46145 3.75066L4.67505 4.36838ZM4.43296 4.59752L3.773 5.34882L4.45811 5.95063L5.12038 5.32378L4.43296 4.59752ZM2.39738 2.93183L3.12364 2.24441L1.7488 0.791886L1.02254 1.47931L2.39738 2.93183ZM1.64982 2.13586L3.88865 4.98609L5.46145 3.75066L3.22263 0.900434L1.64982 2.13586ZM3.98763 3.64212L3.74554 3.87126L5.12038 5.32378L5.36247 5.09464L3.98763 3.64212ZM5.09292 3.84622L2.36992 1.45427L1.05 2.95687L3.773 5.34882L5.09292 3.84622Z" fill="black" mask="url(#path-4-inside-2_516_169)"/>
<mask id="path-6-inside-3_516_169" fill="white">
<path d="M6.92017 6.27637L6.17217 6.98527L4.56284 4.78781L4.81217 4.55151L6.92017 6.27637Z"/>
</mask>
<path d="M6.92017 6.27637L6.17217 6.98527L4.56284 4.78781L4.81217 4.55151L6.92017 6.27637Z" fill="#1D2E3D"/>
<path d="M6.92017 6.27637L7.60805 7.00219L8.43199 6.22131L7.55343 5.50243L6.92017 6.27637ZM6.17217 6.98527L5.3654 7.57612L6.03612 8.49196L6.86006 7.71109L6.17217 6.98527ZM4.56284 4.78781L3.87495 4.06199L3.23557 4.66796L3.75606 5.37866L4.56284 4.78781ZM4.81217 4.55151L5.44544 3.77758L4.76367 3.21972L4.12428 3.82569L4.81217 4.55151ZM6.23228 5.55055L5.48429 6.25945L6.86006 7.71109L7.60805 7.00219L6.23228 5.55055ZM6.97895 6.39441L5.36962 4.19696L3.75606 5.37866L5.3654 7.57612L6.97895 6.39441ZM5.25073 5.51363L5.50006 5.27733L4.12428 3.82569L3.87495 4.06199L5.25073 5.51363ZM4.1789 5.32544L6.2869 7.0503L7.55343 5.50243L5.44544 3.77758L4.1789 5.32544Z" fill="black" mask="url(#path-6-inside-3_516_169)"/>
<mask id="path-8-inside-4_516_169" fill="white">
<path d="M2.70068 6.86426L2.03902 6.20148L4.8137 3.8726L5.03425 4.09352L2.70068 6.86426Z"/>
</mask>
<path d="M2.70068 6.86426L2.03902 6.20148L4.8137 3.8726L5.03425 4.09352L2.70068 6.86426Z" fill="#1D2E3D"/>
<path d="M2.70068 6.86426L1.99298 7.57077L2.76324 8.34233L3.46555 7.50845L2.70068 6.86426ZM2.03902 6.20148L1.39613 5.43552L0.561061 6.13643L1.33132 6.90799L2.03902 6.20148ZM4.8137 3.8726L5.5214 3.16609L4.87337 2.51696L4.1708 3.10664L4.8137 3.8726ZM5.03425 4.09352L5.79912 4.73771L6.38999 4.03615L5.74196 3.38702L5.03425 4.09352ZM3.40839 6.15775L2.74673 5.49497L1.33132 6.90799L1.99298 7.57077L3.40839 6.15775ZM2.68192 6.96743L5.45659 4.63855L4.1708 3.10664L1.39613 5.43552L2.68192 6.96743ZM4.10599 4.57911L4.32655 4.80003L5.74196 3.38702L5.5214 3.16609L4.10599 4.57911ZM4.26938 3.44934L1.93582 6.22007L3.46555 7.50845L5.79912 4.73771L4.26938 3.44934Z" fill="black" mask="url(#path-8-inside-4_516_169)"/>
<mask id="path-10-inside-5_516_169" fill="white">
<path d="M7.04541 0.998047L7.74316 1.64776L4.78942 4.35351L4.55683 4.13694L7.04541 0.998047Z"/>
</mask>
<path d="M7.04541 0.998047L7.74316 1.64776L4.78942 4.35351L4.55683 4.13694L7.04541 0.998047Z" fill="#1D2E3D"/>
<path d="M7.04541 0.998047L7.72688 0.2662L6.93447 -0.471661L6.2618 0.376789L7.04541 0.998047ZM7.74316 1.64776L8.41863 2.38515L9.21703 1.65378L8.42463 0.915916L7.74316 1.64776ZM4.78942 4.35351L4.10795 5.08536L4.78386 5.71475L5.46489 5.0909L4.78942 4.35351ZM4.55683 4.13694L3.77323 3.51568L3.19945 4.2394L3.87537 4.86879L4.55683 4.13694ZM6.36394 1.72989L7.06169 2.37961L8.42463 0.915916L7.72688 0.2662L6.36394 1.72989ZM7.06768 0.91038L4.11394 3.61613L5.46489 5.0909L8.41863 2.38515L7.06768 0.91038ZM5.47089 3.62167L5.2383 3.40509L3.87537 4.86879L4.10795 5.08536L5.47089 3.62167ZM5.34044 4.7582L7.82902 1.6193L6.2618 0.376789L3.77323 3.51568L5.34044 4.7582Z" fill="black" mask="url(#path-10-inside-5_516_169)"/>
<mask id="path-12-inside-6_516_169" fill="white">
<path d="M5 7.38354H4L4.33333 4.38354H4.66667L5 7.38354Z"/>
</mask>
<path d="M5 7.38354H4L4.33333 4.38354H4.66667L5 7.38354Z" fill="#1D2E3D"/>
<path d="M5 7.38354V8.38354H6.11727L5.99388 7.27311L5 7.38354ZM4 7.38354L3.00612 7.27311L2.88273 8.38354H4V7.38354ZM4.33333 4.38354V3.38354H3.43829L3.33945 4.27311L4.33333 4.38354ZM4.66667 4.38354L5.66055 4.27311L5.56171 3.38354H4.66667V4.38354ZM5 6.38354H4V8.38354H5V6.38354ZM4.99388 7.49398L5.32722 4.49398L3.33945 4.27311L3.00612 7.27311L4.99388 7.49398ZM4.33333 5.38354H4.66667V3.38354H4.33333V5.38354ZM3.67278 4.49398L4.00612 7.49398L5.99388 7.27311L5.66055 4.27311L3.67278 4.49398Z" fill="black" mask="url(#path-12-inside-6_516_169)"/>
<path d="M7.37989 4.48468L7.50343 4.49869L7.50354 4.47165L7.37989 4.48468Z" fill="#1D2E3D" stroke="black"/>
<path d="M1.65637 4.47776L1.50414 4.49513L1.504 4.46159L1.65637 4.47776Z" fill="#1D2E3D" stroke="black"/>
</svg>
