<svg width="60" height="20" viewBox="0 0 60 20" fill="none" xmlns="http://www.w3.org/2000/svg">
<rect x="0.2" y="16.6929" width="4.6" height="1.1" rx="0.3" fill="#454C5E" stroke="black" stroke-width="0.4"/>
<path d="M56 18.4445H4C2.48122 18.4445 1.25 17.2133 1.25 15.6945V11.0811C1.25 9.80058 2.13388 8.6895 3.38165 8.40156L7.11755 7.53945C7.44211 7.46456 7.74248 7.32087 8.00501 7.11752C8.66059 6.60973 10.1493 5.47511 11.7441 4.38423C13.3502 3.28571 15.028 2.25705 16.0739 1.93346C18.8155 1.0852 21.0456 0.540553 23.6444 0.338433C26.2455 0.136135 29.2267 0.276181 33.4688 0.80943C35.6065 1.07814 38.1199 2.27874 40.3727 3.63365C42.6184 4.98431 44.5755 6.46977 45.5943 7.27916C46.1239 7.69985 46.7654 7.96651 47.4457 8.02094L56.3551 8.73377C57.7076 8.84198 58.75 9.97112 58.75 11.3279V15.6945C58.75 17.2133 57.5188 18.4445 56 18.4445Z" fill="url(#paint0_radial_516_199)" stroke="black" stroke-width="0.5"/>
<path d="M47.7692 15.4929C45 15.4929 45 17.9929 45 17.9929H51C51 17.9929 51 15.4929 47.7692 15.4929Z" fill="black" stroke="black"/>
<path d="M49.35 17.9929C49.35 18.7385 48.7456 19.3429 48 19.3429C47.2544 19.3429 46.65 18.7385 46.65 17.9929C46.65 17.2473 47.2544 16.6429 48 16.6429C48.7456 16.6429 49.35 17.2473 49.35 17.9929Z" fill="#454C5E" stroke="black" stroke-width="0.3"/>
<path d="M49.0499 17.9975C49.0499 18.5774 48.5798 19.0475 47.9999 19.0475C47.42 19.0475 46.9499 18.5774 46.9499 17.9975C46.9499 17.4176 47.42 16.9475 47.9999 16.9475C48.5798 16.9475 49.0499 17.4176 49.0499 17.9975Z" fill="#454C5E" stroke="black" stroke-width="0.1"/>
<path d="M48.15 17.3429C48.15 17.4258 48.0828 17.4929 48 17.4929C47.9172 17.4929 47.85 17.4258 47.85 17.3429C47.85 17.2601 47.9172 17.1929 48 17.1929C48.0828 17.1929 48.15 17.2601 48.15 17.3429Z" fill="black"/>
<path d="M48.1501 18.643C48.1501 18.7258 48.083 18.793 48.0001 18.793C47.9173 18.793 47.8501 18.7258 47.8501 18.643C47.8501 18.5601 47.9173 18.493 48.0001 18.493C48.083 18.493 48.1501 18.5601 48.1501 18.643Z" fill="black"/>
<path d="M48.8 17.9929C48.8 18.0758 48.7328 18.1429 48.65 18.1429C48.5672 18.1429 48.5 18.0758 48.5 17.9929C48.5 17.9101 48.5672 17.8429 48.65 17.8429C48.7328 17.8429 48.8 17.9101 48.8 17.9929Z" fill="black"/>
<path d="M47.4525 17.9929C47.4525 18.0758 47.3854 18.1429 47.3025 18.1429C47.2197 18.1429 47.1525 18.0758 47.1525 17.9929C47.1525 17.9101 47.2197 17.8429 47.3025 17.8429C47.3854 17.8429 47.4525 17.9101 47.4525 17.9929Z" fill="black"/>
<path d="M47.9999 18.1082C48.0827 18.1082 48.1499 18.041 48.1499 17.9582C48.1499 17.8753 48.0827 17.8082 47.9999 17.8082C47.9171 17.8082 47.8499 17.8753 47.8499 17.9582C47.8499 18.041 47.9171 18.1082 47.9999 18.1082Z" stroke="black" stroke-width="0.1"/>
<path d="M22 8.49292H21.75H22ZM22 8.49292H22.25H22ZM42.8255 8.24292H22.25V2.24578C22.2777 2.24129 22.3081 2.23641 22.341 2.23119C22.5344 2.20054 22.8158 2.15801 23.1667 2.11072C23.8686 2.01611 24.8477 1.90259 25.9558 1.82692C28.1804 1.67502 30.893 1.67831 32.9298 2.27412C35.3158 2.97207 37.9129 4.56639 39.9257 5.99979C40.9292 6.71445 41.7821 7.38513 42.3839 7.87703C42.5513 8.01384 42.6992 8.13677 42.8255 8.24292Z" fill="url(#paint1_linear_516_199)" stroke="black" stroke-width="0.5"/>
<path d="M19.75 8.24292V2.82658C19.6856 2.846 19.614 2.86789 19.538 2.89166C19.2356 2.98627 18.87 3.10838 18.597 3.22333C17.2564 3.78779 15.9139 5.12143 14.8921 6.34518C14.3851 6.95232 13.9644 7.52346 13.6704 7.94281C13.5922 8.05441 13.523 8.15518 13.4636 8.24292H19.75Z" fill="url(#paint2_linear_516_199)" stroke="black" stroke-width="0.5"/>
<rect x="24.15" y="10.6429" width="1.7" height="0.7" fill="#59443D" stroke="black" stroke-width="0.3"/>
<path d="M23.6095 6.66051L23.2032 5.99284H23.6667L25 5.32617L24.3333 6.65951L23.6095 7.23796L23.6667 7.99284L23 7.23796L23.6095 6.66051Z" fill="#324955"/>
<path d="M37.6283 6.53776L37.5694 4.77737L38.4271 5.63503L38.2943 5.99033L41 6.49273L38.427 6.49295L37.0967 7.0567L35.854 5.63529L37.0967 6.70092L37.6283 6.53776Z" fill="#324955"/>
<path d="M18.8087 6.95112L19.5005 6.6387L19.4972 7.55879L18.8154 7.56061L18.2075 6.95777L17.0001 6.51394L18.2024 6.50065L18.8087 6.95112Z" fill="#324955"/>
<path d="M1.50235 9.95774C1.55095 9.87324 1.59737 9.79891 1.63359 9.74292H3.59561L2.84561 11.2429H1.22586C1.22297 11.2058 1.22024 11.1654 1.21801 11.1228C1.20762 10.9243 1.20958 10.7028 1.24417 10.5472C1.28281 10.3733 1.39125 10.1509 1.50235 9.95774Z" fill="#3D271D" stroke="black" stroke-width="0.5"/>
<path d="M55.2856 12.2429L54.5181 10.7429H58.7122C58.7234 10.7893 58.7359 10.8422 58.7488 10.8991C58.7937 11.0977 58.8415 11.3358 58.8607 11.519C58.8779 11.6822 58.86 11.9077 58.8338 12.1059C58.8273 12.1551 58.8205 12.2014 58.814 12.2429H55.2856Z" fill="#3D271D" stroke="black" stroke-width="0.5"/>
<path d="M6.83655 14.4929C5.51029 14.4928 5.98528 13.93 6.72364 13.4015C7.66756 12.7259 8.84834 12.5249 9.96456 12.8434V12.8434C10.7368 12.493 11.7368 13.7448 11.7368 13.9929C11.7368 14.5452 9.7891 13.493 9.23682 13.493C8.68453 13.493 8.33655 14.4929 6.83655 14.4929Z" fill="#45312A"/>
<path d="M57 16.4929C58.1587 16.493 58.0285 16.8152 57.5553 17.161C56.6144 17.8485 55.3928 17.9625 54.2723 17.6427V17.6427C53.5 17.9931 53 17.2407 53 16.9926C53 16.4403 54.4477 16.9931 55 16.9931C55.5523 16.9931 55.5 16.4929 57 16.4929Z" fill="#45312A"/>
<path d="M29.9279 15.3643L29.765 15.5536C29.687 15.6443 29.5831 15.709 29.4672 15.7389C28.8004 15.9112 28.9251 16.8929 29.6138 16.8929H31.1293C31.1721 16.8929 31.2147 16.8964 31.2569 16.9034L34.4788 17.4385C34.6957 17.4745 34.9172 17.4745 35.1341 17.4385L38.2596 16.9194C38.3651 16.9019 38.4729 16.9054 38.5771 16.9296L38.6473 16.9459C39.391 17.1188 39.9227 16.2406 39.4248 15.6618C39.1506 15.343 38.6747 15.295 38.3424 15.5526L37.8583 15.9278C37.5567 16.1615 37.1743 16.2654 36.7959 16.2166L33.142 15.7446C32.878 15.7105 32.6234 15.624 32.3932 15.4902L31.6711 15.0705C31.0951 14.7357 30.3623 14.8592 29.9279 15.3643Z" fill="#45312A" stroke="#45312A"/>
<path d="M15.3094 17.4929H19.8967C19.9215 17.4929 19.9461 17.489 19.9696 17.4813C20.2463 17.3911 20.1444 16.9775 19.8574 17.0262L18.3263 17.286C18.2993 17.2906 18.2719 17.292 18.2446 17.2902L15.3227 17.0954C15.2982 17.0938 15.2737 17.0967 15.2503 17.1039C15.0326 17.1717 15.0814 17.4929 15.3094 17.4929Z" fill="#45312A" stroke="#45312A" stroke-linejoin="round"/>
<path d="M47.3682 11.5435C47.0445 11.3882 46.4379 11.5349 45.6814 12.7817C45.309 13.3954 45.8103 14.0957 46.4757 13.8264C46.7263 13.725 46.9796 13.594 47.2182 13.4271C47.6265 13.1416 48.2772 13.1911 48.5 13.6367L47.5726 11.7818C47.5245 11.6857 47.4651 11.59 47.3682 11.5435Z" fill="#45312A" stroke="#45312A" stroke-linejoin="round"/>
<path d="M22 9.49292V17.4929" stroke="black" stroke-width="0.2" stroke-linecap="round" stroke-linejoin="round"/>
<path d="M43 9.49292V17.4929" stroke="black" stroke-width="0.2" stroke-linecap="round" stroke-linejoin="round"/>
<path d="M9.76923 15.4929C7 15.4929 7 17.9929 7 17.9929H13C13 17.9929 13 15.4929 9.76923 15.4929Z" fill="black" stroke="black"/>
<path d="M11.35 17.9929C11.35 18.7385 10.7456 19.3429 10 19.3429C9.25442 19.3429 8.65 18.7385 8.65 17.9929C8.65 17.2473 9.25442 16.6429 10 16.6429C10.7456 16.6429 11.35 17.2473 11.35 17.9929Z" fill="#454C5E" stroke="black" stroke-width="0.3"/>
<path d="M11.0499 17.9975C11.0499 18.5774 10.5798 19.0475 9.9999 19.0475C9.42 19.0475 8.9499 18.5774 8.9499 17.9975C8.9499 17.4176 9.42 16.9475 9.9999 16.9475C10.5798 16.9475 11.0499 17.4176 11.0499 17.9975Z" fill="#454C5E" stroke="black" stroke-width="0.1"/>
<path d="M10.15 17.3429C10.15 17.4258 10.0828 17.4929 10 17.4929C9.91716 17.4929 9.85 17.4258 9.85 17.3429C9.85 17.2601 9.91716 17.1929 10 17.1929C10.0828 17.1929 10.15 17.2601 10.15 17.3429Z" fill="black"/>
<path d="M10.1501 18.643C10.1501 18.7258 10.083 18.793 10.0001 18.793C9.9173 18.793 9.85015 18.7258 9.85015 18.643C9.85015 18.5601 9.9173 18.493 10.0001 18.493C10.083 18.493 10.1501 18.5601 10.1501 18.643Z" fill="black"/>
<path d="M10.8 17.9929C10.8 18.0758 10.7328 18.1429 10.65 18.1429C10.5672 18.1429 10.5 18.0758 10.5 17.9929C10.5 17.9101 10.5672 17.8429 10.65 17.8429C10.7328 17.8429 10.8 17.9101 10.8 17.9929Z" fill="black"/>
<path d="M9.45253 17.9929C9.45253 18.0758 9.38538 18.1429 9.30253 18.1429C9.21969 18.1429 9.15253 18.0758 9.15253 17.9929C9.15253 17.9101 9.21969 17.8429 9.30253 17.8429C9.38538 17.8429 9.45253 17.9101 9.45253 17.9929Z" fill="black"/>
<path d="M9.9999 18.1082C10.0827 18.1082 10.1499 18.041 10.1499 17.9582C10.1499 17.8753 10.0827 17.8082 9.9999 17.8082C9.91706 17.8082 9.8499 17.8753 9.8499 17.9582C9.8499 18.041 9.91706 18.1082 9.9999 18.1082Z" stroke="black" stroke-width="0.1"/>
<defs>
<radialGradient id="paint0_radial_516_199" cx="0" cy="0" r="1" gradientUnits="userSpaceOnUse" gradientTransform="translate(30 9.27868) scale(29 9.41587)">
<stop stop-color="#969696"/>
<stop offset="1" stop-color="#59443D"/>
</radialGradient>
<linearGradient id="paint1_linear_516_199" x1="33" y1="2.98378" x2="38.2354" y2="17.7855" gradientUnits="userSpaceOnUse">
<stop stop-color="#B6D1E1"/>
<stop offset="1" stop-color="#444C51"/>
</linearGradient>
<linearGradient id="paint2_linear_516_199" x1="16.5" y1="4.41245" x2="17.2193" y2="17.6005" gradientUnits="userSpaceOnUse">
<stop stop-color="#B3CEDD"/>
<stop offset="1" stop-color="#444C51"/>
</linearGradient>
</defs>
</svg>
