<svg width="135" height="127" viewBox="0 0 135 127" fill="none" xmlns="http://www.w3.org/2000/svg">
<g filter="url(#filter0_d_349_368)">
<rect width="16" height="64" transform="matrix(1 0 0 -1 60 150)" fill="#838F97"/>
<rect width="16" height="64" transform="matrix(1 0 0 -1 56 150)" fill="#5C6A73"/>
<rect width="16" height="64" transform="matrix(1 0 0 -1 60 150)" fill="#838F97"/>
<g filter="url(#filter1_d_349_368)">
<path d="M121 30.9961C121 30.0696 120.743 29.1613 120.256 28.3725L112.862 16.3764C111.952 14.8995 110.341 14 108.606 14H67.5H26.3942C24.6591 14 23.0482 14.8995 22.1378 16.3764L14.7436 28.3725C14.2574 29.1613 14 30.0696 14 30.9961V81C14 83.7614 16.2386 86 19 86H116C118.761 86 121 83.7614 121 81V30.9961Z" fill="url(#paint0_linear_349_368)"/>
<path d="M12.5 81V30.9961C12.5 29.7916 12.8347 28.6108 13.4667 27.5855L20.8608 15.5894C22.0443 13.6693 24.1386 12.5 26.3942 12.5H67.5H108.606C110.861 12.5 112.956 13.6693 114.139 15.5894L121.533 27.5855C122.165 28.6108 122.5 29.7916 122.5 30.9961V81C122.5 84.5899 119.59 87.5 116 87.5H19C15.4101 87.5 12.5 84.5898 12.5 81Z" stroke="#E0921B" stroke-width="3"/>
</g>
<g filter="url(#filter2_d_349_368)">
<rect width="86" height="13" rx="6.5" transform="matrix(1 0 0 -1 25 76)" fill="#222222"/>
<rect x="1" y="-1" width="84" height="11" rx="5.5" transform="matrix(1 0 0 -1 25 74)" stroke="#838F97" stroke-width="2"/>
</g>
<g filter="url(#filter3_d_349_368)">
<rect width="86" height="13" rx="6.5" transform="matrix(1 0 0 -1 25 57)" fill="#222222"/>
<rect x="1" y="-1" width="84" height="11" rx="5.5" transform="matrix(1 0 0 -1 25 55)" stroke="#838F97" stroke-width="2"/>
</g>
<g filter="url(#filter4_d_349_368)">
<rect width="86" height="13" rx="6.5" transform="matrix(1 0 0 -1 25 38)" fill="#222222"/>
<rect x="1" y="-1" width="84" height="11" rx="5.5" transform="matrix(1 0 0 -1 25 36)" stroke="#838F97" stroke-width="2"/>
</g>
</g>
<defs>
<filter id="filter0_d_349_368" x="7" y="11" width="121" height="147" filterUnits="userSpaceOnUse" color-interpolation-filters="sRGB">
<feFlood flood-opacity="0" result="BackgroundImageFix"/>
<feColorMatrix in="SourceAlpha" type="matrix" values="0 0 0 0 0 0 0 0 0 0 0 0 0 0 0 0 0 0 127 0" result="hardAlpha"/>
<feOffset dy="4"/>
<feGaussianBlur stdDeviation="2"/>
<feComposite in2="hardAlpha" operator="out"/>
<feColorMatrix type="matrix" values="0 0 0 0 0 0 0 0 0 0 0 0 0 0 0 0 0 0 0.25 0"/>
<feBlend mode="normal" in2="BackgroundImageFix" result="effect1_dropShadow_349_368"/>
<feBlend mode="normal" in="SourceGraphic" in2="effect1_dropShadow_349_368" result="shape"/>
</filter>
<filter id="filter1_d_349_368" x="0" y="0" width="135" height="100" filterUnits="userSpaceOnUse" color-interpolation-filters="sRGB">
<feFlood flood-opacity="0" result="BackgroundImageFix"/>
<feColorMatrix in="SourceAlpha" type="matrix" values="0 0 0 0 0 0 0 0 0 0 0 0 0 0 0 0 0 0 127 0" result="hardAlpha"/>
<feOffset/>
<feGaussianBlur stdDeviation="5.5"/>
<feComposite in2="hardAlpha" operator="out"/>
<feColorMatrix type="matrix" values="0 0 0 0 0.878431 0 0 0 0 0.572549 0 0 0 0 0.105882 0 0 0 1 0"/>
<feBlend mode="normal" in2="BackgroundImageFix" result="effect1_dropShadow_349_368"/>
<feBlend mode="normal" in="SourceGraphic" in2="effect1_dropShadow_349_368" result="shape"/>
</filter>
<filter id="filter2_d_349_368" x="21" y="63" width="94" height="21" filterUnits="userSpaceOnUse" color-interpolation-filters="sRGB">
<feFlood flood-opacity="0" result="BackgroundImageFix"/>
<feColorMatrix in="SourceAlpha" type="matrix" values="0 0 0 0 0 0 0 0 0 0 0 0 0 0 0 0 0 0 127 0" result="hardAlpha"/>
<feOffset dy="4"/>
<feGaussianBlur stdDeviation="2"/>
<feComposite in2="hardAlpha" operator="out"/>
<feColorMatrix type="matrix" values="0 0 0 0 0 0 0 0 0 0 0 0 0 0 0 0 0 0 0.25 0"/>
<feBlend mode="normal" in2="BackgroundImageFix" result="effect1_dropShadow_349_368"/>
<feBlend mode="normal" in="SourceGraphic" in2="effect1_dropShadow_349_368" result="shape"/>
</filter>
<filter id="filter3_d_349_368" x="21" y="44" width="94" height="21" filterUnits="userSpaceOnUse" color-interpolation-filters="sRGB">
<feFlood flood-opacity="0" result="BackgroundImageFix"/>
<feColorMatrix in="SourceAlpha" type="matrix" values="0 0 0 0 0 0 0 0 0 0 0 0 0 0 0 0 0 0 127 0" result="hardAlpha"/>
<feOffset dy="4"/>
<feGaussianBlur stdDeviation="2"/>
<feComposite in2="hardAlpha" operator="out"/>
<feColorMatrix type="matrix" values="0 0 0 0 0 0 0 0 0 0 0 0 0 0 0 0 0 0 0.25 0"/>
<feBlend mode="normal" in2="BackgroundImageFix" result="effect1_dropShadow_349_368"/>
<feBlend mode="normal" in="SourceGraphic" in2="effect1_dropShadow_349_368" result="shape"/>
</filter>
<filter id="filter4_d_349_368" x="21" y="25" width="94" height="21" filterUnits="userSpaceOnUse" color-interpolation-filters="sRGB">
<feFlood flood-opacity="0" result="BackgroundImageFix"/>
<feColorMatrix in="SourceAlpha" type="matrix" values="0 0 0 0 0 0 0 0 0 0 0 0 0 0 0 0 0 0 127 0" result="hardAlpha"/>
<feOffset dy="4"/>
<feGaussianBlur stdDeviation="2"/>
<feComposite in2="hardAlpha" operator="out"/>
<feColorMatrix type="matrix" values="0 0 0 0 0 0 0 0 0 0 0 0 0 0 0 0 0 0 0.25 0"/>
<feBlend mode="normal" in2="BackgroundImageFix" result="effect1_dropShadow_349_368"/>
<feBlend mode="normal" in="SourceGraphic" in2="effect1_dropShadow_349_368" result="shape"/>
</filter>
<linearGradient id="paint0_linear_349_368" x1="67.4999" y1="29.5789" x2="67.2126" y2="101.532" gradientUnits="userSpaceOnUse">
<stop stop-color="#595C5F"/>
<stop offset="1" stop-color="#313642"/>
</linearGradient>
</defs>
</svg>
