<svg width="60" height="20" viewBox="0 0 60 20" fill="none" xmlns="http://www.w3.org/2000/svg">
<rect x="0.25" y="16.7429" width="4.5" height="1" rx="0.25" fill="#454C5E" stroke="black" stroke-width="0.5"/>
<path d="M56.0376 18.9374H4.0376C2.51881 18.9374 1.2876 17.7062 1.2876 16.1874V11.5741C1.2876 10.2935 2.17148 9.18242 3.41925 8.89448L7.15515 8.03237C7.47971 7.95748 7.78008 7.81379 8.04261 7.61044C8.69819 7.10265 10.1869 5.96803 11.7817 4.87715C13.3878 3.77863 15.0656 2.74997 16.1115 2.42638C18.8531 1.57812 21.0832 1.03347 23.682 0.831353C26.2831 0.629055 29.2643 0.769101 33.5064 1.30235C35.6441 1.57106 38.1575 2.77166 40.4103 4.12657C42.656 5.47723 44.6131 6.96269 45.6319 7.77208C46.1615 8.19277 46.803 8.45943 47.4833 8.51386L56.3927 9.22669C57.7452 9.3349 58.7876 10.464 58.7876 11.8209V16.1874C58.7876 17.7062 57.5564 18.9374 56.0376 18.9374Z" fill="url(#paint0_radial_516_200)" stroke="black" stroke-width="0.5"/>
<path d="M49.7692 15.4929C47 15.4929 47 18.4929 47 18.4929H53C53 18.4929 53 15.4929 49.7692 15.4929Z" fill="black" stroke="black"/>
<path d="M51.35 17.9929C51.35 18.7385 50.7456 19.3429 50 19.3429C49.2544 19.3429 48.65 18.7385 48.65 17.9929C48.65 17.2473 49.2544 16.6429 50 16.6429C50.7456 16.6429 51.35 17.2473 51.35 17.9929Z" fill="#454C5E" stroke="black" stroke-width="0.3"/>
<path d="M51.0499 17.9975C51.0499 18.5774 50.5798 19.0475 49.9999 19.0475C49.42 19.0475 48.9499 18.5774 48.9499 17.9975C48.9499 17.4176 49.42 16.9475 49.9999 16.9475C50.5798 16.9475 51.0499 17.4176 51.0499 17.9975Z" fill="#454C5E" stroke="black" stroke-width="0.1"/>
<path d="M50.15 17.3429C50.15 17.4258 50.0828 17.4929 50 17.4929C49.9172 17.4929 49.85 17.4258 49.85 17.3429C49.85 17.2601 49.9172 17.1929 50 17.1929C50.0828 17.1929 50.15 17.2601 50.15 17.3429Z" fill="black"/>
<path d="M50.1501 18.643C50.1501 18.7258 50.083 18.793 50.0001 18.793C49.9173 18.793 49.8501 18.7258 49.8501 18.643C49.8501 18.5601 49.9173 18.493 50.0001 18.493C50.083 18.493 50.1501 18.5601 50.1501 18.643Z" fill="black"/>
<path d="M50.8 17.9929C50.8 18.0758 50.7328 18.1429 50.65 18.1429C50.5672 18.1429 50.5 18.0758 50.5 17.9929C50.5 17.9101 50.5672 17.8429 50.65 17.8429C50.7328 17.8429 50.8 17.9101 50.8 17.9929Z" fill="black"/>
<path d="M49.4525 17.9929C49.4525 18.0758 49.3854 18.1429 49.3025 18.1429C49.2197 18.1429 49.1525 18.0758 49.1525 17.9929C49.1525 17.9101 49.2197 17.8429 49.3025 17.8429C49.3854 17.8429 49.4525 17.9101 49.4525 17.9929Z" fill="black"/>
<path d="M49.9999 18.1082C50.0827 18.1082 50.1499 18.041 50.1499 17.9582C50.1499 17.8753 50.0827 17.8082 49.9999 17.8082C49.9171 17.8082 49.8499 17.8753 49.8499 17.9582C49.8499 18.041 49.9171 18.1082 49.9999 18.1082Z" stroke="black" stroke-width="0.1"/>
<path d="M22.2876 2.7387C22.3153 2.73421 22.3457 2.72933 22.3786 2.72411C22.572 2.69346 22.8534 2.65093 23.2043 2.60364C23.9062 2.50903 24.8853 2.39551 25.9934 2.31984C28.218 2.16794 30.9306 2.17123 32.9674 2.76704C35.3534 3.46499 37.9505 5.05931 39.9633 6.49271C40.9668 7.20737 41.8197 7.87805 42.4215 8.36995C42.5889 8.50676 42.7368 8.62969 42.8631 8.73584H22.2876V2.7387Z" fill="url(#paint1_linear_516_200)" stroke="black" stroke-width="0.5"/>
<path d="M19.7876 8.73584V3.3195C19.7232 3.33892 19.6516 3.36081 19.5756 3.38458C19.2732 3.47919 18.9076 3.6013 18.6346 3.71625C17.294 4.28071 15.9515 5.61435 14.9297 6.8381C14.4227 7.44524 14.002 8.01638 13.708 8.43573C13.6298 8.54733 13.5606 8.6481 13.5012 8.73584H19.7876Z" fill="url(#paint2_linear_516_200)" stroke="black" stroke-width="0.5"/>
<rect x="24.1376" y="11.7023" width="1.8" height="0.8" fill="#59443D" stroke="black" stroke-width="0.2"/>
<path d="M1.53994 10.4507C1.58855 10.3662 1.63497 10.2918 1.67119 10.2358H3.63321L2.88321 11.7358H1.26346C1.26057 11.6987 1.25784 11.6583 1.25561 11.6157C1.24522 11.4172 1.24718 11.1957 1.28177 11.0401C1.3204 10.8662 1.42884 10.6438 1.53994 10.4507Z" fill="#3D271D" stroke="black" stroke-width="0.5"/>
<path d="M55.3232 12.7358L54.5557 11.2358H58.7498C58.761 11.2822 58.7735 11.3351 58.7864 11.3921C58.8313 11.5906 58.8791 11.8287 58.8983 12.0119C58.9155 12.1751 58.8976 12.4006 58.8714 12.5988C58.8649 12.648 58.8581 12.6943 58.8516 12.7358H55.3232Z" fill="#3D271D" stroke="black" stroke-width="0.5"/>
<path d="M22 10.4929V17.4929" stroke="black" stroke-width="0.2" stroke-linecap="round" stroke-linejoin="round"/>
<path d="M43 10.4929V17.4929" stroke="black" stroke-width="0.2" stroke-linecap="round" stroke-linejoin="round"/>
<path d="M10.7692 15.4929C8 15.4929 8 18.4929 8 18.4929H14C14 18.4929 14 15.4929 10.7692 15.4929Z" fill="black" stroke="black"/>
<path d="M12.35 17.9929C12.35 18.7385 11.7456 19.3429 11 19.3429C10.2544 19.3429 9.65 18.7385 9.65 17.9929C9.65 17.2473 10.2544 16.6429 11 16.6429C11.7456 16.6429 12.35 17.2473 12.35 17.9929Z" fill="#454C5E" stroke="black" stroke-width="0.3"/>
<path d="M12.0499 17.9975C12.0499 18.5774 11.5798 19.0475 10.9999 19.0475C10.42 19.0475 9.9499 18.5774 9.9499 17.9975C9.9499 17.4176 10.42 16.9475 10.9999 16.9475C11.5798 16.9475 12.0499 17.4176 12.0499 17.9975Z" fill="#454C5E" stroke="black" stroke-width="0.1"/>
<path d="M11.15 17.3429C11.15 17.4258 11.0828 17.4929 11 17.4929C10.9172 17.4929 10.85 17.4258 10.85 17.3429C10.85 17.2601 10.9172 17.1929 11 17.1929C11.0828 17.1929 11.15 17.2601 11.15 17.3429Z" fill="black"/>
<path d="M11.1501 18.643C11.1501 18.7258 11.083 18.793 11.0001 18.793C10.9173 18.793 10.8501 18.7258 10.8501 18.643C10.8501 18.5601 10.9173 18.493 11.0001 18.493C11.083 18.493 11.1501 18.5601 11.1501 18.643Z" fill="black"/>
<path d="M11.8 17.9929C11.8 18.0758 11.7328 18.1429 11.65 18.1429C11.5672 18.1429 11.5 18.0758 11.5 17.9929C11.5 17.9101 11.5672 17.8429 11.65 17.8429C11.7328 17.8429 11.8 17.9101 11.8 17.9929Z" fill="black"/>
<path d="M10.4525 17.9929C10.4525 18.0758 10.3854 18.1429 10.3025 18.1429C10.2197 18.1429 10.1525 18.0758 10.1525 17.9929C10.1525 17.9101 10.2197 17.8429 10.3025 17.8429C10.3854 17.8429 10.4525 17.9101 10.4525 17.9929Z" fill="black"/>
<path d="M10.9999 18.1082C11.0827 18.1082 11.1499 18.041 11.1499 17.9582C11.1499 17.8753 11.0827 17.8082 10.9999 17.8082C10.9171 17.8082 10.8499 17.8753 10.8499 17.9582C10.8499 18.041 10.9171 18.1082 10.9999 18.1082Z" stroke="black" stroke-width="0.1"/>
<defs>
<radialGradient id="paint0_radial_516_200" cx="0" cy="0" r="1" gradientUnits="userSpaceOnUse" gradientTransform="translate(30.0376 9.7716) scale(29 9.41587)">
<stop stop-color="#E0B3FF"/>
<stop offset="1" stop-color="#9800FF"/>
</radialGradient>
<linearGradient id="paint1_linear_516_200" x1="33.0376" y1="3.4767" x2="38.273" y2="18.2784" gradientUnits="userSpaceOnUse">
<stop stop-color="#B6D1E1"/>
<stop offset="1" stop-color="#444C51"/>
</linearGradient>
<linearGradient id="paint2_linear_516_200" x1="16.5376" y1="4.90537" x2="17.2569" y2="18.0934" gradientUnits="userSpaceOnUse">
<stop stop-color="#B3CEDD"/>
<stop offset="1" stop-color="#444C51"/>
</linearGradient>
</defs>
</svg>
