<svg width="58" height="18" viewBox="0 0 58 18" fill="none" xmlns="http://www.w3.org/2000/svg">
<path d="M55 16.8593H3C1.48122 16.8593 0.25 15.6281 0.25 14.1093V9.17624C0.25 8.03466 0.951363 7.01684 2.02088 6.63203C4.91664 5.59015 10.4575 3.69028 14.55 2.85429C15.7911 2.60078 16.9423 2.34168 18.0352 2.09573C23.0561 0.96576 26.8444 0.113191 32.446 1.35344C34.681 1.84829 37.2799 3.01132 39.5303 4.18741C41.7768 5.36141 43.6583 6.53904 44.4545 7.05172C44.7507 7.24246 45.0704 7.3872 45.4129 7.47941L55.7149 10.253C56.9156 10.5763 57.75 11.665 57.75 12.9085V14.1093C57.75 15.6281 56.5188 16.8593 55 16.8593Z" fill="url(#paint0_radial_516_202)" stroke="black" stroke-width="0.5"/>
<path d="M21.25 8.14326V3.50794C21.2796 3.50225 21.3124 3.49601 21.3482 3.48927C21.5417 3.45281 21.8234 3.40162 22.1745 3.34295C22.8769 3.22557 23.8566 3.07837 24.9655 2.95914C27.1912 2.71981 29.9073 2.59672 31.9473 3.03685C34.3337 3.5517 37.055 4.93433 39.1933 6.20078C40.2594 6.83218 41.1748 7.43114 41.8235 7.87218C41.9687 7.97096 42.1006 8.06179 42.2178 8.14326H21.25Z" fill="url(#paint1_linear_516_202)" stroke="black" stroke-width="0.5"/>
<path d="M19.75 8.24292V3.81115C19.6826 3.82805 19.607 3.84729 19.5265 3.86829C19.2238 3.9472 18.8571 4.04924 18.5828 4.14549C17.2381 4.61731 15.8959 5.72943 14.8768 6.74656C14.3705 7.2518 13.9504 7.72703 13.657 8.07585C13.6069 8.13541 13.5605 8.19127 13.518 8.24292H19.75Z" fill="url(#paint2_linear_516_202)" stroke="black" stroke-width="0.5"/>
<path d="M0.15 8.25938H2.63787L1.93787 8.95938H0.15V8.25938Z" fill="#1D2E3D" stroke="black" stroke-width="0.3"/>
<path d="M26.174 13.4929V11.3329H28.163V11.7319H26.573V12.2119H27.851V12.6139H26.573V13.0939H28.163V13.4929H26.174ZM28.8639 13.4929C28.7879 13.4929 28.7189 13.4739 28.6569 13.4359C28.5949 13.3979 28.5449 13.3479 28.5069 13.2859C28.4689 13.2239 28.4499 13.1549 28.4499 13.0789V12.1669C28.4499 12.0909 28.4689 12.0219 28.5069 11.9599C28.5449 11.8979 28.5949 11.8479 28.6569 11.8099C28.7189 11.7719 28.7879 11.7529 28.8639 11.7529H30.2139V12.1459H28.8789C28.8689 12.1459 28.8599 12.1499 28.8519 12.1579C28.8459 12.1639 28.8429 12.1719 28.8429 12.1819V13.0639C28.8429 13.0739 28.8459 13.0829 28.8519 13.0909C28.8599 13.0969 28.8689 13.0999 28.8789 13.0999H30.2169V13.4929H28.8639ZM30.9293 13.4929C30.8533 13.4929 30.7843 13.4739 30.7223 13.4359C30.6603 13.3979 30.6103 13.3479 30.5723 13.2859C30.5343 13.2239 30.5153 13.1549 30.5153 13.0789V12.1669C30.5153 12.0909 30.5343 12.0219 30.5723 11.9599C30.6103 11.8979 30.6603 11.8479 30.7223 11.8099C30.7843 11.7719 30.8533 11.7529 30.9293 11.7529H31.8683C31.9443 11.7529 32.0133 11.7719 32.0753 11.8099C32.1393 11.8479 32.1893 11.8979 32.2253 11.9599C32.2633 12.0219 32.2823 12.0909 32.2823 12.1669V13.0789C32.2823 13.1549 32.2633 13.2239 32.2253 13.2859C32.1893 13.3479 32.1403 13.3979 32.0783 13.4359C32.0163 13.4739 31.9463 13.4929 31.8683 13.4929H30.9293ZM30.9443 13.0999H31.8533C31.8633 13.0999 31.8713 13.0969 31.8773 13.0909C31.8853 13.0829 31.8893 13.0739 31.8893 13.0639V12.1819C31.8893 12.1719 31.8853 12.1639 31.8773 12.1579C31.8713 12.1499 31.8633 12.1459 31.8533 12.1459H30.9443C30.9343 12.1459 30.9253 12.1499 30.9173 12.1579C30.9113 12.1639 30.9083 12.1719 30.9083 12.1819V13.0639C30.9083 13.0739 30.9113 13.0829 30.9173 13.0909C30.9253 13.0969 30.9343 13.0999 30.9443 13.0999Z" fill="#24672E"/>
<path d="M33.0245 13.4929C32.9485 13.4929 32.8785 13.4739 32.8145 13.4359C32.7525 13.3979 32.7025 13.3479 32.6645 13.2859C32.6265 13.2219 32.6075 13.1519 32.6075 13.0759V11.7499C32.6075 11.6739 32.6265 11.6049 32.6645 11.5429C32.7025 11.4789 32.7525 11.4279 32.8145 11.3899C32.8785 11.3519 32.9485 11.3329 33.0245 11.3329H34.7615V11.7319H33.1085C33.0765 11.7319 33.0505 11.7409 33.0305 11.7589C33.0125 11.7769 33.0035 11.8029 33.0035 11.8369V12.9889C33.0035 13.0209 33.0125 13.0469 33.0305 13.0669C33.0505 13.0849 33.0765 13.0939 33.1085 13.0939H34.7615V13.4929H33.0245ZM35.0803 13.4929V11.7499C35.0803 11.6739 35.0993 11.6049 35.1373 11.5429C35.1753 11.4789 35.2253 11.4279 35.2873 11.3899C35.3513 11.3519 35.4213 11.3329 35.4973 11.3329H36.8203C36.8963 11.3329 36.9663 11.3519 37.0303 11.3899C37.0943 11.4279 37.1453 11.4789 37.1833 11.5429C37.2213 11.6049 37.2403 11.6739 37.2403 11.7499V13.4929H36.8413V12.7669H35.4763V13.4929H35.0803ZM35.4763 12.3709H36.8413V11.7679C36.8413 11.7579 36.8373 11.7499 36.8293 11.7439C36.8213 11.7359 36.8123 11.7319 36.8023 11.7319H35.5123C35.5023 11.7319 35.4933 11.7359 35.4853 11.7439C35.4793 11.7499 35.4763 11.7579 35.4763 11.7679V12.3709ZM39.3041 13.4929L38.6531 12.7159H39.1721L39.7361 13.3819V13.4929H39.3041ZM37.5821 13.4929V11.3359H39.3221C39.3981 11.3359 39.4681 11.3549 39.5321 11.3929C39.5961 11.4309 39.6471 11.4819 39.6851 11.5459C39.7231 11.6079 39.7421 11.6769 39.7421 11.7529V12.3349C39.7421 12.4109 39.7231 12.4809 39.6851 12.5449C39.6471 12.6089 39.5961 12.6599 39.5321 12.6979C39.4681 12.7339 39.3981 12.7519 39.3221 12.7519L37.9781 12.7549V13.4929H37.5821ZM38.0141 12.3529H39.3041C39.3141 12.3529 39.3231 12.3499 39.3311 12.3439C39.3391 12.3379 39.3431 12.3299 39.3431 12.3199V11.7679C39.3431 11.7579 39.3391 11.7499 39.3311 11.7439C39.3231 11.7359 39.3141 11.7319 39.3041 11.7319H38.0141C38.0041 11.7319 37.9951 11.7359 37.9871 11.7439C37.9811 11.7499 37.9781 11.7579 37.9781 11.7679V12.3199C37.9781 12.3299 37.9811 12.3379 37.9871 12.3439C37.9951 12.3499 38.0041 12.3529 38.0141 12.3529Z" fill="black"/>
<rect x="23.15" y="10.6429" width="1.7" height="0.7" fill="#1D2E3D" stroke="black" stroke-width="0.3"/>
<path d="M7.76923 13.4929C5 13.4929 5 16.4929 5 16.4929H11C11 16.4929 11 13.4929 7.76923 13.4929Z" fill="black" stroke="black"/>
<path d="M9.35 15.9929C9.35 16.7385 8.74558 17.3429 8 17.3429C7.25442 17.3429 6.65 16.7385 6.65 15.9929C6.65 15.2473 7.25442 14.6429 8 14.6429C8.74558 14.6429 9.35 15.2473 9.35 15.9929Z" fill="#454C5E" stroke="black" stroke-width="0.3"/>
<path d="M9.0499 15.9975C9.0499 16.5774 8.5798 17.0475 7.9999 17.0475C7.42 17.0475 6.9499 16.5774 6.9499 15.9975C6.9499 15.4176 7.42 14.9475 7.9999 14.9475C8.5798 14.9475 9.0499 15.4176 9.0499 15.9975Z" fill="#454C5E" stroke="black" stroke-width="0.1"/>
<path d="M8.15 15.3429C8.15 15.4258 8.08284 15.4929 8 15.4929C7.91716 15.4929 7.85 15.4258 7.85 15.3429C7.85 15.2601 7.91716 15.1929 8 15.1929C8.08284 15.1929 8.15 15.2601 8.15 15.3429Z" fill="black"/>
<path d="M8.15015 16.643C8.15015 16.7258 8.08299 16.793 8.00015 16.793C7.9173 16.793 7.85015 16.7258 7.85015 16.643C7.85015 16.5601 7.9173 16.493 8.00015 16.493C8.08299 16.493 8.15015 16.5601 8.15015 16.643Z" fill="black"/>
<path d="M8.8 15.9929C8.8 16.0758 8.73284 16.1429 8.65 16.1429C8.56716 16.1429 8.5 16.0758 8.5 15.9929C8.5 15.9101 8.56716 15.8429 8.65 15.8429C8.73284 15.8429 8.8 15.9101 8.8 15.9929Z" fill="black"/>
<path d="M7.45253 15.9929C7.45253 16.0758 7.38538 16.1429 7.30253 16.1429C7.21969 16.1429 7.15253 16.0758 7.15253 15.9929C7.15253 15.9101 7.21969 15.8429 7.30253 15.8429C7.38538 15.8429 7.45253 15.9101 7.45253 15.9929Z" fill="black"/>
<path d="M7.9999 16.1082C8.08275 16.1082 8.1499 16.041 8.1499 15.9582C8.1499 15.8753 8.08275 15.8082 7.9999 15.8082C7.91706 15.8082 7.8499 15.8753 7.8499 15.9582C7.8499 16.041 7.91706 16.1082 7.9999 16.1082Z" stroke="black" stroke-width="0.1"/>
<path d="M47.7692 13.4929C45 13.4929 45 16.4929 45 16.4929H51C51 16.4929 51 13.4929 47.7692 13.4929Z" fill="black" stroke="black"/>
<path d="M49.35 15.9929C49.35 16.7385 48.7456 17.3429 48 17.3429C47.2544 17.3429 46.65 16.7385 46.65 15.9929C46.65 15.2473 47.2544 14.6429 48 14.6429C48.7456 14.6429 49.35 15.2473 49.35 15.9929Z" fill="#454C5E" stroke="black" stroke-width="0.3"/>
<path d="M49.0499 15.9975C49.0499 16.5774 48.5798 17.0475 47.9999 17.0475C47.42 17.0475 46.9499 16.5774 46.9499 15.9975C46.9499 15.4176 47.42 14.9475 47.9999 14.9475C48.5798 14.9475 49.0499 15.4176 49.0499 15.9975Z" fill="#454C5E" stroke="black" stroke-width="0.1"/>
<path d="M48.15 15.3429C48.15 15.4258 48.0828 15.4929 48 15.4929C47.9172 15.4929 47.85 15.4258 47.85 15.3429C47.85 15.2601 47.9172 15.1929 48 15.1929C48.0828 15.1929 48.15 15.2601 48.15 15.3429Z" fill="black"/>
<path d="M48.1501 16.643C48.1501 16.7258 48.083 16.793 48.0001 16.793C47.9173 16.793 47.8501 16.7258 47.8501 16.643C47.8501 16.5601 47.9173 16.493 48.0001 16.493C48.083 16.493 48.1501 16.5601 48.1501 16.643Z" fill="black"/>
<path d="M48.8 15.9929C48.8 16.0758 48.7328 16.1429 48.65 16.1429C48.5672 16.1429 48.5 16.0758 48.5 15.9929C48.5 15.9101 48.5672 15.8429 48.65 15.8429C48.7328 15.8429 48.8 15.9101 48.8 15.9929Z" fill="black"/>
<path d="M47.4525 15.9929C47.4525 16.0758 47.3854 16.1429 47.3025 16.1429C47.2197 16.1429 47.1525 16.0758 47.1525 15.9929C47.1525 15.9101 47.2197 15.8429 47.3025 15.8429C47.3854 15.8429 47.4525 15.9101 47.4525 15.9929Z" fill="black"/>
<path d="M47.9999 16.1082C48.0827 16.1082 48.1499 16.041 48.1499 15.9582C48.1499 15.8753 48.0827 15.8082 47.9999 15.8082C47.9171 15.8082 47.8499 15.8753 47.8499 15.9582C47.8499 16.041 47.9171 16.1082 47.9999 16.1082Z" stroke="black" stroke-width="0.1"/>
<path d="M21 9.49292V15.4929" stroke="black" stroke-width="0.2" stroke-linecap="round" stroke-linejoin="round"/>
<path d="M42 9.49292V15.4929" stroke="black" stroke-width="0.2" stroke-linecap="round" stroke-linejoin="round"/>
<defs>
<radialGradient id="paint0_radial_516_202" cx="0" cy="0" r="1" gradientUnits="userSpaceOnUse" gradientTransform="translate(29 8.80113) scale(29 8.30821)">
<stop stop-color="#FFF8EA"/>
<stop offset="1" stop-color="#EAFEEB"/>
</radialGradient>
<linearGradient id="paint1_linear_516_202" x1="32" y1="3.49292" x2="35" y2="14.9929" gradientUnits="userSpaceOnUse">
<stop stop-color="#B6D1E1"/>
<stop offset="1" stop-color="#444C51"/>
</linearGradient>
<linearGradient id="paint2_linear_516_202" x1="16.5" y1="5.09253" x2="17" y2="16.0925" gradientUnits="userSpaceOnUse">
<stop stop-color="#B3CEDD"/>
<stop offset="1" stop-color="#444C51"/>
</linearGradient>
</defs>
</svg>
