<svg width="93" height="110" viewBox="0 0 93 110" fill="none" xmlns="http://www.w3.org/2000/svg">
<path d="M16.4761 14.3748L19.3403 6.50289L31.4406 20.0481L22.6194 28.2551L16.4761 14.3748Z" fill="#969696"/>
<path d="M0.640678 8.63862L1.47422 4.34564L19.3407 6.50185L17.3516 15.3734L0.640678 8.63862Z" fill="#969696"/>
<rect width="18.0125" height="5.78034" transform="matrix(0.727489 -0.686119 0.625722 0.780046 22.8794 32.5979)" fill="#454C5E"/>
<rect width="22.541" height="5.78034" transform="matrix(0.727489 -0.686119 0.625722 0.780046 17.4727 29.8965)" fill="#454C5E"/>
<path d="M38.1298 22.9439C38.4943 22.6251 38.9621 22.4495 39.4463 22.4495H90.9998C92.1044 22.4495 92.9998 23.3449 92.9998 24.4495V107.036C92.9998 108.141 92.1044 109.036 90.9998 109.036H26.0513C24.9467 109.036 24.0513 108.141 24.0513 107.036V36.1624C24.0513 35.5855 24.3004 35.0366 24.7347 34.6569L38.1298 22.9439Z" fill="#97005F"/>
<path d="M86.9866 4.81079H92.9995V30.4661H86.9866L80.1719 23.675L86.9866 4.81079Z" fill="#97005F"/>
<rect x="56.1206" width="36.8794" height="9.62072" rx="4" fill="#97005F"/>
<rect width="28.8307" height="8.34892" rx="4" transform="matrix(0.442604 -0.896717 0.864909 0.501929 44.8965 25.8535)" fill="#97005F"/>
</svg>
